<svg xmlns="http://www.w3.org/2000/svg" xmlns:xlink="http://www.w3.org/1999/xlink" viewBox="-8733 5000 50 50">
  <defs>
    <style>
      .cls-1, .cls-3 {
        fill: #fff;
      }

      .cls-1 {
        stroke: #95989a;
      }

      .cls-2 {
        clip-path: url(#clip-path);
      }
    </style>
    <clipPath id="clip-path">
      <rect id="Rectangle_277" data-name="Rectangle 277" class="cls-1" width="50" height="50" transform="translate(438 1047)"/>
    </clipPath>
  </defs>
  <g id="Mask_Group_81" data-name="Mask Group 81" class="cls-2" transform="translate(-9171 3953)">
    <g id="noun_784471_cc" transform="translate(438.062 1047)">
      <path id="Path_556" data-name="Path 556" class="cls-3" d="M23.1,15.132h.391a5.45,5.45,0,0,0,3.75-1.875,5.612,5.612,0,0,0,1.328-3.984,5.487,5.487,0,0,0-9.609-3.125,5.612,5.612,0,0,0-1.328,3.984A5.635,5.635,0,0,0,23.1,15.132ZM20.206,7.163a3.969,3.969,0,0,1,2.656-1.328h.313A3.79,3.79,0,0,1,27,9.429a3.746,3.746,0,0,1-.937,2.813,3.969,3.969,0,0,1-2.656,1.328,3.911,3.911,0,0,1-4.141-3.594A3.746,3.746,0,0,1,20.206,7.163Z" transform="translate(11.679 2.837)"/>
      <path id="Path_557" data-name="Path 557" class="cls-3" d="M31.519,18.038a5.487,5.487,0,0,0-9.609-3.125A5.612,5.612,0,0,0,20.581,18.9a5.438,5.438,0,0,0,5.391,5h.391a5.45,5.45,0,0,0,3.75-1.875A4.792,4.792,0,0,0,31.519,18.038Zm-2.5,2.969a3.969,3.969,0,0,1-2.656,1.328,3.911,3.911,0,0,1-4.141-3.594,3.746,3.746,0,0,1,.938-2.813A3.969,3.969,0,0,1,25.816,14.6h.313a3.79,3.79,0,0,1,3.828,3.594A3.746,3.746,0,0,1,29.019,21.007Z" transform="translate(13.648 8.681)"/>
      <path id="Path_558" data-name="Path 558" class="cls-3" d="M19.632,20.022a5.438,5.438,0,0,0,.391,10.859h.391a5.45,5.45,0,0,0,3.75-1.875,5.612,5.612,0,0,0,1.328-3.984A5.439,5.439,0,0,0,19.632,20.022Zm3.359,7.969a3.969,3.969,0,0,1-2.656,1.328,3.911,3.911,0,0,1-4.141-3.594,3.857,3.857,0,0,1,3.594-4.141H20.1a3.79,3.79,0,0,1,3.828,3.594A3.746,3.746,0,0,1,22.991,27.991Z" transform="translate(9.676 13.337)"/>
      <path id="Path_559" data-name="Path 559" class="cls-3" d="M42.942,4.922c-.625-.7-1.328-1.328-1.953-1.953A11.363,11.363,0,0,0,33.332,0a11.854,11.854,0,0,0-8.75,3.906,12.03,12.03,0,0,0-3.125,9.219c.234,2.813-.469,5.078-1.953,6.562s-3.75,2.188-6.563,2.031H12C10.442,17.5,8.176,12.187,6.223,7.891,2.551,0,1.692,0,1.067,0H.911L.754.078c-.7.234-1.484.547.859,9.3C2.786,13.75,4.5,19.063,6.067,23.281a11.721,11.721,0,0,0-5,5.625A11.094,11.094,0,0,0,3.1,41.25c.313.313.625.7.937,1.016A26.784,26.784,0,0,0,22.942,50h0a27,27,0,0,0,20-45.078ZM1.692,2.5C5.676,6.484,12.707,28.516,12.629,29.688l-1.562.547c-.781-.859-1.719-2.578-3.281-6.953C4.895,15.7,2.161,6.016,1.692,2.5ZM14.036,30.781c1.719.7,4.3,2.266,3.672,3.984-1.406,3.828-1.8,6.094-1.8,7.344-1.484-.625-4.219-1.953-5.078-4.3a8.028,8.028,0,0,1-.156-5.859Zm28.2,8.75a25.231,25.231,0,0,1-19.3,8.906h0A24.991,24.991,0,0,1,5.129,41.094l-.937-.938A9.685,9.685,0,0,1,2.473,29.531a10.748,10.748,0,0,1,4.141-4.766,25.112,25.112,0,0,0,2.969,6.094l-.078.156a9.324,9.324,0,0,0-.078,7.422c2.031,4.922,8.828,6.172,8.828,6.172l-.781-1.562c0-.078-.469-1.641,1.719-7.656,1.016-2.812-2.031-5-4.844-6.094l-.156-.078a23.4,23.4,0,0,0-1.562-5.937c.078,0,4.844.7,7.969-2.5a9.563,9.563,0,0,0,2.344-7.813,10.4,10.4,0,0,1,2.734-8.047,10.8,10.8,0,0,1,7.656-3.359,9.544,9.544,0,0,1,6.563,2.578A21.214,21.214,0,0,1,41.77,6.016,25.268,25.268,0,0,1,42.239,39.531Z" transform="translate(-0.04)"/>
      <rect id="Rectangle_278" data-name="Rectangle 278" class="cls-3" width="69" height="1.5" transform="translate(0.154 49.077) rotate(-45)"/>
    </g>
  </g>
</svg>
