<svg xmlns="http://www.w3.org/2000/svg" xmlns:xlink="http://www.w3.org/1999/xlink" viewBox="-9533 5199 50 50">
  <defs>
    <style>
      .cls-1, .cls-3 {
        fill: #fff;
      }

      .cls-1 {
        stroke: #95989a;
      }

      .cls-2 {
        clip-path: url(#clip-path);
      }
    </style>
    <clipPath id="clip-path">
      <rect id="Rectangle_203" data-name="Rectangle 203" class="cls-1" width="50" height="50" transform="translate(98 1287)"/>
    </clipPath>
  </defs>
  <g id="Mask_Group_76" data-name="Mask Group 76" class="cls-2" transform="translate(-9631 3912)">
    <g id="puble" transform="translate(90.391 1279.35)">
      <path id="Path_528" data-name="Path 528" class="cls-3" d="M32.609,1086.3a25,25,0,1,0,25,25A25,25,0,0,0,32.609,1086.3Zm0,2.174A22.826,22.826,0,1,1,9.783,1111.3,22.823,22.823,0,0,1,32.609,1088.478Zm-8.913,8.7a.987.987,0,0,0-.87,1.087.97.97,0,0,0,1.087,1.087h3.261v13.044H23.913a1.087,1.087,0,1,0,0,2.174h3.261v4.348H23.913a1.087,1.087,0,1,0,0,2.174h3.261v5.435a1.087,1.087,0,0,0,2.174,0v-5.435H39.13a1.087,1.087,0,1,0,0-2.174H29.348v-4.348h8.7a8.7,8.7,0,1,0,0-17.391Zm5.652,2.174h8.7a6.522,6.522,0,0,1,0,13.044h-8.7Z" transform="translate(0 -1078.655)"/>
    </g>
  </g>
</svg>
