<svg xmlns="http://www.w3.org/2000/svg" xmlns:xlink="http://www.w3.org/1999/xlink" viewBox="-9133 5199 50 50">
  <defs>
    <style>
      .cls-1, .cls-3 {
        fill: #fff;
      }

      .cls-1 {
        stroke: #95989a;
      }

      .cls-2 {
        clip-path: url(#clip-path);
      }
    </style>
    <clipPath id="clip-path">
      <rect id="Rectangle_210" data-name="Rectangle 210" class="cls-1" width="50" height="50" transform="translate(498 1287)"/>
    </clipPath>
  </defs>
  <g id="Mask_Group_96" data-name="Mask Group 96" class="cls-2" transform="translate(-9631 3912)">
    <g id="цепь" transform="translate(491.86 1281.021)">
      <path id="Path_596" data-name="Path 596" class="cls-3" d="M16.608,55.959a6.077,6.077,0,0,0,4.4-1.735L31.419,43.813c2.045-2.045,2.293-5.515.558-8.676l-2.169,1.239c1.177,2.107,1.115,4.4-.124,5.7L19.211,52.488c-1.735,1.735-5.082,1.177-7.436-1.239l-.992-.992a7.341,7.341,0,0,1-2.169-4.152,4.03,4.03,0,0,1,.93-3.346L19.954,32.348c1.3-1.3,3.594-1.3,5.7-.124l1.239-2.169c-3.1-1.735-6.569-1.549-8.676.558L7.87,41.086A6.363,6.363,0,0,0,6.2,46.477a10.087,10.087,0,0,0,2.851,5.577l.992.992A9.476,9.476,0,0,0,16.608,55.959Z"/>
      <path id="Path_597" data-name="Path 597" class="cls-3" d="M53.17,9.915l-.992-.992c-3.346-3.346-8.242-3.9-10.969-1.239L30.861,18.1c-2.045,2.045-2.293,5.515-.558,8.676l2.169-1.239c-1.177-2.107-1.115-4.4.124-5.7L43.007,9.419c1.735-1.735,5.082-1.177,7.436,1.239l.992.992A7.341,7.341,0,0,1,53.6,15.8a4.03,4.03,0,0,1-.93,3.346L42.263,29.5c-1.3,1.3-3.594,1.3-5.7.124L35.323,31.79A8.577,8.577,0,0,0,39.6,32.968,5.979,5.979,0,0,0,44,31.233L54.409,20.822a6.363,6.363,0,0,0,1.673-5.391A10.237,10.237,0,0,0,53.17,9.915Z"/>
      <rect id="Rectangle_289" data-name="Rectangle 289" class="cls-3" width="17.971" height="2.479" transform="matrix(0.708, -0.707, 0.707, 0.708, 24.428, 35.905)"/>
    </g>
  </g>
</svg>
