<svg xmlns="http://www.w3.org/2000/svg" xmlns:xlink="http://www.w3.org/1999/xlink" viewBox="-8733 5199 50 50">
  <defs>
    <style>
      .cls-1 {
        fill: #fff;
        stroke: #95989a;
      }

      .cls-2 {
        clip-path: url(#clip-path);
      }

      .cls-3 {
        fill: #fcfcfc;
      }
    </style>
    <clipPath id="clip-path">
      <rect id="Rectangle_213" data-name="Rectangle 213" class="cls-1" width="50" height="50" transform="translate(898 1287)"/>
    </clipPath>
  </defs>
  <g id="Mask_Group_79" data-name="Mask Group 79" class="cls-2" transform="translate(-9631 3912)">
    <g id="monumental" transform="translate(898.079 1287.104)">
      <path id="Path_550" data-name="Path 550" class="cls-3" d="M14.375,44.506H9.952a.653.653,0,0,1-.691-.691V18.8a.653.653,0,0,1,.691-.691h4.561a.653.653,0,0,1,.691.691V43.815A.876.876,0,0,1,14.375,44.506Zm-3.732-1.382h3.179V19.489H10.643Z"/>
      <path id="Path_551" data-name="Path 551" class="cls-3" d="M39.806,44.506H34.831a.653.653,0,0,1-.691-.691V18.8a.653.653,0,0,1,.691-.691h4.976a.653.653,0,0,1,.691.691V43.815A.653.653,0,0,1,39.806,44.506ZM35.66,43.124h3.594V19.489H35.66Z"/>
      <path id="Path_552" data-name="Path 552" class="cls-3" d="M27.091,44.506H22.529a.653.653,0,0,1-.691-.691V18.8a.653.653,0,0,1,.691-.691h4.561a.653.653,0,0,1,.691.691V43.815A.653.653,0,0,1,27.091,44.506Zm-3.732-1.382h3.179V19.489H23.359Z"/>
      <path id="Path_553" data-name="Path 553" class="cls-3" d="M42.433,49.9H7.464a.653.653,0,0,1-.691-.691V45.888a.653.653,0,0,1,.691-.691H42.433a.653.653,0,0,1,.691.691v3.317A.653.653,0,0,1,42.433,49.9ZM8.155,48.514H41.742V46.579H8.155Z"/>
      <path id="Path_554" data-name="Path 554" class="cls-3" d="M45.888,17.415H3.87A.76.76,0,0,1,3.179,17c-.138-.276,0-.553.276-.829L24.464,0a.881.881,0,0,1,.829,0L37.319,9.122a.691.691,0,1,1-.829,1.106L24.879,1.382,5.943,16.033H43.815L39.53,12.854a.691.691,0,1,1,.829-1.106l6.082,4.423c.276.138.276.553.276.829A1.2,1.2,0,0,1,45.888,17.415Z"/>
    </g>
  </g>
</svg>
