<svg xmlns="http://www.w3.org/2000/svg" xmlns:xlink="http://www.w3.org/1999/xlink" viewBox="-9533 5298 50 50">
  <defs>
    <style>
      .cls-1, .cls-3 {
        fill: #fff;
      }

      .cls-1 {
        stroke: #95989a;
      }

      .cls-2 {
        clip-path: url(#clip-path);
      }
    </style>
    <clipPath id="clip-path">
      <rect id="Rectangle_204" data-name="Rectangle 204" class="cls-1" width="50" height="50" transform="translate(98 1477)"/>
    </clipPath>
  </defs>
  <g id="Mask_Group_77" data-name="Mask Group 77" class="cls-2" transform="translate(-9631 3821)">
    <g id="fast" transform="translate(95.935 1474.826)">
      <g id="Group_478" data-name="Group 478" transform="translate(16.137 10.446)">
        <path id="Path_529" data-name="Path 529" class="cls-3" d="M40.573,48.374A17.964,17.964,0,1,1,58.537,30.41,18.021,18.021,0,0,1,40.573,48.374Zm0-33.94A15.975,15.975,0,1,0,56.548,30.41,15.984,15.984,0,0,0,40.573,14.434Z" transform="translate(-22.609 -12.446)"/>
      </g>
      <g id="Group_479" data-name="Group 479" transform="translate(23.287 18.4)">
        <path id="Path_530" data-name="Path 530" class="cls-3" d="M40.014,31.363a.841.841,0,0,1-.4-.066l-10.54-4.574a1.01,1.01,0,0,1,.8-1.856l9.148,3.977V19.962a.994.994,0,1,1,1.989,0V30.369a1.133,1.133,0,0,1-.464.862A1.249,1.249,0,0,1,40.014,31.363Z" transform="translate(-28.471 -18.967)"/>
      </g>
      <g id="Group_480" data-name="Group 480" transform="translate(2.065 27.5)">
        <line id="Line_64" data-name="Line 64" class="cls-3" x1="8.4" transform="translate(0.5 0.815)"/>
        <path id="Path_531" data-name="Path 531" class="cls-3" d="M10.965,29.13h-8.4c-.267,0-.5-.38-.5-.815s.233-.815.5-.815h8.4c.267,0,.5.38.5.815S11.232,29.13,10.965,29.13Z" transform="translate(-2.065 -27.5)"/>
      </g>
      <g id="Group_481" data-name="Group 481" transform="translate(4.565 21.196)">
        <line id="Line_65" data-name="Line 65" class="cls-3" x1="8.4" transform="translate(0.5 0.815)"/>
        <path id="Path_532" data-name="Path 532" class="cls-3" d="M15.041,22.826h-8.4c-.267,0-.5-.38-.5-.815s.233-.815.5-.815h8.4c.267,0,.5.38.5.815S15.308,22.826,15.041,22.826Z" transform="translate(-6.141 -21.196)"/>
      </g>
      <g id="Group_482" data-name="Group 482" transform="translate(3.032 27.5)">
        <line id="Line_66" data-name="Line 66" class="cls-3" x1="8.4" transform="translate(0.5 0.815)"/>
        <path id="Path_533" data-name="Path 533" class="cls-3" d="M12.541,29.13h-8.4c-.267,0-.5-.38-.5-.815s.233-.815.5-.815h8.4c.267,0,.5.38.5.815S12.808,29.13,12.541,29.13Z" transform="translate(-3.641 -27.5)"/>
      </g>
      <g id="Group_483" data-name="Group 483" transform="translate(4.565 33.804)">
        <line id="Line_67" data-name="Line 67" class="cls-3" x1="8.4" transform="translate(0.5 0.815)"/>
        <path id="Path_534" data-name="Path 534" class="cls-3" d="M15.041,35.435h-8.4c-.267,0-.5-.38-.5-.815s.233-.815.5-.815h8.4c.267,0,.5.38.5.815S15.308,35.435,15.041,35.435Z" transform="translate(-6.141 -33.804)"/>
      </g>
    </g>
  </g>
</svg>
