<svg xmlns="http://www.w3.org/2000/svg" viewBox="-10801 14628 20.533 20">
  <defs>
    <style>
      .cls-1 {
        fill: #999;
      }
    </style>
  </defs>
  <g id="noun_870887_cc" transform="translate(-10801 14628)">
    <path id="Path_203" data-name="Path 203" class="cls-1" d="M20.513,5.087V0H12.882a1.842,1.842,0,0,0-.554.144l-.041.021C10.318.923,8.328,1.682,6.359,2.441a2.675,2.675,0,0,0-.636.328C4.39,4.041,3.056,5.313,1.7,6.626L.472,7.795l.615.513c.349.287.677.554,1.005.841.328.267.656.554.985.821L0,14.687l14.933,5.005A3.988,3.988,0,0,0,16.492,20a5.349,5.349,0,0,0,1.805-.328,3.187,3.187,0,0,0,2.236-3.262C20.492,12.615,20.492,8.779,20.513,5.087ZM12.574.656V15.631L6.462,3.015ZM1.354,7.774l4.615-4.39,6.749,13.969Zm-.41,6.585L3.549,10.4c.656.554,1.333,1.108,1.99,1.682,2.482,2.092,5.026,4.246,7.569,6.359ZM19.9,16.472a2.658,2.658,0,0,1-2.01,2.708,3.859,3.859,0,0,1-3.815-.738,2.585,2.585,0,0,1-.821-2.01V.738a.4.4,0,0,1,.021-.144V.574H19.9V4C19.9,8.164,19.918,12.308,19.9,16.472Z"/>
    <path id="Path_204" data-name="Path 204" class="cls-1" d="M74.893,73.3h-.041a1.5,1.5,0,0,0-1.559,1.374,1.3,1.3,0,0,0,.39,1.005,1.546,1.546,0,0,0,1.149.472h.021a1.674,1.674,0,0,0,1.19-.472,1.335,1.335,0,0,0,.41-.964A1.551,1.551,0,0,0,74.893,73.3Zm.718,2.01a1.039,1.039,0,0,1-.738.287h-.021a1.028,1.028,0,0,1-.718-.267.806.806,0,0,1-.226-.574.9.9,0,0,1,.944-.882h.021a1,1,0,0,1,.718.308.835.835,0,0,1,.267.574,1.035,1.035,0,0,1-.246.554Z" transform="translate(-58.257 -58.264)"/>
  </g>
</svg>
