<svg xmlns="http://www.w3.org/2000/svg" viewBox="-10798 14657 15.429 20">
  <defs>
    <style>
      .cls-1 {
        fill: #949799;
      }
    </style>
  </defs>
  <g id="noun_1049969_cc" transform="translate(-10821 14642)">
    <path id="Path_202" data-name="Path 202" class="cls-1" d="M24.429,15A1.432,1.432,0,0,0,23,16.428V33.571A1.432,1.432,0,0,0,24.429,35H37a1.432,1.432,0,0,0,1.429-1.429V20.428a.286.286,0,0,0-.08-.205L33.205,15.08A.286.286,0,0,0,33,15Zm0,.571h8.286v4.857a.286.286,0,0,0,.286.286h4.857V33.571a.849.849,0,0,1-.857.857H24.429a.849.849,0,0,1-.857-.857V16.428A.849.849,0,0,1,24.429,15.571Zm8.857.411,4.161,4.161H33.286ZM26.411,23a.286.286,0,0,0-.268.286v2.286a.286.286,0,0,0,.286.286h.857v3.429h-.857a.286.286,0,0,0-.286.286v2.286a.286.286,0,0,0,.286.286h2.286A.286.286,0,0,0,29,31.857V29.571a.268.268,0,0,0-.286-.286h-.857V25.857h.857A.286.286,0,0,0,29,25.6q0-.013,0-.027v-.857h3.429v.857q0,.013,0,.027a.286.286,0,0,0,.286.259H35a.286.286,0,0,0,.286-.286V23.285A.286.286,0,0,0,35,23H32.714a.286.286,0,0,0-.286.286v.857H29v-.857A.286.286,0,0,0,28.714,23h-2.3Zm.3.571h1.714v1.714H26.714Zm6.286,0h1.714v1.714H33ZM30.393,27a.286.286,0,0,0-.223.411l2.286,4.571a.286.286,0,0,0,.464.08l2.286-2.286a.286.286,0,0,0-.08-.464l-4.571-2.286A.286.286,0,0,0,30.393,27Zm.679.929,3.438,1.723-1.714,1.714Zm-4.357,1.929h1.714v1.714H26.714Z" transform="translate(0 0)"/>
  </g>
</svg>
