<svg xmlns="http://www.w3.org/2000/svg" xmlns:xlink="http://www.w3.org/1999/xlink" viewBox="-13383 5237 88 88">
  <defs>
    <style>
      .cls-1 {
        fill: #3e97db;
      }

      .cls-2, .cls-4 {
        fill: none;
      }

      .cls-2 {
        stroke: #fff;
        stroke-width: 3px;
      }

      .cls-3 {
        stroke: none;
      }

      .cls-5 {
        filter: url(#Ellipse_21);
      }
    </style>
    <filter id="Ellipse_21" x="-13383" y="5237" width="88" height="88" filterUnits="userSpaceOnUse">
      <feOffset dx="3" dy="3" input="SourceAlpha"/>
      <feGaussianBlur stdDeviation="3" result="blur"/>
      <feFlood flood-opacity="0.161"/>
      <feComposite operator="in" in2="blur"/>
      <feComposite in="SourceGraphic"/>
    </filter>
  </defs>
  <g id="Group_576" data-name="Group 576" transform="translate(-13475 3805)">
    <g id="noun_740914_cc" transform="translate(86.45 1426.678)">
      <path id="Path_222" data-name="Path 222" class="cls-1" d="M68.431,45.94l-3.166-4.632.426-5.595a.678.678,0,0,0-.382-.663L60.25,32.623l-2.428-5.059a.673.673,0,0,0-.663-.383l-5.595.426-4.632-3.166a.676.676,0,0,0-.765,0l-4.632,3.166-5.595-.426a.672.672,0,0,0-.663.383L32.85,32.623l-5.059,2.428a.679.679,0,0,0-.383.663l.426,5.595L24.669,45.94a.678.678,0,0,0,0,.765l3.166,4.632-.426,5.595a.679.679,0,0,0,.383.663l5.059,2.428,2.428,5.059a.671.671,0,0,0,.663.383l5.595-.426L46.167,68.2a.677.677,0,0,0,.765,0l4.632-3.166,5.595.426a.659.659,0,0,0,.663-.383l2.428-5.059,5.059-2.428a.678.678,0,0,0,.382-.663l-.426-5.595,3.166-4.632A.676.676,0,0,0,68.431,45.94Zm-4.42,4.829a.679.679,0,0,0-.117.434l.409,5.37L59.449,58.9a.671.671,0,0,0-.318.318L56.8,64.077l-5.371-.409a.674.674,0,0,0-.434.117l-4.445,3.039L42.1,63.784a.679.679,0,0,0-.383-.118l-.052,0-5.37.409-2.33-4.856a.675.675,0,0,0-.318-.318L28.8,56.573l.409-5.37a.679.679,0,0,0-.117-.434L26.05,46.323l3.039-4.446a.682.682,0,0,0,.117-.434l-.409-5.37,4.856-2.33a.675.675,0,0,0,.318-.318l2.33-4.856,5.37.409a.69.69,0,0,0,.434-.117l4.446-3.039L51,28.862a.689.689,0,0,0,.434.117l5.371-.409,2.33,4.856a.671.671,0,0,0,.318.318l4.856,2.33-.409,5.37a.676.676,0,0,0,.117.434l3.039,4.446Z" transform="translate(0)"/>
      <path id="Path_223" data-name="Path 223" class="cls-1" d="M68.3,54.751H67.236a6.011,6.011,0,0,0,.349-4.1A2.487,2.487,0,0,0,66,49.2c-1.263-.41-2.359,1.09-3.615,3.468a9.882,9.882,0,0,1-2.173,2.74,4.127,4.127,0,0,0-.412.4,2.473,2.473,0,0,0-4.343,1.623V65.1a2.473,2.473,0,0,0,4.426,1.522,3.212,3.212,0,0,0,2.267.936h6.469c2.4,0,2.9-1.406,2.9-2.586v-7A3.226,3.226,0,0,0,68.3,54.751ZM57.93,66.222A1.122,1.122,0,0,1,56.81,65.1V57.433a1.12,1.12,0,0,1,2.211-.249,2.407,2.407,0,0,0-.1.823v6.33a3.217,3.217,0,0,0,.118.85A1.119,1.119,0,0,1,57.93,66.222Zm12.233-1.249c0,.8-.247,1.23-1.548,1.23H62.147A1.865,1.865,0,0,1,60.407,65V57.433c0-.032,0-.063,0-.095a2.368,2.368,0,0,1,.685-.9h0A11.329,11.329,0,0,0,63.58,53.3c1.409-2.671,1.955-2.8,2-2.811a1.128,1.128,0,0,1,.753.673c.427,1.043-.207,2.936-.737,3.955l-.517.991H68.3a1.87,1.87,0,0,1,1.867,1.867Z" transform="translate(-16.936 -13.596)"/>
    </g>
    <g class="cls-5" transform="matrix(1, 0, 0, 1, 13475, -3805)">
      <g id="Ellipse_21-2" data-name="Ellipse 21" class="cls-2" transform="translate(-13377 5243)">
        <circle class="cls-3" cx="35" cy="35" r="35"/>
        <circle class="cls-4" cx="35" cy="35" r="33.5"/>
      </g>
    </g>
  </g>
</svg>
