<svg xmlns="http://www.w3.org/2000/svg" xmlns:xlink="http://www.w3.org/1999/xlink" viewBox="-13383 5424 88 88">
  <defs>
    <style>
      .cls-1 {
        fill: #f2f2f2;
      }

      .cls-2 {
        clip-path: url(#clip-path);
      }

      .cls-3 {
        fill: #3e97db;
      }

      .cls-4, .cls-6 {
        fill: none;
      }

      .cls-4 {
        stroke: #fff;
        stroke-width: 3px;
      }

      .cls-5 {
        stroke: none;
      }

      .cls-7 {
        filter: url(#Ellipse_22);
      }
    </style>
    <clipPath id="clip-path">
      <rect id="Rectangle_100" data-name="Rectangle 100" class="cls-1" width="44" height="44" transform="translate(98 1815)"/>
    </clipPath>
    <filter id="Ellipse_22" x="-13383" y="5424" width="88" height="88" filterUnits="userSpaceOnUse">
      <feOffset dx="3" dy="3" input="SourceAlpha"/>
      <feGaussianBlur stdDeviation="3" result="blur"/>
      <feFlood flood-opacity="0.161"/>
      <feComposite operator="in" in2="blur"/>
      <feComposite in="SourceGraphic"/>
    </filter>
  </defs>
  <g id="Group_577" data-name="Group 577" transform="translate(-13475 3805)">
    <g id="Mask_Group_22" data-name="Mask Group 22" class="cls-2" transform="translate(13 -177)">
      <g id="noun_542313_cc" transform="translate(98.068 1815.222)">
        <path id="Path_51" data-name="Path 51" class="cls-3" d="M11.615,1394.348a.646.646,0,0,0-.683.683v2.05H2.05a.646.646,0,0,0-.683.683A22.006,22.006,0,0,0,6.7,1412.659a20.308,20.308,0,0,0,9.7,6.149l.82.82a10.711,10.711,0,0,0,2.05,1.366c0,.137,0,.137.137.137a7.114,7.114,0,0,0,.41.683,5.57,5.57,0,0,1,.273.957c0,.273-.41.683-.82.956l-.82.547c-.137,0-.137.137-.273.137h-.137c-.137.137-.137.273-.273.41a2.528,2.528,0,0,0,0,1.64.477.477,0,0,1,.137.273c0,1.64-.137,2.323-.547,2.87a15.094,15.094,0,0,1-2.05,1.913h0l-.137.137h0v.137h0v2.186h-.547c-.547,0-.82.41-.82.956v2.323a.788.788,0,0,0,.82.82H29.243a.788.788,0,0,0,.82-.82v-2.323c0-.41-.41-.956-.82-.956H28.7v-2.05a.752.752,0,0,0-.41-.683,13.142,13.142,0,0,1-1.913-1.776,5.7,5.7,0,0,1-.547-2.87c0-.137.137-.137.137-.273a2.528,2.528,0,0,0,0-1.64c0-.137-.137-.273-.273-.41l-.273-.273-.82-.547a2.309,2.309,0,0,1-.82-.956,5.567,5.567,0,0,1,.273-.956,1.925,1.925,0,0,1,.41-.683l.137-.137a8.915,8.915,0,0,0,2.05-1.366l.82-.82a20.307,20.307,0,0,0,9.7-6.149,22.006,22.006,0,0,0,5.329-14.895.646.646,0,0,0-.683-.683H32.8v-2.05a.646.646,0,0,0-.683-.683h-20.5Zm.683,1.367H31.429v2.6H12.3Zm-9.565,2.733h8.2v.547h0v.683H5.193a.645.645,0,0,0-.683.683,16.262,16.262,0,0,0,3.826,9.975,20.855,20.855,0,0,0,5.876,5.193c.273.41.41.82.683,1.23a18.916,18.916,0,0,1-7.242-5.193C5.056,1408.7,3.006,1404.323,2.733,1398.448Zm30.062,0h8.2a20.564,20.564,0,0,1-4.919,13.391,18.918,18.918,0,0,1-7.242,5.193,5.539,5.539,0,0,0,.683-1.23,22.89,22.89,0,0,0,5.876-5.193,16.262,16.262,0,0,0,3.826-9.975.645.645,0,0,0-.683-.683H32.8v-1.5Zm-20.5,1.23H31.429c-.137,5.6-1.093,10.8-2.733,14.484a14.405,14.405,0,0,1-3.006,4.51,4.971,4.971,0,0,1-7.379,0,14.405,14.405,0,0,1-3.006-4.51C13.391,1410.472,12.435,1405.28,12.3,1399.677Zm-6.286,1.5h4.919a38.53,38.53,0,0,0,2.186,12.025,23.385,23.385,0,0,1-3.689-3.689A15.745,15.745,0,0,1,6.012,1401.18Zm26.783,0h4.919a15.152,15.152,0,0,1-3.416,8.472,31.216,31.216,0,0,1-3.689,3.689A45.931,45.931,0,0,0,32.8,1401.18Zm-11.752,20.5a3.332,3.332,0,0,0,1.64,0c-.137.41-.41.683-.273,1.23a2.94,2.94,0,0,0,1.366,1.913c.547.41.957.547.957.683v.41h-5.6v-.41c.137,0,.41-.137.957-.547a2.939,2.939,0,0,0,1.366-1.913A4.009,4.009,0,0,0,21.044,1421.677Zm-1.913,5.466H24.6a5.124,5.124,0,0,0,.683,3.143,3.681,3.681,0,0,0,1.093.956H17.491a6.845,6.845,0,0,0,1.093-.956A9.987,9.987,0,0,0,19.131,1427.143Zm-2.733,5.466H27.329v1.366H16.4Zm-1.366,2.733H28.7v1.366H15.031Z" transform="translate(0 -1394.296)"/>
      </g>
    </g>
    <g class="cls-7" transform="matrix(1, 0, 0, 1, 13475, -3805)">
      <g id="Ellipse_22-2" data-name="Ellipse 22" class="cls-4" transform="translate(-13377 5430)">
        <circle class="cls-5" cx="35" cy="35" r="35"/>
        <circle class="cls-6" cx="35" cy="35" r="33.5"/>
      </g>
    </g>
  </g>
</svg>
