<svg xmlns="http://www.w3.org/2000/svg" xmlns:xlink="http://www.w3.org/1999/xlink" viewBox="-12983 5050 88 88">
  <defs>
    <style>
      .cls-1 {
        fill: #f2f2f2;
      }

      .cls-2 {
        clip-path: url(#clip-path);
      }

      .cls-3 {
        fill: #3e97db;
      }

      .cls-4, .cls-6 {
        fill: none;
      }

      .cls-4 {
        stroke: #fff;
        stroke-width: 3px;
      }

      .cls-5 {
        stroke: none;
      }

      .cls-7 {
        filter: url(#Ellipse_25);
      }
    </style>
    <clipPath id="clip-path">
      <rect id="Rectangle_100" data-name="Rectangle 100" class="cls-1" width="44" height="44" transform="translate(98 1815)"/>
    </clipPath>
    <filter id="Ellipse_25" x="-12983" y="5050" width="88" height="88" filterUnits="userSpaceOnUse">
      <feOffset dx="3" dy="3" input="SourceAlpha"/>
      <feGaussianBlur stdDeviation="3" result="blur"/>
      <feFlood flood-opacity="0.161"/>
      <feComposite operator="in" in2="blur"/>
      <feComposite in="SourceGraphic"/>
    </filter>
  </defs>
  <g id="Group_578" data-name="Group 578" transform="translate(-13475 3805)">
    <g id="Mask_Group_16" data-name="Mask Group 16" class="cls-2" transform="translate(414 -551)">
      <path id="noun_843847_cc" class="cls-3" d="M22.691,2.766c-5.815,0-9.679,3.475-10.849,9.537h-3.3a1.447,1.447,0,0,0-1.418,1.064A8.649,8.649,0,0,0,2.34,21.1v.035l-1.1.319v2.836h.39a1.967,1.967,0,0,0-.213.284,2.335,2.335,0,0,0,.213,2.3,2.131,2.131,0,0,0,1.7.922c1.383,3.652,3.049,5.531,4.538,6.524L2.553,36.873A3.3,3.3,0,0,0,.674,39.852v4.822H36.519v-.035h8.155V39.852a3.288,3.288,0,0,0-1.879-2.943l-5.318-2.553c1.489-.993,3.156-2.907,4.538-6.524a2.344,2.344,0,0,0,1.7-.922,2.251,2.251,0,0,0,.213-2.3,1.437,1.437,0,0,0-.177-.319h.39V21.45l-1.1-.319V21.1a8.689,8.689,0,0,0-4.786-7.729A1.523,1.523,0,0,0,36.838,12.3H33.576C32.406,6.276,28.506,2.766,22.691,2.766Zm0,1.418c6.1,0,9.679,4.29,9.821,11.771-4.113.922-7.623-.886-10.707-2.482-2.588-1.347-4.822-2.517-6.914-1.737a4.4,4.4,0,0,0-1.737,1.241C14.076,7.339,17.444,4.184,22.691,4.184ZM16.274,12.87c1.347,0,3.014.851,4.893,1.844,2.553,1.312,5.566,2.907,9.077,2.907a12.5,12.5,0,0,0,2.234-.213,15.534,15.534,0,0,1-.638,3.3c-3.191,8.9-7.446,9.857-9.147,9.857-1.666,0-5.921-.957-9.112-9.857a15.015,15.015,0,0,1-.709-4.255v-.319c.745-1.7,1.56-2.73,2.517-3.085A3.574,3.574,0,0,1,16.274,12.87Zm-7.765.851h3.085a20.08,20.08,0,0,0-.142,2.127v.035a2.574,2.574,0,0,0-1.6,1.383,3.23,3.23,0,0,0,.319,3.191,2.906,2.906,0,0,0,2.234,1.205c.142.39.319.78.461,1.17H2.659v-.355l1.1-.319v-1.1A7.252,7.252,0,0,1,7.02,15v2.766H8.438V13.792A.076.076,0,0,1,8.509,13.721Zm25.28,0h3.049a.076.076,0,0,1,.071.071v3.971h1.418V15a7.252,7.252,0,0,1,3.262,6.063v1.1l1.1.319v.355H32.512c.142-.39.319-.78.461-1.17a2.805,2.805,0,0,0,2.234-1.205,3.23,3.23,0,0,0,.319-3.191,2.574,2.574,0,0,0-1.6-1.383A21.44,21.44,0,0,0,33.789,13.721Zm.142,3.652a5.187,5.187,0,0,1,.319.461,1.867,1.867,0,0,1-.177,1.773,1.255,1.255,0,0,1-.567.461A17.733,17.733,0,0,0,33.931,17.373Zm-22.443.035a14.688,14.688,0,0,0,.461,2.695,1.3,1.3,0,0,1-.638-.5,1.867,1.867,0,0,1-.177-1.773A1.042,1.042,0,0,1,11.488,17.409ZM3.333,24.251H13.508a17.483,17.483,0,0,0,3.12,4.716c-2.163,4.467-4.645,5-5.6,5-1.205,0-4.219-.709-6.488-7.091l-.177-.532-.567.071a1,1,0,0,1-.957-.355.983.983,0,0,1-.106-.886.755.755,0,0,1,.638-.39Zm28.541,0H42.05l-.035.532a.69.69,0,0,1,.638.39.919.919,0,0,1-1.064,1.241l-.567-.071-.177.532c-2.3,6.417-5.318,7.091-6.488,7.091-.957,0-3.439-.532-5.6-5A19.707,19.707,0,0,0,31.874,24.251ZM27.691,30A11.768,11.768,0,0,0,29,32.087l-1.7-.815v-.993C27.442,30.172,27.549,30.1,27.691,30Zm-9.963,0a2.484,2.484,0,0,0,.355.284v.993l-1.631.78A15.627,15.627,0,0,0,17.728,30Zm1.773,1.17a6.651,6.651,0,0,0,6.382,0v.78l-2.34,2.234-.035.035a1.135,1.135,0,0,1-1.631,0L19.5,31.945Zm-1.241,1.6,2.553,2.446a3.2,3.2,0,0,0,.355.319l-.886,7.729H14.891V42.192H13.473v1.064H10.282V38.4a2.842,2.842,0,0,1,1.6-2.553Zm8.828,0,6.382,3.085a2.819,2.819,0,0,1,1.6,2.553v4.857H31.91V42.192H30.492v1.064H25.1l-.922-7.729a1.524,1.524,0,0,0,.355-.319Zm9.183,2.234a1.9,1.9,0,0,1-.461,1.1,4.392,4.392,0,0,0-.638-.78A5.294,5.294,0,0,0,36.271,34.994ZM9.112,35.03a5.078,5.078,0,0,0,1.028.284,4.392,4.392,0,0,0-.638.78A2.144,2.144,0,0,1,9.112,35.03Zm28.4.851,4.68,2.269a1.935,1.935,0,0,1,1.064,1.7V43.22h-1.95v-.6H39.887v.6H36.519V38.4a4.4,4.4,0,0,0-.106-.957A3.238,3.238,0,0,0,37.512,35.881Zm-29.641.035a3.169,3.169,0,0,0,1.1,1.56,3.786,3.786,0,0,0-.106.886v4.893H5.5v-.6H4.077v.6H2.127V39.887a1.935,1.935,0,0,1,1.064-1.7Zm14.678.071h.213l.851,7.268H21.7Z" transform="translate(97.326 1813.28)"/>
    </g>
    <g class="cls-7" transform="matrix(1, 0, 0, 1, 13475, -3805)">
      <g id="Ellipse_25-2" data-name="Ellipse 25" class="cls-4" transform="translate(-12977 5056)">
        <circle class="cls-5" cx="35" cy="35" r="35"/>
        <circle class="cls-6" cx="35" cy="35" r="33.5"/>
      </g>
    </g>
  </g>
</svg>
