<svg xmlns="http://www.w3.org/2000/svg" xmlns:xlink="http://www.w3.org/1999/xlink" viewBox="-12983 5424 88 88">
  <defs>
    <style>
      .cls-1 {
        fill: #f2f2f2;
      }

      .cls-2 {
        clip-path: url(#clip-path);
      }

      .cls-3 {
        fill: #3e97db;
      }

      .cls-4, .cls-6 {
        fill: none;
      }

      .cls-4 {
        stroke: #fff;
        stroke-width: 3px;
      }

      .cls-5 {
        stroke: none;
      }

      .cls-7 {
        filter: url(#Ellipse_23);
      }
    </style>
    <clipPath id="clip-path">
      <rect id="Rectangle_100" data-name="Rectangle 100" class="cls-1" width="44" height="44" transform="translate(98 1815)"/>
    </clipPath>
    <filter id="Ellipse_23" x="-12983" y="5424" width="88" height="88" filterUnits="userSpaceOnUse">
      <feOffset dx="3" dy="3" input="SourceAlpha"/>
      <feGaussianBlur stdDeviation="3" result="blur"/>
      <feFlood flood-opacity="0.161"/>
      <feComposite operator="in" in2="blur"/>
      <feComposite in="SourceGraphic"/>
    </filter>
  </defs>
  <g id="Group_580" data-name="Group 580" transform="translate(-13475 3805)">
    <g id="Mask_Group_24" data-name="Mask Group 24" class="cls-2" transform="translate(414 -177)">
      <g id="noun_29981_cc" transform="translate(95.647 1812.627)">
        <path id="Path_58" data-name="Path 58" class="cls-3" d="M33.544,12.793A5.117,5.117,0,0,0,29.1,18.505a5.113,5.113,0,0,0,5.078,4.443,2.784,2.784,0,0,0,.635-.049,5.117,5.117,0,0,0,4.443-5.713,5.155,5.155,0,0,0-5.078-4.492C33.983,12.744,33.739,12.744,33.544,12.793Zm3.516,4.687a2.851,2.851,0,0,1-.586,2.148,2.82,2.82,0,0,1-1.9,1.074h-.342a2.9,2.9,0,0,1-2.881-2.539,2.851,2.851,0,0,1,.586-2.148,3.024,3.024,0,0,1,1.9-1.074h.342A2.985,2.985,0,0,1,37.059,17.48Z"/>
        <path id="Path_59" data-name="Path 59" class="cls-3" d="M2.93,29.1a1.1,1.1,0,0,0,1.514-.293c.244-.293,1.465-1.758,3.906-.1,3.369,2.344,6.25.977,7.373-.1,2.148-1.758,4.687-.1,4.931.1a6.642,6.642,0,0,0,3.76,1.269,5.384,5.384,0,0,0,3.613-1.367,3.65,3.65,0,0,1,1.367-.684,4.083,4.083,0,0,1,3.564.781,6.235,6.235,0,0,0,7.666-.049h0a3.042,3.042,0,0,1,3.906-.049A1.11,1.11,0,1,0,45.946,26.9a5.188,5.188,0,0,0-6.738.049h0c-2.148,1.807-4.687.146-4.98-.049a7.7,7.7,0,0,0-2.637-1.172.487.487,0,0,0-.2-.244s-1.514-1.465-2.637-2.637c-1.318-1.416-2.832-5.762-2.295-7.275.439-1.123,2.2-2,4-2.978A25.9,25.9,0,0,0,34.325,10.3a2.855,2.855,0,0,0,.83-3.76,3.137,3.137,0,0,0-4.1-1.269l-.293.1c-4.394,1.758-9.668,4.1-11.328,6.494-.879,1.318-.879,3.174-.879,5.029,0,1.318,0,2.783-.439,3.418-.635.977-5.273,3.076-7.763,4.248-.977.439-1.855.83-2.49,1.172a.487.487,0,0,0-.244.2,4.252,4.252,0,0,0-2.2-.146,4.781,4.781,0,0,0-2.832,1.758A1.21,1.21,0,0,0,2.93,29.1Zm8.4-2.49c4.346-2,7.763-3.662,8.691-5.029.781-1.172.83-2.881.83-4.639,0-1.416,0-3.027.537-3.76.977-1.416,4.443-3.369,10.3-5.713l.293-.1c.732-.293,1.172-.049,1.367.293a.647.647,0,0,1-.244.879,23.555,23.555,0,0,1-3.564,2.1c-2.246,1.172-4.346,2.246-5.078,4.15-.977,2.539,1.025,7.763,2.734,9.619.488.488,1.025,1.025,1.465,1.514a6.423,6.423,0,0,0-2.1,1.123l-.049.049c-.2.2-1.953,1.709-4.59-.1a6.215,6.215,0,0,0-7.715.1l-.049.049a3.313,3.313,0,0,1-4.15.146A8.491,8.491,0,0,1,11.328,26.61Z"/>
        <path id="Path_60" data-name="Path 60" class="cls-3" d="M39.208,33.788h0c-2.148,1.807-4.687.146-4.98-.049a6.215,6.215,0,0,0-7.715.1l-.049.049c-.049.1-1.855,1.807-4.541-.146a6.215,6.215,0,0,0-7.715.1l-.049.049c-.2.2-1.953,1.709-4.59-.1a5.4,5.4,0,0,0-4.2-1.123,4.781,4.781,0,0,0-2.832,1.758,1.1,1.1,0,0,0,.293,1.514,1.251,1.251,0,0,0,1.611-.293c.244-.293,1.465-1.758,3.906-.1a6.642,6.642,0,0,0,3.76,1.269,5.384,5.384,0,0,0,3.613-1.367c2.148-1.807,4.687-.1,4.931.1,3.369,2.344,6.25.977,7.373-.1a4.638,4.638,0,0,1,1.367-.684,4.083,4.083,0,0,1,3.564.781,6.235,6.235,0,0,0,7.666-.049h0a3.042,3.042,0,0,1,3.906-.049,1.11,1.11,0,0,0,1.416-1.709A5.2,5.2,0,0,0,39.208,33.788Z"/>
        <path id="Path_61" data-name="Path 61" class="cls-3" d="M39.208,40.77h0c-2.148,1.807-4.687.146-4.98-.049a6.3,6.3,0,0,0-7.715.049l-.049.049c-.049.049-1.855,1.758-4.541-.146a6.3,6.3,0,0,0-7.715.049l-.049.049c-.2.2-1.953,1.709-4.59-.1a5.4,5.4,0,0,0-4.2-1.123,4.781,4.781,0,0,0-2.832,1.758,1.1,1.1,0,0,0,.293,1.514,1.155,1.155,0,0,0,1.562-.244c.244-.293,1.465-1.758,3.906-.1a6.642,6.642,0,0,0,3.76,1.269,5.384,5.384,0,0,0,3.613-1.367c2.148-1.807,4.687-.1,4.931.1,3.369,2.344,6.25.977,7.373-.1a4.638,4.638,0,0,1,1.367-.684,4.083,4.083,0,0,1,3.564.781,6.235,6.235,0,0,0,7.666-.049h0a3.042,3.042,0,0,1,3.906-.049A1.11,1.11,0,0,0,45.9,40.673,5.185,5.185,0,0,0,39.208,40.77Z"/>
      </g>
    </g>
    <g class="cls-7" transform="matrix(1, 0, 0, 1, 13475, -3805)">
      <g id="Ellipse_23-2" data-name="Ellipse 23" class="cls-4" transform="translate(-12977 5430)">
        <circle class="cls-5" cx="35" cy="35" r="35"/>
        <circle class="cls-6" cx="35" cy="35" r="33.5"/>
      </g>
    </g>
  </g>
</svg>
