<svg xmlns="http://www.w3.org/2000/svg" xmlns:xlink="http://www.w3.org/1999/xlink" viewBox="-12583 5237 88 88">
  <defs>
    <style>
      .cls-1 {
        fill: #3e97db;
      }

      .cls-2, .cls-4 {
        fill: none;
      }

      .cls-2 {
        stroke: #fff;
        stroke-width: 3px;
      }

      .cls-3 {
        stroke: none;
      }

      .cls-5 {
        filter: url(#Ellipse_27);
      }
    </style>
    <filter id="Ellipse_27" x="-12583" y="5237" width="88" height="88" filterUnits="userSpaceOnUse">
      <feOffset dx="3" dy="3" input="SourceAlpha"/>
      <feGaussianBlur stdDeviation="3" result="blur"/>
      <feFlood flood-opacity="0.161"/>
      <feComposite operator="in" in2="blur"/>
      <feComposite in="SourceGraphic"/>
    </filter>
  </defs>
  <g id="Group_582" data-name="Group 582" transform="translate(-13475 3805)">
    <g id="guarantee" transform="translate(911.9 1451.9)">
      <path id="Path_216" data-name="Path 216" class="cls-1" d="M43.18,1.1H.836A.791.791,0,0,0,.1,1.834V26.6a.791.791,0,0,0,.736.734H10.41a.734.734,0,1,0,0-1.468H1.573V2.568H42.627V26.054H33.79a.734.734,0,1,0,0,1.468h9.573a.791.791,0,0,0,.736-.734V1.834C43.916,1.283,43.732,1.1,43.18,1.1Z" transform="translate(0)"/>
      <path id="Path_217" data-name="Path 217" class="cls-1" d="M3.836,5.568H10.28a.791.791,0,0,0,.736-.734A.791.791,0,0,0,10.28,4.1H3.836a.791.791,0,0,0-.736.734A.673.673,0,0,0,3.836,5.568Z" transform="translate(2.523 2.505)"/>
      <path id="Path_218" data-name="Path 218" class="cls-1" d="M3.836,7.568H14.882a.791.791,0,0,0,.736-.734.791.791,0,0,0-.736-.734H3.836a.791.791,0,0,0-.736.734A.673.673,0,0,0,3.836,7.568Z" transform="translate(2.523 4.174)"/>
      <path id="Path_219" data-name="Path 219" class="cls-1" d="M25.262,15.056V13.038A2.9,2.9,0,0,0,22.317,10.1H20.292L19,8.817A3.054,3.054,0,0,0,16.794,7.9h0a2.961,2.961,0,0,0-2.025.917l-1.289,1.1H11.455a2.9,2.9,0,0,0-2.946,2.936v2.018L7.221,16.157A2.942,2.942,0,0,0,6.3,18.175a2.942,2.942,0,0,0,.921,2.018l1.289,1.284V23.5a2.926,2.926,0,0,0,1.473,2.569L7.589,31.019a.557.557,0,0,0,0,.734.957.957,0,0,0,.736.367l3.314-.183,2.025,3.119c.184.183.368.367.552.367s.552-.183.552-.367l2.025-3.119,2.025,3.119c.184.183.368.367.552.367h0c.184,0,.552-.183.552-.367l2.025-3.119,3.5.367a1.4,1.4,0,0,0,.736-.367.557.557,0,0,0,0-.734L23.79,26.249a2.926,2.926,0,0,0,1.473-2.569V21.661l1.289-1.284a2.942,2.942,0,0,0,.921-2.018,3.38,3.38,0,0,0-.921-2.2ZM21.58,30.469a.957.957,0,0,0-.736.367L19.187,33.4l-1.841-3.3c-.184-.183-.368-.367-.552-.367s-.552.183-.552.367l-2.025,3.119-1.657-2.569a.957.957,0,0,0-.736-.367l-2.393.367,2.209-4.587h1.473a10.509,10.509,0,0,1,1.473,1.468,3.455,3.455,0,0,0,4.787,0,13.792,13.792,0,0,1,1.289-1.468h1.473l2.209,4.587ZM25.446,19.46l-1.473,1.468a.673.673,0,0,0-.184.55v2.385a1.856,1.856,0,0,1-.736,1.284c-.184,0-.184-.183-.368-.183a6.988,6.988,0,0,0-1.473-.183c-.552,0-.921,0-1.1.183-.736.183-1.657,1.468-1.841,1.835a1.781,1.781,0,0,1-2.577,0,4.892,4.892,0,0,0-2.025-1.835,2.667,2.667,0,0,0-1.289-.367,6.988,6.988,0,0,0-1.473.183c-.184,0-.184,0-.368.183A1.544,1.544,0,0,1,9.8,23.68V21.294a.673.673,0,0,0-.184-.55L8.141,19.276a1.345,1.345,0,0,1-.368-1.1,2.6,2.6,0,0,1,.368-1.1l1.473-1.468a.673.673,0,0,0,.184-.55V12.671A1.581,1.581,0,0,1,11.271,11.2h2.393a.678.678,0,0,0,.552-.183l1.473-1.468c.184-.367.552-.367,1.1-.367a2.623,2.623,0,0,1,1.1.367l1.473,1.468a.678.678,0,0,0,.552.183h2.393a1.45,1.45,0,0,1,1.473,1.468v2.385a.673.673,0,0,0,.184.55l1.473,1.468a1.345,1.345,0,0,1,.368,1.1A2.646,2.646,0,0,1,25.446,19.46Z" transform="translate(5.214 5.677)"/>
      <path id="Path_220" data-name="Path 220" class="cls-1" d="M13.934,11.3a4.22,4.22,0,1,0,0,8.44,4.22,4.22,0,1,0,0-8.44Zm0,7.156A2.752,2.752,0,1,1,16.7,15.7,2.827,2.827,0,0,1,13.934,18.456Z" transform="translate(8.074 8.516)"/>
    </g>
    <g class="cls-5" transform="matrix(1, 0, 0, 1, 13475, -3805)">
      <g id="Ellipse_27-2" data-name="Ellipse 27" class="cls-2" transform="translate(-12577 5243)">
        <circle class="cls-3" cx="35" cy="35" r="35"/>
        <circle class="cls-4" cx="35" cy="35" r="33.5"/>
      </g>
    </g>
  </g>
</svg>
