<svg xmlns="http://www.w3.org/2000/svg" xmlns:xlink="http://www.w3.org/1999/xlink" viewBox="-12583 5424 88 88">
  <defs>
    <style>
      .cls-1 {
        fill: #f2f2f2;
      }

      .cls-2 {
        clip-path: url(#clip-path);
      }

      .cls-3, .cls-4, .cls-6 {
        fill: none;
      }

      .cls-3 {
        stroke: #3e97db;
        stroke-width: 1.588px;
      }

      .cls-4 {
        stroke: #fff;
        stroke-width: 3px;
      }

      .cls-5 {
        stroke: none;
      }

      .cls-7 {
        filter: url(#Ellipse_26);
      }
    </style>
    <clipPath id="clip-path">
      <rect id="Rectangle_150" data-name="Rectangle 150" class="cls-1" width="44" height="44" transform="translate(98 1815)"/>
    </clipPath>
    <filter id="Ellipse_26" x="-12583" y="5424" width="88" height="88" filterUnits="userSpaceOnUse">
      <feOffset dx="3" dy="3" input="SourceAlpha"/>
      <feGaussianBlur stdDeviation="3" result="blur"/>
      <feFlood flood-opacity="0.161"/>
      <feComposite operator="in" in2="blur"/>
      <feComposite in="SourceGraphic"/>
    </filter>
  </defs>
  <g id="Group_584" data-name="Group 584" transform="translate(-13475 3805)">
    <g id="Mask_Group_26" data-name="Mask Group 26" class="cls-2" transform="translate(813 -177)">
      <g id="control" transform="translate(80.289 1797.209)">
        <g id="Group_119" data-name="Group 119">
          <path id="Path_221" data-name="Path 221" class="cls-3" d="M36.534,59.329a1.735,1.735,0,0,1-2.065,1.032l-2.7-.874A1.576,1.576,0,0,1,30.736,57.5l.477-1.588a2.409,2.409,0,0,0-.794-2.462l-.874-.635a2.411,2.411,0,0,0-2.621,0l-1.35.953a1.628,1.628,0,0,1-2.224-.4l-1.668-2.3A1.544,1.544,0,0,1,22,48.845l1.35-1.032a2.409,2.409,0,0,0,.794-2.462l-.318-1.032a2.221,2.221,0,0,0-2.065-1.509H20.094a1.593,1.593,0,0,1-1.588-1.588V38.361a1.593,1.593,0,0,1,1.588-1.588h1.668a2.336,2.336,0,0,0,2.065-1.509l.318-1.032a2.409,2.409,0,0,0-.794-2.462L22,30.736a1.554,1.554,0,0,1-.318-2.224l1.668-2.3a1.642,1.642,0,0,1,2.224-.4l1.35.953a2.581,2.581,0,0,0,2.621,0l.874-.635a2.226,2.226,0,0,0,.794-2.462l-.477-1.588a1.607,1.607,0,0,1,1.032-1.986l2.7-.874a1.662,1.662,0,0,1,2.065,1.032l.556,1.588a2.431,2.431,0,0,0,2.065,1.509h1.112a2.336,2.336,0,0,0,2.065-1.509l.556-1.588a1.735,1.735,0,0,1,2.065-1.032l2.7.874a1.576,1.576,0,0,1,1.032,1.986l-.477,1.588A2.409,2.409,0,0,0,49,26.13l.874.635a2.411,2.411,0,0,0,2.621,0l1.35-.953a1.628,1.628,0,0,1,2.224.4l1.668,2.3a1.544,1.544,0,0,1-.318,2.224l-1.35,1.032a2.409,2.409,0,0,0-.794,2.462l.318,1.032a2.221,2.221,0,0,0,2.065,1.509h1.668a1.593,1.593,0,0,1,1.588,1.588V41.22a1.593,1.593,0,0,1-1.588,1.588H57.661A2.336,2.336,0,0,0,55.6,44.318l-.318,1.032a2.409,2.409,0,0,0,.794,2.462l1.35,1.032a1.554,1.554,0,0,1,.318,2.224l-1.668,2.3a1.642,1.642,0,0,1-2.224.4l-1.43-1.032a2.581,2.581,0,0,0-2.621,0l-.874.635a2.226,2.226,0,0,0-.794,2.462l.477,1.588a1.607,1.607,0,0,1-1.032,1.986l-2.621.953a1.662,1.662,0,0,1-2.065-1.032l-.556-1.588a2.431,2.431,0,0,0-2.065-1.509H39.155A2.336,2.336,0,0,0,37.09,57.74Zm3.177-9.292A10.325,10.325,0,1,0,29.386,39.711,10.3,10.3,0,0,0,39.711,50.036Z"/>
        </g>
      </g>
    </g>
    <g id="Group_583" data-name="Group 583">
      <g class="cls-7" transform="matrix(1, 0, 0, 1, 13475, -3805)">
        <g id="Ellipse_26-2" data-name="Ellipse 26" class="cls-4" transform="translate(-12577 5430)">
          <circle class="cls-5" cx="35" cy="35" r="35"/>
          <circle class="cls-6" cx="35" cy="35" r="33.5"/>
        </g>
      </g>
    </g>
  </g>
</svg>
