<svg xmlns="http://www.w3.org/2000/svg" xmlns:xlink="http://www.w3.org/1999/xlink" viewBox="-7246 4897 50 50">
  <defs>
    <style>
      .cls-1, .cls-3 {
        fill: #fff;
      }

      .cls-1 {
        stroke: #95989a;
      }

      .cls-2 {
        clip-path: url(#clip-path);
      }
    </style>
    <clipPath id="clip-path">
      <rect id="Rectangle_211" data-name="Rectangle 211" class="cls-1" width="50" height="50" transform="translate(838 1087)"/>
    </clipPath>
  </defs>
  <g id="Mask_Group_46" data-name="Mask Group 46" class="cls-2" transform="translate(-8084 3810)">
    <path id="noun_843847_cc" class="cls-3" d="M70.7,49.272c-6.646,0-10.918,3.956-12.342,10.759H54.715A1.541,1.541,0,0,0,53.133,61.3a9.661,9.661,0,0,0-5.38,8.7h0l-1.266.316v3.165h.475l-.316.316a2.149,2.149,0,0,0,.316,2.532,2.935,2.935,0,0,0,1.9,1.108c1.582,4.114,3.481,6.329,5.063,7.437l-6.013,2.848a3.69,3.69,0,0,0-2.057,3.323v5.538h50V91.2A3.69,3.69,0,0,0,93.8,87.88l-6.013-2.848c1.741-1.108,3.639-3.323,5.063-7.437a2.935,2.935,0,0,0,1.9-1.108,2.478,2.478,0,0,0,.316-2.532.552.552,0,0,0-.158-.316h.475V70.475L93.639,70h0a9.661,9.661,0,0,0-5.38-8.7,1.879,1.879,0,0,0-1.582-1.266H83.038C81.614,53.228,77.184,49.272,70.7,49.272Zm0,1.582c6.962,0,10.918,4.905,11.076,13.291-4.589,1.108-8.7-.949-12.184-2.848-3.006-1.582-5.538-2.848-7.753-1.9a4.32,4.32,0,0,0-1.9,1.424C60.886,54.494,64.684,50.854,70.7,50.854Zm-7.278,9.81c1.582,0,3.481.949,5.538,2.057,2.848,1.424,6.329,3.323,10.285,3.323a15.777,15.777,0,0,0,2.532-.316,14.722,14.722,0,0,1-.791,3.8C77.342,79.652,72.595,80.759,70.7,80.759s-6.646-1.108-10.285-11.234a14.916,14.916,0,0,1-.791-4.747v-.316c.791-1.9,1.741-3.165,2.848-3.481A1.338,1.338,0,0,1,63.418,60.665Zm-8.861.949h3.481a11.976,11.976,0,0,0-.158,2.373h0a2.876,2.876,0,0,0-1.741,1.582,3.517,3.517,0,0,0,2.848,5.063,10.9,10.9,0,0,0,.475,1.266H47.911v-.316l1.266-.316V70a8.05,8.05,0,0,1,3.639-6.8v3.165H54.4l.158-4.747Zm28.639,0h3.481a.155.155,0,0,1,.158.158V66.2h1.582V63.038a8.259,8.259,0,0,1,3.639,6.8v1.266l1.266.316V71.9H81.772c.158-.475.316-.791.475-1.266a2.851,2.851,0,0,0,2.532-1.424,3.4,3.4,0,0,0,.316-3.639,2.876,2.876,0,0,0-1.741-1.582A12.792,12.792,0,0,0,83.2,61.614Zm.158,4.272c.158.158.316.316.316.475a2.366,2.366,0,0,1-.158,2.057c-.158.158-.316.475-.633.475A9.935,9.935,0,0,0,83.354,65.886Zm-25.475,0c.158,1.108.316,2.057.475,3.006a1.58,1.58,0,0,1-.791-.633,1.946,1.946,0,0,1-.158-2.057C57.563,66.2,57.722,66.044,57.88,65.886ZM48.7,73.639H60.253a22.592,22.592,0,0,0,3.481,5.38c-2.373,5.063-5.222,5.7-6.329,5.7-1.424,0-4.747-.791-7.278-8.07l-.158-.633-.633.158a1.436,1.436,0,0,1-1.108-.475,1.046,1.046,0,0,1-.158-.949.731.731,0,0,1,.791-.475Zm32.278,0H92.532v.633a.87.87,0,0,1,.791.475c.158.316.158.791-.158.949a1.436,1.436,0,0,1-1.108.475l-.633-.158-.158.633c-2.532,7.278-6.013,8.07-7.278,8.07-1.108,0-3.956-.633-6.329-5.7A22.725,22.725,0,0,0,80.981,73.639Zm-4.747,6.487A13.39,13.39,0,0,0,77.658,82.5l-1.9-.949V80.443A1.217,1.217,0,0,0,76.234,80.127ZM65,80.127c.158.158.316.158.475.316v1.108l-1.9.949A23.22,23.22,0,0,0,65,80.127Zm2.057,1.266a7.7,7.7,0,0,0,3.639.949,8.139,8.139,0,0,0,3.639-.949v.949l-2.69,2.532h0a1.444,1.444,0,0,1-1.9,0l-2.69-2.532Zm-1.424,1.9,2.848,2.848c.158.158.316.316.475.316l-.949,8.7H61.835V93.892H60.253v1.266H56.614V89.62a3.262,3.262,0,0,1,1.741-2.848Zm9.968,0,7.278,3.481A3.151,3.151,0,0,1,84.62,89.62v5.538H80.981V93.892H79.4v1.266H73.228l-.949-8.7c.158-.158.316-.158.475-.316Zm10.443,2.532a1.8,1.8,0,0,1-.475,1.266,1.907,1.907,0,0,0-.791-.791A10.9,10.9,0,0,1,86.044,85.823Zm-30.854,0a4.025,4.025,0,0,0,1.108.316,2.778,2.778,0,0,0-.633.791A7.715,7.715,0,0,1,55.19,85.823Zm32.278.949,5.38,2.532a2.056,2.056,0,0,1,1.266,1.9V95H91.9v-.633H90.316V95h-3.8V89.462a2.693,2.693,0,0,0-.158-1.108A4.039,4.039,0,0,0,87.468,86.772Zm-33.544,0a3.318,3.318,0,0,0,1.266,1.741c0,.316-.158.633-.158.949V95h-3.8v-.633H49.652V95H47.437V91.2A2.056,2.056,0,0,1,48.7,89.3Zm16.614.158H70.7l.949,8.228H69.43Z" transform="translate(792.146 1039.073)"/>
  </g>
</svg>
