<svg xmlns="http://www.w3.org/2000/svg" xmlns:xlink="http://www.w3.org/1999/xlink" viewBox="-7646 4998 50 50">
  <defs>
    <style>
      .cls-1, .cls-3 {
        fill: #fff;
      }

      .cls-1 {
        stroke: #95989a;
      }

      .cls-2 {
        clip-path: url(#clip-path);
      }
    </style>
    <clipPath id="clip-path">
      <rect id="Rectangle_206" data-name="Rectangle 206" class="cls-1" width="50" height="50" transform="translate(498 1147)"/>
    </clipPath>
  </defs>
  <g id="Mask_Group_95" data-name="Mask Group 95" class="cls-2" transform="translate(-8144 3851)">
    <g id="carcas" transform="translate(498 1147.025)">
      <path id="Path_593" data-name="Path 593" class="cls-3" d="M49.55,28.771a.64.64,0,0,0-.7.2l-7.892,9.491H40.21V29.321a.541.541,0,0,0-.4-.549.64.64,0,0,0-.7.2l-8.492,10.24a.567.567,0,0,0-.15.4v9.74a.577.577,0,0,0,.6.6h9.74a.45.45,0,0,0,.25-.05.049.049,0,0,0,.05-.05c.05-.05.1-.05.15-.1h0L49.8,39.461a.567.567,0,0,0,.15-.4v-9.74A.584.584,0,0,0,49.55,28.771ZM38.961,31.019v8.042a.577.577,0,0,0,.6.6h.6V48.7H31.668V39.81Zm9.79,7.842-7.343,8.791V39.81l.2-.25a.512.512,0,0,0,.25-.3l6.893-8.292Z"/>
      <path id="Path_594" data-name="Path 594" class="cls-3" d="M49.85.3A.049.049,0,0,0,49.8.25a.5.5,0,0,0-.25-.2H49.5a.184.184,0,0,0-.15-.05h-5a.633.633,0,0,0-.45.2l-9.69,11.688H30.37v-3.9L36.114,1a.628.628,0,0,0,.1-.649.762.762,0,0,0-.6-.35h-4.9a.633.633,0,0,0-.45.2L22.577,9.54V.949a.541.541,0,0,0-.4-.549.64.64,0,0,0-.7.2L9.89,14.835a.567.567,0,0,0-.15.4v9.141H1.9L12.737,11.089a.567.567,0,0,0,.15-.4V.949a.541.541,0,0,0-.4-.549.64.64,0,0,0-.7.2L.15,14.835a.567.567,0,0,0-.15.4v9.74a.71.71,0,0,0,.1.3.049.049,0,0,0,.05.05.5.5,0,0,0,.25.2h0c.05,0,.15.05.2.05H9.341L.15,36.763c-.05.05-.05.05-.05.1s-.05.05-.05.1h0V49.3a.577.577,0,0,0,.6.6H18.931a.45.45,0,0,0,.25-.05l.05-.05c.05-.05.1-.05.15-.1h0L49.85,13.137a.567.567,0,0,0,.15-.4V.6Zm-5.195.9h3.4L18.581,36.563h-3.3ZM10.989,15.435,21.379,2.7V10.49L10.989,23.277Zm-9.79,0L11.638,2.7V10.49L1.2,23.277ZM31.069,1.2h3.3L5.195,36.563H1.9ZM1.2,37.762h4.3a.633.633,0,0,0,.45-.2L29.121,9.441v3.047a.577.577,0,0,0,.6.6h3.447L13.536,36.763a.628.628,0,0,0-.1.649.614.614,0,0,0,.549.35h4.246V48.7H1.2ZM48.751,12.587,19.481,47.652V37.363L48.751,2.3Z"/>
      <path id="Path_595" data-name="Path 595" class="cls-3" d="M13.986,38.961c-2.4,0-4.246,1.349-4.246,3.047s1.9,3.047,4.246,3.047,4.246-1.349,4.246-3.047C18.282,40.31,16.384,38.961,13.986,38.961Zm0,4.9c-1.648,0-3.047-.849-3.047-1.848s1.4-1.848,3.047-1.848,3.047.849,3.047,1.848S15.684,43.856,13.986,43.856Z"/>
    </g>
  </g>
</svg>
