<svg xmlns="http://www.w3.org/2000/svg" xmlns:xlink="http://www.w3.org/1999/xlink" viewBox="-7246 4998 50 50">
  <defs>
    <style>
      .cls-1, .cls-3 {
        fill: #fff;
      }

      .cls-1 {
        stroke: #95989a;
      }

      .cls-2 {
        clip-path: url(#clip-path);
      }
    </style>
    <clipPath id="clip-path">
      <rect id="Rectangle_208" data-name="Rectangle 208" class="cls-1" width="50" height="50" transform="translate(898 1047)"/>
    </clipPath>
  </defs>
  <g id="Mask_Group_84" data-name="Mask Group 84" class="cls-2" transform="translate(-8144 3951)">
    <g id="labirint" transform="translate(898.011 1047.007)">
      <path id="Path_569" data-name="Path 569" class="cls-3" d="M36.936,64.224a.9.9,0,0,0-.9.9v48.191a.911.911,0,0,0,.9.912H65.028a.924.924,0,0,0,.912-.912.911.911,0,0,0-.912-.9H55.86v-6.262a.911.911,0,0,0-.9-.912.924.924,0,0,0-.912.912v6.262H44.542V100.587a.914.914,0,0,0-.912-.912.9.9,0,0,0-.9.912v11.827h-4.9V75.881h4.9V88.049a.9.9,0,0,0,.9.9.911.911,0,0,0,.912-.9V75.881h14.78v4.685a.9.9,0,0,0,.912.9.888.888,0,0,0,.9-.9v-5.6a.9.9,0,0,0-.9-.9h-22.4v-8.04h6.045a.9.9,0,0,0,0-1.793l-6.942-.015Zm20.748,0a.911.911,0,0,0-.912.9.9.9,0,0,0,.912.9h6.447V81.045a.9.9,0,0,0,.9.9.911.911,0,0,0,.912-.9V66.017H84.215V91.79H71.4a.9.9,0,0,0,0,1.793H84.215V99.66H77.242a.911.911,0,0,0-.912.9.9.9,0,0,0,.912.9h6.973V112.4h-5.4a.9.9,0,1,0,0,1.793h6.293a.9.9,0,0,0,.9-.9V65.136a.9.9,0,0,0-.9-.912ZM78,71.1a.9.9,0,0,0-.9.9V85.39H70.424V79.283a.9.9,0,0,0-.912-.9.888.888,0,0,0-.9.9V85.39H48.361a.9.9,0,0,0-.9.9v6.246H41.249a.911.911,0,0,0-.912.9.9.9,0,0,0,.912.9h6.215v6.246a.9.9,0,0,0,.9.9H70.5v7.313a.911.911,0,0,0,.9.912.924.924,0,0,0,.912-.912v-8.21a.911.911,0,0,0-.9-.912H63.559V93.429a.911.911,0,0,0-.912-.9.9.9,0,0,0-.9.9V99.66H49.273V87.2h4.777v9.153a.911.911,0,0,0,.912.9.9.9,0,0,0,.9-.9V87.2H78a.911.911,0,0,0,.912-.9V72.016A.9.9,0,0,0,78,71.1Z" transform="translate(-36.034 -64.23)"/>
    </g>
  </g>
</svg>
