<svg xmlns="http://www.w3.org/2000/svg" xmlns:xlink="http://www.w3.org/1999/xlink" viewBox="-8046 5298 50 50">
  <defs>
    <style>
      .cls-1, .cls-3 {
        fill: #fff;
      }

      .cls-1 {
        stroke: #95989a;
      }

      .cls-2 {
        clip-path: url(#clip-path);
      }
    </style>
    <clipPath id="clip-path">
      <rect id="Rectangle_204" data-name="Rectangle 204" class="cls-1" width="50" height="50" transform="translate(98 1447)"/>
    </clipPath>
  </defs>
  <g id="Mask_Group_83" data-name="Mask Group 83" class="cls-2" transform="translate(-8144 3851)">
    <g id="wrong" transform="translate(93.059 1441.506)">
      <path id="Path_566" data-name="Path 566" class="cls-3" d="M32.027,11.657a2.384,2.384,0,0,0-2.1-1.142,2.453,2.453,0,0,0-2.1,1.142L5.348,46.628a2.487,2.487,0,0,0,2.1,3.846H52.456a2.505,2.505,0,0,0,2.1-3.846ZM53,48.31a.66.66,0,0,1-.6.361H7.451a.66.66,0,0,1-.6-.361.744.744,0,0,1,0-.721L29.383,12.618a.6.6,0,0,1,.6-.3.811.811,0,0,1,.6.3L53.057,47.589A.691.691,0,0,1,53,48.31Z"/>
      <path id="Path_567" data-name="Path 567" class="cls-3" d="M30.344,38.7l.6-12.558H28.481l.6,12.558Z"/>
      <path id="Path_568" data-name="Path 568" class="cls-3" d="M29.683,40.619q-1.442,0-1.442,1.622a1.468,1.468,0,0,0,.421,1.2,1.413,1.413,0,0,0,1.021.361,1.363,1.363,0,0,0,1.082-.421,1.527,1.527,0,0,0,.361-1.2,1.794,1.794,0,0,0-.361-1.2A1.568,1.568,0,0,0,29.683,40.619Z"/>
    </g>
  </g>
</svg>
