<svg xmlns="http://www.w3.org/2000/svg" xmlns:xlink="http://www.w3.org/1999/xlink" viewBox="-11125 5722 72 72">
  <defs>
    <style>
      .cls-1 {
        fill: #fff;
        stroke: #95989a;
      }

      .cls-2 {
        fill: #fcfcfc;
      }

      .cls-3 {
        clip-path: url(#clip-path);
      }

      .cls-4 {
        fill: #3e97db;
      }

      .cls-5 {
        filter: url(#Subtraction_14);
      }

      .cls-6 {
        filter: url(#Ellipse_68);
      }
    </style>
    <filter id="Ellipse_68" x="-11125" y="5722" width="72" height="72" filterUnits="userSpaceOnUse">
      <feOffset dy="3" input="SourceAlpha"/>
      <feGaussianBlur stdDeviation="3" result="blur"/>
      <feFlood flood-opacity="0.161"/>
      <feComposite operator="in" in2="blur"/>
      <feComposite in="SourceGraphic"/>
    </filter>
    <clipPath id="clip-path">
      <rect id="Rectangle_237" data-name="Rectangle 237" class="cls-1" width="30" height="30" transform="translate(510 1843)"/>
    </clipPath>
    <filter id="Subtraction_14" x="-11123.001" y="5723.999" width="68.001" height="68" filterUnits="userSpaceOnUse">
      <feOffset dy="3" input="SourceAlpha"/>
      <feGaussianBlur stdDeviation="3" result="blur-2"/>
      <feFlood flood-opacity="0.161"/>
      <feComposite operator="in" in2="blur-2"/>
      <feComposite in="SourceGraphic"/>
    </filter>
  </defs>
  <g id="Group_441" data-name="Group 441" transform="translate(-11599 3807)">
    <g class="cls-6" transform="matrix(1, 0, 0, 1, 11599, -3807)">
      <circle id="Ellipse_68-2" data-name="Ellipse 68" class="cls-2" cx="27" cy="27" r="27" transform="translate(-11116 5728)"/>
    </g>
    <g id="Mask_Group_57" data-name="Mask Group 57" class="cls-3" transform="translate(-15 90)">
      <g id="noun_907786_cc_1_" data-name="noun_907786_cc (1)" transform="translate(510 1843)">
        <g id="Group_406" data-name="Group 406">
          <g id="Group_405" data-name="Group 405">
            <path id="Path_441" data-name="Path 441" class="cls-4" d="M16.2,4H12.8l-.5-1h4.4Zm1.75-1.3A.47.47,0,0,0,17.5,2h-6a.505.505,0,0,0-.45.7l1,2a.48.48,0,0,0,.45.3h4a.48.48,0,0,0,.45-.3Z"/>
            <path id="Path_442" data-name="Path 442" class="cls-4" d="M8.5,3h12A1.473,1.473,0,0,0,22,1.5,1.473,1.473,0,0,0,20.5,0H8.5A1.473,1.473,0,0,0,7,1.5,1.5,1.5,0,0,0,8.5,3Zm0-1A.538.538,0,0,1,8,1.5.538.538,0,0,1,8.5,1h12a.538.538,0,0,1,.5.5.538.538,0,0,1-.5.5Z"/>
            <path id="Path_443" data-name="Path 443" class="cls-4" d="M9.5,26v2.95a.049.049,0,0,1-.05.05H2.6a.175.175,0,0,1-.1-.05V26Zm-.05,4a1.056,1.056,0,0,0,1.05-1.05V25h-9v3.95A1.1,1.1,0,0,0,2.6,30Z"/>
            <path id="Path_444" data-name="Path 444" class="cls-4" d="M10.95,25H1.1a.175.175,0,0,1-.1-.05V23.1a.108.108,0,0,1,.1-.1h9.85a.049.049,0,0,1,.05.05V24.9C11,24.95,11,25,10.95,25Zm0,1A1.056,1.056,0,0,0,12,24.95V23.1a1.056,1.056,0,0,0-1.05-1.05H1.1a1.028,1.028,0,0,0-1.1,1V24.9A1.11,1.11,0,0,0,1.1,26Z"/>
            <path id="Path_445" data-name="Path 445" class="cls-4" d="M26,8.5h2.95a.049.049,0,0,1,.05.05V15.4a.049.049,0,0,1-.05.05H26Zm4,.05A1.056,1.056,0,0,0,28.95,7.5H25v9h3.95A1.056,1.056,0,0,0,30,15.45Z"/>
            <path id="Path_446" data-name="Path 446" class="cls-4" d="M25,7.05V16.9a.049.049,0,0,1-.05.05H23.1a.049.049,0,0,1-.05-.05V7.05A.049.049,0,0,1,23.1,7h1.85A.049.049,0,0,1,25,7.05Zm1,0A1.056,1.056,0,0,0,24.95,6H23.1A1.1,1.1,0,0,0,22,7.05V16.9a1.056,1.056,0,0,0,1.05,1.05H24.9a1.056,1.056,0,0,0,1.05-1.05V7.05Z"/>
            <path id="Path_447" data-name="Path 447" class="cls-4" d="M16.5,7.5a15.044,15.044,0,0,0-15,15V23h9v-.5a6.018,6.018,0,0,1,6-6H23v-9Zm5.5,8H16.5a7,7,0,0,0-7,6.5h-7a14.009,14.009,0,0,1,14-13.5H22Z"/>
            <path id="Path_448" data-name="Path 448" class="cls-4" d="M16.5,8.5h1A.472.472,0,0,0,18,8V4.5a.472.472,0,0,0-.5-.5h-6a.472.472,0,0,0-.5.5V8.9a.467.467,0,0,0,.65.45A14.562,14.562,0,0,1,16.5,8.5ZM12,5h5V7.5h-.5a15.114,15.114,0,0,0-4.5.7Z"/>
          </g>
        </g>
      </g>
    </g>
    <g class="cls-5" transform="matrix(1, 0, 0, 1, 11599, -3807)">
      <path id="Subtraction_14-2" data-name="Subtraction 14" class="cls-2" d="M-4185-3742.6a25.028,25.028,0,0,1-25-25,25.029,25.029,0,0,1,25-25,25.028,25.028,0,0,1,25,25A25.028,25.028,0,0,1-4185-3742.6Zm0-46.226a21.25,21.25,0,0,0-21.226,21.227A21.25,21.25,0,0,0-4185-3746.373a21.25,21.25,0,0,0,21.227-21.227A21.25,21.25,0,0,0-4185-3788.826Z" transform="translate(-6904 9522.6)"/>
    </g>
  </g>
</svg>
