<svg xmlns="http://www.w3.org/2000/svg" xmlns:xlink="http://www.w3.org/1999/xlink" viewBox="-3425 7528 50 50">
  <defs>
    <style>
      .cls-1 {
        fill: #fff;
        stroke: #95989a;
      }

      .cls-2 {
        clip-path: url(#clip-path);
      }

      .cls-3, .cls-4 {
        fill: #3e97db;
      }

      .cls-3 {
        fill-rule: evenodd;
      }
    </style>
    <clipPath id="clip-path">
      <rect id="Rectangle_294" data-name="Rectangle 294" class="cls-1" width="50" height="50" transform="translate(258 1459)"/>
    </clipPath>
  </defs>
  <g id="Mask_Group_110" data-name="Mask Group 110" class="cls-2" transform="translate(-3683 6069)">
    <g id="_1" data-name="1" transform="translate(669.886 -677.525)">
      <path id="Path_653" data-name="Path 653" class="cls-3" d="M9.565,405.656a.893.893,0,0,0,.911.221l4.453-1.465c.358.179,1.773.875,2.759,1.286h0c.964.4,2.409.875,2.789,1.008l2.118,4.183a.893.893,0,0,0,.8.491h4.569a.893.893,0,0,0,.8-.5l2.023-4.179c.375-.135,1.875-.68,2.847-1.083.951-.394,2.359-1.058,2.714-1.224l4.462,1.465a.893.893,0,0,0,.915-.216l3.234-3.234a.893.893,0,0,0,.213-.928l-1.528-4.376c.175-.361.865-1.784,1.274-2.75s.934-2.44,1.065-2.805l4.187-2.114a.893.893,0,0,0,.491-.8v-4.574a.893.893,0,0,0-.5-.8l-4.183-2.019c-.136-.375-.67-1.844-1.065-2.8s-1.075-2.408-1.24-2.764l1.469-4.467a.893.893,0,0,0-.22-.911l-3.234-3.235a.893.893,0,0,0-.928-.212l-4.376,1.524c-.364-.176-1.781-.861-2.75-1.265s-2.459-.916-2.839-1.049l-2.019-4.176a.893.893,0,0,0-.806-.509H23.394a.893.893,0,0,0-.8.49l-2.107,4.175c-.384.125-1.916.6-2.938,1.024-.97.4-2.284,1.1-2.652,1.286l-4.376-1.524a.893.893,0,0,0-.928.213l-3.234,3.234a.894.894,0,0,0-.216.915l1.465,4.454c-.179.36-.914,1.833-1.331,2.864-.384.946-.823,2.328-.949,2.723L1.169,383.25a.893.893,0,0,0-.5.8v4.574a.893.893,0,0,0,.491.8l4.184,2.122c.125.375.625,1.825,1.024,2.78.408.988,1.1,2.419,1.278,2.785L6.123,401.49a.893.893,0,0,0,.213.928Zm.875-1.648L7.987,401.55l1.461-4.192a.893.893,0,0,0-.041-.683s-.989-2.054-1.394-3.034c-.391-.948-1.115-3.03-1.115-3.03a.894.894,0,0,0-.44-.509L2.45,388.076v-3.463l4-1.932a.892.892,0,0,0,.458-.533s.668-2.067,1.036-2.975c.4-.986,1.436-3.075,1.436-3.075a.894.894,0,0,0,.046-.679l-1.4-4.267,2.452-2.452,4.191,1.461a.893.893,0,0,0,.708-.047s1.956-1.015,2.868-1.394c.955-.4,3.15-1.1,3.15-1.1a.894.894,0,0,0,.529-.445l2.023-4.013h3.467l1.931,4a.893.893,0,0,0,.509.449s2.125.75,3.1,1.153,3.009,1.375,3.009,1.375a.893.893,0,0,0,.679.04l4.191-1.461,2.452,2.452-1.406,4.271a.893.893,0,0,0,.038.653s.949,2.036,1.356,3.022,1.17,3.075,1.17,3.075a.894.894,0,0,0,.454.5l4,1.931v3.463l-4.012,2.023a.892.892,0,0,0-.441.5s-.75,2.1-1.156,3.055-1.39,3-1.39,3a.893.893,0,0,0-.041.683l1.461,4.192-2.452,2.452-4.266-1.4a.893.893,0,0,0-.658.04s-2,.94-2.972,1.34c-.988.409-3.117,1.178-3.117,1.178a.892.892,0,0,0-.5.454l-1.926,4H23.958l-2.023-4.013a.894.894,0,0,0-.518-.44s-2.089-.708-3.025-1.1v-.008c-.959-.4-2.984-1.394-2.984-1.394a.893.893,0,0,0-.674-.047Z" transform="translate(-412.552 1775.145)"/>
      <path id="Path_654" data-name="Path 654" class="cls-4" d="M5.523,363.358a.893.893,0,0,0-.893.893v9.822a.89.89,0,0,0,.008.1l.893,8.037a.893.893,0,0,0,.886.791h3.57a.893.893,0,0,0,.886-.793l.893-8.037a.892.892,0,0,0,.008-.1v-9.822a.893.893,0,0,0-.893-.893Zm.893,1.786H9.987v8.876l-.8,7.192H7.215l-.8-7.192Z" transform="translate(-395.092 1783.874)"/>
      <path id="Path_655" data-name="Path 655" class="cls-4" d="M7.838,367.493a3.125,3.125,0,1,0,3.125,3.125A3.125,3.125,0,0,0,7.838,367.493Zm0,1.786A1.339,1.339,0,1,1,6.5,370.619a1.318,1.318,0,0,1,1.338-1.339Z" transform="translate(-394.728 1802.068)"/>
    </g>
  </g>
</svg>
