<svg xmlns="http://www.w3.org/2000/svg" xmlns:xlink="http://www.w3.org/1999/xlink" viewBox="-3225 7528 50 50">
  <defs>
    <style>
      .cls-1 {
        fill: #fff;
        stroke: #95989a;
      }

      .cls-2 {
        clip-path: url(#clip-path);
      }

      .cls-3 {
        fill: #2aa5e7;
      }
    </style>
    <clipPath id="clip-path">
      <rect id="Rectangle_294" data-name="Rectangle 294" class="cls-1" width="50" height="50" transform="translate(258 1459)"/>
    </clipPath>
  </defs>
  <g id="Mask_Group_112" data-name="Mask Group 112" class="cls-2" transform="translate(-3483 6069)">
    <path id="_2" data-name="2" class="cls-3" d="M29.972,3.125a16.321,16.321,0,0,0-16.3,16.3A14.146,14.146,0,0,0,27.794,33.554,11.971,11.971,0,0,0,39.75,21.6a9.8,9.8,0,0,0-9.782-9.782,7.618,7.618,0,0,0-7.609,7.609,5.441,5.441,0,0,0,5.435,5.435h1.724l-2.494,2.494A1.088,1.088,0,0,0,28.561,28.9l4.348-4.347a.956.956,0,0,0,.065-.1.79.79,0,0,0,.229-.547.811.811,0,0,0,.026-.125,1.053,1.053,0,0,0-.059-.288,1.2,1.2,0,0,0-.024-.125,1.05,1.05,0,0,0-.25-.375l-4.335-4.335a1.087,1.087,0,1,0-1.538,1.537l2.489,2.489H27.8a3.265,3.265,0,0,1-3.261-3.261A5.441,5.441,0,0,1,29.972,14a7.618,7.618,0,0,1,7.609,7.609A9.8,9.8,0,0,1,27.8,31.391,11.971,11.971,0,0,1,15.843,19.435,14.146,14.146,0,0,1,29.968,5.31a18.478,18.478,0,1,1,0,36.957A27.2,27.2,0,0,1,2.8,15.081a1.088,1.088,0,0,0-2.174,0A29.375,29.375,0,0,0,29.973,44.429a20.652,20.652,0,1,0,0-41.3Z" transform="translate(257.375 1460.223)"/>
  </g>
</svg>
