<svg xmlns="http://www.w3.org/2000/svg" xmlns:xlink="http://www.w3.org/1999/xlink" viewBox="-3025 7528 50 50">
  <defs>
    <style>
      .cls-1 {
        fill: #fff;
        stroke: #95989a;
      }

      .cls-2 {
        clip-path: url(#clip-path);
      }

      .cls-3 {
        fill: #1faded;
      }
    </style>
    <clipPath id="clip-path">
      <rect id="Rectangle_294" data-name="Rectangle 294" class="cls-1" width="50" height="50" transform="translate(258 1459)"/>
    </clipPath>
  </defs>
  <g id="Mask_Group_114" data-name="Mask Group 114" class="cls-2" transform="translate(-3283 6069)">
    <path id="_3" data-name="3" class="cls-3" d="M22.916,1202.922A26.157,26.157,0,0,0,11.44,1205.3c-3.011,1.5-5.191,3.75-5.191,6.527v26.663c0,2.75,2.156,4.991,5.175,6.5a26.2,26.2,0,0,0,11.492,2.4,27.577,27.577,0,0,0,9.965-1.736,16.107,16.107,0,1,0,7.257-30.486c-.191,0-.384.01-.572.017v-3.351c0-2.775-2.161-5.021-5.174-6.527a26.161,26.161,0,0,0-11.476-2.375Zm0,2.24a24.287,24.287,0,0,1,10.521,2.17c2.617,1.309,3.941,2.976,3.941,4.5a6.585,6.585,0,0,1-3.941,4.479,24.289,24.289,0,0,1-10.521,2.17,24.287,24.287,0,0,1-10.521-2.17c-1.94-1-3.7-2.536-3.941-4.479,0-1.52,1.322-3.187,3.941-4.5a24.285,24.285,0,0,1,10.521-2.17Zm-14.444,11.18a12.913,12.913,0,0,0,2.969,2,26.157,26.157,0,0,0,11.476,2.375,31.069,31.069,0,0,0,5.486-.486,16.164,16.164,0,0,0-3.125,4.809c-.769.068-1.555.125-2.361.125a24.249,24.249,0,0,1-10.5-2.17c-2.612-1.306-3.941-2.949-3.941-4.5Zm31.666,1.041a13.875,13.875,0,1,1-9.825,4.064,13.889,13.889,0,0,1,9.825-4.064Zm-31.666,5.625a12.86,12.86,0,0,0,2.951,1.98,26.19,26.19,0,0,0,11.492,2.4c.542,0,1.069-.025,1.6-.052a16.124,16.124,0,0,0-.486,3.941c0,.18.011.36.018.539-.375.015-.75.018-1.125.018a24.251,24.251,0,0,1-10.5-2.17c-2.612-1.306-3.941-2.951-3.941-4.5Zm0,6.666a12.862,12.862,0,0,0,2.951,1.979,26.186,26.186,0,0,0,11.492,2.4c.456,0,.909-.014,1.354-.035a15.985,15.985,0,0,0,1.406,4.34c-.9.089-1.812.139-2.76.139a24.249,24.249,0,0,1-10.5-2.17c-2.612-1.306-3.941-2.951-3.941-4.5Zm0,6.666a12.853,12.853,0,0,0,2.951,1.979,26.194,26.194,0,0,0,11.492,2.4,31.61,31.61,0,0,0,4.01-.243,16.138,16.138,0,0,0,3.524,3.646,26.989,26.989,0,0,1-7.535,1.041,24.251,24.251,0,0,1-10.5-2.17c-2.615-1.306-3.941-2.951-3.941-4.5Z" transform="translate(251.751 258.847)"/>
  </g>
</svg>
