<svg xmlns="http://www.w3.org/2000/svg" xmlns:xlink="http://www.w3.org/1999/xlink" viewBox="-2825 7528 50 50">
  <defs>
    <style>
      .cls-1 {
        fill: #fff;
        stroke: #95989a;
      }

      .cls-2 {
        clip-path: url(#clip-path);
      }

      .cls-3 {
        fill: #14b4f3;
      }
    </style>
    <clipPath id="clip-path">
      <rect id="Rectangle_294" data-name="Rectangle 294" class="cls-1" width="50" height="50" transform="translate(258 1459)"/>
    </clipPath>
  </defs>
  <g id="Mask_Group_115" data-name="Mask Group 115" class="cls-2" transform="translate(-3083 6069)">
    <g id="_4" data-name="4" transform="translate(379.822 -688.127)">
      <path id="Path_635" data-name="Path 635" class="cls-3" d="M10.753,8.4a1.082,1.082,0,0,1-.941-.543L7.641,4.1A1.087,1.087,0,0,1,9.522,3.009l2.172,3.762A1.087,1.087,0,0,1,10.753,8.4Z" transform="translate(-117.332 2147.9)"/>
      <path id="Path_636" data-name="Path 636" class="cls-3" d="M23.244,30.035a1.082,1.082,0,0,1-.941-.543l-2.172-3.761a1.087,1.087,0,0,1,1.881-1.087l2.172,3.762a1.087,1.087,0,0,1-.941,1.624Z" transform="translate(-108.1 2163.891)"/>
      <path id="Path_637" data-name="Path 637" class="cls-3" d="M7.315,11.839a1.073,1.073,0,0,1-.543-.146L3.009,9.52A1.087,1.087,0,1,1,4.1,7.639L7.858,9.812a1.087,1.087,0,0,1-.543,2.027Z" transform="translate(-121.049 2151.618)"/>
      <path id="Path_638" data-name="Path 638" class="cls-3" d="M28.949,24.33a1.073,1.073,0,0,1-.543-.146l-3.762-2.172A1.087,1.087,0,1,1,25.73,20.13L29.492,22.3a1.087,1.087,0,0,1-.543,2.027Z" transform="translate(-105.059 2160.85)"/>
      <path id="Path_639" data-name="Path 639" class="cls-3" d="M3.552,24.33A1.087,1.087,0,0,1,3.009,22.3L6.771,20.13a1.087,1.087,0,0,1,1.087,1.881L4.1,24.185A1.073,1.073,0,0,1,3.552,24.33Z" transform="translate(-121.049 2160.85)"/>
      <path id="Path_640" data-name="Path 640" class="cls-3" d="M25.186,11.839a1.087,1.087,0,0,1-.543-2.027l3.762-2.172A1.087,1.087,0,1,1,29.492,9.52l-3.761,2.173a1.073,1.073,0,0,1-.545.145Z" transform="translate(-105.059 2151.617)"/>
      <path id="Path_641" data-name="Path 641" class="cls-3" d="M8.581,30.034a1.073,1.073,0,0,1-.543-.146,1.087,1.087,0,0,1-.4-1.484l2.172-3.762a1.087,1.087,0,1,1,1.881,1.087L9.522,29.491A1.082,1.082,0,0,1,8.581,30.034Z" transform="translate(-117.332 2163.891)"/>
      <path id="Path_642" data-name="Path 642" class="cls-3" d="M21.072,8.4a1.073,1.073,0,0,1-.543-.146,1.087,1.087,0,0,1-.4-1.484L22.3,3.008a1.087,1.087,0,0,1,1.881,1.087L22.012,7.857a1.087,1.087,0,0,1-.941.543Z" transform="translate(-108.099 2147.901)"/>
      <path id="Path_643" data-name="Path 643" class="cls-3" d="M15.451,7.141a1.087,1.087,0,0,1-1.087-1.087V1.711a1.087,1.087,0,1,1,2.172,0V6.056A1.087,1.087,0,0,1,15.451,7.141Z" transform="translate(-112.255 2146.54)"/>
      <path id="Path_644" data-name="Path 644" class="cls-3" d="M6.056,16.537H1.711a1.087,1.087,0,1,1,0-2.172H6.056a1.087,1.087,0,1,1,0,2.172Z" transform="translate(-122.41 2156.695)"/>
      <path id="Path_645" data-name="Path 645" class="cls-3" d="M31.037,16.537H26.693a1.087,1.087,0,0,1,0-2.172h4.344a1.087,1.087,0,0,1,0,2.172Z" transform="translate(-103.944 2156.695)"/>
      <path id="Path_646" data-name="Path 646" class="cls-3" d="M15.451,32.123a1.087,1.087,0,0,1-1.087-1.087V26.693a1.087,1.087,0,0,1,2.172,0v4.344a1.087,1.087,0,0,1-1.085,1.085Z" transform="translate(-112.255 2165.005)"/>
      <path id="Path_647" data-name="Path 647" class="cls-3" d="M39.346,26.693H15.451a1.087,1.087,0,0,1-1.087-1.087V1.711A1.087,1.087,0,0,1,15.451.625,25.01,25.01,0,0,1,40.433,25.606a1.087,1.087,0,0,1-1.087,1.087ZM16.537,24.519h21.7a22.841,22.841,0,0,0-21.7-21.7Z" transform="translate(-112.255 2146.54)"/>
    </g>
  </g>
</svg>
