<svg xmlns="http://www.w3.org/2000/svg" xmlns:xlink="http://www.w3.org/1999/xlink" viewBox="-2625 7528 50 50">
  <defs>
    <style>
      .cls-1 {
        fill: #fff;
        stroke: #95989a;
      }

      .cls-2 {
        clip-path: url(#clip-path);
      }

      .cls-3 {
        fill: #00c2ff;
      }
    </style>
    <clipPath id="clip-path">
      <rect id="Rectangle_294" data-name="Rectangle 294" class="cls-1" width="50" height="50" transform="translate(258 1459)"/>
    </clipPath>
  </defs>
  <g id="Mask_Group_118" data-name="Mask Group 118" class="cls-2" transform="translate(-2883 6069)">
    <g id="_5" data-name="5" transform="translate(218.705 -689.737)">
      <path id="Path_649" data-name="Path 649" class="cls-3" d="M181.825,87.163a12.914,12.914,0,1,0-12.914,12.924A12.914,12.914,0,0,0,181.825,87.163ZM168.911,98.472a11.3,11.3,0,1,1,11.3-11.309,11.3,11.3,0,0,1-11.3,11.309Z" transform="translate(-104.619 2080.137)"/>
      <path id="Path_650" data-name="Path 650" class="cls-3" d="M223.076,129.64l-2-6.141-2,6.141h-6.452l5.226,3.8-2,6.141,5.226-3.8,5.226,3.8-2-6.141,5.226-3.8Zm.158,5.709-2.155-1.555-2.155,1.565.826-2.53-2.155-1.565h2.654l.826-2.53.826,2.53h2.658l-2.155,1.565Z" transform="translate(-156.785 2034.765)"/>
      <path id="Path_651" data-name="Path 651" class="cls-3" d="M97.534,34.557A6.529,6.529,0,0,0,99.7,29.7v-.492a4.929,4.929,0,0,1,1.446-3.5,6.57,6.57,0,0,0,0-9.281,4.906,4.906,0,0,1-1.446-3.5v-.49a6.57,6.57,0,0,0-6.565-6.566h-.493a4.929,4.929,0,0,1-3.5-1.446,6.546,6.546,0,0,0-9.271-.01,4.912,4.912,0,0,1-3.5,1.446h-.5A6.57,6.57,0,0,0,69.31,12.43v.492a4.889,4.889,0,0,1-1.446,3.5,6.57,6.57,0,0,0,0,9.281,4.912,4.912,0,0,1,1.446,3.5V29.7a6.514,6.514,0,0,0,2.165,4.852l-7.1,12.3,7.25-1.25,2.534,6.9,7.75-13.4a6.507,6.507,0,0,0,5.2,0l7.742,13.4,2.539-6.9,7.25,1.25ZM74.483,48.711,72.672,43.78l-5.172.895L72.79,35.5a6.485,6.485,0,0,0,3.071.767h.493a4.889,4.889,0,0,1,3.5,1.446,6.983,6.983,0,0,0,.65.561Zm6.525-12.136a6.506,6.506,0,0,0-4.634-1.92h-.5A4.961,4.961,0,0,1,70.923,29.7v-.491A6.49,6.49,0,0,0,69,24.576a4.955,4.955,0,0,1,0-7,6.506,6.506,0,0,0,1.919-4.636v-.489A4.955,4.955,0,0,1,75.875,7.5h.5a6.529,6.529,0,0,0,4.646-1.919,4.955,4.955,0,0,1,7,0A6.506,6.506,0,0,0,92.652,7.5h.492A4.961,4.961,0,0,1,98.1,12.451v.492a6.49,6.49,0,0,0,1.919,4.636,4.955,4.955,0,0,1,0,7A6.506,6.506,0,0,0,98.1,29.216v.492a4.961,4.961,0,0,1-4.951,4.951h-.492a6.529,6.529,0,0,0-4.646,1.919,4.955,4.955,0,0,1-7,0Zm15.325,7.2-1.811,4.931L88.5,38.277a6.982,6.982,0,0,0,.65-.561,4.912,4.912,0,0,1,3.5-1.446h.492a6.456,6.456,0,0,0,3.071-.767l5.295,9.174Z" transform="translate(-20.21 2146.237)"/>
    </g>
  </g>
</svg>
