<svg xmlns="http://www.w3.org/2000/svg" xmlns:xlink="http://www.w3.org/1999/xlink" viewBox="2736 5230 60 60">
  <defs>
    <style>
      .cls-1, .cls-3 {
        fill: #fff;
      }

      .cls-1 {
        opacity: 0.6;
      }

      .cls-2 {
        clip-path: url(#clip-path);
      }
    </style>
    <clipPath id="clip-path">
      <rect id="Rectangle_320" data-name="Rectangle 320" class="cls-1" width="60" height="60" transform="translate(653 475)"/>
    </clipPath>
  </defs>
  <g id="Mask_Group_65" data-name="Mask Group 65" class="cls-2" transform="translate(2083 4755)">
    <path id="understanding" class="cls-3" d="M20.666,70.483h58.5a.75.75,0,0,0,.7-.7V34.143a.75.75,0,0,0-.7-.7H75.874v-1.3q0-.449-.6-.6a94.452,94.452,0,0,0-10.782-1.7c-7.687-.8-12.579-.1-14.576,1.9a.1.1,0,0,1-.1.1.1.1,0,0,0-.1-.1c-1.9-2.1-6.889-2.7-14.576-1.9a103.649,103.649,0,0,0-10.782,1.6c-.3.1-.6.3-.6.6v1.3H20.566a.75.75,0,0,0-.7.7V69.684C20.067,70.083,20.266,70.483,20.666,70.483Zm29.95-37.438c.1-.1.2-.3.3-.4,3.295-3.394,17.671-1.2,23.661.1V64.792c-1.7-.3-5.691-1.1-9.983-1.6-2.2-.2-3.993-.3-5.691-.3-3.894,0-6.689.5-8.286,1.7V33.045Zm-25.358-.3c5.99-1.3,20.366-3.494,23.661-.1.1.1.2.3.3.4V64.592c-2.3-1.6-6.988-2.1-13.977-1.4a80.165,80.165,0,0,0-9.983,1.6Zm-3.894,2h2.6V65.591a.549.549,0,0,0,.3.5.559.559,0,0,0,.6.1c5.491-1.2,20.765-3.694,24.16-.2a1.791,1.791,0,0,0,.7.5h.8c.2-.1.4-.3.7-.5,3.394-3.594,18.569-1,24.16.2a.66.66,0,0,0,.6-.1.849.849,0,0,0,.3-.5V34.742h2.6V69.085h-57.5Z" transform="translate(633.133 455.004)"/>
  </g>
</svg>
