<svg xmlns="http://www.w3.org/2000/svg" xmlns:xlink="http://www.w3.org/1999/xlink" viewBox="2986 5230 60 60">
  <defs>
    <style>
      .cls-1, .cls-3 {
        fill: #fff;
      }

      .cls-1 {
        opacity: 0.6;
      }

      .cls-2 {
        clip-path: url(#clip-path);
      }
    </style>
    <clipPath id="clip-path">
      <rect id="Rectangle_321" data-name="Rectangle 321" class="cls-1" width="60" height="60" transform="translate(903 475)"/>
    </clipPath>
  </defs>
  <g id="Mask_Group_66" data-name="Mask Group 66" class="cls-2" transform="translate(2083 4755)">
    <g id="effectiv" transform="translate(883.026 -497.076)">
      <path id="Path_591" data-name="Path 591" class="cls-3" d="M23.4,972.4a.661.661,0,0,0-.6.7v7.7H20.6a.707.707,0,1,0,.2,1.4h2.1v16H20.7a.707.707,0,1,0,.2,1.4H23v16H20.8a.707.707,0,1,0,.2,1.4h2.1v11.9a.683.683,0,0,0,.7.7H35.6v2.1a.7.7,0,0,0,1.4,0h0v-2.1H53v2.1a.7.7,0,0,0,1.4,0h0v-2.1h16v2.1a.7.7,0,0,0,1.4,0h0v-2.1h7.4a.7.7,0,1,0,0-1.4H75.7V1001a.73.73,0,0,0-.6-.7H66.6a.684.684,0,0,0-.7.7v27.2H58.2v-17.4a.731.731,0,0,0-.6-.7H49.1a.684.684,0,0,0-.7.7v17.4H40.7v-9.1a.731.731,0,0,0-.6-.7H31.6a.684.684,0,0,0-.7.7v9.1h-7V973.1a.684.684,0,0,0-.7-.7Zm48.7,9.8a.707.707,0,1,0,.2,1.4h5.3L65.2,996.7l-7.9-4a.627.627,0,0,0-.8.2l-8.7,10.8-7.9-3.3a.778.778,0,0,0-.8.2l-9.8,11.9a.769.769,0,0,0,.1,1,.675.675,0,0,0,1-.1l9.4-11.5,7.9,3.3a.778.778,0,0,0,.8-.2l8.7-10.7,7.9,3.9a.755.755,0,0,0,.8-.1l12.7-13.4V990a.7.7,0,1,0,1.4,0h0v-7a.684.684,0,0,0-.7-.7h-7a.31.31,0,0,0-.2-.1Zm-4.7,19.5h7v26.5h-7Zm-17.5,9.7h7v16.7h-7Zm-17.4,8.4h7v8.4h-7Z"/>
    </g>
  </g>
</svg>
