<svg xmlns="http://www.w3.org/2000/svg" xmlns:xlink="http://www.w3.org/1999/xlink" viewBox="-11501 4835 50 50">
  <defs>
    <style>
      .cls-1, .cls-3 {
        fill: #fff;
      }

      .cls-1 {
        stroke: #95989a;
      }

      .cls-2 {
        clip-path: url(#clip-path);
      }
    </style>
    <clipPath id="clip-path">
      <rect id="Rectangle_200" data-name="Rectangle 200" class="cls-1" width="50" height="50" transform="translate(98 1047)"/>
    </clipPath>
  </defs>
  <g id="Mask_Group_37" data-name="Mask Group 37" class="cls-2" transform="translate(-11599 3788)">
    <g id="noun_1033935_cc" transform="translate(98 1056.725)">
      <path id="Path_255" data-name="Path 255" class="cls-3" d="M25.906,2.933C13.788,2.933.855,5.275.855,9.552V24.928c0,1.018.815,2.444,8.045,3.564a134.483,134.483,0,0,0,16.9,1.018c4.175,0,25.051-.2,25.051-4.582V9.654C50.957,5.275,38.024,2.933,25.906,2.933Zm0,1.018c14.155,0,24.032,2.953,24.032,5.6s-9.878,5.6-24.032,5.6S1.874,12.2,1.874,9.552,11.751,3.951,25.906,3.951Zm0,24.541c-14.766,0-24.032-1.833-24.032-3.564V11.588c3.259,3.055,13.849,4.684,24.032,4.684s20.672-1.629,24.032-4.684v13.34C49.938,26.558,40.672,28.493,25.906,28.493Z" transform="translate(-0.855 1.039)"/>
      <path id="Path_256" data-name="Path 256" class="cls-3" d="M29.531.55l-3.36,2.138V8.595H19.043V3.3l2.851-1.935L21.283.55,18.024,2.688V15.214h1.018V13.686h7.128v1.527h1.018V3.3L30.04,1.365ZM19.043,12.668V9.613h7.128v3.055Z" transform="translate(10.591 -0.55)"/>
    </g>
  </g>
</svg>
