<svg xmlns="http://www.w3.org/2000/svg" xmlns:xlink="http://www.w3.org/1999/xlink" viewBox="-11501 5136 50 50">
  <defs>
    <style>
      .cls-1, .cls-3 {
        fill: #fff;
      }

      .cls-1 {
        stroke: #95989a;
      }

      .cls-2 {
        clip-path: url(#clip-path);
      }
    </style>
    <clipPath id="clip-path">
      <rect id="Rectangle_203" data-name="Rectangle 203" class="cls-1" width="50" height="50" transform="translate(98 1167)"/>
    </clipPath>
  </defs>
  <g id="Mask_Group_40" data-name="Mask Group 40" class="cls-2" transform="translate(-11599 3969)">
    <g id="noun_716328_cc" transform="translate(98 1167.031)">
      <path id="Path_266" data-name="Path 266" class="cls-3" d="M30.682,33.3A2.619,2.619,0,1,1,33.3,30.682,2.6,2.6,0,0,1,30.682,33.3Zm0-4.019a1.4,1.4,0,1,0,1.4,1.4A1.378,1.378,0,0,0,30.682,29.281Z" transform="translate(13.228 13.228)"/>
      <path id="Path_267" data-name="Path 267" class="cls-3" d="M17.71,33.3a2.619,2.619,0,1,1,2.619-2.619A2.638,2.638,0,0,1,17.71,33.3Zm0-4.019a1.4,1.4,0,1,0,1.4,1.4A1.417,1.417,0,0,0,17.71,29.281Z" transform="translate(4.58 13.228)"/>
      <path id="Path_268" data-name="Path 268" class="cls-3" d="M24.178,33.3A2.619,2.619,0,1,1,26.8,30.682,2.6,2.6,0,0,1,24.178,33.3Zm0-4.019a1.4,1.4,0,1,0,1.4,1.4A1.378,1.378,0,0,0,24.178,29.281Z" transform="translate(8.892 13.228)"/>
      <path id="Path_269" data-name="Path 269" class="cls-3" d="M40.694,38.076H19.074a6.029,6.029,0,0,1,0-12.058H40.755a6,6,0,0,1,6.029,6.029A6.1,6.1,0,0,1,40.694,38.076Zm-21.62-10.84a4.811,4.811,0,1,0,0,9.622H40.755a4.811,4.811,0,0,0,0-9.622Z" transform="translate(3.216 11.864)"/>
      <path id="Path_270" data-name="Path 270" class="cls-3" d="M34.775,28.867H18.514a.575.575,0,0,1-.609-.609v-4.08a.575.575,0,0,1,.609-.609H34.775a.575.575,0,0,1,.609.609v4.08A.61.61,0,0,1,34.775,28.867ZM19.123,27.649H34.166V24.787H19.123Z" transform="translate(6.456 10.231)"/>
      <path id="Path_271" data-name="Path 271" class="cls-3" d="M43.946,33.5H16.906a.575.575,0,0,1-.609-.609v-5.42a.575.575,0,0,1,.609-.609H27.138V11.206a.575.575,0,0,1,.609-.609h13.52a.648.648,0,0,1,.609.548l2.68,21.62a1.147,1.147,0,0,1-.122.487A.752.752,0,0,1,43.946,33.5ZM17.515,32.278H43.276L40.719,11.815H28.295V27.467a.575.575,0,0,1-.609.609H17.515Z" transform="translate(5.384 1.583)"/>
      <path id="Path_272" data-name="Path 272" class="cls-3" d="M27.677,28.076H16.9a.752.752,0,0,1-.487-.244.592.592,0,0,1-.061-.548l5.42-16.261a.585.585,0,0,1,.548-.426h5.42a.575.575,0,0,1,.609.609V27.467A.716.716,0,0,1,27.677,28.076ZM17.69,26.857h9.379V11.815H22.683Z" transform="translate(5.392 1.583)"/>
      <path id="Path_273" data-name="Path 273" class="cls-3" d="M7.978,12.607A4.691,4.691,0,0,1,3.289,7.917,4.6,4.6,0,0,1,7.978,3.289a4.659,4.659,0,1,1,0,9.318Zm0-8.1A3.47,3.47,0,0,0,4.507,7.978a3.432,3.432,0,0,0,3.471,3.471,3.432,3.432,0,0,0,3.471-3.471A3.47,3.47,0,0,0,7.978,4.507Z" transform="translate(-3.289 -3.289)"/>
      <path id="Path_274" data-name="Path 274" class="cls-3" d="M7.418,32.119a3.275,3.275,0,0,1-3.289-3.289,3.339,3.339,0,0,1,2.68-3.289V23.41a.609.609,0,0,1,1.218,0v2.68a.575.575,0,0,1-.609.609A2.071,2.071,0,1,0,9.488,28.77a.609.609,0,0,1,1.218,0A3.327,3.327,0,0,1,7.418,32.119Z" transform="translate(-2.728 9.72)"/>
      <path id="Path_275" data-name="Path 275" class="cls-3" d="M6.346,29.708a.575.575,0,0,1-.609-.609V8.758a.575.575,0,0,1,.609-.609.575.575,0,0,1,.609.609v20.28A.667.667,0,0,1,6.346,29.708Z" transform="translate(-1.657 -0.049)"/>
      <path id="Path_276" data-name="Path 276" class="cls-3" d="M9.184,25.615H5.1a.575.575,0,0,1-.609-.609v-4.08a.575.575,0,0,1,.609-.609h4.08a.575.575,0,0,1,.609.609v4.08A.575.575,0,0,1,9.184,25.615ZM5.713,24.4H8.575V21.535H5.713Z" transform="translate(-2.485 8.063)"/>
      <path id="Path_277" data-name="Path 277" class="cls-3" d="M23.646,36.233a.621.621,0,0,1-.487-.3L6.289,10.167a.592.592,0,0,1-.061-.548.644.644,0,0,1,.426-.365A3.6,3.6,0,0,0,9.273,6.94.736.736,0,0,1,9.7,6.513a.491.491,0,0,1,.548.183l15.9,16.626a.582.582,0,0,1,.122.609l-2.132,6.395v5.3a.733.733,0,0,1-.426.609C23.707,36.172,23.707,36.233,23.646,36.233ZM7.75,10.167,23.037,33.554V30.2a.224.224,0,0,1,.061-.183l2.01-6.151L10.065,8.158A4.959,4.959,0,0,1,7.75,10.167Z" transform="translate(-1.356 -1.154)"/>
    </g>
  </g>
</svg>
