<svg xmlns="http://www.w3.org/2000/svg" xmlns:xlink="http://www.w3.org/1999/xlink" viewBox="-11101 5136 50 50">
  <defs>
    <style>
      .cls-1, .cls-3 {
        fill: #fff;
      }

      .cls-1 {
        stroke: #95989a;
      }

      .cls-2 {
        clip-path: url(#clip-path);
      }
    </style>
    <clipPath id="clip-path">
      <rect id="Rectangle_210" data-name="Rectangle 210" class="cls-1" width="50" height="50" transform="translate(838 1047)"/>
    </clipPath>
  </defs>
  <g id="Mask_Group_45" data-name="Mask Group 45" class="cls-2" transform="translate(-11939 4089)">
    <g id="noun_213468_cc" transform="translate(838 1054.82)">
      <g id="Group_227" data-name="Group 227" transform="translate(0 0)">
        <path id="Path_302" data-name="Path 302" class="cls-3" d="M2.619,40.839H48.038A.861.861,0,0,0,48.878,40V25.082l-1.623,1.679V39.273H3.458V13.587H47.311v3.549l1.623-1.679V12.8a.861.861,0,0,0-.839-.839H39.279V7.32a.861.861,0,0,0-.839-.839h0a.861.861,0,0,0-.839.839v4.645H28.311V7.32a.861.861,0,0,0-.839-.839h0a.861.861,0,0,0-.839.839v4.645H17.343V7.32A.861.861,0,0,0,16.5,6.48h0a.861.861,0,0,0-.839.839v4.645H2.619a.861.861,0,0,0-.839.839V40A.861.861,0,0,0,2.619,40.839Z" transform="translate(-1.78 -6.48)"/>
        <path id="Path_303" data-name="Path 303" class="cls-3" d="M7.666,16.743h0a1.122,1.122,0,0,0,1.119-1.119h0A1.122,1.122,0,0,0,7.666,14.5h0a1.122,1.122,0,0,0-1.119,1.119h0A1.122,1.122,0,0,0,7.666,16.743Z" transform="translate(2.828 -1.13)"/>
        <path id="Path_304" data-name="Path 304" class="cls-3" d="M10.957,16.743h0a1.122,1.122,0,0,0,1.119-1.119h0A1.122,1.122,0,0,0,10.957,14.5h0a1.122,1.122,0,0,0-1.119,1.119h0A1.122,1.122,0,0,0,10.957,16.743Z" transform="translate(5.021 -1.13)"/>
        <path id="Path_305" data-name="Path 305" class="cls-3" d="M14.214,16.743h0a1.122,1.122,0,0,0,1.119-1.119h0A1.122,1.122,0,0,0,14.214,14.5h0a1.122,1.122,0,0,0-1.119,1.119h0A1.2,1.2,0,0,0,14.214,16.743Z" transform="translate(7.192 -1.13)"/>
        <path id="Path_306" data-name="Path 306" class="cls-3" d="M17.5,23.268h0A1.112,1.112,0,0,0,18.623,22.2h0A1.122,1.122,0,0,0,17.5,21.086h0A1.122,1.122,0,0,0,16.385,22.2h0A1.15,1.15,0,0,0,17.5,23.268Z" transform="translate(9.386 3.257)"/>
        <path id="Path_307" data-name="Path 307" class="cls-3" d="M7.666,20.034h0a1.122,1.122,0,0,0,1.119-1.119h0A1.122,1.122,0,0,0,7.666,17.8h0a1.122,1.122,0,0,0-1.119,1.119h0A1.122,1.122,0,0,0,7.666,20.034Z" transform="translate(2.828 1.063)"/>
        <path id="Path_308" data-name="Path 308" class="cls-3" d="M10.957,20.034h0a1.122,1.122,0,0,0,1.119-1.119h0A1.122,1.122,0,0,0,10.957,17.8h0a1.122,1.122,0,0,0-1.119,1.119h0A1.122,1.122,0,0,0,10.957,20.034Z" transform="translate(5.021 1.063)"/>
        <path id="Path_309" data-name="Path 309" class="cls-3" d="M14.214,20.034h0a1.122,1.122,0,0,0,1.119-1.119h0A1.122,1.122,0,0,0,14.214,17.8h0a1.122,1.122,0,0,0-1.119,1.119h0A1.2,1.2,0,0,0,14.214,20.034Z" transform="translate(7.192 1.063)"/>
        <path id="Path_310" data-name="Path 310" class="cls-3" d="M7.666,23.268h0A1.112,1.112,0,0,0,8.786,22.2h0a1.122,1.122,0,0,0-1.119-1.119h0A1.122,1.122,0,0,0,6.547,22.2h0A1.076,1.076,0,0,0,7.666,23.268Z" transform="translate(2.828 3.257)"/>
        <path id="Path_311" data-name="Path 311" class="cls-3" d="M10.957,23.268h0A1.112,1.112,0,0,0,12.076,22.2h0a1.122,1.122,0,0,0-1.119-1.119h0A1.122,1.122,0,0,0,9.838,22.2h0A1.076,1.076,0,0,0,10.957,23.268Z" transform="translate(5.021 3.257)"/>
        <path id="Path_312" data-name="Path 312" class="cls-3" d="M14.214,23.268h0A1.112,1.112,0,0,0,15.333,22.2h0a1.122,1.122,0,0,0-1.119-1.119h0A1.122,1.122,0,0,0,13.095,22.2h0A1.15,1.15,0,0,0,14.214,23.268Z" transform="translate(7.192 3.257)"/>
      </g>
      <g id="Group_228" data-name="Group 228" transform="translate(29.183 10.608)">
        <path id="Path_313" data-name="Path 313" class="cls-3" d="M19.541,19.384,25.7,25.54a.811.811,0,0,0,1.175,0L39.855,12.557a.811.811,0,0,0,0-1.175h0a.811.811,0,0,0-1.175,0L26.312,23.805l-5.6-5.6a.811.811,0,0,0-1.175,0h0A.811.811,0,0,0,19.541,19.384Z" transform="translate(-19.289 -11.13)"/>
      </g>
    </g>
  </g>
</svg>
