<svg xmlns="http://www.w3.org/2000/svg" xmlns:xlink="http://www.w3.org/1999/xlink" viewBox="-10701 5136 50 50">
  <defs>
    <style>
      .cls-1 {
        fill: #fff;
        stroke: #95989a;
      }

      .cls-2 {
        clip-path: url(#clip-path);
      }

      .cls-3 {
        fill: #fcfcfc;
      }

      .cls-4 {
        fill: #3e97db;
        stroke: #fff;
        stroke-width: 0.965px;
      }
    </style>
    <clipPath id="clip-path">
      <rect id="Rectangle_213" data-name="Rectangle 213" class="cls-1" width="50" height="50" transform="translate(838 1167)"/>
    </clipPath>
  </defs>
  <g id="Mask_Group_47" data-name="Mask Group 47" class="cls-2" transform="translate(-11539 3969)">
    <g id="Безымянный-2" transform="translate(838 1167.08)">
      <path id="Path_314" data-name="Path 314" class="cls-3" d="M112.154,387.556h-37.3a6.278,6.278,0,0,1-6.27-6.27v-37.3a6.278,6.278,0,0,1,6.27-6.27h37.46a6.278,6.278,0,0,1,6.27,6.27v37.46A6.389,6.389,0,0,1,112.154,387.556Zm-37.3-48.232a4.666,4.666,0,0,0-4.662,4.662v37.46a4.666,4.666,0,0,0,4.662,4.662h37.46a4.666,4.666,0,0,0,4.662-4.662v-37.46a4.666,4.666,0,0,0-4.662-4.662Z" transform="translate(-68.585 -337.717)"/>
      <path id="Path_315" data-name="Path 315" class="cls-3" d="M99.421,352.894H97.813v-9.325H88.167v-1.608H99.421Z" transform="translate(-55.531 -334.887)"/>
      <line id="Line_55" data-name="Line 55" class="cls-4" y1="14.791" x2="14.309" transform="translate(28.778 7.878)"/>
      <rect id="Rectangle_214" data-name="Rectangle 214" class="cls-3" width="20.58" height="1.608" transform="translate(28.129 22.124) rotate(-45.871)"/>
      <path id="Path_316" data-name="Path 316" class="cls-3" d="M74.534,353.312H72.926V342.058H83.859v1.608H74.534Z" transform="translate(-65.691 -334.823)"/>
      <line id="Line_56" data-name="Line 56" class="cls-4" x1="14.791" y1="14.469" transform="translate(8.039 8.039)"/>
      <rect id="Rectangle_215" data-name="Rectangle 215" class="cls-3" width="1.608" height="20.579" transform="matrix(0.697, -0.717, 0.717, 0.697, 7.502, 8.676)"/>
      <path id="Path_317" data-name="Path 317" class="cls-3" d="M84.18,368.424H72.926V357.492h1.608v9.325H84.18Z" transform="translate(-65.691 -324.534)"/>
      <line id="Line_57" data-name="Line 57" class="cls-4" x1="14.309" y2="14.791" transform="translate(8.039 28.296)"/>
      <rect id="Rectangle_216" data-name="Rectangle 216" class="cls-3" width="20.58" height="1.608" transform="translate(7.567 42.467) rotate(-45.871)"/>
      <path id="Path_318" data-name="Path 318" class="cls-3" d="M99.293,368.3H88.36v-1.608h9.325V357.2h1.608Z" transform="translate(-55.402 -324.727)"/>
      <line id="Line_58" data-name="Line 58" class="cls-4" x2="14.791" y2="14.309" transform="translate(28.296 28.457)"/>
      <rect id="Rectangle_217" data-name="Rectangle 217" class="cls-3" width="1.608" height="20.579" transform="matrix(0.697, -0.717, 0.717, 0.697, 27.786, 29.074)"/>
    </g>
  </g>
</svg>
