<svg xmlns="http://www.w3.org/2000/svg" xmlns:xlink="http://www.w3.org/1999/xlink" viewBox="-10701 4835 50 50">
  <defs>
    <style>
      .cls-1, .cls-3 {
        fill: #fff;
      }

      .cls-1 {
        stroke: #95989a;
      }

      .cls-2 {
        clip-path: url(#clip-path);
      }
    </style>
    <clipPath id="clip-path">
      <rect id="Rectangle_208" data-name="Rectangle 208" class="cls-1" width="50" height="50" transform="translate(438 1167)"/>
    </clipPath>
  </defs>
  <g id="Mask_Group_43" data-name="Mask Group 43" class="cls-2" transform="translate(-11139 3668)">
    <g id="noun_93743_cc" transform="translate(440.597 1167)">
      <path id="Path_298" data-name="Path 298" class="cls-3" d="M49.372,33.245c-1.035-4.129-5.379-7.222-8.876-9.71a30.641,30.641,0,0,1-3.586-2.79l-2.79-2.79-.619-.619a12.332,12.332,0,0,0,1.907-2.576,7.974,7.974,0,0,0,.707-2.2,9.292,9.292,0,0,1,1.061-3.018,2.731,2.731,0,0,0,.139-2.828c-.947-1.578-3.8-2.323-8.977-2.323s-8.005.732-8.952,2.323a2.754,2.754,0,0,0,.139,2.841,9.292,9.292,0,0,1,1.061,3.018c.253,1.313.48,2.462,2.6,4.773l-.505.505c-.593.593-1.49,1.49-2.917,2.929a30.03,30.03,0,0,1-3.573,2.8c-3.46,2.487-7.778,5.568-8.8,9.684-2.033,8.169-1.881,12.992.543,16.1,1.477,1.894,3.876,3.194,7.311,3.977a61.519,61.519,0,0,0,13.081,1.048,61.217,61.217,0,0,0,13.131-1.048c3.46-.783,5.859-2.1,7.348-4C51.253,46.225,51.418,41.414,49.372,33.245ZM47.617,48.409c-2.475,3.182-8.056,4.47-19.28,4.47-11.174,0-16.742-1.288-19.2-4.432-2.109-2.7-2.184-7.134-.265-14.823.9-3.573,4.949-6.49,8.22-8.826a31.1,31.1,0,0,0,3.763-2.967c1.414-1.427,2.311-2.323,2.9-2.917.53-.53.783-.783.909-.922a.823.823,0,0,0,.076-1.212c-2.247-2.323-2.437-3.283-2.677-4.495a10.621,10.621,0,0,0-1.212-3.447c-.467-.859-.24-1.225-.177-1.338.859-1.439,5.644-1.591,7.664-1.591s6.818.152,7.677,1.591c.076.126.29.492-.164,1.338a10.717,10.717,0,0,0-1.225,3.447c-.253,1.263-.429,2.184-2.664,4.495a.828.828,0,0,0,.076,1.237c.152.164.417.429,1.023,1.023.581.581,1.465,1.452,2.778,2.778a31.613,31.613,0,0,0,3.788,2.967c3.3,2.336,7.4,5.253,8.283,8.838C49.827,41.275,49.738,45.707,47.617,48.409Z" transform="translate(-5.98 -4.394)"/>
      <path id="Path_299" data-name="Path 299" class="cls-3" d="M27.424,23.838a.758.758,0,1,0,1.515,0,5.012,5.012,0,0,0-.922-3.308c-.972-1.212-2.664-1.869-5.139-1.97V17.273a.758.758,0,0,0-1.515,0v1.263a8.633,8.633,0,0,0-3.75.644c-1.553.783-2.311,2.311-2.311,4.659,0,4.129,3.207,4.836,6.061,5.215V36.7c-4.545-.215-4.545-2.336-4.545-3.775a.758.758,0,1,0-1.515,0,5.012,5.012,0,0,0,.922,3.308c.972,1.212,2.664,1.869,5.139,1.97V39.23a.758.758,0,0,0,1.515,0V38.22a8.666,8.666,0,0,0,3.75-.644c1.553-.77,2.311-2.3,2.311-4.646,0-4.129-3.207-4.836-6.061-5.215V20.063C27.424,20.278,27.424,22.412,27.424,23.838Zm-10.606,0c0-3.333,1.629-3.737,4.545-3.788v7.462C18.523,27.121,16.818,26.54,16.818,23.838Zm10.606,9.091c0,3.333-1.629,3.737-4.545,3.788V29.255C25.72,29.646,27.424,30.227,27.424,32.929Z" transform="translate(0.236 3.687)"/>
    </g>
  </g>
</svg>
