<svg xmlns="http://www.w3.org/2000/svg" xmlns:xlink="http://www.w3.org/1999/xlink" viewBox="-11501 4935 50 50">
  <defs>
    <style>
      .cls-1, .cls-3 {
        fill: #fff;
      }

      .cls-1 {
        stroke: #95989a;
      }

      .cls-2 {
        clip-path: url(#clip-path);
      }
    </style>
    <clipPath id="clip-path">
      <rect id="Rectangle_201" data-name="Rectangle 201" class="cls-1" width="50" height="50" transform="translate(98 1104)"/>
    </clipPath>
  </defs>
  <g id="Mask_Group_53" data-name="Mask Group 53" class="cls-2" transform="translate(-11599 3831)">
    <path id="noun_1261380_cc" class="cls-3" d="M48.9,17.567l-1.889-1.889a3.684,3.684,0,0,0-1.049-.839,2.738,2.738,0,0,0-2.938.21l-.21-.21c.21-.42.42-.63.42-1.049a2.893,2.893,0,0,0-1.049-2.728L40.923,9.8l-.21-.21L39.244,8.123a12.663,12.663,0,0,1-1.679-1.679c-6.3-6.3-16.159-4.2-18.258-3.148a.925.925,0,0,0-1.259.839c0,.63.42,1.049,2.938,2.518a31.982,31.982,0,0,1,4.827,3.358h0c-.839,1.049-1.469,2.728-.42,3.778l.21.21L2.728,32.887A7.742,7.742,0,0,0,7.765,46.528h0A7.808,7.808,0,0,0,13.641,43.8l19.1-22.665c1.049.839,2.728.63,4.2-.63a.206.206,0,0,1-.21.21,3.508,3.508,0,0,0,.21,4.617l2.308,2.309a3.064,3.064,0,0,0,4.617,0L48.9,22.6a2.968,2.968,0,0,0,0-4.617ZM12.592,42.751a5.952,5.952,0,0,1-4.617,2.1h0a6.09,6.09,0,0,1-6.086-6.086,6.013,6.013,0,0,1,2.1-4.617L26.863,15.259l4.827,4.827Zm35.467-21.2-5.037,5.037a1.647,1.647,0,0,1-2.308,0l-2.309-2.309c-.63-.839-.839-1.469,0-2.309a1.91,1.91,0,0,0,0-2.518,1.814,1.814,0,0,0-1.259-.63,2.983,2.983,0,0,0-1.259.42,1.577,1.577,0,0,1-2.1.42h0L26.863,12.74c-.21-.21,0-.839.42-1.469.839-.839.63-1.679-.21-2.518a34.829,34.829,0,0,0-5.037-3.568,9.125,9.125,0,0,1-1.469-.839c2.728-.839,10.493-2.1,15.74,3.148A13.578,13.578,0,0,0,38.2,9.173l1.469,1.469.21.21L40.923,11.9a1.633,1.633,0,0,1,.63,1.259.65.65,0,0,1-.21.42,1.491,1.491,0,0,0,.42,2.1,1.42,1.42,0,0,0,2.1.21.919.919,0,0,1,1.259,0c.21,0,.42.21.63.42L47.639,18.2l.42.42C48.688,19.876,48.688,20.715,48.059,21.555Z" transform="translate(98 1104.685)"/>
  </g>
</svg>
