<svg xmlns="http://www.w3.org/2000/svg" xmlns:xlink="http://www.w3.org/1999/xlink" viewBox="-11101 4935 50 50">
  <defs>
    <style>
      .cls-1, .cls-3 {
        fill: #fff;
      }

      .cls-1 {
        stroke: #95989a;
      }

      .cls-2 {
        clip-path: url(#clip-path);
      }
    </style>
    <clipPath id="clip-path">
      <rect id="Rectangle_206" data-name="Rectangle 206" class="cls-1" width="50" height="50" transform="translate(438 1087)"/>
    </clipPath>
  </defs>
  <g id="Mask_Group_50" data-name="Mask Group 50" class="cls-2" transform="translate(-11539 3848)">
    <g id="Group_230" data-name="Group 230" transform="translate(438 1088.956)">
      <path id="Path_327" data-name="Path 327" class="cls-3" d="M54.785,22.892A5.828,5.828,0,0,0,50.258,20.8H39.184a26.35,26.35,0,0,0,1.184-4.179c.766-4.179-.975-7.452-2.925-8.845a3.886,3.886,0,0,0-3.2-.627c-2.159.627-2.507,2.647-2.856,4.457a8.68,8.68,0,0,1-.836,2.786c-1.741,2.925-5.363,6.9-8.567,7.94V20.524H5.892V52.841H21.981v-1.95c3.413,2.229,3.691,2.229,4.04,2.229H45.383a7.033,7.033,0,0,0,4.388-1.672A5.462,5.462,0,0,0,51.442,47.9c0-.139.07-.348.07-.488a5.449,5.449,0,0,0-.836-4.666.839.839,0,0,0-.348-.348,8.9,8.9,0,0,0,1.463-.975,5.3,5.3,0,0,0,1.672-3.482c.07-.209.07-.348.139-.557a5.449,5.449,0,0,0-.836-4.666,6.567,6.567,0,0,0-.7-.7,8.117,8.117,0,0,0,1.95-1.184,5.3,5.3,0,0,0,1.672-3.482c0-.139.07-.348.07-.488A4.422,4.422,0,0,0,54.785,22.892ZM19.892,50.821H7.982V22.684h11.91ZM53.741,26.514c-.07.209-.07.348-.139.557-.209,1.114-.348,1.811-.975,2.3a4.57,4.57,0,0,1-2.716,1.184l-.627,2.925h.139a1.894,1.894,0,0,1,1.672.7,3.826,3.826,0,0,1,.418,2.925c-.07.209-.07.418-.139.557-.209,1.114-.348,1.741-.975,2.229a5.152,5.152,0,0,1-2.856,1.184l-.557,2.438h.279a1.894,1.894,0,0,1,1.672.7,3.826,3.826,0,0,1,.418,2.925,1.534,1.534,0,0,0-.07.557c-.209,1.114-.348,1.811-.975,2.3a4.665,4.665,0,0,1-2.995,1.184H26.16a44.715,44.715,0,0,1-4.179-2.577V24.564c4.179-.905,8.427-5.781,10.378-8.985A9.515,9.515,0,0,0,33.4,12.1c.348-1.811.557-2.577,1.393-2.856a1.737,1.737,0,0,1,1.463.348c1.463.975,2.647,3.622,2.089,6.686a27.555,27.555,0,0,1-1.6,5.154v.07h0c0,.07-.07.139-.07.279v.348h0c0,.07,0,.07.07.139v.07a.068.068,0,0,0,.07.07c0,.07.07.07.07.139h0a.713.713,0,0,0,.418.348,1.185,1.185,0,0,0,.488.07H50.328a3.855,3.855,0,0,1,2.925,1.323A2.885,2.885,0,0,1,53.741,26.514Z" transform="translate(-5.892 -7.033)"/>
    </g>
  </g>
</svg>
