<svg xmlns="http://www.w3.org/2000/svg" xmlns:xlink="http://www.w3.org/1999/xlink" viewBox="-10701 4937 50 50">
  <defs>
    <style>
      .cls-1, .cls-3 {
        fill: #fff;
      }

      .cls-1 {
        stroke: #95989a;
      }

      .cls-2 {
        clip-path: url(#clip-path);
      }
    </style>
    <clipPath id="clip-path">
      <rect id="Rectangle_209" data-name="Rectangle 209" class="cls-1" width="50" height="50" transform="translate(498 1299)"/>
    </clipPath>
  </defs>
  <g id="Mask_Group_52" data-name="Mask Group 52" class="cls-2" transform="translate(-11199 3638)">
    <g id="noun_1173393_cc" transform="translate(498 1305.733)">
      <path id="Path_331" data-name="Path 331" class="cls-3" d="M48.047,27.59v-2.9c0-7.571-6.148-13.719-14.024-14.075l-.711-.051V4.979H1.809V27.286H.285v3.76a4.361,4.361,0,0,0,4.268,4.421h.152v.051a6,6,0,0,0,11.991,0v-.051H33.413v.051a6,6,0,0,0,11.991,0v-.051h1.321a3.59,3.59,0,0,0,3.557-3.658V31.1A3.7,3.7,0,0,0,48.047,27.59ZM33.972,12.144a12.777,12.777,0,0,1,12.55,12.55v2.642H33.312V12.093ZM3.333,6.555H31.787v3.963h0V27.286H3.333V6.555ZM10.7,39.988a4.471,4.471,0,1,1,4.471-4.471A4.414,4.414,0,0,1,10.7,39.988Zm28.708,0a4.471,4.471,0,1,1,4.471-4.471A4.478,4.478,0,0,1,39.409,39.988Zm9.4-8.181a2.1,2.1,0,0,1-2.032,2.134H45.252a6.051,6.051,0,0,0-5.792-4.421,6.112,6.112,0,0,0-5.843,4.421H16.493a6.005,6.005,0,0,0-11.585,0H4.553a2.8,2.8,0,0,1-2.744-2.9V28.861H31.787l15.548.051a2.267,2.267,0,0,1,1.474,2.134Z" transform="translate(-0.285 -4.979)"/>
      <path id="Path_332" data-name="Path 332" class="cls-3" d="M33.866,19.816a8.446,8.446,0,0,0-8.435-8.435v1.524a6.907,6.907,0,0,1,6.91,6.859H24.008V21.29h9.857Z" transform="translate(9.883 -2.236)"/>
      <path id="Path_333" data-name="Path 333" class="cls-3" d="M8.323,24.613a2.49,2.49,0,1,0,2.49,2.49A2.431,2.431,0,0,0,8.323,24.613Zm0,3.455a.965.965,0,1,1,.965-.965A.907.907,0,0,1,8.323,28.068Z" transform="translate(2.093 3.435)"/>
      <path id="Path_334" data-name="Path 334" class="cls-3" d="M28.419,24.613a2.49,2.49,0,1,0,2.49,2.49A2.494,2.494,0,0,0,28.419,24.613Zm0,3.455a.965.965,0,1,1,.965-.965A.934.934,0,0,1,28.419,28.068Z" transform="translate(10.706 3.435)"/>
    </g>
  </g>
</svg>
