<svg xmlns="http://www.w3.org/2000/svg" xmlns:xlink="http://www.w3.org/1999/xlink" viewBox="-11501 5036 50 50">
  <defs>
    <style>
      .cls-1, .cls-3 {
        fill: #fff;
      }

      .cls-1 {
        stroke: #95989a;
      }

      .cls-2 {
        clip-path: url(#clip-path);
      }
    </style>
    <clipPath id="clip-path">
      <rect id="Rectangle_202" data-name="Rectangle 202" class="cls-1" width="50" height="50" transform="translate(98 1129)"/>
    </clipPath>
  </defs>
  <g id="Mask_Group_51" data-name="Mask Group 51" class="cls-2" transform="translate(-11599 3907)">
    <g id="Безымянный-3" transform="translate(98 1129.083)">
      <path id="Path_328" data-name="Path 328" class="cls-3" d="M115.933,216.017v-2c1.167.333,2.333.5,3.5.833a9.291,9.291,0,0,0,6-.333c1.667-.667,3.333-1.167,5-1.833a15.033,15.033,0,0,1,12-.5c.833.333,1.667.5,2.667.833,0-.333.167-.667.167-1v-11c0-1.333-.333-1.5-1.667-1.5H115.433c-1.333,0-1.667.167-1.667,1.667V243.85c0,1.5.167,1.667,1.667,1.667h28c1.5,0,1.667-.167,1.667-1.833v-9.667l2,.5v10a2.9,2.9,0,0,1-3.167,2.833H115.6c-2.5,0-3.667-1.167-3.667-3.667v-11.5c0-.667-.167-1-.833-1.167-2.167-.5-4.167-1-6.333-1.667v-1.833c2.5.5,4.833,1,7.167,1.667v-5.667a1.3,1.3,0,0,0-.667-.667c-2.167-.667-4.333-1.167-6.5-1.667v-2c2.5.5,4.833,1,7.167,1.667v-5.667c0-.167-.333-.667-.667-.667-2.167-.667-4.333-1.167-6.5-1.667v-1.833c2.5.5,4.833,1,7.167,1.667V201.017a3.163,3.163,0,0,1,3.5-3.5H144.1a3.066,3.066,0,0,1,3.333,3.333v11.833c0,.667.167,1,1,1.167,2.167.5,4.167,1,6.333,1.5v1.833c-1.5-.333-3-.5-4.333-.833-3.333-.833-6.5-1.833-9.833-2.833a11.019,11.019,0,0,0-7.667.333c-2.333,1-4.833,1.833-7.167,2.667C122.1,217.85,119.1,216.85,115.933,216.017Z" transform="translate(-104.767 -197.517)"/>
      <path id="Path_329" data-name="Path 329" class="cls-3" d="M112.583,217.627v-2c1.333.333,2.5.667,3.667,1a8.908,8.908,0,0,0,5.5-.333c1.667-.667,3.5-1.167,5.167-2,4.167-2,8.333-1.833,12.667-.333,3.167,1.167,6.667,1.833,9.833,2.833a3.669,3.669,0,0,0,1.333.167v2c-1.5-.333-3-.5-4.333-.833l-10.5-3a9.706,9.706,0,0,0-6.5.333c-2.167.833-4.167,1.5-6.333,2.5C119.75,219.461,116.25,218.961,112.583,217.627Z" transform="translate(-101.417 -190.961)"/>
      <path id="Path_330" data-name="Path 330" class="cls-3" d="M112.583,223.567v-2c1.167.333,2.333.5,3.5.833a9.291,9.291,0,0,0,6-.333c1.667-.667,3.333-1.167,5-1.833a16.182,16.182,0,0,1,12.167-.5,104.753,104.753,0,0,0,10.333,2.833,3.249,3.249,0,0,0,1.333.167v2c-1.5-.333-2.833-.5-4.167-.833-3-.833-6-1.667-8.833-2.667a12.434,12.434,0,0,0-9.167.333c-2.167.833-4.5,1.667-6.667,2.5C118.75,225.4,115.75,224.4,112.583,223.567Z" transform="translate(-101.417 -188.4)"/>
    </g>
  </g>
</svg>
