<svg xmlns="http://www.w3.org/2000/svg" xmlns:xlink="http://www.w3.org/1999/xlink" viewBox="-11101 5036 50 50">
  <defs>
    <style>
      .cls-1, .cls-3 {
        fill: #fff;
      }

      .cls-1 {
        stroke: #95989a;
      }

      .cls-2 {
        clip-path: url(#clip-path);
      }
    </style>
    <clipPath id="clip-path">
      <rect id="Rectangle_207" data-name="Rectangle 207" class="cls-1" width="50" height="50" transform="translate(438 1127)"/>
    </clipPath>
  </defs>
  <g id="Mask_Group_42" data-name="Mask Group 42" class="cls-2" transform="translate(-11539 3909)">
    <g id="noun_854593_cc" transform="translate(438 1127.895)">
      <path id="Path_283" data-name="Path 283" class="cls-3" d="M56.8,47.642a1.053,1.053,0,1,1,0-2.105,8.723,8.723,0,1,0-2.211-17.158,1.188,1.188,0,0,1-.842-.105,1.547,1.547,0,0,1-.526-.632,10.246,10.246,0,0,0-9.895-7.895,10.067,10.067,0,0,0-10,8.421c-.105.316-.211.632-.526.737a1.007,1.007,0,0,1-.947,0,8.393,8.393,0,0,0-3.579-.737,8.737,8.737,0,1,0,0,17.474,1.053,1.053,0,0,1,0,2.105,10.842,10.842,0,1,1,0-21.684,10.451,10.451,0,0,1,3.158.526,12.1,12.1,0,0,1,11.789-8.842,12.361,12.361,0,0,1,11.684,8.526,9.055,9.055,0,0,1,1.684-.105A10.827,10.827,0,0,1,67.432,37.011,10.472,10.472,0,0,1,56.8,47.642Z" transform="translate(-17.432 -17.747)"/>
      <path id="Path_284" data-name="Path 284" class="cls-3" d="M32.8,54.421a.5.5,0,0,1-.526-.526V35.579a.526.526,0,0,1,1.053,0V53.895A.564.564,0,0,1,32.8,54.421Z" transform="translate(-7.537 -6.211)"/>
      <path id="Path_285" data-name="Path 285" class="cls-3" d="M45.663,41.6H27.242a.526.526,0,1,1,0-1.053H45.558a.5.5,0,0,1,.526.526C46.084,41.389,45.979,41.6,45.663,41.6Z" transform="translate(-11.242 -2.547)"/>
      <path id="Path_286" data-name="Path 286" class="cls-3" d="M41.853,50.716a.633.633,0,0,1-.421-.105L28.484,37.558a.521.521,0,1,1,.737-.737L42.168,49.768a.509.509,0,0,1,0,.737C42.168,50.611,41.958,50.716,41.853,50.716Z" transform="translate(-10.168 -5.137)"/>
      <path id="Path_287" data-name="Path 287" class="cls-3" d="M28.905,50.674a.633.633,0,0,1-.421-.105.509.509,0,0,1,0-.737L41.432,36.884a.521.521,0,0,1,.737.737L29.326,50.463A.8.8,0,0,1,28.905,50.674Z" transform="translate(-10.168 -5.095)"/>
      <path id="Path_288" data-name="Path 288" class="cls-3" d="M30.989,39.853H28.884a.526.526,0,1,1,0-1.053h1.579V37.221a.526.526,0,1,1,1.053,0v2.105A.564.564,0,0,1,30.989,39.853Z" transform="translate(-10.147 -5.116)"/>
      <path id="Path_289" data-name="Path 289" class="cls-3" d="M37.495,39.853H35.389a.5.5,0,0,1-.526-.526V37.221a.526.526,0,1,1,1.053,0V38.8h1.579a.526.526,0,0,1,0,1.053Z" transform="translate(-5.811 -5.116)"/>
      <path id="Path_290" data-name="Path 290" class="cls-3" d="M35.389,46.358a.5.5,0,0,1-.526-.526V43.726a.5.5,0,0,1,.526-.526h2.105a.526.526,0,0,1,0,1.053H35.916v1.579A.564.564,0,0,1,35.389,46.358Z" transform="translate(-5.811 -0.779)"/>
      <path id="Path_291" data-name="Path 291" class="cls-3" d="M30.989,44.253H28.884a.526.526,0,1,1,0-1.053h2.105a.526.526,0,0,1,0,1.053Z" transform="translate(-10.147 -0.779)"/>
      <path id="Path_292" data-name="Path 292" class="cls-3" d="M30.147,46.358a.5.5,0,0,1-.526-.526V43.726a.526.526,0,0,1,1.053,0v2.105A.564.564,0,0,1,30.147,46.358Z" transform="translate(-9.305 -0.779)"/>
      <path id="Path_293" data-name="Path 293" class="cls-3" d="M33.411,38.442h0c-.105,0-.316-.105-.421-.105l-1.474-1.474a.521.521,0,0,1,.737-.737l1.158,1.158,1.158-1.158a.521.521,0,1,1,.737.737l-1.474,1.474A.8.8,0,0,1,33.411,38.442Z" transform="translate(-8.147 -5.6)"/>
      <path id="Path_294" data-name="Path 294" class="cls-3" d="M38.021,43.642a.633.633,0,0,1-.421-.105l-1.474-1.474a.509.509,0,0,1,0-.737L37.6,39.853a.521.521,0,0,1,.737.737l-1.158,1.158,1.158,1.158a.509.509,0,0,1,0,.737Z" transform="translate(-5.074 -3.116)"/>
      <path id="Path_295" data-name="Path 295" class="cls-3" d="M34.926,46.779a.633.633,0,0,1-.421-.105l-1.158-1.158-1.158,1.158a.521.521,0,0,1-.737-.737l1.474-1.474a.509.509,0,0,1,.737,0l1.474,1.474a.509.509,0,0,1,0,.737A.368.368,0,0,1,34.926,46.779Z" transform="translate(-8.189 -0.042)"/>
      <path id="Path_296" data-name="Path 296" class="cls-3" d="M29.663,42.211a.633.633,0,0,1-.421-.105l-1.474-1.474c-.105-.105-.105-.211-.105-.421s0-.316.105-.421a.509.509,0,0,1,.737,0l1.474,1.474c.105.105.105.211.105.421s0,.316-.105.421A.387.387,0,0,1,29.663,42.211Z" transform="translate(-10.611 -3.158)"/>
      <path id="Path_297" data-name="Path 297" class="cls-3" d="M28.211,43.053a.633.633,0,0,1-.421-.105.509.509,0,0,1,0-.737l1.474-1.474a.521.521,0,0,1,.737.737l-1.474,1.474A.387.387,0,0,1,28.211,43.053Z" transform="translate(-10.632 -2.526)"/>
    </g>
  </g>
</svg>
