<svg xmlns="http://www.w3.org/2000/svg" xmlns:xlink="http://www.w3.org/1999/xlink" viewBox="-10701 5036 50 50">
  <defs>
    <style>
      .cls-1 {
        fill: #eaeff2;
      }

      .cls-2 {
        clip-path: url(#clip-path);
      }

      .cls-3 {
        fill: #fff;
      }
    </style>
    <clipPath id="clip-path">
      <rect id="Rectangle_227" data-name="Rectangle 227" class="cls-1" width="50" height="50" transform="translate(98 2960)"/>
    </clipPath>
  </defs>
  <g id="Mask_Group_48" data-name="Mask Group 48" class="cls-2" transform="translate(-10799 2076)">
    <g id="_4" data-name="4" transform="translate(98 2960)">
      <path id="Path_319" data-name="Path 319" class="cls-3" d="M16.471,13.658l-.968-1.29-4.274,3.548L10.1,14.868,8.971,16l2.1,2.177Z" transform="translate(-1.471 -1.723)"/>
      <rect id="Rectangle_218" data-name="Rectangle 218" class="cls-3" width="12.097" height="1.613" transform="translate(17.742 11.29)"/>
      <rect id="Rectangle_219" data-name="Rectangle 219" class="cls-3" width="13.71" height="1.613" transform="translate(17.742 14.516)"/>
      <path id="Path_320" data-name="Path 320" class="cls-3" d="M16.471,22.368l-.968-1.29-4.274,3.548L10.1,23.577,8.971,24.706l2.1,2.177Z" transform="translate(-1.471 -2.368)"/>
      <rect id="Rectangle_220" data-name="Rectangle 220" class="cls-3" width="16.935" height="1.613" transform="translate(17.742 19.355)"/>
      <rect id="Rectangle_221" data-name="Rectangle 221" class="cls-3" width="3.226" height="1.613" transform="translate(17.742 22.581)"/>
      <rect id="Rectangle_222" data-name="Rectangle 222" class="cls-3" width="12.097" height="1.613" transform="translate(22.581 22.581)"/>
      <path id="Path_321" data-name="Path 321" class="cls-3" d="M16.471,31.077l-.968-1.29-4.274,3.548L10.1,32.287,8.971,33.416l2.1,2.177Z" transform="translate(-1.471 -3.013)"/>
      <rect id="Rectangle_223" data-name="Rectangle 223" class="cls-3" width="16.935" height="1.613" transform="translate(17.742 27.419)"/>
      <rect id="Rectangle_224" data-name="Rectangle 224" class="cls-3" width="12.097" height="1.613" transform="translate(17.742 30.645)"/>
      <rect id="Rectangle_225" data-name="Rectangle 225" class="cls-3" width="3.226" height="1.613" transform="translate(31.452 30.645)"/>
      <rect id="Rectangle_226" data-name="Rectangle 226" class="cls-3" width="3.226" height="1.613" transform="translate(31.452 11.29)"/>
      <path id="Path_322" data-name="Path 322" class="cls-3" d="M48.452,37.968H42V4.9A3.993,3.993,0,0,0,37.968.871H4.9A3.993,3.993,0,0,0,.871,4.9,3.993,3.993,0,0,0,4.9,8.935V50.871H38.774V46.032H42V42.806h6.452a2.419,2.419,0,1,0,0-4.839ZM40.387,4.9V37.968H38.774V7.323h-.806A2.376,2.376,0,0,1,35.548,4.9a2.419,2.419,0,1,1,4.839,0Zm-37.9,0A2.376,2.376,0,0,1,4.9,2.484H34.742A4.146,4.146,0,0,0,33.935,4.9a4.146,4.146,0,0,0,.806,2.419H4.9A2.376,2.376,0,0,1,2.484,4.9ZM6.516,49.258V8.935H37.161V37.968H14.419L7.161,40.387l7.258,2.419H37.161v6.452Zm5.806-8.871,1.452-.484v.968Zm28.065,4.032H38.774V42.806h1.613ZM42,41.194H15.387V39.581H42Zm3.226,0H43.613V39.581h1.613Zm3.226,0H46.839V39.581h1.613a.806.806,0,1,1,0,1.613Z" transform="translate(-0.871 -0.871)"/>
    </g>
  </g>
</svg>
