<svg xmlns="http://www.w3.org/2000/svg" viewBox="-12976 10230 20 19.466">
  <defs>
    <style>
      .cls-1 {
        fill: #949799;
      }
    </style>
  </defs>
  <g id="call" transform="translate(-12982.853 9269.6)">
    <g id="Group_85" data-name="Group 85" transform="translate(6.853 960.4)">
      <path id="Path_208" data-name="Path 208" class="cls-1" d="M268.211-14.005a3.281,3.281,0,0,1-1-1.833,2.41,2.41,0,0,1,1-2.088,1.847,1.847,0,0,0,.58-.742,1.453,1.453,0,0,0-.209-1.183c-.742-.974-1.508-1.972-2.181-2.831a1.286,1.286,0,0,0-1.276-.371,2.966,2.966,0,0,0-1.021.7c-1.763,1.763-2.436,3.434-2.135,5.151s1.531,3.434,3.434,5.336l2.3,2.3c1.926,1.926,3.62,3.132,5.336,3.434s3.411-.371,5.151-2.135a2.966,2.966,0,0,0,.7-1.021,1.238,1.238,0,0,0-.371-1.276c-.858-.673-1.879-1.439-2.831-2.181a1.549,1.549,0,0,0-1.183-.209,1.847,1.847,0,0,0-.742.58,2.5,2.5,0,0,1-2.088,1,2.963,2.963,0,0,1-1.833-1m-3.759-9.977c.7.9,1.392,1.833,2.111,2.738a.979.979,0,0,1,.162.812,1.589,1.589,0,0,1-.464.557,2.979,2.979,0,0,0-1.137,2.483,3.355,3.355,0,0,0,1.137,2.111l1.647,1.647a3.6,3.6,0,0,0,2.111,1.137,2.979,2.979,0,0,0,2.483-1.137,1.589,1.589,0,0,1,.557-.464c.186-.07.394-.046.812.162.9.7,1.833,1.392,2.738,2.111a.753.753,0,0,1,.255.812,2.6,2.6,0,0,1-.58.835c-1.694,1.694-3.179,2.274-4.733,2s-3.225-1.415-5.1-3.318l-2.3-2.3c-1.879-1.879-3.039-3.55-3.318-5.1s.3-3.039,2-4.733a2.6,2.6,0,0,1,.835-.58c.255-.116.487-.093.789.232Z" transform="translate(-261.9 25.537)"/>
      <path id="Path_209" data-name="Path 209" class="cls-1" d="M302-33.345a.272.272,0,0,0,.255.209,9.961,9.961,0,0,1,9.977,9.977.25.25,0,0,0,.232.232.25.25,0,0,0,.232-.232A10.457,10.457,0,0,0,302.255-33.6.232.232,0,0,0,302-33.345Zm0,2.784a.272.272,0,0,0,.255.209,7.2,7.2,0,0,1,7.193,7.193.25.25,0,0,0,.232.232.25.25,0,0,0,.232-.232,7.664,7.664,0,0,0-7.657-7.657A.232.232,0,0,0,302-30.561Z" transform="translate(-292.696 33.6)"/>
    </g>
  </g>
</svg>
