<svg xmlns="http://www.w3.org/2000/svg" viewBox="-12776 10226 20 27.604">
  <defs>
    <style>
      .cls-1 {
        fill: #949799;
      }
    </style>
  </defs>
  <g id="location" transform="translate(-12798.362 10214.1)">
    <path id="Path_210" data-name="Path 210" class="cls-1" d="M32.036,39.324a.432.432,0,0,0,.326.181h0a.38.38,0,0,0,.326-.181l7.959-11.939c.289-.434.543-.868.8-1.339a9.989,9.989,0,1,0-18.126.109A10.1,10.1,0,0,0,24,27.349ZM24.547,16.893a9.282,9.282,0,0,1,16.281,8.828,8.792,8.792,0,0,1-.724,1.266L32.361,38.528,24.619,26.915A8.249,8.249,0,0,1,24,25.829,9.151,9.151,0,0,1,24.547,16.893Z" transform="translate(0 0)"/>
    <path id="Path_211" data-name="Path 211" class="cls-1" d="M40.3,35.2a5.5,5.5,0,1,0-5.5-5.5A5.5,5.5,0,0,0,40.3,35.2Zm0-10.275A4.776,4.776,0,1,1,35.524,29.7,4.771,4.771,0,0,1,40.3,24.924Z" transform="translate(-7.938 -7.85)"/>
  </g>
</svg>
