<svg xmlns="http://www.w3.org/2000/svg" viewBox="-13176 10232 20 14.807">
  <defs>
    <style>
      .cls-1 {
        fill: #949799;
      }
    </style>
  </defs>
  <g id="mail" transform="translate(-13183.45 10213.49)">
    <path id="Path_212" data-name="Path 212" class="cls-1" d="M25.805,18.51H9.095A1.645,1.645,0,0,0,7.45,20.155V31.671a1.645,1.645,0,0,0,1.645,1.645h16.71a1.645,1.645,0,0,0,1.645-1.645V20.155a1.645,1.645,0,0,0-1.645-1.645Zm-16.71.47h16.71a1.161,1.161,0,0,1,.567.153L18.3,27.573a1.175,1.175,0,0,1-1.7,0L8.52,19.13a1.161,1.161,0,0,1,.576-.148Zm16.71,13.869H9.095a1.175,1.175,0,0,1-.987-.543l5.615-6.9-.364-.3L7.93,31.786V20.16a1.175,1.175,0,0,1,.252-.717L16.276,27.9a1.645,1.645,0,0,0,2.374,0l2.3-2.428,5.838,6.816a1.175,1.175,0,0,1-.987.55Zm1.175-1.175a1.153,1.153,0,0,1-.012.122l-5.69-6.66,5.453-5.7a1.175,1.175,0,0,1,.252.717Z"/>
  </g>
</svg>
