<svg xmlns="http://www.w3.org/2000/svg" xmlns:xlink="http://www.w3.org/1999/xlink" viewBox="2280 8801 50 50">
  <defs>
    <style>
      .cls-1, .cls-3 {
        fill: #fff;
      }

      .cls-1 {
        stroke: #95989a;
      }

      .cls-2 {
        clip-path: url(#clip-path);
      }
    </style>
    <clipPath id="clip-path">
      <rect id="Rectangle_331" data-name="Rectangle 331" class="cls-1" width="50" height="50" transform="translate(85 628)"/>
    </clipPath>
  </defs>
  <g id="Mask_Group_222" data-name="Mask Group 222" class="cls-2" transform="translate(2195 8173)">
    <g id="coffee_cup" data-name="coffee cup" transform="translate(80.875 623.927)">
      <path id="Path_1072" data-name="Path 1072" class="cls-3" d="M5.868,573.584a.558.558,0,0,0-.523.407,24.62,24.62,0,0,0,7.9,26.785,7.6,7.6,0,0,0-.872.29,4.463,4.463,0,0,0-1.046.581,1.205,1.205,0,0,0-.523.988,1.294,1.294,0,0,0,.523.988,4.46,4.46,0,0,0,1.046.581,16.564,16.564,0,0,0,3.428.813,71.119,71.119,0,0,0,10.981.755,71.119,71.119,0,0,0,10.981-.755,23.115,23.115,0,0,0,3.428-.813,4.46,4.46,0,0,0,1.046-.581,1.194,1.194,0,0,0,0-1.975,4.463,4.463,0,0,0-1.046-.581,2.879,2.879,0,0,0-.755-.232,22.768,22.768,0,0,0,3.6-3.486,8.981,8.981,0,0,0,4.241-.174,6.872,6.872,0,0,0,4.881-4.474,24.573,24.573,0,0,0,.93-8.425,22.363,22.363,0,0,0-.407-3.312c-.116-.407-.174-.755-.291-1.046a1.456,1.456,0,0,0-.232-.407.7.7,0,0,0-.581-.291h0c-.639-.058-2.44-.174-3.138-.174a23.951,23.951,0,0,0-1.1-5,.558.558,0,0,0-.523-.407l-41.95-.058Zm.407,1.162H47.3a22.9,22.9,0,0,1,.988,5.345h0a15.224,15.224,0,0,1,.058,1.627,23.079,23.079,0,0,1-4.009,13.131h0c-.174.291-.407.523-.581.813h0a21.078,21.078,0,0,1-4.881,4.764h0c-.349-.058-.755-.174-1.162-.232a71.119,71.119,0,0,0-10.981-.755,71.119,71.119,0,0,0-10.981.755c-.349.058-.755.116-1.046.174h0a22.888,22.888,0,0,1-9.413-18.709,21.2,21.2,0,0,1,.988-6.914Zm43.17,5.4c.7.058,2.034.116,2.731.174h0a4.381,4.381,0,0,1,.232.872,26.355,26.355,0,0,1,.407,3.138,22.818,22.818,0,0,1-.813,7.96,5.8,5.8,0,0,1-4.067,3.777,10.229,10.229,0,0,1-3.138.232,8.5,8.5,0,0,0,.523-.755h0a24.246,24.246,0,0,0,4.183-13.77,14.689,14.689,0,0,0-.058-1.627ZM26.727,600.66a68.683,68.683,0,0,1,10.807.755,23.982,23.982,0,0,1,3.2.755,2.176,2.176,0,0,1,.755.407.057.057,0,0,1,.058.058l-.058.058a3.994,3.994,0,0,1-.755.407,16.228,16.228,0,0,1-3.2.755,68.14,68.14,0,0,1-10.807.755,68.14,68.14,0,0,1-10.807-.755,23.982,23.982,0,0,1-3.2-.755,2.176,2.176,0,0,1-.755-.407.057.057,0,0,1-.058-.058l.058-.058a3.994,3.994,0,0,1,.755-.407,16.228,16.228,0,0,1,3.2-.755A68.14,68.14,0,0,1,26.727,600.66Z" transform="translate(0 -553.343)"/>
      <path id="Path_1073" data-name="Path 1073" class="cls-3" d="M26.9,559.059a.528.528,0,0,0-.465.232c-1.22,1.394-1.685,2.615-1.511,3.6a4.387,4.387,0,0,0,1.336,2.44,4.111,4.111,0,0,1,1.162,1.859,3.221,3.221,0,0,1-.93,2.615.581.581,0,1,0,.93.7h0a4.432,4.432,0,0,0,1.162-3.6,5.5,5.5,0,0,0-1.453-2.382,3.8,3.8,0,0,1-1.046-1.859c-.058-.639.174-1.453,1.278-2.731a.565.565,0,0,0-.058-.813c-.116,0-.232-.058-.407-.058Z" transform="translate(0 -553.343)"/>
      <path id="Path_1074" data-name="Path 1074" class="cls-3" d="M21.323,563.823a.527.527,0,0,0-.407.174,2.528,2.528,0,0,0-1.1,2.092,3.031,3.031,0,0,0,.755,1.627,6.6,6.6,0,0,1,.7,1.1,1.209,1.209,0,0,1-.349,1.1.577.577,0,1,0,.872.755h0a2.473,2.473,0,0,0,.581-2.15,4.7,4.7,0,0,0-.872-1.511c-.291-.407-.523-.7-.523-.988,0-.232.058-.581.7-1.162a.565.565,0,0,0,.058-.813A.588.588,0,0,0,21.323,563.823Z" transform="translate(0 -553.343)"/>
      <path id="Path_1075" data-name="Path 1075" class="cls-3" d="M32.653,563.823a.527.527,0,0,0-.407.174,2.528,2.528,0,0,0-1.1,2.092,3.031,3.031,0,0,0,.755,1.627,6.6,6.6,0,0,1,.7,1.1,1.209,1.209,0,0,1-.349,1.1.577.577,0,1,0,.872.755h0a2.473,2.473,0,0,0,.581-2.15,4.7,4.7,0,0,0-.872-1.511c-.291-.407-.523-.7-.523-.988,0-.232.058-.581.7-1.162a.565.565,0,0,0,.058-.813A.489.489,0,0,0,32.653,563.823Z" transform="translate(0 -553.343)"/>
    </g>
  </g>
</svg>
