<svg xmlns="http://www.w3.org/2000/svg" xmlns:xlink="http://www.w3.org/1999/xlink" viewBox="2510 8801 50 50">
  <defs>
    <style>
      .cls-1, .cls-3 {
        fill: #fff;
      }

      .cls-1 {
        stroke: #95989a;
      }

      .cls-2 {
        clip-path: url(#clip-path);
      }
    </style>
    <clipPath id="clip-path">
      <rect id="Rectangle_331" data-name="Rectangle 331" class="cls-1" width="50" height="50" transform="translate(85 628)"/>
    </clipPath>
  </defs>
  <g id="Mask_Group_223" data-name="Mask Group 223" class="cls-2" transform="translate(2425 8173)">
    <g id="calculator" transform="translate(80.238 623.216)">
      <path id="Path_1076" data-name="Path 1076" class="cls-3" d="M5.3,571.667a.424.424,0,0,0-.357.179.643.643,0,0,0-.179.417v48.81a.61.61,0,0,0,.6.6h48.81a.61.61,0,0,0,.6-.6v-48.81a.541.541,0,0,0-.179-.417.643.643,0,0,0-.417-.179Zm.655,1.19H29.167v23.214H5.952Zm24.4,0H53.571v23.214H30.357Zm-13.1,5.357a.562.562,0,0,0-.6.6v4.762H11.9a.6.6,0,0,0,0,1.19h4.762v4.762a.6.6,0,1,0,1.19,0v-4.762h4.762a.6.6,0,0,0,0-1.19H17.857V578.81A.562.562,0,0,0,17.262,578.214ZM36.9,583.571a.6.6,0,0,0,0,1.19H47.619a.6.6,0,0,0,0-1.19ZM5.952,597.262H29.167v23.214H5.952Zm24.4,0H53.571v23.214H30.357Zm-17.738,6.667a.54.54,0,0,0-.417.179.575.575,0,0,0,0,.833l4.226,4.226L12.2,613.393a.589.589,0,0,0,.833.833L17.262,610l4.226,4.226a.589.589,0,0,0,.833-.833L18.1,609.167l4.226-4.226a.589.589,0,0,0-.833-.833l-4.226,4.226-4.226-4.226A.54.54,0,0,0,12.619,603.929ZM36.9,605.6a.6.6,0,1,0,0,1.19H47.619a.6.6,0,1,0,0-1.19Zm0,5.952a.6.6,0,0,0,0,1.19H47.619a.6.6,0,0,0,0-1.19Z" transform="translate(0 -566.882)"/>
    </g>
  </g>
</svg>
