<svg xmlns="http://www.w3.org/2000/svg" xmlns:xlink="http://www.w3.org/1999/xlink" viewBox="2740 8801 50 50">
  <defs>
    <style>
      .cls-1, .cls-3 {
        fill: #fff;
      }

      .cls-1 {
        stroke: #95989a;
      }

      .cls-2 {
        clip-path: url(#clip-path);
      }
    </style>
    <clipPath id="clip-path">
      <rect id="Rectangle_331" data-name="Rectangle 331" class="cls-1" width="50" height="50" transform="translate(85 628)"/>
    </clipPath>
  </defs>
  <g id="Mask_Group_224" data-name="Mask Group 224" class="cls-2" transform="translate(2655 8173)">
    <g id="paper_pen" data-name="paper pen" transform="translate(80.93 623.908)">
      <path id="Path_1077" data-name="Path 1077" class="cls-3" d="M20.814,559.535a.566.566,0,0,0-.465.581v45.349a.549.549,0,0,0,.581.581H53.488a.549.549,0,0,0,.581-.581V567.674a.529.529,0,0,0-.233-.465l-10.465-7.558a.826.826,0,0,0-.349-.116H20.814Zm.7,1.163h20.93v6.977a.549.549,0,0,0,.581.581h9.884v36.628h-31.4Zm22.093.523,8.081,5.814H43.6Zm-34.419.058a.566.566,0,0,0-.465.581v4.07H4.535a.566.566,0,0,0-.465.581V579.3a.549.549,0,0,0,.581.581.549.549,0,0,0,.581-.581h0V567.093H8.721v31.4a.524.524,0,0,0,.058.291l2.907,5.233a.588.588,0,0,0,.814.233.454.454,0,0,0,.233-.233l2.907-5.233a.436.436,0,0,0,.058-.291V561.86a.549.549,0,0,0-.581-.581H9.186Zm.7,1.163h4.651v3.488H9.884Zm0,4.651h4.651v29.651H9.884Zm18.488,5.233a.584.584,0,1,0,.116,1.163H45.93a.581.581,0,1,0,0-1.163H28.372Zm0,9.884a.584.584,0,1,0,.116,1.163H45.93a.581.581,0,1,0,0-1.163H28.372Zm0,9.884a.584.584,0,1,0,.116,1.163H45.93a.581.581,0,1,0,0-1.163H28.372ZM9.884,597.907h4.651v.407L12.209,602.5l-2.326-4.186Z" transform="translate(0 -553.699)"/>
    </g>
  </g>
</svg>
