<svg xmlns="http://www.w3.org/2000/svg" xmlns:xlink="http://www.w3.org/1999/xlink" viewBox="2970 8801 50 50">
  <defs>
    <style>
      .cls-1, .cls-3 {
        fill: #fff;
      }

      .cls-1 {
        stroke: #95989a;
      }

      .cls-2 {
        clip-path: url(#clip-path);
      }
    </style>
    <clipPath id="clip-path">
      <rect id="Rectangle_331" data-name="Rectangle 331" class="cls-1" width="50" height="50" transform="translate(85 628)"/>
    </clipPath>
  </defs>
  <g id="Mask_Group_225" data-name="Mask Group 225" class="cls-2" transform="translate(2885 8173)">
    <g id="checklist" transform="translate(69.677 612.677)">
      <g id="Group_961" data-name="Group 961">
        <path id="Path_1078" data-name="Path 1078" class="cls-3" d="M23.145,30.081l1.29,1.29,2.984-3.629a.8.8,0,1,1,1.21,1.048l-3.548,4.274a.812.812,0,0,1-1.21.081L21.935,31.21a.78.78,0,0,1,0-1.129A.876.876,0,0,1,23.145,30.081Zm0,9.677,1.29,1.29,2.984-3.629a.8.8,0,0,1,1.21,1.048l-3.548,4.274a.812.812,0,0,1-1.21.081l-1.935-1.935a.78.78,0,0,1,0-1.129A.876.876,0,0,1,23.145,39.758Zm0,9.677,1.29,1.29L27.419,47.1a.8.8,0,0,1,1.21,1.048l-3.548,4.274a.812.812,0,0,1-1.21.081l-1.935-1.935a.78.78,0,0,1,0-1.129A.876.876,0,0,1,23.145,49.435Zm10.645-7.9a.806.806,0,1,1,0-1.613H57.984a.806.806,0,1,1,0,1.613Zm0,9.677a.806.806,0,1,1,0-1.613H57.984a.806.806,0,1,1,0,1.613Zm0-19.355a.806.806,0,1,1,0-1.613H57.984a.806.806,0,1,1,0,1.613Z"/>
        <path id="Path_1079" data-name="Path 1079" class="cls-3" d="M17.339,16.935a.381.381,0,0,0-.4.4V63.306a.381.381,0,0,0,.4.4H63.306a.381.381,0,0,0,.4-.4V17.339a.381.381,0,0,0-.4-.4Zm-.4-1.613H63.71a1.618,1.618,0,0,1,1.613,1.613V63.71a1.618,1.618,0,0,1-1.613,1.613H16.935a1.618,1.618,0,0,1-1.613-1.613V16.935A1.618,1.618,0,0,1,16.935,15.323Z"/>
      </g>
    </g>
  </g>
</svg>
