<svg xmlns="http://www.w3.org/2000/svg" xmlns:xlink="http://www.w3.org/1999/xlink" viewBox="3200 8801 50 50">
  <defs>
    <style>
      .cls-1, .cls-3 {
        fill: #fff;
      }

      .cls-1 {
        stroke: #95989a;
      }

      .cls-2 {
        clip-path: url(#clip-path);
      }
    </style>
    <clipPath id="clip-path">
      <rect id="Rectangle_331" data-name="Rectangle 331" class="cls-1" width="50" height="50" transform="translate(85 628)"/>
    </clipPath>
  </defs>
  <g id="Mask_Group_221" data-name="Mask Group 221" class="cls-2" transform="translate(3115 8173)">
    <g id="Handshake" transform="translate(82.222 625.25)">
      <path id="Path_1069" data-name="Path 1069" class="cls-3" d="M52.556,13.111a.533.533,0,0,0-.5-.111l-9.333,2.111a.643.643,0,0,0-.389.278.59.59,0,0,0-.056.444l.167.5H35.556A46.134,46.134,0,0,0,28.5,12.778a7.387,7.387,0,0,0-2.333-.333,8.421,8.421,0,0,0-4.056,1c-.444.278-1.056.667-1.778,1.167a11.612,11.612,0,0,0-1.389-.056,16.6,16.6,0,0,0-5.833,1.111.416.416,0,0,0-.056-.278c-.056-.167-.222-.222-.389-.278L3.444,13a.567.567,0,0,0-.5.111.631.631,0,0,0-.167.444V31.222a.5.5,0,0,0,.167.389.5.5,0,0,0,.389.167H7.5a.669.669,0,0,0,.556-.389l.056-.167c.5.222,1.167.556,1.889.889a2.862,2.862,0,0,0,1.167,2.611,2.9,2.9,0,0,0,1.611.5,4.288,4.288,0,0,0,.833-.111.945.945,0,0,0,.056.389,2.733,2.733,0,0,0,1.167,1.833,2.9,2.9,0,0,0,1.611.5,2.3,2.3,0,0,0,.889-.167,1.223,1.223,0,0,0,.056.444,2.864,2.864,0,0,0,1.167,1.833,2.9,2.9,0,0,0,1.611.5,2.3,2.3,0,0,0,.889-.167,2.8,2.8,0,0,0,1.222,2.278,2.9,2.9,0,0,0,1.611.5,2.751,2.751,0,0,0,2.333-1.222L28,39.278a2.546,2.546,0,0,0,.611.389l1.556,1.056a2.9,2.9,0,0,0,1.611.5A2.823,2.823,0,0,0,34.111,40a2.714,2.714,0,0,0,.5-1.833,2.939,2.939,0,0,0,3.556-.944,2.648,2.648,0,0,0,.5-1.778,2.925,2.925,0,0,0,3.722-.833,2.714,2.714,0,0,0,.5-1.833,2.855,2.855,0,0,0,4-2.667h.222l.333,1.056a.552.552,0,0,0,.556.389h4.222A.557.557,0,0,0,52.778,31V13.556A.505.505,0,0,0,52.556,13.111Zm-.889,17.5H48.5l-.167-.278-.167-.556L43.889,16.889l-.167-.556-.111-.278,8.056-1.833V30.611Zm-4.944-1.389a2.294,2.294,0,0,0-.389-.611.054.054,0,0,0-.056-.056,2.388,2.388,0,0,0-.556-.5L35.333,20.667a.688.688,0,0,0-.167-.111.119.119,0,0,1-.111-.111.767.767,0,0,0-.222-.167c-.056-.056-.167-.111-.222-.167-.111-.056-.222-.167-.333-.222s-.222-.167-.333-.222c-.111-.111-.278-.167-.389-.278-.111-.056-.222-.167-.333-.222l-.5-.333c-.111-.111-.278-.167-.389-.278a3.373,3.373,0,0,1-.556-.389c-.167-.111-.278-.167-.444-.278-.222-.111-.389-.222-.611-.333-.167-.111-.333-.167-.5-.278A1.738,1.738,0,0,0,29.667,17c-.056-.056-.056-.056-.111-.056h0a.416.416,0,0,0-.278-.056H23.944a1.03,1.03,0,0,0-.389.111c-.889.778-3.5,2.722-5.111,2.722-.944,0-1.444-.222-1.556-.5a.766.766,0,0,1,.278-.667,3.4,3.4,0,0,1,.333-.278c.222-.167.611-.444,1-.778.722-.556,1.611-1.222,2.444-1.833h0c.778-.556,1.389-.944,1.833-1.278a7.17,7.17,0,0,1,3.444-.833,6.836,6.836,0,0,1,1.944.278,47.17,47.17,0,0,1,6.944,3.5c.111.056.167.111.278.111h7.5l3.944,11.778Zm-3.556,2.5L32.778,24.5a.588.588,0,0,0-.778.111.6.6,0,0,0,.111.778l9,6.333a1.7,1.7,0,0,1,.389,2.389,1.761,1.761,0,0,1-2.389.444l-7.778-5.444a.562.562,0,1,0-.611.944l6.222,4.333a1.8,1.8,0,0,1,.389,2.389,1.77,1.77,0,0,1-2.389.444l-8.056-5.667h0a.546.546,0,0,0-.778.167.588.588,0,0,0,.111.778l6.611,4.611a1.869,1.869,0,0,1,.722,1.111,1.752,1.752,0,0,1-.278,1.278,1.817,1.817,0,0,1-2.389.444l-1.556-1.056a5.485,5.485,0,0,1-.667-.5,3.387,3.387,0,0,0,.167-1.5,2.733,2.733,0,0,0-1.167-1.833,2.547,2.547,0,0,0-1.889-.444,2.876,2.876,0,0,0-1-3.389,2.924,2.924,0,0,0-4,.722h0a2.875,2.875,0,0,0-1.056-1.5,2.922,2.922,0,0,0-3.389.111A2.816,2.816,0,0,0,15.222,29a2.848,2.848,0,0,0-3.944.722l-.722,1.056c-.056.111-.111.167-.167.278-.722-.333-1.389-.667-1.833-.889l4.389-13.111a16.862,16.862,0,0,1,6.167-1.389h-.056c-.111.056-.167.111-.278.167-.111.111-.222.167-.333.278-.056.056-.167.111-.222.167a1.688,1.688,0,0,1-.389.278c-.056.056-.111.056-.111.111a3.175,3.175,0,0,0-.444.389h0c-.111.111-.278.222-.333.278a.054.054,0,0,0-.056.056c-.056.056-.111.111-.167.111l-.056.056a.172.172,0,0,1-.111.056A1.745,1.745,0,0,0,16,19.556c.167.444.778,1.167,2.556,1.167a4.819,4.819,0,0,0,1.667-.389,9.038,9.038,0,0,0,1.278-.611,4.8,4.8,0,0,0,.889-.556c.833-.556,1.556-1.111,1.833-1.333h4.944c.111.056.167.111.278.167a3.1,3.1,0,0,1,.444.278c.167.111.278.167.444.278a4.886,4.886,0,0,1,.556.333c.167.111.278.167.444.278s.389.222.556.333c.111.056.278.167.389.222l.5.333c.111.056.222.167.333.222.167.111.278.222.444.333.056.056.167.111.222.167.167.111.278.222.389.278.056.056.111.056.167.111.111.111.222.167.278.222l.056.056.111.111,10.5,7.333a1.7,1.7,0,0,1,.667,1,1.613,1.613,0,0,1-.278,1.389A1.87,1.87,0,0,1,43.167,31.722ZM27.389,38.389l-.222.333-1.778,2.556A1.817,1.817,0,0,1,23,41.722a1.761,1.761,0,0,1-.444-2.389h0l.667-1,1.111-1.611.222-.333.111-.111a1.5,1.5,0,0,1,.444-.389A1.63,1.63,0,0,1,26,35.667,1.664,1.664,0,0,1,27,36a1.869,1.869,0,0,1,.722,1.111,1.141,1.141,0,0,1,0,.611,2.322,2.322,0,0,1-.222.556A.119.119,0,0,0,27.389,38.389Zm-8.167.667a1.869,1.869,0,0,1-.722-1.111,1.752,1.752,0,0,1,.278-1.278l.667-.944.333-.5.389-.5,1.5-2.167a1.763,1.763,0,0,1,1.444-.722,1.664,1.664,0,0,1,1,.333,1.761,1.761,0,0,1,.444,2.389L24,35.333l-.333.5-.333.5-.889,1.278-.722,1.056h0A1.915,1.915,0,0,1,19.222,39.056Zm-4.5-3.722a1.584,1.584,0,0,1,.111-.889v-.056c.111-.111.222-.167.278-.333l.056-.111L15.5,33.5l.333-.5a6.06,6.06,0,0,0,.333-.611l.444-.611A1.737,1.737,0,0,1,18,31.056a1.664,1.664,0,0,1,1,.333,1.869,1.869,0,0,1,.722,1.111,1.752,1.752,0,0,1-.278,1.278l-.556.722-.333.5-.333.5-.333.5a1.761,1.761,0,0,1-2.389.444A1.731,1.731,0,0,1,14.722,35.333Zm-3.611-3.278a1.973,1.973,0,0,1,.222-.5c0-.056.056-.056.056-.111l.722-1.056a1.737,1.737,0,0,1,1.389-.722,1.792,1.792,0,0,1,1,.333,1.869,1.869,0,0,1,.722,1.111,2.118,2.118,0,0,1-.056.833,1.117,1.117,0,0,1-.222.444l-.5.611-.278.389c0,.056-.056.056-.056.111-.056.056-.111.167-.167.222-.111.056-.167.167-.278.222a1.689,1.689,0,0,1-1.833-.056,1.76,1.76,0,0,1-.722-1.167A1.349,1.349,0,0,1,11.111,32.056Zm-4-1.444H3.889V14.222l8.056,1.833-.056.111-.222.722L7.222,30.167Z"/>
      <path id="Path_1070" data-name="Path 1070" class="cls-3" d="M48.556,20.389h0A2.278,2.278,0,0,0,50.167,16.5a2.332,2.332,0,0,0-3.222,0,2.225,2.225,0,0,0-.667,1.611A2.253,2.253,0,0,0,48.556,20.389Zm-.833-3.056A1.1,1.1,0,0,1,48.5,17a1.009,1.009,0,0,1,.778.333,1.1,1.1,0,0,1,.333.778,1.009,1.009,0,0,1-.333.778,1.1,1.1,0,0,1-.778.333,1.114,1.114,0,0,1-1.111-1.111A1.1,1.1,0,0,1,47.722,17.333Z"/>
      <path id="Path_1071" data-name="Path 1071" class="cls-3" d="M7,15.889a2.278,2.278,0,1,0,0,4.556,2.276,2.276,0,0,0,2.278-2.278A2.253,2.253,0,0,0,7,15.889ZM5.889,18.111a1.111,1.111,0,0,1,2.222,0,1.009,1.009,0,0,1-.333.778A1.1,1.1,0,0,1,7,19.222,1.049,1.049,0,0,1,5.889,18.111Z"/>
    </g>
  </g>
</svg>
