<svg xmlns="http://www.w3.org/2000/svg" xmlns:xlink="http://www.w3.org/1999/xlink" viewBox="2297 9100 40 40">
  <defs>
    <style>
      .cls-1, .cls-3 {
        fill: #fff;
      }

      .cls-1 {
        stroke: #95989a;
      }

      .cls-2 {
        clip-path: url(#clip-path);
      }
    </style>
    <clipPath id="clip-path">
      <rect id="Rectangle_331" data-name="Rectangle 331" class="cls-1" width="40" height="40" transform="translate(218 642)"/>
    </clipPath>
  </defs>
  <g id="Mask_Group_76" data-name="Mask Group 76" class="cls-2" transform="translate(2079 8458)">
    <g id="paytime" transform="translate(218 642.089)">
      <path id="Path_595" data-name="Path 595" class="cls-3" d="M45.05,20.93l-5.183,6.246v.133h0L45.05,20.93Z" transform="translate(-8.372 -10.743)"/>
      <path id="Path_596" data-name="Path 596" class="cls-3" d="M36.08,15.449l-3.987,4.784v.133h0l3.987-4.917Z" transform="translate(-10.963 -12.571)"/>
      <path id="Path_597" data-name="Path 597" class="cls-3" d="M46.478,22.259h0c.133,0,.133-.133,0,0l-10.764-6.91h-.133v.133Z" transform="translate(-9.801 -12.604)"/>
      <path id="Path_598" data-name="Path 598" class="cls-3" d="M56.113,22.68c0-.133-.133-.266-.266-.4l-14.219-8.9a.819.819,0,0,0-.93.133L38.04,16.832l-1.728-.93c-.266-.133-.8-.133-.93.133L31,22.015l-1.329-.664a.249.249,0,0,0-.4,0c-.133,0-.266.133-.4.266L25.017,27.2l.133-.266H18.106a1.69,1.69,0,0,0-1.86,1.595h0v22.06a2.718,2.718,0,0,0,2.924,2.525H43.754a4.424,4.424,0,0,0,3.987-2.392h0a3.64,3.64,0,0,0,2.791-3.455V44.872a2.958,2.958,0,0,0,2.259-2.791V37.7a2.814,2.814,0,0,0-2.259-2.525V31.185a2.591,2.591,0,0,0-.133-1.063L49.336,31.45v4.518h0V37.43h-1.2V32.912h0l8.106-9.7C56.113,22.945,56.246,22.813,56.113,22.68ZM36.312,17.1l1.063.664L27.94,29.191h-.8Zm-6.645,5.449.8.4-4.518,6.246h-.4ZM17.575,28.66a.608.608,0,0,1,.664-.532h6.379l-.8,1.063H18.239c-.532-.133-.664-.266-.664-.532ZM46.811,49.391a2.857,2.857,0,0,1-3.056,2.658H19.037a1.634,1.634,0,0,1-1.728-1.462V30.121a5.756,5.756,0,0,0,.664.133H43.621a2.857,2.857,0,0,1,3.056,2.658V37.43h-.93v-.8a.133.133,0,1,0-.266,0v.8H44.419A4.281,4.281,0,0,0,39.9,41.151a3.637,3.637,0,0,0,1.2,2.924,4.762,4.762,0,0,0,3.189,1.2h1.063v.8a.133.133,0,1,0,.266,0v-.8h.93l.266,4.12Zm-10.631-20.6.8-.93,1.86,1.2H36.711ZM49.336,47.264a2.554,2.554,0,0,1-1.2,2.126h0V45.005h1.2Zm.532-8.771c.266,0,.664-.266.664-.532V36.5a1.4,1.4,0,0,1,1.063,1.329v4.252a1.97,1.97,0,0,1-2.126,1.86H44.551a3.126,3.126,0,0,1-2.259-.8,2.567,2.567,0,0,1-.93-1.993,3.076,3.076,0,0,1,3.189-2.658Zm-2.126-7.176h0a4.037,4.037,0,0,0-2.658-2.126h0a5.871,5.871,0,0,0-2.791-3.455,7.394,7.394,0,0,0-4.784-1.2,5.672,5.672,0,0,0-3.987,1.86,3.831,3.831,0,0,0-.93,2.658H29.535L41.5,14.573l13.289,8.239Z" transform="translate(-16.246 -13.29)"/>
      <path id="Path_599" data-name="Path 599" class="cls-3" d="M17.907,45.548V28.14a.133.133,0,1,0-.266,0V45.548a1.015,1.015,0,0,0,.266.664h0V46.08C18.04,46.08,17.907,45.814,17.907,45.548Z" transform="translate(-15.781 -8.384)"/>
      <path id="Path_600" data-name="Path 600" class="cls-3" d="M17.674,28.04h0l.133-.4a.133.133,0,0,0-.266,0l.133.4Z" transform="translate(-15.814 -8.551)"/>
      <path id="Path_601" data-name="Path 601" class="cls-3" d="M38.405,30.532h0l.133-.4a.133.133,0,1,0-.266,0l.133.4Z" transform="translate(-8.904 -7.72)"/>
      <path id="Path_602" data-name="Path 602" class="cls-3" d="M38.405,38.073h0l-.133.4a.133.133,0,0,0,.266,0l-.133-.4Z" transform="translate(-8.904 -5.029)"/>
      <path id="Path_603" data-name="Path 603" class="cls-3" d="M39.07,32.757h.4a.133.133,0,0,0,0-.266h-.4v.266Z" transform="translate(-8.638 -6.889)"/>
      <path id="Path_604" data-name="Path 604" class="cls-3" d="M39.992,32.857h1.993c.4,0,.93-.133,1.063-.532v-.133h-.133a1.381,1.381,0,0,1-1.063.532h-1.86c-.133,0-.133,0,0,.133C39.859,32.724,39.859,32.857,39.992,32.857Z" transform="translate(-8.364 -6.989)"/>
      <ellipse id="Ellipse_51" data-name="Ellipse 51" class="cls-3" cx="1.728" cy="1.462" rx="1.728" ry="1.462" transform="translate(26.578 26.4)"/>
    </g>
  </g>
</svg>
