<svg xmlns="http://www.w3.org/2000/svg" xmlns:xlink="http://www.w3.org/1999/xlink" viewBox="2596 9100 40 40">
  <defs>
    <style>
      .cls-1, .cls-3 {
        fill: #fff;
      }

      .cls-1 {
        stroke: #95989a;
      }

      .cls-2 {
        clip-path: url(#clip-path);
      }
    </style>
    <clipPath id="clip-path">
      <rect id="Rectangle_331" data-name="Rectangle 331" class="cls-1" width="40" height="40" transform="translate(218 642)"/>
    </clipPath>
  </defs>
  <g id="Mask_Group_77" data-name="Mask Group 77" class="cls-2" transform="translate(2378 8458)">
    <g id="coins" transform="translate(218.172 642)">
      <path id="Path_605" data-name="Path 605" class="cls-3" d="M49.8,43.754h0l.133.532a.4.4,0,1,0,.8,0v-.664c1.595-.133,3.189-.532,3.322-1.595,0-.93-1.063-1.595-3.322-1.86V38.439c1.86,0,2.658.532,2.658.8a.4.4,0,0,0,.8,0,.859.859,0,0,0-.266-.664,4.54,4.54,0,0,0-3.189-.93v-.664a.352.352,0,0,0-.4-.4c-.266,0-.532.133-.532.4v.532c-1.86,0-3.721.4-3.721,1.595,0,1.063,1.329,1.728,3.721,1.86v1.728h-.133c-2.126,0-2.924-.532-2.924-.8a.4.4,0,1,0-.8,0,.859.859,0,0,0,.266.664Q47.01,43.754,49.8,43.754ZM47.01,39.369c0-.133.93-.664,2.924-.8V40.3C47.542,40.033,46.877,39.369,47.01,39.369Zm3.721,1.86c2.126.266,2.525.8,2.525.93s-.664.664-2.525.8Z" transform="translate(-30.532 -34.851)"/>
      <path id="Path_606" data-name="Path 606" class="cls-3" d="M42.492,52.691h0v.664a.4.4,0,1,0,.8,0v-.664c1.595-.133,3.322-.532,3.322-1.595,0-.93-1.063-1.595-3.322-1.86V47.508c1.993,0,2.658.532,2.658.8a.4.4,0,1,0,.8,0,.859.859,0,0,0-.266-.664,4.54,4.54,0,0,0-3.189-.93v-.664a.352.352,0,0,0-.4-.4c-.266,0-.4.266-.4.532v.664c-1.728,0-3.588.4-3.588,1.595,0,1.063,1.2,1.728,3.588,1.86v1.728h0c-2.259,0-2.791-.532-2.924-.8a.4.4,0,0,0-.8,0,.859.859,0,0,0,.266.664C39.568,52.425,40.764,52.691,42.492,52.691Zm-2.658-4.252c0-.133.8-.664,2.791-.8v1.728C40.233,49.1,39.834,48.439,39.834,48.439Zm3.455,1.86c2.126.266,2.658.8,2.525.93,0,.133-.8.664-2.525.664Z" transform="translate(-32.924 -31.827)"/>
      <path id="Path_607" data-name="Path 607" class="cls-3" d="M66.545,55.216a9.413,9.413,0,0,0-1.993.133V41.4c0-3.455-4.518-6.113-10.365-6.113-5.714,0-10.233,2.658-10.233,6.113v6.113c-5.449.133-9.568,2.791-9.568,5.98V67.309c0,3.322,4.518,5.98,9.967,5.98s9.967-2.658,9.967-5.98v-1.2a18.083,18.083,0,0,0,3.987-.532v5.05c0,2.658,3.455,4.651,7.841,4.651s7.841-2.126,7.841-4.651v-10.5C74.518,57.342,71.063,55.216,66.545,55.216Zm7.176,4.651c0,2.126-3.322,3.854-7.043,3.854s-6.645-1.595-7.043-3.455v-.133h0v-.266c0-2.126,3.322-3.854,7.043-3.854C70.532,56.013,73.721,57.874,73.721,59.867Zm0,7.309c0,2.126-3.322,3.854-7.043,3.854-3.854,0-7.043-1.728-7.043-3.854V65.847c1.329,1.595,3.854,2.658,7.043,2.658s5.847-1.063,7.043-2.658ZM63.754,55.482c-2.924.664-5.05,2.392-5.05,4.385V60a20.817,20.817,0,0,1-3.987.664V57.076c4.12,0,7.708-1.595,9.169-3.721l-.133,2.126ZM35.183,60.8c1.595,2.126,5.05,3.588,9.3,3.588s7.841-1.462,9.3-3.588v1.993c0,2.791-4.252,5.05-9.3,5.05s-9.3-2.392-9.3-5.05ZM63.754,48.97v1.993c0,2.791-4.12,5.05-9.169,5.183V53.488a2.262,2.262,0,0,0-.133-.93c4.385,0,7.841-1.462,9.3-3.588ZM54.319,36.213c5.183,0,9.568,2.392,9.568,5.183s-4.385,5.183-9.568,5.183-9.568-2.392-9.568-5.183S49.136,36.213,54.319,36.213Zm0,11.3c4.385,0,7.973-1.595,9.568-3.721v2.791c0,2.791-4.385,5.183-9.568,5.183h-.133c-1.2-2.392-4.917-4.12-9.435-4.12V43.92C46.346,46.047,49.934,47.508,54.319,47.508Zm-9.834.93c4.12,0,7.841,1.595,8.9,3.721h0c0,.133.133.4.266.4a3.381,3.381,0,0,1,.266.93c0,2.791-4.252,5.05-9.3,5.05s-9.3-2.392-9.3-5.05S39.435,48.439,44.485,48.439Zm0,11.03c4.252,0,7.841-1.462,9.3-3.588v2.525c0,2.791-4.252,5.05-9.3,5.05s-9.3-2.392-9.3-5.05V55.748C36.777,58.007,40.233,59.468,44.485,59.468Zm9.3,7.708c0,2.791-4.252,5.05-9.3,5.05s-9.3-2.392-9.3-5.05V65.183c1.595,2.126,5.05,3.588,9.3,3.588s7.841-1.462,9.3-3.588v1.993Zm.93-1.993V61.595a18.083,18.083,0,0,0,3.987-.532v3.588C57.375,64.784,56.047,65.05,54.718,65.183Zm11.827,9.169c-3.854,0-7.043-1.728-7.043-3.854V69.169c1.329,1.595,3.854,2.658,7.043,2.658s5.847-1.063,7.043-2.658V70.5C73.721,72.625,70.532,74.352,66.545,74.352Zm7.176-12.093v1.462c0,2.126-3.322,3.854-7.043,3.854-3.854,0-7.043-1.728-7.043-3.854V61.993c1.329,1.595,3.854,2.658,7.043,2.658s5.847-1.063,7.043-2.658Z" transform="translate(-34.385 -35.282)"/>
      <path id="Path_608" data-name="Path 608" class="cls-3" d="M58.937,56.844h0v.4a.4.4,0,0,0,.8,0v-.4c1.063,0,2.525-.4,2.525-1.2,0-.532-.4-1.2-2.525-1.462v-1.2a3.864,3.864,0,0,1,1.86.4.4.4,0,0,0,.8,0,.859.859,0,0,0-.266-.664,4.137,4.137,0,0,0-2.392-.8v-.4a.4.4,0,1,0-.8,0v.532c-1.063,0-2.658.266-2.791,1.2,0,.532.532,1.329,2.791,1.595v1.063h0c-1.595,0-1.993-.4-2.126-.532a.4.4,0,0,0-.8,0,.859.859,0,0,0,.266.664C56.678,56.578,57.608,56.844,58.937,56.844Zm-1.993-3.455a3.2,3.2,0,0,1,1.993-.4v1.063C57.475,53.787,57.076,53.522,56.944,53.389Zm2.791,1.462c1.2.133,1.595.4,1.595.532a2.55,2.55,0,0,1-1.595.4Z" transform="translate(-27.176 -30)"/>
    </g>
  </g>
</svg>
