<svg xmlns="http://www.w3.org/2000/svg" xmlns:xlink="http://www.w3.org/1999/xlink" viewBox="2896 9100 40 40">
  <defs>
    <style>
      .cls-1, .cls-3 {
        fill: #fff;
      }

      .cls-1 {
        stroke: #95989a;
      }

      .cls-2 {
        clip-path: url(#clip-path);
      }
    </style>
    <clipPath id="clip-path">
      <rect id="Rectangle_331" data-name="Rectangle 331" class="cls-1" width="40" height="40" transform="translate(218 642)"/>
    </clipPath>
  </defs>
  <g id="Mask_Group_78" data-name="Mask Group 78" class="cls-2" transform="translate(2678 8458)">
    <g id="avance1" transform="translate(218 645.266)">
      <path id="Path_609" data-name="Path 609" class="cls-3" d="M53.953,993.5a16.461,16.461,0,0,0-15.867,11.333.594.594,0,0,0,.267.8.641.641,0,0,0,.8-.267.413.413,0,0,1,.133-.267A15.639,15.639,0,0,1,54.22,994.567a15.38,15.38,0,0,1,15.333,14.667l-4.8-3.6a.573.573,0,1,0-.667.933l6.133,4.4a.5.5,0,0,0,.8-.133.131.131,0,0,1,.133-.133l2.933-6.933a.593.593,0,0,0-.267-.8.466.466,0,0,1-.267-.133c-.267,0-.267.133-.4.4l-2.4,5.333A17.13,17.13,0,0,0,53.953,993.5Zm-.133,5.2c-.267,0-.533.4-.533.533v10.933a.488.488,0,0,0,.533.533h6.8a.533.533,0,0,0,0-1.067H54.353V999.367c.133-.4,0-.667-.533-.667Zm-16.267,10.4c-.267,0-.267.133-.4.4l-2.933,6.933a.535.535,0,0,0,.267.8c.4.133.667.133.8-.267v-.133l2.267-5.333a16.658,16.658,0,0,0,32.4,4.133.594.594,0,0,0-.267-.8.641.641,0,0,0-.8.267.413.413,0,0,1-.133.267A15.639,15.639,0,0,1,53.82,1025.9a15.291,15.291,0,0,1-15.333-14.667l4.8,3.6a.573.573,0,1,0,.667-.933h0l-6.133-4.4C37.82,1009.1,37.553,1009.1,37.553,1009.1Z" transform="translate(-34.142 -993.543)"/>
    </g>
  </g>
</svg>
