<svg xmlns="http://www.w3.org/2000/svg" xmlns:xlink="http://www.w3.org/1999/xlink" viewBox="3196 9100 40 40">
  <defs>
    <style>
      .cls-1, .cls-3 {
        fill: #fff;
      }

      .cls-1 {
        stroke: #95989a;
      }

      .cls-2 {
        clip-path: url(#clip-path);
      }
    </style>
    <clipPath id="clip-path">
      <rect id="Rectangle_331" data-name="Rectangle 331" class="cls-1" width="40" height="40" transform="translate(218 642)"/>
    </clipPath>
  </defs>
  <g id="Mask_Group_79" data-name="Mask Group 79" class="cls-2" transform="translate(2978 8458)">
    <g id="barter" transform="translate(218.005 645.484)">
      <path id="Path_251" data-name="Path 251" class="cls-3" d="M40.462,987.4a5.355,5.355,0,1,0,5.161,5.352A5.261,5.261,0,0,0,40.462,987.4Zm0,1a4.351,4.351,0,0,1,4.193,4.348,4.2,4.2,0,1,1-4.193-4.348Z" transform="translate(-31.104 -987.4)"/>
      <path id="Path_252" data-name="Path 252" class="cls-3" d="M60.262,987.4a5.261,5.261,0,0,0-5.161,5.351,5.164,5.164,0,1,0,10.323,0A5.261,5.261,0,0,0,60.262,987.4Zm0,1a4.351,4.351,0,0,1,4.193,4.348,4.2,4.2,0,1,1-4.193-4.348Z" transform="translate(-29.613 -987.4)"/>
      <path id="Path_253" data-name="Path 253" class="cls-3" d="M35.809,998.9a5.109,5.109,0,0,0-3.011.892,2.982,2.982,0,0,0-1.4,2.229v16.833a.689.689,0,0,0,.108.445h0c.108.112.215.112.431.112H49.573A.629.629,0,0,0,50,1019.3h0c.108-.112.108-.223.108-.445v-16.833a2.71,2.71,0,0,0-1.4-2.229A5.109,5.109,0,0,0,45.7,998.9Zm0,1h10a4.334,4.334,0,0,1,2.473.667,1.784,1.784,0,0,1,.968,1.449v3.344h-2.8v-2.452a.588.588,0,0,0-.533-.557.387.387,0,0,0-.323.112l-4.624,4.905c-.215.223-.215.557,0,.667l4.624,4.905c.215.223.533.223.645,0a.419.419,0,0,0,.108-.335v-2.452h2.8v8.249H32.369v-16.388a1.946,1.946,0,0,1,.968-1.449,4.1,4.1,0,0,1,2.472-.666Zm9.569,4.236v1.784a.588.588,0,0,0,.533.557h3.225v2.787h-3.22a.586.586,0,0,0-.533.557v1.784l-3.548-3.679,3.548-3.791Z" transform="translate(-31.397 -986.081)"/>
      <path id="Path_254" data-name="Path 254" class="cls-3" d="M55.609,998.9a5.109,5.109,0,0,0-3.011.892,2.982,2.982,0,0,0-1.4,2.229v16.833a.689.689,0,0,0,.108.445h0c.108.112.215.112.431.112H69.373a.629.629,0,0,0,.431-.112h0c.108-.112.108-.223.108-.445v-16.833a2.71,2.71,0,0,0-1.4-2.229A5.109,5.109,0,0,0,65.5,998.9Zm0,1h10a4.334,4.334,0,0,1,2.473.667,1.784,1.784,0,0,1,.968,1.449v16.388H52.169v-5.128h2.8v2.452a.588.588,0,0,0,.533.557.386.386,0,0,0,.323-.112l4.624-4.905c.215-.223.215-.557,0-.667l-4.624-4.905c-.215-.223-.533-.223-.645,0a.419.419,0,0,0-.108.335v2.452h-2.8v-6.465a1.947,1.947,0,0,1,.968-1.449,4.041,4.041,0,0,1,2.369-.668Zm.323,7.357,3.548,3.679-3.548,3.678v-1.784a.588.588,0,0,0-.533-.557H52.169v-2.787h3.225a.587.587,0,0,0,.533-.558v-1.672Z" transform="translate(-29.907 -986.081)"/>
    </g>
  </g>
</svg>
