<svg xmlns="http://www.w3.org/2000/svg" xmlns:xlink="http://www.w3.org/1999/xlink" viewBox="2296 7508 40 40">
  <defs>
    <style>
      .cls-1, .cls-3 {
        fill: #fff;
      }

      .cls-1 {
        stroke: #95989a;
      }

      .cls-2 {
        clip-path: url(#clip-path);
      }
    </style>
    <clipPath id="clip-path">
      <rect id="Rectangle_442" data-name="Rectangle 442" class="cls-1" width="40" height="40" transform="translate(182 186)"/>
    </clipPath>
  </defs>
  <g id="Mask_Group_212" data-name="Mask Group 212" class="cls-2" transform="translate(2114 7322)">
    <path id="design" class="cls-3" d="M55.816,22.422c-.08,0-.16.08-.24.16l-2.723,2.643H22.342a2.324,2.324,0,0,0-2.322,2.322v20.42a2.324,2.324,0,0,0,2.322,2.322.462.462,0,0,0,.48-.48.425.425,0,0,0-.48-.48h0a1.35,1.35,0,0,1-1.361-1.361V45.646h35.4v2.322a1.35,1.35,0,0,1-1.361,1.361H25.145a.462.462,0,0,0-.48.48.425.425,0,0,0,.48.48h7.928v3.6l-2.082,2.883H29.71a.48.48,0,0,0,0,.961h17.7a.462.462,0,0,0,.48-.48.425.425,0,0,0-.48-.48h-1.2l-2-2.883v-3.6H54.935a2.324,2.324,0,0,0,2.322-2.322V29.55L59.9,26.907a.487.487,0,0,0,0-.641h0l-3.764-3.684C56.136,22.5,55.976,22.422,55.816,22.422Zm.08,1.121,3.043,3.043L47.247,38.2,44.2,35.155ZM22.342,26.106h29.63l-10.41,10.33a.416.416,0,0,0-.16.32V40.44a.462.462,0,0,0,.48.48h3.764a.416.416,0,0,0,.32-.16l10.41-10.33V44.6h-35.4V27.548A1.37,1.37,0,0,1,22.342,26.106ZM43.564,35.8l3.043,3.043-1.2,1.2H42.362V37ZM33.954,50.21h9.289v3.684c0,.08.08.16.08.24l1.762,2.482H32.112l1.762-2.482a.294.294,0,0,0,.08-.24V50.21Z" transform="translate(161.98 165.92)"/>
  </g>
</svg>
