<svg xmlns="http://www.w3.org/2000/svg" xmlns:xlink="http://www.w3.org/1999/xlink" viewBox="2596 7508 40 40">
  <defs>
    <style>
      .cls-1, .cls-3 {
        fill: #fff;
      }

      .cls-1 {
        stroke: #95989a;
      }

      .cls-2 {
        clip-path: url(#clip-path);
      }
    </style>
    <clipPath id="clip-path">
      <rect id="Rectangle_442" data-name="Rectangle 442" class="cls-1" width="40" height="40" transform="translate(182 186)"/>
    </clipPath>
  </defs>
  <g id="Mask_Group_213" data-name="Mask Group 213" class="cls-2" transform="translate(2414 7322)">
    <g id="optimization_2" data-name="optimization 2" transform="translate(181.179 187.109)">
      <path id="Path_1053" data-name="Path 1053" class="cls-3" d="M.821,14.867H26.366V4.312H.821Zm.821-9.733h23.9v8.912H1.643Zm39.179,9.651L36.8,10.842V4.271H27.721V14.825h4.8v2.916l2.423-2.012L37,19.671l2.341-1.191-1.93-3.655Zm-12.279-.739V5.133h7.474v4.928l-3.491-3.45v7.433Zm9.692,4.107-.862.452L35.236,14.5l-1.889,1.561V8.542l5.5,5.421L36.057,14ZM7.1,8.953A2.094,2.094,0,1,0,5.01,11.047,1.951,1.951,0,0,0,6,10.8L7.762,12.9l.616-.534L6.612,10.267A2.069,2.069,0,0,0,7.1,8.953Zm-3.368,0A1.273,1.273,0,1,1,5.01,10.226,1.28,1.28,0,0,1,3.737,8.953Z"/>
      <rect id="Rectangle_443" data-name="Rectangle 443" class="cls-3" width="17.7" height="0.862" transform="translate(8.665 19.261)"/>
      <g id="Group_951" data-name="Group 951">
        <path id="Path_1054" data-name="Path 1054" class="cls-3" d="M4.641,21.561,2.875,19.713l.616-.575L4.6,20.329l2.012-2.505.616.534Z"/>
      </g>
      <rect id="Rectangle_444" data-name="Rectangle 444" class="cls-3" width="17.7" height="0.862" transform="translate(8.665 25.216)"/>
      <g id="Group_952" data-name="Group 952">
        <path id="Path_1055" data-name="Path 1055" class="cls-3" d="M4.641,27.515,2.875,25.708l.616-.575L4.6,26.283l2.012-2.464.616.534Z"/>
      </g>
      <rect id="Rectangle_445" data-name="Rectangle 445" class="cls-3" width="17.7" height="0.862" transform="translate(8.665 31.211)"/>
      <g id="Group_953" data-name="Group 953">
        <path id="Path_1056" data-name="Path 1056" class="cls-3" d="M4.641,33.511,2.875,31.663l.616-.575L4.6,32.279l2.012-2.505.616.534Z"/>
      </g>
    </g>
  </g>
</svg>
