<svg xmlns="http://www.w3.org/2000/svg" xmlns:xlink="http://www.w3.org/1999/xlink" viewBox="2896 7508 40 40">
  <defs>
    <style>
      .cls-1, .cls-3 {
        fill: #fff;
      }

      .cls-1 {
        stroke: #95989a;
      }

      .cls-2 {
        clip-path: url(#clip-path);
      }
    </style>
    <clipPath id="clip-path">
      <rect id="Rectangle_442" data-name="Rectangle 442" class="cls-1" width="40" height="40" transform="translate(182 186)"/>
    </clipPath>
  </defs>
  <g id="Mask_Group_214" data-name="Mask Group 214" class="cls-2" transform="translate(2714 7322)">
    <path id="optimization" class="cls-3" d="M42.634,32.321V6.473h-40V32.321H17.1l-.937,5.714H11.429v.893H33.839v-.893H28.17l-.937-5.714ZM41.741,7.366V26.92H3.527V7.366ZM3.527,27.813H41.741v3.616H3.527Zm23.75,10.223H17.054l.938-5.714h8.348ZM25.179,16.7a2.392,2.392,0,0,0,2.321-1.92h6.7v-.893H27.5a2.348,2.348,0,0,0-2.321-1.92,2.392,2.392,0,0,0-2.321,1.92H12.232v.893H22.857A2.348,2.348,0,0,0,25.179,16.7Zm0-3.839a1.473,1.473,0,1,1-1.473,1.473A1.486,1.486,0,0,1,25.179,12.857Zm-6.7,9.777a2.392,2.392,0,0,0,2.321-1.92H34.018v-.893H20.8a2.359,2.359,0,0,0-4.643-.045H12.054v.893h4.107A2.352,2.352,0,0,0,18.482,22.634Zm0-3.884a1.473,1.473,0,1,1-1.473,1.473A1.486,1.486,0,0,1,18.482,18.75Z" transform="translate(179.366 183.299)"/>
  </g>
</svg>
