<svg xmlns="http://www.w3.org/2000/svg" xmlns:xlink="http://www.w3.org/1999/xlink" viewBox="3196 7508 40 40">
  <defs>
    <style>
      .cls-1, .cls-3 {
        fill: #fff;
      }

      .cls-1 {
        stroke: #95989a;
      }

      .cls-2 {
        clip-path: url(#clip-path);
      }
    </style>
    <clipPath id="clip-path">
      <rect id="Rectangle_442" data-name="Rectangle 442" class="cls-1" width="40" height="40" transform="translate(182 186)"/>
    </clipPath>
  </defs>
  <g id="Mask_Group_215" data-name="Mask Group 215" class="cls-2" transform="translate(3014 7322)">
    <g id="working" transform="translate(178.744 182.727)">
      <path id="Path_1057" data-name="Path 1057" class="cls-3" d="M5.581,449.488a2.3,2.3,0,0,0-2.326,2.326V475.07A2.3,2.3,0,0,0,5.581,477.4H19.535v4.651h-1.86a.465.465,0,0,0,0,.93H28.837a.465.465,0,0,0,0-.93h-1.86V477.4H40.93a2.3,2.3,0,0,0,2.326-2.326V451.814a2.3,2.3,0,0,0-2.326-2.326Zm0,.93H40.93a1.37,1.37,0,0,1,1.4,1.4v19.07H4.186v-19.07A1.37,1.37,0,0,1,5.581,450.419Zm16.512,1.4a.457.457,0,0,0-.419.326l-.512,1.814a7.418,7.418,0,0,0-1.07.465l-1.674-.93a.5.5,0,0,0-.558.093l-1.674,1.628a.5.5,0,0,0-.093.558l.93,1.628a4.266,4.266,0,0,0-.419,1.07l-1.814.512a.462.462,0,0,0-.326.465v2.326a.56.56,0,0,0,.326.465l1.814.512a7.421,7.421,0,0,0,.465,1.07l-.93,1.674a.5.5,0,0,0,.093.558l1.674,1.628a.5.5,0,0,0,.558.093l1.674-.93a7.418,7.418,0,0,0,1.07.465l.512,1.814a.568.568,0,0,0,.419.372h2.372a.441.441,0,0,0,.419-.372l.512-1.814a7.418,7.418,0,0,0,1.07-.465l1.674.93a.5.5,0,0,0,.558-.093l1.674-1.628a.5.5,0,0,0,.093-.558l-.93-1.674a7.422,7.422,0,0,0,.465-1.07l1.814-.512a.462.462,0,0,0,.326-.465v-2.326a.56.56,0,0,0-.326-.465l-1.814-.512c-.14-.372-.279-.744-.419-1.07l.93-1.628a.43.43,0,0,0-.093-.558l-1.674-1.628a.5.5,0,0,0-.558-.093l-1.674.93a7.418,7.418,0,0,0-1.07-.465l-.512-1.814a.447.447,0,0,0-.419-.326Zm.326.93h1.674l.465,1.674a.562.562,0,0,0,.326.326,5.289,5.289,0,0,1,1.4.6.423.423,0,0,0,.465,0l1.535-.837,1.163,1.163-.837,1.535a.543.543,0,0,0,0,.465,6.245,6.245,0,0,1,.558,1.4.562.562,0,0,0,.326.326l1.674.465v1.628l-1.674.465a.562.562,0,0,0-.326.326,7.283,7.283,0,0,1-.558,1.4.422.422,0,0,0,0,.465l.884,1.535-1.163,1.163L26.791,466a.422.422,0,0,0-.465,0,6.321,6.321,0,0,1-1.4.6.562.562,0,0,0-.326.326l-.465,1.721H22.465L22,466.93a.562.562,0,0,0-.326-.326,5.289,5.289,0,0,1-1.4-.6.422.422,0,0,0-.465,0l-1.535.837-1.163-1.163L18,464.14a.543.543,0,0,0,0-.465,6.245,6.245,0,0,1-.558-1.4.562.562,0,0,0-.326-.326l-1.674-.465V459.86l1.674-.465a.562.562,0,0,0,.326-.326,6.245,6.245,0,0,1,.558-1.4.422.422,0,0,0,0-.465l-.837-1.535,1.163-1.163,1.535.837a.423.423,0,0,0,.465,0,6.321,6.321,0,0,1,1.4-.6.562.562,0,0,0,.326-.326A10.816,10.816,0,0,1,22.419,452.744Zm.837,4.651a3.256,3.256,0,1,0,3.256,3.256A3.236,3.236,0,0,0,23.256,457.4Zm0,.93a2.326,2.326,0,1,1-2.326,2.326A2.3,2.3,0,0,1,23.256,458.326ZM4.186,471.814h38.14v3.256a1.37,1.37,0,0,1-1.4,1.4H5.581a1.37,1.37,0,0,1-1.4-1.4Zm19.07,1.4a.93.93,0,1,0,.93.93A.933.933,0,0,0,23.256,473.209ZM20.465,477.4h5.581v4.651H20.465Z" transform="translate(0 -442.959)"/>
    </g>
  </g>
</svg>
