<svg xmlns="http://www.w3.org/2000/svg" xmlns:xlink="http://www.w3.org/1999/xlink" viewBox="2296 7739 40 40">
  <defs>
    <style>
      .cls-1, .cls-3 {
        fill: #fff;
      }

      .cls-1 {
        stroke: #95989a;
      }

      .cls-2 {
        clip-path: url(#clip-path);
      }
    </style>
    <clipPath id="clip-path">
      <rect id="Rectangle_442" data-name="Rectangle 442" class="cls-1" width="40" height="40" transform="translate(182 186)"/>
    </clipPath>
  </defs>
  <g id="Mask_Group_216" data-name="Mask Group 216" class="cls-2" transform="translate(2114 7553)">
    <g id="Integration" transform="translate(170.43 172.843)">
      <g id="Group_954" data-name="Group 954">
        <path id="Path_1058" data-name="Path 1058" class="cls-3" d="M37.932,38.062A.707.707,0,0,1,37.607,38l-3.448-.911a1.034,1.034,0,0,1-.651-.521,1.241,1.241,0,0,1-.13-.846l.39-1.562a9.723,9.723,0,0,1-3.253-3.253l-1.562.39c-.065,0-.13.065-.26.065a1.044,1.044,0,0,1-1.041-.846L26.676,27a1.166,1.166,0,0,1,.781-1.366l1.562-.39a10.7,10.7,0,0,1,1.171-4.489l-1.106-1.106a1.1,1.1,0,0,1,0-1.562l2.537-2.537a1.187,1.187,0,0,1,1.562,0l1.171,1.171a9.812,9.812,0,0,1,4.489-1.171l.39-1.562a1.057,1.057,0,0,1,1.366-.781l3.448.911a1.034,1.034,0,0,1,.651.521,1.3,1.3,0,0,1,.13.846l-.39,1.562A9.723,9.723,0,0,1,47.692,20.3l1.562-.39a1.083,1.083,0,0,1,1.366.781l.911,3.513a1.166,1.166,0,0,1-.781,1.366l-1.562.39a10.7,10.7,0,0,1-1.171,4.489l1.106,1.106a1.1,1.1,0,0,1,0,1.562l-2.6,2.537a1.063,1.063,0,0,1-1.562,0l-1.041-1.171a9.812,9.812,0,0,1-4.489,1.171l-.39,1.562A1.191,1.191,0,0,1,37.932,38.062Zm-6.9-8.328.2.325a9.392,9.392,0,0,0,3.448,3.448l.325.2-.586,2.277v.065l.065.065L38,37.021c.065,0,.13,0,.13-.065l.586-2.277h.455a9.433,9.433,0,0,0,4.62-1.236l.325-.2,1.627,1.627s.065.065.2,0l2.6-2.537.065-.065a.064.064,0,0,0-.065-.065L46.911,30.58l.2-.325a8.583,8.583,0,0,0,1.236-4.685v-.39l2.277-.586c.065,0,.13-.065.065-.13l-.911-3.513c0-.065-.065-.065-.13-.065l-2.277.586-.2-.325A9.392,9.392,0,0,0,43.723,17.7l-.325-.2.586-2.277v-.13a.064.064,0,0,1-.065-.065L40.4,14.054a.227.227,0,0,0-.13.065L39.689,16.4h-.455a9.433,9.433,0,0,0-4.62,1.236l-.325.2-1.757-1.562a.122.122,0,0,0-.2,0L29.8,18.8a.122.122,0,0,0,0,.2l1.627,1.627-.2.325a9.181,9.181,0,0,0-1.236,4.685v.39l-2.277.586c-.065,0-.13.065-.065.13l.911,3.513c0,.065.065.065.13.065Z"/>
      </g>
      <g id="Group_955" data-name="Group 955">
        <path id="Path_1059" data-name="Path 1059" class="cls-3" d="M33.313,31.361l1.952-7.482,1.627,1.627,6.7-6.7,2.277,2.277-6.7,6.767L40.8,29.474Zm2.472-5.53L34.679,30.06l4.229-1.106-.586-.586a.739.739,0,0,1-.2-.521.785.785,0,0,1,.2-.521l6.246-6.246-.911-.911-6.181,6.181a.88.88,0,0,1-1.106,0Z"/>
      </g>
      <g id="Group_956" data-name="Group 956">
        <path id="Path_1060" data-name="Path 1060" class="cls-3" d="M24.594,53.157H22.122a.889.889,0,0,1-.911-.911V50.815a10.042,10.042,0,0,1-2.993-1.236L17.177,50.62a.989.989,0,0,1-1.3,0L14.119,48.8a.943.943,0,0,1,0-1.3l1.041-1.041a8.591,8.591,0,0,1-1.236-2.993H12.492a.889.889,0,0,1-.911-.911V40.079a.889.889,0,0,1,.911-.911h1.431a10.042,10.042,0,0,1,1.236-2.993l-1.041-1.041a.943.943,0,0,1,0-1.3l1.757-1.757a.99.99,0,0,1,1.3,0l1.041,1.041a8.592,8.592,0,0,1,2.993-1.236V30.45a.889.889,0,0,1,.911-.911h2.472a.889.889,0,0,1,.911.911v1.431A10.042,10.042,0,0,1,28.5,33.118l1.041-1.041a.989.989,0,0,1,1.3,0L32.6,33.833a.943.943,0,0,1,0,1.3l-1.041,1.041a10.8,10.8,0,0,1,1.236,2.993h1.5a.889.889,0,0,1,.911.911v2.472a.889.889,0,0,1-.911.911h-1.5a9.385,9.385,0,0,1-1.236,2.993L32.6,47.5a.943.943,0,0,1,0,1.3L30.84,50.555a.99.99,0,0,1-1.3,0L28.5,49.514a10.042,10.042,0,0,1-2.993,1.236v1.431A.907.907,0,0,1,24.594,53.157Zm-2.407-.976h2.342V50.62a.708.708,0,0,1,.586-.716,8.591,8.591,0,0,0,2.993-1.236.789.789,0,0,1,.976.13L30.19,49.9l1.692-1.692-1.106-1.106a.789.789,0,0,1-.13-.976,8.11,8.11,0,0,0,1.236-2.993.781.781,0,0,1,.781-.586h1.562V40.209H32.662a.773.773,0,0,1-.781-.651,8.591,8.591,0,0,0-1.236-2.993.789.789,0,0,1,.13-.976l1.106-1.106L30.19,32.792,29.084,33.9a.789.789,0,0,1-.976.13,8.591,8.591,0,0,0-2.993-1.236.762.762,0,0,1-.586-.716V30.515H22.187v1.562a.708.708,0,0,1-.586.716,8.591,8.591,0,0,0-2.993,1.236.789.789,0,0,1-.976-.13l-1.106-1.106L14.9,34.484l1.106,1.106a.789.789,0,0,1,.13.976A8.591,8.591,0,0,0,14.9,39.559a.762.762,0,0,1-.716.586H12.622v2.342h1.562a.708.708,0,0,1,.716.586,8.591,8.591,0,0,0,1.236,2.993.789.789,0,0,1-.13.976L14.9,48.147l1.692,1.692L17.7,48.733a.776.776,0,0,1,.976-.13,8.591,8.591,0,0,0,2.993,1.236.762.762,0,0,1,.586.716v1.627Zm-.781-1.366Zm3.969,0Zm-7.287-1.366Zm10.345,0Zm-10.085-.065Zm-4.489-6.051Zm19,0Zm0-3.969Zm-19,0Zm18.088-4.88Zm-10.54-2.668Zm3.969,0Z"/>
      </g>
      <g id="Group_957" data-name="Group 957">
        <path id="Path_1061" data-name="Path 1061" class="cls-3" d="M18.869,48.082,16.591,45.8l6.7-6.7-1.627-1.627,7.482-1.887L27.2,43.072,25.57,41.446ZM18.023,45.8l.911.911,6.181-6.181a.6.6,0,0,1,.586-.2.592.592,0,0,1,.521.26l.586.586,1.106-4.229-4.229,1.106.586.586a.792.792,0,0,1,0,1.041Zm7.417-4.62Z"/>
      </g>
    </g>
  </g>
</svg>
