<svg xmlns="http://www.w3.org/2000/svg" xmlns:xlink="http://www.w3.org/1999/xlink" viewBox="2596 7739 40 40">
  <defs>
    <style>
      .cls-1, .cls-3 {
        fill: #fff;
      }

      .cls-1 {
        stroke: #95989a;
      }

      .cls-2 {
        clip-path: url(#clip-path);
      }
    </style>
    <clipPath id="clip-path">
      <rect id="Rectangle_442" data-name="Rectangle 442" class="cls-1" width="40" height="40" transform="translate(182 186)"/>
    </clipPath>
  </defs>
  <g id="Mask_Group_217" data-name="Mask Group 217" class="cls-2" transform="translate(2414 7553)">
    <path id="analitic2" class="cls-3" d="M35.445,16.746v.868H40.13l-6.811,6.768a2.331,2.331,0,0,0-3.557.39L25.336,22.6a3.349,3.349,0,0,0,.087-.651,2.386,2.386,0,0,0-4.772,0v.26L15.1,24.078a2.364,2.364,0,0,0-1.952-1,2.407,2.407,0,0,0-2.386,2.386,2.986,2.986,0,0,0,.087.564L4.6,30.065l.477.738,6.117-3.948a2.374,2.374,0,0,0,4.338-1.345,2.2,2.2,0,0,0-.087-.564l5.466-1.866a2.359,2.359,0,0,0,2.082,1.258,2.424,2.424,0,0,0,1.909-.954l4.469,2.169a2.112,2.112,0,0,0-.043.521,2.386,2.386,0,0,0,4.772,0,2.982,2.982,0,0,0-.217-1.041l6.855-6.811v4.642h.868V16.746ZM13.189,27.028a1.518,1.518,0,1,1,1.518-1.518A1.537,1.537,0,0,1,13.189,27.028Zm9.848-3.514A1.518,1.518,0,1,1,24.555,22,1.537,1.537,0,0,1,23.037,23.514Zm8.677,4.121a1.518,1.518,0,1,1,1.518-1.518A1.537,1.537,0,0,1,31.714,27.636Zm-.434,6.638H2.473V14.534H31.28V19.87h.868V8.894H1.605V35.141H32.148v-2.82H31.28ZM3.471,9.761H31.28v3.9H2.473v-3.9Zm4.685,1.952a.694.694,0,1,1,.694.694A.745.745,0,0,1,8.156,11.714Zm-2.169,0a.694.694,0,1,1,.694.694A.713.713,0,0,1,5.987,11.714Zm-2.169,0a.694.694,0,1,1,.694.694A.713.713,0,0,1,3.818,11.714Z" transform="translate(180.395 183.983)"/>
  </g>
</svg>
