<svg xmlns="http://www.w3.org/2000/svg" xmlns:xlink="http://www.w3.org/1999/xlink" viewBox="2896 7739 40 40">
  <defs>
    <style>
      .cls-1, .cls-3 {
        fill: #fff;
      }

      .cls-1 {
        stroke: #95989a;
      }

      .cls-2 {
        clip-path: url(#clip-path);
      }
    </style>
    <clipPath id="clip-path">
      <rect id="Rectangle_442" data-name="Rectangle 442" class="cls-1" width="40" height="40" transform="translate(182 186)"/>
    </clipPath>
  </defs>
  <g id="Mask_Group_219" data-name="Mask Group 219" class="cls-2" transform="translate(2714 7553)">
    <g id="working" transform="translate(178.744 182.727)">
      <path id="Path_1066" data-name="Path 1066" class="cls-3" d="M5.581,449.488a2.3,2.3,0,0,0-2.326,2.326V475.07A2.3,2.3,0,0,0,5.581,477.4H19.535v4.651h-1.86a.465.465,0,0,0,0,.93H28.837a.465.465,0,0,0,0-.93h-1.86V477.4H40.93a2.3,2.3,0,0,0,2.326-2.326V451.814a2.3,2.3,0,0,0-2.326-2.326Zm0,.93H40.93a1.37,1.37,0,0,1,1.4,1.4v19.07H4.186v-19.07A1.37,1.37,0,0,1,5.581,450.419Zm-1.4,21.4h38.14v3.256a1.37,1.37,0,0,1-1.4,1.4H5.581a1.37,1.37,0,0,1-1.4-1.4Zm19.07,1.4a.93.93,0,1,0,.93.93A.933.933,0,0,0,23.256,473.209ZM20.465,477.4h5.581v4.651H20.465Z" transform="translate(0 -442.959)"/>
    </g>
  </g>
</svg>
