<svg xmlns="http://www.w3.org/2000/svg" xmlns:xlink="http://www.w3.org/1999/xlink" viewBox="3196 7739 40 40">
  <defs>
    <style>
      .cls-1, .cls-3 {
        fill: #fff;
      }

      .cls-1 {
        stroke: #95989a;
      }

      .cls-2 {
        clip-path: url(#clip-path);
      }
    </style>
    <clipPath id="clip-path">
      <rect id="Rectangle_442" data-name="Rectangle 442" class="cls-1" width="40" height="40" transform="translate(182 186)"/>
    </clipPath>
  </defs>
  <g id="Mask_Group_220" data-name="Mask Group 220" class="cls-2" transform="translate(3014 7553)">
    <g id="noun_843726_cc" transform="translate(190.497 182.364)">
      <g id="Group_958" data-name="Group 958" transform="translate(-7.497)">
        <path id="Path_1068" data-name="Path 1068" class="cls-3" d="M24.377,450.844a.313.313,0,1,1-.317.312A.314.314,0,0,1,24.377,450.844Zm-3.8-2.492a2.813,2.813,0,0,0-2.85,2.773v34.453a2.813,2.813,0,0,0,2.85,2.773h13.3a2.813,2.813,0,0,0,2.85-2.773V451.125a2.813,2.813,0,0,0-2.85-2.773Zm0,.625h13.3a2.172,2.172,0,0,1,2.217,2.148v34.453a2.172,2.172,0,0,1-2.217,2.148h-13.3a2.172,2.172,0,0,1-2.217-2.148V451.125A2.172,2.172,0,0,1,20.577,448.977Zm5.067,1.867h3.167a.313.313,0,1,1,0,.625H25.644a.313.313,0,1,1,0-.625Zm1.583,33.093a1.606,1.606,0,0,0-1.605,1.589,1.606,1.606,0,0,0,3.21,0A1.606,1.606,0,0,0,27.227,483.936Zm0,.6a.984.984,0,0,1,.963.993.963.963,0,0,1-1.926,0A.984.984,0,0,1,27.227,484.533Zm-8.233-30.868v29.375a.327.327,0,0,0,.317.313H35.144a.327.327,0,0,0,.317-.313V453.664a.327.327,0,0,0-.317-.312H19.311A.286.286,0,0,0,18.994,453.664Zm.633.312h15.2v28.75h-15.2Z" transform="translate(-7.727 -444.715)"/>
      </g>
    </g>
  </g>
</svg>
