<svg xmlns="http://www.w3.org/2000/svg" viewBox="2113 10459 32 32">
  <defs>
    <style>
      .cls-1 {
        fill: #fff;
      }
    </style>
  </defs>
  <g id="facebook" transform="translate(2113 10459)">
    <path id="path3176" class="cls-1" d="M14.924,5.763V-6.659H12.682a.505.505,0,0,1-.512-.512v-3.714a.505.505,0,0,1,.512-.512h2.242v-1.985c0-1.025,0-2.945,1.025-4.162a5.591,5.591,0,0,1,4.676-2.049c3.523,0,5.06.448,5.06.512a.458.458,0,0,1,.32.576l-.7,3.778a.533.533,0,0,1-.641.384,8.708,8.708,0,0,0-2.114-.32c-.576,0-1.537.128-1.537.832v2.369h3.971a.505.505,0,0,1,.512.512l-.32,3.714a.5.5,0,0,1-.512.448H21.072V5.763a.551.551,0,0,1-.512.512H15.372A.5.5,0,0,1,14.924,5.763Zm5.124-.512V-7.172a.505.505,0,0,1,.512-.512h3.651l.192-2.689H20.56a.505.505,0,0,1-.512-.512v-2.881a1.6,1.6,0,0,1,.9-1.473,3.738,3.738,0,0,1,1.665-.384,6.1,6.1,0,0,1,1.6.192l.192.064.512-2.817h-.128a23.156,23.156,0,0,0-4.163-.32,4.389,4.389,0,0,0-3.971,1.6,5.967,5.967,0,0,0-.769,3.522v2.5a.551.551,0,0,1-.512.512H13.13v2.689h2.242a.551.551,0,0,1,.512.512V5.251Z" transform="translate(0 25.6)"/>
    <path id="Path_208" data-name="Path 208" class="cls-1" d="M32,32H0V0H32ZM31,1H1V31H31Z"/>
  </g>
</svg>
