<svg xmlns="http://www.w3.org/2000/svg" viewBox="2155 10458.999 32.025 32.017">
  <defs>
    <style>
      .cls-1 {
        fill: #fff;
      }
    </style>
  </defs>
  <g id="instagram" transform="translate(2155 10459.013)">
    <path id="path3360" class="cls-1" d="M5-2.433V-16.712a3.854,3.854,0,0,1,3.843-3.842H23.122a3.854,3.854,0,0,1,3.843,3.842V-2.433a3.854,3.854,0,0,1-3.843,3.842H8.839A3.854,3.854,0,0,1,5-2.433ZM26-2.433V-16.712a2.87,2.87,0,0,0-2.882-2.881H8.967v6.019H7.942v-5.891a2.905,2.905,0,0,0-1.986,2.753v3.138H25.94v1.025H6.021V-2.433A2.87,2.87,0,0,0,8.9.448H23.186A2.943,2.943,0,0,0,26-2.433ZM11.017-6.6a5,5,0,0,1,5-4.994,5,5,0,0,1,5,4.994,5,5,0,0,1-5,4.994A5,5,0,0,1,11.017-6.6Zm8.967,0a4,4,0,0,0-4.035-3.97A4,4,0,0,0,11.913-6.6a4,4,0,0,0,4.035,3.97A4,4,0,0,0,19.984-6.6ZM13-6.6a3.006,3.006,0,0,1,3.01-3.01,3.006,3.006,0,0,1,3.01,3.01,3.006,3.006,0,0,1-3.01,3.01A3.006,3.006,0,0,1,13-6.6Zm5,0A2,2,0,0,0,16.013-8.58,2,2,0,0,0,14.027-6.6,2,2,0,0,0,16.013-4.61,2,2,0,0,0,18-6.6ZM9.992-13.575v-6.019h1.025v6.019Zm1.986,0v-6.019H13v6.019Zm8.006-3.01a2,2,0,0,1,1.986-1.985,2,2,0,0,1,1.986,1.985A2,2,0,0,1,21.969-14.6,2,2,0,0,1,19.984-16.584Zm3.01,0a1,1,0,0,0-.961-1.025,1,1,0,0,0-.961,1.025,1,1,0,0,0,.961,1.025A1,1,0,0,0,22.994-16.584Z" transform="translate(0 25.6)"/>
    <path id="Path_209" data-name="Path 209" class="cls-1" d="M32.025,6.4H0V-25.613H32.025ZM31-24.588H1.025V5.379H31V-24.588Z" transform="translate(0 25.6)"/>
  </g>
</svg>
