<svg xmlns="http://www.w3.org/2000/svg" viewBox="2198 10459 32 32">
  <defs>
    <style>
      .cls-1 {
        fill: #fff;
      }
    </style>
  </defs>
  <g id="odnoklassniki" transform="translate(2198 10459)">
    <path id="path3318" class="cls-1" d="M9.8,1.857l-.192-.192a1.975,1.975,0,0,1,0-2.689c.9-.9,2.178-2.241,3.459-3.586l.256-.256-.512-.128A7.6,7.6,0,0,1,9.992-6.083,4.744,4.744,0,0,1,8.326-7.556a1.977,1.977,0,0,1-.064-1.985c.448-.96,1.729-1.665,3.267-.448A7.228,7.228,0,0,0,15.5-8.772a7.228,7.228,0,0,0,3.971-1.217,1.993,1.993,0,0,1,3.267.448,1.851,1.851,0,0,1-.064,1.985,6.458,6.458,0,0,1-1.665,1.473A7.6,7.6,0,0,1,18.19-4.994l-.512.128.256.256,3.459,3.586a1.975,1.975,0,0,1,0,2.689l-.128.192a1.784,1.784,0,0,1-2.626,0C18,1.153,17.1.256,16.141-.7l-.64-.64-3.138,3.2a1.844,1.844,0,0,1-1.345.576A2.381,2.381,0,0,1,9.8,1.857Zm1.857-.7,3.459-3.586a.5.5,0,0,1,.7,0c1.345,1.345,2.562,2.689,3.459,3.586a.89.89,0,0,0,1.217,0L20.624.96a.973.973,0,0,0,0-1.281L17.165-3.906l-.961-.96a.494.494,0,0,1,.32-.832,9.253,9.253,0,0,0,3.843-1.217,4.873,4.873,0,0,0,1.409-1.153,1,1,0,0,0,0-.96c-.192-.448-.769-.9-1.729-.064A8.29,8.29,0,0,1,15.5-7.684a8.3,8.3,0,0,1-4.612-1.473c-.961-.768-1.537-.32-1.729.128-.256.512-.192.768,0,.96a4.873,4.873,0,0,0,1.409,1.153A9.515,9.515,0,0,0,14.475-5.7a.514.514,0,0,1,.32.832l-.961.96C12.49-2.561,11.273-1.217,10.376-.32a.973.973,0,0,0,0,1.281l.128.192a.954.954,0,0,0,.576.256A.624.624,0,0,0,11.657,1.153Z" transform="translate(0 25.6)"/>
    <path id="path3320" class="cls-1" d="M9.031-16.072A6.5,6.5,0,0,1,15.5-22.6a6.464,6.464,0,0,1,6.469,6.531A6.45,6.45,0,0,1,15.5-9.6,6.45,6.45,0,0,1,9.031-16.072Zm11.977,0A5.507,5.507,0,0,0,15.5-21.579a5.507,5.507,0,0,0-5.508,5.507A5.507,5.507,0,0,0,15.5-10.565,5.591,5.591,0,0,0,21.008-16.072Zm-8.967,0A3.444,3.444,0,0,1,15.5-19.53a3.444,3.444,0,0,1,3.459,3.458A3.444,3.444,0,0,1,15.5-12.614,3.528,3.528,0,0,1,12.041-16.072Zm5.893,0A2.432,2.432,0,0,0,15.5-18.505a2.432,2.432,0,0,0-2.434,2.433A2.432,2.432,0,0,0,15.5-13.639,2.432,2.432,0,0,0,17.934-16.072Z" transform="translate(0 25.6)"/>
    <path id="Path_210" data-name="Path 210" class="cls-1" d="M32,32H0V0H32ZM31,1H1V31H31Z"/>
  </g>
</svg>
