<svg xmlns="http://www.w3.org/2000/svg" viewBox="2240 10459 32 32">
  <defs>
    <style>
      .cls-1 {
        fill: #fff;
      }
    </style>
  </defs>
  <g id="vkontakte" transform="translate(2240 10459)">
    <g id="g3396">
      <path id="path3398" class="cls-1" d="M21.136-2.305,19.151-4.8l-.256-.256-.064-.064v.064L18.382-3.01l-.064.448a1.155,1.155,0,0,1-.961.96H14.731c-4.1,0-7.814-5.827-10.376-13.063v-.064a2.162,2.162,0,0,1,.064-1.281c.128-.512.576-.64,1.089-.64H9.031a.468.468,0,0,1,.448.384,21.1,21.1,0,0,0,2.946,6.019l.064.064c.128.256.384.192.512,0l.064-.256v-4.1c0-.576-.256-.7-.961-.768a.457.457,0,0,1-.384-.64c.32-1.025,1.345-1.537,2.818-1.537h1.345c1.089,0,2.05.448,2.05,1.857v5.379l.064.064c.192.064.512.064.833-.384,1.217-1.729,2.626-3.778,2.818-4.866,0-.064,0-.064.064-.128a2.3,2.3,0,0,1,1.217-.96c.064,0,.128-.064.192-.064h3.907a.385.385,0,0,1,.256.064.9.9,0,0,1,.448.384,1.649,1.649,0,0,1,.192.832v.128c-.32,2.177-2.818,4.61-3.843,6.147a.7.7,0,0,0,0,.96l3.459,4.354a1.072,1.072,0,0,1,.064,1.6,1.74,1.74,0,0,1-1.089.512H22.482a1.272,1.272,0,0,1-1.153-.448Zm1.281-.32h3.715a1.628,1.628,0,0,0,.769-.192c.064-.064.064-.128.064-.256L26.837-3.2l-3.459-4.29a1.655,1.655,0,0,1,0-2.177c1.025-1.473,3.138-3.65,3.651-5.379l.064-.32v-.32H23.314l-.128.064a.639.639,0,0,0-.32.256l-.128.128-.128.448a18.6,18.6,0,0,1-2.434,4.1l-.448.64-.256.32a1.542,1.542,0,0,1-2.242,0,.727.727,0,0,1-.192-.512v-5.443c0-.64-.32-.832-1.089-.832H14.6a3.679,3.679,0,0,0-1.409.256L13-16.136l.128.064a1.487,1.487,0,0,1,.961,1.537v4.162a1.328,1.328,0,0,1-2.37.832l-.064-.192A21.794,21.794,0,0,1,8.9-15.048l-.192-.64H5.572c-.32,0-.32.064-.32.064a.676.676,0,0,0,0,.384l.064.256.512,1.345c2.562,6.659,5.829,11.078,8.9,11.078h2.306c.192,0,.256-.384.32-.64v-.064l.448-2.049v-.064a1.394,1.394,0,0,1,.32-.512,1.021,1.021,0,0,1,.769-.256,1.592,1.592,0,0,1,1.025.7l1.986,2.561c.192.32.32.32.448.32Z" transform="translate(0 25.6)"/>
    </g>
    <path id="Path_211" data-name="Path 211" class="cls-1" d="M32,32H0V0H32ZM31,1H1V31H31Z"/>
  </g>
</svg>
