<svg xmlns="http://www.w3.org/2000/svg" viewBox="2282 10459 32 32">
  <defs>
    <style>
      .cls-1 {
        fill: #fff;
      }
    </style>
  </defs>
  <g id="youtube" transform="translate(2282 10459)">
    <g id="g3163">
      <path id="path3165" class="cls-1" d="M9.992-11.59v-3.97L8.006-21.579h.833L10.5-16.584h.064l1.537-4.994H13L11.017-15.56v3.97H9.992Z" transform="translate(0 25.6)"/>
      <path id="path3167" class="cls-1" d="M13.515-12.1h0A1.613,1.613,0,0,1,13-13.447V-16.9a1.487,1.487,0,0,1,.576-1.217,2.246,2.246,0,0,1,1.473-.448,2.111,2.111,0,0,1,1.409.512,1.577,1.577,0,0,1,.576,1.217v3.458a1.834,1.834,0,0,1-.512,1.345,2.162,2.162,0,0,1-1.473.512h0A2.774,2.774,0,0,1,13.515-12.1Zm2.242-.832a1.543,1.543,0,0,0,.256-.96v-2.433a1.355,1.355,0,0,0-.256-.9.751.751,0,0,0-.7-.32,1.061,1.061,0,0,0-.769.32,1.252,1.252,0,0,0-.256.9v2.5a1.543,1.543,0,0,0,.256.96h0a.885.885,0,0,0,.7.384h0A2.215,2.215,0,0,0,15.756-12.934Z" transform="translate(0 25.6)"/>
      <path id="path3169" class="cls-1" d="M18.318-11.974a1.266,1.266,0,0,1-.32-.9v-5.7h1.025v5.507a.376.376,0,0,0,.128.32.542.542,0,0,0,.384.128,11.313,11.313,0,0,0,1.281-.256,4.094,4.094,0,0,0,1.217-.512v-5.187h1.025v6.851H22.033v-.96a11.235,11.235,0,0,1-1.793.832,2.9,2.9,0,0,1-1.025.192A1.267,1.267,0,0,1,18.318-11.974Z" transform="translate(0 25.6)"/>
      <path id="path3171" class="cls-1" d="M9.351,2.305a3.1,3.1,0,0,1-3.2-2.753V-.7A30.057,30.057,0,0,1,6.021-4.1c0-1.153.064-2.241.128-3.394v-.256a3.244,3.244,0,0,1,3.2-2.753c2.05-.064,4.163-.128,6.277-.128h.641c2.114,0,4.227.064,6.277.128a3.145,3.145,0,0,1,3.2,3.074l.192,1.665v3.33L25.812-.768a3.145,3.145,0,0,1-3.2,3.074c-2.05.064-4.163.128-6.341.128h-.641C13.515,2.369,11.4,2.369,9.351,2.305ZM22.61,1.281A2.153,2.153,0,0,0,24.851-.768V-.832A27.838,27.838,0,0,0,24.979-4.1c0-1.089-.064-2.177-.128-3.266v-.064A2.153,2.153,0,0,0,22.61-9.477c-2.05-.064-4.163-.128-6.277-.128h-.641c-2.114,0-4.227.064-6.277.128A2.153,2.153,0,0,0,7.174-7.428v.064C7.11-6.275,7.046-5.187,7.046-4.1s.064,2.177.128,3.266v.064A2.153,2.153,0,0,0,9.415,1.281c2.05.064,4.163.128,6.341.128H16.4C18.446,1.409,20.56,1.345,22.61,1.281Z" transform="translate(0 25.6)"/>
      <path id="path3173" class="cls-1" d="M20.432-1.025a1.565,1.565,0,0,1-.384-1.153V-4.418A1.4,1.4,0,0,1,20.5-5.507a1.507,1.507,0,0,1,1.089-.384,1.507,1.507,0,0,1,1.089.384,1.506,1.506,0,0,1,.384,1.089v1.281H21.136v.96a1.278,1.278,0,0,0,.128.576c.064.128.192.128.32.128a.376.376,0,0,0,.32-.128.922.922,0,0,0,.128-.576v-.384h1.025v.384a1.565,1.565,0,0,1-.384,1.153,1.566,1.566,0,0,1-1.153.384A1.072,1.072,0,0,1,20.432-1.025ZM12.682-.9a1.03,1.03,0,0,1-.192-.7V-5.827h1.025v3.906c0,.128,0,.192.064.256a.235.235,0,0,0,.192.064.486.486,0,0,0,.256-.128c.128-.064.192-.192.32-.256h0V-5.827h1.025V-.768H14.347v-.512a1.766,1.766,0,0,1-.576.448,1.033,1.033,0,0,1-.576.192A.666.666,0,0,1,12.682-.9Zm5.124.128a1.946,1.946,0,0,1-.448-.32V-.7H16.333V-7.556h1.025v2.241a2.785,2.785,0,0,1,.448-.384,1.188,1.188,0,0,1,.448-.128.827.827,0,0,1,.7.32,1.329,1.329,0,0,1,.256.96v2.817a1.086,1.086,0,0,1-.256.832.753.753,0,0,1-.641.256A1.207,1.207,0,0,1,17.806-.768ZM10.184-.7V-6.6H9.031V-7.62h3.523V-6.6H11.4V-.7H10.184Zm7.942-.9a.48.48,0,0,0,.064-.32h0V-4.546a.541.541,0,0,0-.128-.384.489.489,0,0,0-.32-.128.235.235,0,0,0-.192.064c-.064.064-.128.064-.192.128v3.138c.064.064.192.128.256.192s.128.064.256.064S18.062-1.473,18.126-1.6Zm3.843-2.305v-.512a.746.746,0,0,0-.128-.448.489.489,0,0,0-.32-.128.376.376,0,0,0-.32.128.746.746,0,0,0-.128.448h0v.512Z" transform="translate(0 25.6)"/>
    </g>
    <path id="Path_212" data-name="Path 212" class="cls-1" d="M32,32H0V0H32ZM31,1H1V31H31Z"/>
  </g>
</svg>
