<svg xmlns="http://www.w3.org/2000/svg" xmlns:xlink="http://www.w3.org/1999/xlink" viewBox="-11125 5570 72 72">
  <defs>
    <style>
      .cls-1 {
        fill: #fff;
        stroke: #95989a;
      }

      .cls-2 {
        fill: #fcfcfc;
      }

      .cls-3 {
        clip-path: url(#clip-path);
      }

      .cls-4 {
        fill: #3e97db;
      }

      .cls-5 {
        filter: url(#Subtraction_12);
      }

      .cls-6 {
        filter: url(#Ellipse_62);
      }
    </style>
    <filter id="Ellipse_62" x="-11125" y="5570" width="72" height="72" filterUnits="userSpaceOnUse">
      <feOffset dy="3" input="SourceAlpha"/>
      <feGaussianBlur stdDeviation="3" result="blur"/>
      <feFlood flood-opacity="0.161"/>
      <feComposite operator="in" in2="blur"/>
      <feComposite in="SourceGraphic"/>
    </filter>
    <clipPath id="clip-path">
      <rect id="Rectangle_235" data-name="Rectangle 235" class="cls-1" width="30" height="30" transform="translate(510 1691)"/>
    </clipPath>
    <filter id="Subtraction_12" x="-11123.001" y="5571.999" width="68.001" height="68" filterUnits="userSpaceOnUse">
      <feOffset dy="3" input="SourceAlpha"/>
      <feGaussianBlur stdDeviation="3" result="blur-2"/>
      <feFlood flood-opacity="0.161"/>
      <feComposite operator="in" in2="blur-2"/>
      <feComposite in="SourceGraphic"/>
    </filter>
  </defs>
  <g id="Group_439" data-name="Group 439" transform="translate(-11599 3807)">
    <g class="cls-6" transform="matrix(1, 0, 0, 1, 11599, -3807)">
      <circle id="Ellipse_62-2" data-name="Ellipse 62" class="cls-2" cx="27" cy="27" r="27" transform="translate(-11116 5576)"/>
    </g>
    <g id="Mask_Group_55" data-name="Mask Group 55" class="cls-3" transform="translate(-15 90)">
      <path id="noun_1296313_cc" class="cls-4" d="M28.269,16.442h0a3.9,3.9,0,0,0-3.2-.606l.573-.539a3.8,3.8,0,0,0,1.449-2.628c0-1.112-.943-2.089-1.954-3.032a.465.465,0,0,0-.135-.1,6.341,6.341,0,0,0,2.46-.64,16.22,16.22,0,0,0,3.4-1.954,1.315,1.315,0,0,0,.573-1.112c-.067-.943-1.381-1.651-2.628-2.359l-.168-.1c-1.078-.606-3.74-.337-5.324.876a2.858,2.858,0,0,0-1.247,2.662c-.674-2.224-2.763-3.1-4.886-3.774a1.107,1.107,0,0,0-1.213.371,5.26,5.26,0,0,0-.809,3.875,4.64,4.64,0,0,0,.472.809,3.879,3.879,0,0,0,.472.573h-.539c-.91.1-3.369.573-4.38,1.752a1.339,1.339,0,0,0-.606-.539l-.236-.1c1.685-.505,2.83-3.976,2.965-4.414.472-1.314.438-2.291-.1-2.83-.842-.842-2.561-.3-2.83-.2-1.786.438-2.83,1.146-3.235,2.156s-.1,2.46.977,4.077a4.821,4.821,0,0,0,.371.505A3.56,3.56,0,0,0,6.435,9.2a7.76,7.76,0,0,0-2.594,1.954c-.236.236-.472.472-.708.674a3.119,3.119,0,0,0-1.247,2.359,2.514,2.514,0,0,0,1.044,1.887,8.09,8.09,0,0,0,2.46,1.381,4.249,4.249,0,0,0,.943.168,2.949,2.949,0,0,0,.539-.067,3.008,3.008,0,0,0,.977-.505c-.168.3-.3.573-.472.876-1.584,3.2-.505,4.346-.236,4.582a5.155,5.155,0,0,0,.606.606,8.958,8.958,0,0,0-2.325-.27c-.27,0-.505-.034-.741-.034A2.472,2.472,0,0,0,2.156,24.8a2.34,2.34,0,0,0,.236,1.584,6.4,6.4,0,0,0,2.965,2.392,3.5,3.5,0,0,0,1.179.236A2.941,2.941,0,0,0,9.03,27.595c0,1.516,1.415,2.055,3.5,2.83a12.552,12.552,0,0,1,1.28.505,5.909,5.909,0,0,0,2.022.472,2.578,2.578,0,0,0,1.011-.2c1.011-.472,1.516-1.685,2.022-3.032.2-.606.2-1.55-1.146-2.628a4.815,4.815,0,0,0-.674-.472c1.247-.067,2.8-1.213,3.807-2.055-.842,1.752.775,5.324,1.011,5.8.606,1.449,1.348,2.224,2.19,2.257h.067c1.314,0,2.291-1.786,2.426-1.988,1.112-1.718,1.449-3.1,1.011-4.245s-1.786-2.089-3.942-2.628a3.461,3.461,0,0,0-1.853,0l.1-.1a4.033,4.033,0,0,0,1.213-1.786,2.25,2.25,0,0,0,.472,1.213c.708.876,2.055,1.011,4.043,1.011h2.224c1.112,0,1.786-.337,1.988-.91C32.447,19.98,28.976,17.015,28.269,16.442ZM7.952,4.886c.3-.775,1.146-1.314,2.594-1.651h.034a3.616,3.616,0,0,1,1.179-.2,1.238,1.238,0,0,1,.842.236c.3.3.3,1.011-.067,1.988h0C12.1,6.638,11.051,8.861,10.041,9c-.4.067-.809-.236-1.247-.876C7.918,6.772,7.615,5.694,7.952,4.886ZM22.709,23.013a2.448,2.448,0,0,1,.842.135c1.786.438,2.864,1.146,3.235,2.055s.034,1.988-.876,3.4v.034c-.236.438-.977,1.55-1.718,1.516-.505-.034-1.044-.64-1.516-1.718h0c-.505-1.044-1.651-4.043-.809-5.054a.882.882,0,0,1,.842-.371ZM26.18,12.7a3.065,3.065,0,0,1-1.213,2.055l-.943.943c-1.55,1.617-2.257,2.257-3.167,1.819-.606-.64-2.089-2.359-2.224-3.167-.067-.472,1.853-3,3.841-4.043.91-.472,1.584-.505,1.988-.1,1.112,1.044,1.718,1.752,1.718,2.493Zm-7.884.606a9.519,9.519,0,0,0-.067-.977v-.168a6.463,6.463,0,0,0-.505-2.224,9.829,9.829,0,0,0,1.044.472,4.438,4.438,0,0,0,1.483.27,2.072,2.072,0,0,0,.472-.034A10.733,10.733,0,0,0,18.3,13.309Zm-.236,3.908c.1-.606.135-1.179.2-1.752a13.776,13.776,0,0,0,1.685,2.224,7.321,7.321,0,0,0-2.089.337A3.554,3.554,0,0,0,18.06,17.217Zm5.829-12.4a5.439,5.439,0,0,1,3.2-.977,2.658,2.658,0,0,1,1.146.2l.135.067c.91.505,2.123,1.179,2.156,1.718,0,.067.034.236-.3.505A15.5,15.5,0,0,1,27.157,8.12h-.034c-.034,0-1.853.91-3.1.371a1.871,1.871,0,0,1-1.011-1.381,2.052,2.052,0,0,1,.876-2.291Zm-.438,4.346a4.037,4.037,0,0,0-1.213.438l-.168.1a2.3,2.3,0,0,0,.236-.943,6.926,6.926,0,0,0-.067-1.179,2.687,2.687,0,0,0,1.213,1.584ZM16.645,4.111a.4.4,0,0,1,.3-.168.2.2,0,0,1,.135.034c2.359.775,4.448,1.685,4.38,4.717A1.183,1.183,0,0,1,21.025,9.7,2.322,2.322,0,0,1,19,9.7a5.392,5.392,0,0,1-2.628-1.853A4.316,4.316,0,0,1,16,7.177,4.847,4.847,0,0,1,16.645,4.111ZM15.6,9.636h.236c1.146,0,1.381,1.179,1.55,2.7V12.5a18.7,18.7,0,0,1-.135,4.549c-.1.64-.3.977-.606.977-1.381.067-4.683-4.414-5.121-6a.891.891,0,0,1,.135-.775C12.332,10.31,14.353,9.771,15.6,9.636ZM11.051,12.77a16.813,16.813,0,0,0,1.415,2.359,6.734,6.734,0,0,0-.708-.337,2.171,2.171,0,0,0-2.156.27A9.714,9.714,0,0,0,11.051,12.77ZM6.739,16.746a2.2,2.2,0,0,1-1.044-.067,6.678,6.678,0,0,1-2.123-1.213,1.709,1.709,0,0,1-.741-1.314A2.79,2.79,0,0,1,3.807,12.4c.236-.2.438-.438.674-.64a6.719,6.719,0,0,1,2.257-1.718,1.977,1.977,0,0,1,.775-.135,6.807,6.807,0,0,1,2.628.809c.674.337.438,1.146.168,1.786a11.316,11.316,0,0,1-1.617,2.493l-.27.3A3.628,3.628,0,0,1,6.739,16.746Zm.977,5.189s-1.011-.809.371-3.605h0c0-.034,1.28-2.83,2.83-2.83a1.526,1.526,0,0,1,.539.1c.977.438,1.55.876,1.718,1.449a2.312,2.312,0,0,1-.438,1.853l-.168.3c-.708,1.213-2.055,3.47-3.4,3.572A1.665,1.665,0,0,1,7.749,22c0-.034-.034-.034-.034-.067Zm.741,5.256a2.2,2.2,0,0,1-2.763.876,5.272,5.272,0,0,1-2.46-1.988,1.611,1.611,0,0,1-.168-1.044A1.717,1.717,0,0,1,4.65,23.653h.1a4.745,4.745,0,0,0,.708.034c1.011.034,2.257.1,2.83.674a2.752,2.752,0,0,1,.168,2.83Zm9.6.775c-.472,1.348-.876,2.19-1.55,2.493a3.007,3.007,0,0,1-2.325-.27c-.438-.168-.842-.3-1.213-.472-2.055-.775-2.9-1.146-2.9-2.123.337-.809,1.314-2.83,1.954-3.235.4-.236,3.437.505,5.155,1.853.775.64,1.078,1.213.876,1.752Zm-6.537-4.38c-.741.438-1.55,2.022-2.022,3a3.292,3.292,0,0,0-.573-2.763c-.1-.1-.2-.168-.3-.27.135.034.27.034.4.067H9.2c1.752-.135,3.2-2.594,4.077-4.077l.2-.337a3.494,3.494,0,0,0,.606-2.123A6.2,6.2,0,0,0,16.24,18.7a3.6,3.6,0,0,0-2.089,2.561,4.05,4.05,0,0,0,1.314,3C13.814,23.585,12.1,23.215,11.523,23.585Zm9.8-1.921c-.775.775-3.133,2.83-4.414,2.662a.832.832,0,0,1-.64-.4.072.072,0,0,0-.067-.067,3.5,3.5,0,0,1-1.213-2.493c.067-.741.64-1.415,1.718-1.988a7.375,7.375,0,0,1,3.235-.876,2.775,2.775,0,0,1,2.224.809c.4.573.135,1.415-.842,2.359Zm1.954-3.3a9.875,9.875,0,0,0-.168.977,1.215,1.215,0,0,0-.27-.505,2.325,2.325,0,0,0-.606-.539,5.966,5.966,0,0,0,1.381-1.044,5.366,5.366,0,0,0-.337,1.112Zm7.749,2.931c-.135.371-.876.438-1.314.438h-.741c-2.359.034-4.077.067-4.717-.708a3.01,3.01,0,0,1-.168-2.493,2.344,2.344,0,0,1,1.247-1.921,1.97,1.97,0,0,1,.64-.135,3.553,3.553,0,0,1,1.819.606c1.55,1.247,3.5,3.369,3.235,4.212Z" transform="translate(508.115 1689.217)"/>
    </g>
    <g class="cls-5" transform="matrix(1, 0, 0, 1, 11599, -3807)">
      <path id="Subtraction_12-2" data-name="Subtraction 12" class="cls-2" d="M-4185-3742.6a25.028,25.028,0,0,1-25-25,25.029,25.029,0,0,1,25-25,25.028,25.028,0,0,1,25,25A25.028,25.028,0,0,1-4185-3742.6Zm0-46.226a21.25,21.25,0,0,0-21.226,21.227A21.25,21.25,0,0,0-4185-3746.373a21.25,21.25,0,0,0,21.227-21.227A21.25,21.25,0,0,0-4185-3788.826Z" transform="translate(-6904 9370.6)"/>
    </g>
  </g>
</svg>
