<svg xmlns="http://www.w3.org/2000/svg" xmlns:xlink="http://www.w3.org/1999/xlink" viewBox="-11125 5798 72 72">
  <defs>
    <style>
      .cls-1 {
        fill: #fff;
        stroke: #95989a;
      }

      .cls-2 {
        fill: #fcfcfc;
      }

      .cls-3 {
        clip-path: url(#clip-path);
      }

      .cls-4 {
        fill: #3e97db;
      }

      .cls-5 {
        filter: url(#Subtraction_15);
      }

      .cls-6 {
        filter: url(#Ellipse_71);
      }
    </style>
    <filter id="Ellipse_71" x="-11125" y="5798" width="72" height="72" filterUnits="userSpaceOnUse">
      <feOffset dy="3" input="SourceAlpha"/>
      <feGaussianBlur stdDeviation="3" result="blur"/>
      <feFlood flood-opacity="0.161"/>
      <feComposite operator="in" in2="blur"/>
      <feComposite in="SourceGraphic"/>
    </filter>
    <clipPath id="clip-path">
      <rect id="Rectangle_238" data-name="Rectangle 238" class="cls-1" width="30" height="30" transform="translate(510 1919)"/>
    </clipPath>
    <filter id="Subtraction_15" x="-11123.001" y="5799.999" width="68.001" height="68" filterUnits="userSpaceOnUse">
      <feOffset dy="3" input="SourceAlpha"/>
      <feGaussianBlur stdDeviation="3" result="blur-2"/>
      <feFlood flood-opacity="0.161"/>
      <feComposite operator="in" in2="blur-2"/>
      <feComposite in="SourceGraphic"/>
    </filter>
  </defs>
  <g id="Group_442" data-name="Group 442" transform="translate(-11599 3807)">
    <g class="cls-6" transform="matrix(1, 0, 0, 1, 11599, -3807)">
      <circle id="Ellipse_71-2" data-name="Ellipse 71" class="cls-2" cx="27" cy="27" r="27" transform="translate(-11116 5804)"/>
    </g>
    <g id="Mask_Group_58" data-name="Mask Group 58" class="cls-3" transform="translate(-15 90)">
      <g id="noun_1296312_cc" transform="translate(508.262 1917.138)">
        <path id="Path_449" data-name="Path 449" class="cls-4" d="M31.508,23.933a1.887,1.887,0,0,0-.871-.57,1.406,1.406,0,0,0,.469-.3.957.957,0,0,0,.268-.871,1.558,1.558,0,0,0-.771-1.106,1.5,1.5,0,0,0-1.307-.1.674.674,0,0,0-.268.134,1.089,1.089,0,0,0-.335.436h0c0-.034-.034-.034-.034-.067a5.756,5.756,0,0,0-1.609-1.508h-.034a1.634,1.634,0,0,0-.369-.134,1.563,1.563,0,0,0,1.207-.838,1.736,1.736,0,0,0-.4-1.609,1.27,1.27,0,0,0-.771-.6c-.436-.067-.771.2-1.24.536a4.9,4.9,0,0,1-.436.3l-.067.067a2.307,2.307,0,0,0,.067-.838,2.327,2.327,0,0,0-.7-1.709,1.526,1.526,0,0,0-.637-.268,2.928,2.928,0,0,0,.737-.168,1.834,1.834,0,0,0,1.207-1.441,2.25,2.25,0,0,0-.838-2.078,1.778,1.778,0,0,0-2.078-.268,1.648,1.648,0,0,0-.871.905,1.071,1.071,0,0,0-.1.469c-.067-.067-.168-.134-.235-.2a7.272,7.272,0,0,0-1.173-.5h.034c.7-.2,2.313-1.006,2.447-1.944a1.066,1.066,0,0,0-.6-1.039,4.087,4.087,0,0,0-3.017-.771.254.254,0,0,0-.134.067,2.878,2.878,0,0,0,0-1.508A1.544,1.544,0,0,0,18.3,5.229a1.873,1.873,0,0,0-1.575.235h0a3.486,3.486,0,0,0-1.508,1.475.747.747,0,0,0,0,.7,1.134,1.134,0,0,0,.771.5,3.311,3.311,0,0,0-2.011.8,1.518,1.518,0,0,0-.4,1.341,2.357,2.357,0,0,0,1.039,1.877,3.466,3.466,0,0,0-1.039.8,1.549,1.549,0,0,1-.235.235v-.034c.034-.6-.436-1.24-1.374-1.944a1.515,1.515,0,0,0-1.743-.134,2.656,2.656,0,0,0-1.14,2.313,1.519,1.519,0,0,0,.905,1.106,1.366,1.366,0,0,0-.6.168,1.062,1.062,0,0,0-.436.7v.034a2.3,2.3,0,0,0,.3,1.844,1.312,1.312,0,0,0,.335.268H9.553c-.67.034-1.24.5-1.676,1.441-.2.436-.3,1.24,1.173,1.944.134.067.3.134.469.2a1.013,1.013,0,0,0-.637.469v-.168a1.558,1.558,0,0,0-.771-1.106,1.5,1.5,0,0,0-1.307-.1.674.674,0,0,0-.268.134,1.773,1.773,0,0,0-.57,1.073l-.034.1a.965.965,0,0,0-.034.436,2.133,2.133,0,0,0-1.441.2,1.4,1.4,0,0,0-.905.838A1.537,1.537,0,0,0,3.989,24.3,3.466,3.466,0,0,0,5.43,25.34a.57.57,0,0,0,.235.034.585.585,0,0,0,.4-.134c.3-.235.335-.6.369-1.24a3.694,3.694,0,0,1,.067-.6,1.514,1.514,0,0,0-.034-.67l.067.034a4.543,4.543,0,0,0,.67.067,1.992,1.992,0,0,0,1.374-.436c.034-.034.034-.067.067-.067a2.643,2.643,0,0,0,.235,1.24l.034.168a1.487,1.487,0,0,0-1.24-.235,2.11,2.11,0,0,0-1.14,1.14h0A1.5,1.5,0,0,0,6.8,26.514a1.239,1.239,0,0,0,.7.2,5.521,5.521,0,0,0,1.073-.2l.067-.034c.771-.235,1.24-.57,1.341-1.039a.57.57,0,0,0,.034-.235,1.952,1.952,0,0,0,.637.1h.1a1.911,1.911,0,0,0,.737-.134v.369c0,.134.034.3.034.436a1,1,0,0,0,.57.737,2.438,2.438,0,0,0,.972.235h.235a1.662,1.662,0,0,0,.67-.268c.034.1.067.168.1.268,0,.034.034.034.034.067a3.377,3.377,0,0,0,2.38,1.575h.1a1.857,1.857,0,0,0,1.274-.5l.034-.034a5.064,5.064,0,0,0,.939-2.614.789.789,0,0,0,.268.067,3.306,3.306,0,0,1,.8.1,3.58,3.58,0,0,0,.838.1,1.138,1.138,0,0,0,.905-.335l.134-.134v.235a1.961,1.961,0,0,0,1.173,1.341,3.172,3.172,0,0,0,1.24.268,2.864,2.864,0,0,0,1.575-.436,1.832,1.832,0,0,0,1.039-1.475,2.064,2.064,0,0,0-.7-1.475h0a2.857,2.857,0,0,0,.771-.1,2.971,2.971,0,0,0,1.441-.737.821.821,0,0,0,.134.4.9.9,0,0,0,.268.235,1.012,1.012,0,0,0-.7.67,1.68,1.68,0,0,0,.268,1.374h0a1.947,1.947,0,0,0,1.676.8h.268a1.568,1.568,0,0,0,1.374-1.006A1.457,1.457,0,0,0,31.508,23.933Zm-25.676-.67c-.034.235-.034.436-.067.637a2.792,2.792,0,0,1-.1.737h-.1a2.341,2.341,0,0,1-1.073-.8c-.1-.134-.369-.5-.335-.737.034-.134.2-.268.5-.369.737-.3.972-.2,1.039-.134a.99.99,0,0,1,.134.67Zm2.279-1.441a1.927,1.927,0,0,1-1.475.2c-.034,0-.1-.034-.1-.067a.465.465,0,0,1,0-.3l.034-.1a1.349,1.349,0,0,1,.3-.67h0c.034-.034.067-.034.1-.067a.979.979,0,0,1,.3-.067.928.928,0,0,1,.436.1,1.082,1.082,0,0,1,.469.67.3.3,0,0,1-.067.3Zm16.726-1.006a3.05,3.05,0,0,0-.168,1.642,1.51,1.51,0,0,0-1.207,0,3.33,3.33,0,0,0,.905-2.045,1.526,1.526,0,0,0-.436-1.441,1.863,1.863,0,0,0-.57-.3,2.4,2.4,0,0,0,.972-.2,1.89,1.89,0,0,0-.134.4v.067a1.163,1.163,0,0,0,.4.771,1.8,1.8,0,0,0,.871.3,1.212,1.212,0,0,0-.637.8ZM18.4,24.335a2.184,2.184,0,0,0-1.709-.4,4.532,4.532,0,0,0-.972.168,2.152,2.152,0,0,0,.335-.436,1.069,1.069,0,0,0,.134-.7,3.09,3.09,0,0,0,1.709.5,2.537,2.537,0,0,0,.5-.034c.1-.034.2-.034.268-.067A3.222,3.222,0,0,0,18.4,24.335Zm-4.458.536a2.044,2.044,0,0,0-1.207-.5h-.4a2.673,2.673,0,0,0,.3-1.039,2.327,2.327,0,0,0,.168.436A1.627,1.627,0,0,0,14.246,24.8h.2a1.312,1.312,0,0,0-.268.335A1.679,1.679,0,0,1,13.944,24.871Zm-2.212-4.927a8.546,8.546,0,0,0,.436.972l.034.034a3.022,3.022,0,0,0,.939.67,1.17,1.17,0,0,0-.5.4,1.239,1.239,0,0,0-.168.369c-.168-.8-.6-1.24-1.709-1.341a1.312,1.312,0,0,0,.335-.268A4.619,4.619,0,0,0,11.732,19.944ZM18.167,8.849c-.034.067-.034.1-.067.168a1.9,1.9,0,0,0-.268-.436h.134a1.14,1.14,0,0,0,.335-.034,2.658,2.658,0,0,0-.134.3Zm-2.011,3.419a3.3,3.3,0,0,0,.536-.168,1.952,1.952,0,0,0-.1.637A1.959,1.959,0,0,0,16.156,12.268Zm3.285,9.821a1.482,1.482,0,0,1-1.173.637,2.25,2.25,0,0,1-2.48-1.274c-.2-.737.1-1.039.168-1.106a4.31,4.31,0,0,1,2.682-.436,1.031,1.031,0,0,1,.637.6A1.963,1.963,0,0,1,19.441,22.089Zm-4.391-.905a1.183,1.183,0,0,0,.1.469c0,.034.034.067.034.1a2.668,2.668,0,0,0-.67-.235A3.4,3.4,0,0,0,15.05,21.184Zm-1.073.939h.134c.436.1,1.207.3,1.374.8a.561.561,0,0,1-.034.4,1.666,1.666,0,0,1-.972.67q-.7.2-1.106-.6c-.235-.469-.3-.871-.168-1.039A1.108,1.108,0,0,1,13.977,22.123ZM18.067,18.7a1.686,1.686,0,0,1-1.207-.8.748.748,0,0,1-.067-.7,2.578,2.578,0,0,1,1.508-.737,2.56,2.56,0,0,1,1.844.771c.4.369.6.7.536.871C20.48,18.6,18.871,18.771,18.067,18.7Zm-.737-2.682a2.035,2.035,0,0,0,.168-.6h0a1.753,1.753,0,0,0,.57.4,2.663,2.663,0,0,0-.737.2ZM16.29,18.234a2.3,2.3,0,0,0,1.14.972,5.219,5.219,0,0,0-1.24.335,2.213,2.213,0,0,0,.034-.469,2.082,2.082,0,0,0-.67-1.642c-.034-.034-.067-.067-.1-.067a3.921,3.921,0,0,0,.67-.168A1.275,1.275,0,0,0,16.29,18.234Zm-1.173-.268a1.447,1.447,0,0,1,.436,1.14c.034.972-.5,1.341-1.408,1.877-.57.335-1.274-.335-1.374-.469-.235-.4-.771-1.542-.469-2.179a1.049,1.049,0,0,1,.838-.536A2.549,2.549,0,0,1,15.117,17.966Zm4.76,2.279a1.708,1.708,0,0,0-.905-.905c.871-.067,2.011-.268,2.313-.939a.621.621,0,0,0,.067-.235,1.663,1.663,0,0,0,.737.436c-.1.034-.235.034-.335.067a1.5,1.5,0,0,0-1.073.771,3.015,3.015,0,0,0,.067,2.112,1.54,1.54,0,0,0,.235.536,2.1,2.1,0,0,0-.905.1A2.567,2.567,0,0,0,19.877,20.246Zm1.542,1.106v-.067a2.42,2.42,0,0,1-.1-1.575.873.873,0,0,1,.6-.436,3.306,3.306,0,0,1,.8-.1,1.108,1.108,0,0,1,.771.235.947.947,0,0,1,.2.838c-.134,1.073-.536,1.676-.871,1.743C22.692,22.056,21.62,22.19,21.419,21.352Zm3.989-3.218h0a4.927,4.927,0,0,0,.436-.335,1.957,1.957,0,0,1,.7-.436c.034,0,.134.067.3.3s.436.737.335.972-.436.369-1.039.5a1.687,1.687,0,0,1-1.14-.067.6.6,0,0,1-.168-.235A1.664,1.664,0,0,1,25.407,18.134ZM24.368,16.86a1.046,1.046,0,0,1-.168.838c-.2.235-.6.235-.972.268h-.235c-.67.034-1.106.034-1.374-.67a2.035,2.035,0,0,1,.168-1.341,1.112,1.112,0,0,1,.7-.436,1.806,1.806,0,0,1,1.408.1,1.719,1.719,0,0,1,.469,1.24Zm-1.911-4.827a1,1,0,0,1,.57-.536,1.1,1.1,0,0,1,.57-.134,1.119,1.119,0,0,1,.771.3,1.524,1.524,0,0,1,.637,1.441,1.226,1.226,0,0,1-.771.939,1.33,1.33,0,0,1-1.073.034.83.83,0,0,1-.469-.536A1.894,1.894,0,0,1,22.458,12.033Zm-.436,1.777a1.427,1.427,0,0,0,1.106.972,5.481,5.481,0,0,0-.737.067,1.718,1.718,0,0,0-1.14.7,2.525,2.525,0,0,0-.335,1.475l-.3-.3a3.908,3.908,0,0,0-1.274-.8,3.123,3.123,0,0,0,1.039-.436h0a4.062,4.062,0,0,0,1.642-1.676Zm-.57-.6c0,.5-.536,1.106-1.475,1.743a1.951,1.951,0,0,1-1.609.268c-.536-.235-.905-.905-1.073-1.978-.1-.637-.034-1.073.268-1.307a1.148,1.148,0,0,1,.737-.168,7.581,7.581,0,0,1,2.849.838A.949.949,0,0,1,21.452,13.207ZM18,11.128a1.384,1.384,0,0,0,.235-.5,1.2,1.2,0,0,0,.235.335l.168.168Zm1.408-2.682a1.682,1.682,0,0,1,.4-.067,4.432,4.432,0,0,1,2.045.737c.3.168.3.335.268.369-.067.436-1.14,1.14-1.978,1.408a1.191,1.191,0,0,1-1.173-.369,1.408,1.408,0,0,1-.2-1.441,1.086,1.086,0,0,1,.637-.637ZM15.855,7.14A3.2,3.2,0,0,1,17.061,6c.469-.235.771-.335.972-.235a.969.969,0,0,1,.369.7c.2.939.034,1.24-.067,1.341-.168.168-.57.1-.871,0s-.536-.134-.737-.2a4.78,4.78,0,0,1-.905-.3A.147.147,0,0,1,15.855,7.14ZM14.447,9.352a3.364,3.364,0,0,1,2.145-.637h.168c.4-.034.737.369.838.771a1.45,1.45,0,0,1-.637,1.676,2.235,2.235,0,0,1-2.011.335,1.731,1.731,0,0,1-.737-1.374.862.862,0,0,1,.235-.771Zm-.436,3.989c.57-.6,1.073-.838,1.475-.737.8.268,1.24,2.112,1.341,2.782a1.373,1.373,0,0,1-.5.905,3.25,3.25,0,0,1-2.648.3,1.537,1.537,0,0,1-.8-.905C12.737,15.084,13.139,14.279,14.011,13.341Zm-4.29-.1a2.258,2.258,0,0,1,.838-1.642.953.953,0,0,1,.4-.134.951.951,0,0,1,.57.235c.939.67,1.106,1.106,1.106,1.374s-.2.469-.57.7a1.825,1.825,0,0,1-1.709.1A1,1,0,0,1,9.721,13.24Zm2.749,1.073a2.33,2.33,0,0,0-.3,1.341,1.836,1.836,0,0,0-.771-.972,2.551,2.551,0,0,0,1.006-.335ZM9.62,15.452v-.034a.2.2,0,0,1,.1-.2.892.892,0,0,1,.4-.1,2.908,2.908,0,0,1,.939.168h.034a1.121,1.121,0,0,1,.5.838c0,.1.034.2.034.3a.954.954,0,0,1,0,.536c-.067.067-.235.2-.838.168a1.492,1.492,0,0,1-1.039-.335,1.856,1.856,0,0,1-.134-1.341ZM10.76,17.8h.134a1.572,1.572,0,0,0,1.24-.4A1.2,1.2,0,0,0,12.3,16.29a1.452,1.452,0,0,0-.034-.168v-.034a2.042,2.042,0,0,0,.871,1.039l-.168.034a1.572,1.572,0,0,0-1.441,1.374,4.5,4.5,0,0,0-1.039-.737ZM8.48,19.24c.3-.67.67-1.039,1.106-1.039h0c.469,0,1.676.737,1.709,1.14,0,.067-.034.1-.067.168a3.483,3.483,0,0,1-.57.8.729.729,0,0,1-.67.268,3.574,3.574,0,0,1-.637-.235C8.849,20.078,8.279,19.676,8.48,19.24Zm.871,5.966c-.034.2-.369.4-.871.536l-.067.034c-.3.1-.939.268-1.207.1s-.2-.7-.034-1.039a1.394,1.394,0,0,1,.67-.771c.369-.1.8.134,1.341.7a.436.436,0,0,1,.168.436Zm1.341-.637c-.737-.034-.939-.335-1.173-1.274,0-.034,0-.034-.034-.067-.1-.2-.335-.905-.1-1.24a.77.77,0,0,1,.737-.268h.168c1.508,0,1.542.436,1.642,1.341a1.56,1.56,0,0,1-.335,1.207,1.24,1.24,0,0,1-.905.3Zm2.916,1.408a.478.478,0,0,1-.4.2,1.481,1.481,0,0,1-.838-.134.325.325,0,0,1-.235-.268h0a1.14,1.14,0,0,1-.034-.335c0-.168,0-.268.067-.335s.1-.067.235-.067h.168a1.538,1.538,0,0,1,.838.335.46.46,0,0,1,.2.6Zm3.721,1.542a1.1,1.1,0,0,1-.838.268,2.849,2.849,0,0,1-1.844-1.274,1.307,1.307,0,0,1,0-1.006c.268-.469.972-.771,2.078-.871.5-.034,1.106,0,1.341.335.3.57-.268,1.844-.737,2.547Zm3.855-2.782c-.235.235-.67.134-1.173.034a3.654,3.654,0,0,0-.871-.1h-.067c-.1-.134.067-.737.3-1.274.235-.2,1.274-1.039,1.978-.469a.889.889,0,0,1,.4.67,1.848,1.848,0,0,1-.57,1.14Zm.871-2.045a1.911,1.911,0,0,0,.436.034,2.062,2.062,0,0,0,.436-.034c.034,0,.067-.034.1-.034a3.025,3.025,0,0,0-.637.67,1.18,1.18,0,0,0-.335-.637Zm3.352,3.218a2.323,2.323,0,0,1-2.145.134,1.33,1.33,0,0,1-.8-.838,2.507,2.507,0,0,1,1.073-2.045,1.056,1.056,0,0,1,1.274.1c.905.67,1.374,1.274,1.374,1.743-.034.3-.3.6-.771.905Zm2.581-3.821c-.1.2-.4.5-1.207.7a1.4,1.4,0,0,1-1.274-.134c-.3-.3-.268-.905-.034-1.642a.84.84,0,0,1,.436-.57.789.789,0,0,1,.268-.067,1.071,1.071,0,0,1,.469.1,5.371,5.371,0,0,1,1.341,1.274.568.568,0,0,1,0,.335Zm1.073.335.034-.1a1.349,1.349,0,0,1,.3-.67h0c.034-.034.067-.034.1-.067a.979.979,0,0,1,.3-.067.838.838,0,0,1,.871.771.342.342,0,0,1-.067.3,1.869,1.869,0,0,1-1.441.2c-.034,0-.1-.034-.1-.067a.453.453,0,0,1,0-.3Zm1.978,2.547a1.065,1.065,0,0,1-.871.57,1.455,1.455,0,0,1-1.307-.5h0a.919.919,0,0,1-.168-.8c.134-.268.469-.3.771-.335a1.8,1.8,0,0,1,1.508.469.641.641,0,0,1,.067.6Z"/>
        <path id="Path_450" data-name="Path 450" class="cls-4" d="M4.056,24.67a1.851,1.851,0,0,0-1.575,0,1.711,1.711,0,0,0-.737,1.173.332.332,0,0,0,.268.369l1.441.3H3.62c.369-.1,1.24-.4,1.274-.972C4.961,25.005,4.29,24.771,4.056,24.67ZM3.52,25.843l-1.006-.235a.985.985,0,0,1,.335-.4,1.1,1.1,0,0,1,.972.034,1.585,1.585,0,0,1,.4.235A1.432,1.432,0,0,1,3.52,25.843Z"/>
        <path id="Path_451" data-name="Path 451" class="cls-4" d="M28.29,26.044a1.851,1.851,0,0,0-1.575,0,1.711,1.711,0,0,0-.737,1.173.332.332,0,0,0,.268.369l1.441.3h.168c.369-.1,1.24-.4,1.274-.972C29.2,26.413,28.525,26.145,28.29,26.044Zm-.536,1.207-1.006-.235a.985.985,0,0,1,.335-.4,1.227,1.227,0,0,1,.972.034,1.585,1.585,0,0,1,.4.235A1.774,1.774,0,0,1,27.754,27.251Z"/>
        <path id="Path_452" data-name="Path 452" class="cls-4" d="M20.849,25.676a2.253,2.253,0,0,0-1.307.268,1.168,1.168,0,0,0-.67.8.913.913,0,0,0,.3.8,1.441,1.441,0,0,0,.3.335h0a1.082,1.082,0,0,0,.7.268h.2a2.373,2.373,0,0,0,1.106-.5,1.113,1.113,0,0,0,.2-1.542,1.459,1.459,0,0,0-.838-.436Zm.134,1.475a1.488,1.488,0,0,1-.737.335.322.322,0,0,1-.335-.1,1.916,1.916,0,0,1-.235-.268c-.1-.134-.168-.235-.134-.3s.067-.134.335-.3a1.348,1.348,0,0,1,.871-.2.572.572,0,0,1,.469.436A.511.511,0,0,1,20.983,27.15Z"/>
      </g>
    </g>
    <g class="cls-5" transform="matrix(1, 0, 0, 1, 11599, -3807)">
      <path id="Subtraction_15-2" data-name="Subtraction 15" class="cls-2" d="M-4185-3742.6a25.028,25.028,0,0,1-25-25,25.029,25.029,0,0,1,25-25,25.028,25.028,0,0,1,25,25A25.028,25.028,0,0,1-4185-3742.6Zm0-46.226a21.25,21.25,0,0,0-21.226,21.227A21.25,21.25,0,0,0-4185-3746.373a21.25,21.25,0,0,0,21.227-21.227A21.25,21.25,0,0,0-4185-3788.826Z" transform="translate(-6904 9598.6)"/>
    </g>
  </g>
</svg>
