<svg xmlns="http://www.w3.org/2000/svg" xmlns:xlink="http://www.w3.org/1999/xlink" viewBox="-3188 6525 30 30">
  <defs>
    <style>
      .cls-1 {
        fill: #fff;
        stroke: #95989a;
      }

      .cls-2 {
        clip-path: url(#clip-path);
      }

      .cls-3 {
        fill: #3e97db;
      }
    </style>
    <clipPath id="clip-path">
      <rect id="Rectangle_236" data-name="Rectangle 236" class="cls-1" width="30" height="30" transform="translate(495 1857)"/>
    </clipPath>
  </defs>
  <g id="Mask_Group_97" data-name="Mask Group 97" class="cls-2" transform="translate(-3683 4668)">
    <g id="water" transform="translate(572.651 -449.517)">
      <path id="Path_601" data-name="Path 601" class="cls-3" d="M24.461,717.353a.652.652,0,0,1,.387.214c4.951,5.588,9.618,12.222,9.618,18.452,0,6.207-4.491,11.326-10.107,11.326s-10.107-5.119-10.107-11.326c0-6.229,4.671-12.864,9.618-18.452a.652.652,0,0,1,.591-.214Zm-.1,1.681c-4.667,5.378-8.8,11.62-8.8,16.985,0,5.582,3.981,10.026,8.8,10.026s8.8-4.443,8.8-10.026c0-5.365-4.136-11.607-8.8-16.984ZM30.6,735.255a.652.652,0,0,1,.571.6,8.193,8.193,0,0,1-3.189,7.112.652.652,0,1,1-.744-1.07,7.339,7.339,0,0,0,2.639-5.92.652.652,0,0,1,.723-.723Z" transform="translate(-87.01 1589.172)"/>
    </g>
  </g>
</svg>
