<svg xmlns="http://www.w3.org/2000/svg" xmlns:xlink="http://www.w3.org/1999/xlink" viewBox="-3188 6601 30 30">
  <defs>
    <style>
      .cls-1 {
        fill: #fff;
        stroke: #95989a;
      }

      .cls-2 {
        clip-path: url(#clip-path);
      }

      .cls-3 {
        fill: #3e97db;
      }
    </style>
    <clipPath id="clip-path">
      <rect id="Rectangle_237" data-name="Rectangle 237" class="cls-1" width="30" height="30" transform="translate(510 1843)"/>
    </clipPath>
  </defs>
  <g id="Mask_Group_57" data-name="Mask Group 57" class="cls-2" transform="translate(-3698 4758)">
    <g id="noun_907786_cc_1_" data-name="noun_907786_cc (1)" transform="translate(510 1843)">
      <g id="Group_406" data-name="Group 406">
        <g id="Group_405" data-name="Group 405">
          <path id="Path_441" data-name="Path 441" class="cls-3" d="M16.2,4H12.8l-.5-1h4.4Zm1.75-1.3A.47.47,0,0,0,17.5,2h-6a.505.505,0,0,0-.45.7l1,2a.48.48,0,0,0,.45.3h4a.48.48,0,0,0,.45-.3Z"/>
          <path id="Path_442" data-name="Path 442" class="cls-3" d="M8.5,3h12A1.473,1.473,0,0,0,22,1.5,1.473,1.473,0,0,0,20.5,0H8.5A1.473,1.473,0,0,0,7,1.5,1.5,1.5,0,0,0,8.5,3Zm0-1A.538.538,0,0,1,8,1.5.538.538,0,0,1,8.5,1h12a.538.538,0,0,1,.5.5.538.538,0,0,1-.5.5Z"/>
          <path id="Path_443" data-name="Path 443" class="cls-3" d="M9.5,26v2.95a.049.049,0,0,1-.05.05H2.6a.175.175,0,0,1-.1-.05V26Zm-.05,4a1.056,1.056,0,0,0,1.05-1.05V25h-9v3.95A1.1,1.1,0,0,0,2.6,30Z"/>
          <path id="Path_444" data-name="Path 444" class="cls-3" d="M10.95,25H1.1a.175.175,0,0,1-.1-.05V23.1a.108.108,0,0,1,.1-.1h9.85a.049.049,0,0,1,.05.05V24.9C11,24.95,11,25,10.95,25Zm0,1A1.056,1.056,0,0,0,12,24.95V23.1a1.056,1.056,0,0,0-1.05-1.05H1.1a1.028,1.028,0,0,0-1.1,1V24.9A1.11,1.11,0,0,0,1.1,26Z"/>
          <path id="Path_445" data-name="Path 445" class="cls-3" d="M26,8.5h2.95a.049.049,0,0,1,.05.05V15.4a.049.049,0,0,1-.05.05H26Zm4,.05A1.056,1.056,0,0,0,28.95,7.5H25v9h3.95A1.056,1.056,0,0,0,30,15.45Z"/>
          <path id="Path_446" data-name="Path 446" class="cls-3" d="M25,7.05V16.9a.049.049,0,0,1-.05.05H23.1a.049.049,0,0,1-.05-.05V7.05A.049.049,0,0,1,23.1,7h1.85A.049.049,0,0,1,25,7.05Zm1,0A1.056,1.056,0,0,0,24.95,6H23.1A1.1,1.1,0,0,0,22,7.05V16.9a1.056,1.056,0,0,0,1.05,1.05H24.9a1.056,1.056,0,0,0,1.05-1.05V7.05Z"/>
          <path id="Path_447" data-name="Path 447" class="cls-3" d="M16.5,7.5a15.044,15.044,0,0,0-15,15V23h9v-.5a6.018,6.018,0,0,1,6-6H23v-9Zm5.5,8H16.5a7,7,0,0,0-7,6.5h-7a14.009,14.009,0,0,1,14-13.5H22Z"/>
          <path id="Path_448" data-name="Path 448" class="cls-3" d="M16.5,8.5h1A.472.472,0,0,0,18,8V4.5a.472.472,0,0,0-.5-.5h-6a.472.472,0,0,0-.5.5V8.9a.467.467,0,0,0,.65.45A14.562,14.562,0,0,1,16.5,8.5ZM12,5h5V7.5h-.5a15.114,15.114,0,0,0-4.5.7Z"/>
        </g>
      </g>
    </g>
  </g>
</svg>
