<svg xmlns="http://www.w3.org/2000/svg" xmlns:xlink="http://www.w3.org/1999/xlink" viewBox="-3188 6677 30 30">
  <defs>
    <style>
      .cls-1 {
        fill: #fff;
        stroke: #95989a;
      }

      .cls-2 {
        clip-path: url(#clip-path);
      }

      .cls-3 {
        fill: #3e97db;
      }
    </style>
    <clipPath id="clip-path">
      <rect id="Rectangle_236" data-name="Rectangle 236" class="cls-1" width="30" height="30" transform="translate(495 1857)"/>
    </clipPath>
  </defs>
  <g id="Mask_Group_100" data-name="Mask Group 100" class="cls-2" transform="translate(-3683 4820)">
    <g id="disinfection" transform="translate(633.521 668.203)">
      <path id="Path_598" data-name="Path 598" class="cls-3" d="M16.3,10.3a1.96,1.96,0,0,0,1.433-.582,2,2,0,0,0,0-2.866,2.054,2.054,0,0,0-2.866,0,2,2,0,0,0,0,2.866A2.033,2.033,0,0,0,16.3,10.3Zm-.806-2.821a1.079,1.079,0,0,1,.806-.313,1.287,1.287,0,0,1,.806.313,1.016,1.016,0,0,1,.313.806,1.287,1.287,0,0,1-.313.806A1.016,1.016,0,0,1,16.3,9.4a1.287,1.287,0,0,1-.806-.313,1.226,1.226,0,0,1,0-1.612ZM34.925,31.03a3.256,3.256,0,0,0-1.791-.9,3.076,3.076,0,0,0-.9-2.687,1.947,1.947,0,0,0-.313-.269l1.164-1.164a2.731,2.731,0,0,0,0-3.806l-.313-.313.313-.313a1.777,1.777,0,0,0-.806-3l.806-.806a1.784,1.784,0,0,0,0-2.552,1.577,1.577,0,0,0-.851-.448A1.734,1.734,0,0,0,32.1,12.4a1.786,1.786,0,0,0-2.373-.134,2.23,2.23,0,0,0-.448-.851,1.784,1.784,0,0,0-2.552,0l-2.194,2.194L21.985,11.06a2.652,2.652,0,0,0-1.881-.806,2.577,2.577,0,0,0-1.881.806l-1.3,1.3a2.983,2.983,0,0,0-1.881-.716,2.843,2.843,0,0,0-2.06.851,2.9,2.9,0,0,0-.134,3.94l-.627.627a2.731,2.731,0,0,0,0,3.806h0l-.94.94a7.355,7.355,0,0,0-.134,10.254A7.271,7.271,0,0,0,21.4,31.925l.94-.94.94.94a2.6,2.6,0,0,0,1.388.716,3.076,3.076,0,0,0,.9,2.687,3.134,3.134,0,0,0,2.194.94,2.983,2.983,0,0,0,2.194-.94l.269-.269.269.269a3.088,3.088,0,0,0,4.433-4.3Zm-2.6-11.463a.9.9,0,0,1,.134,1.343l-.313.313L30.9,19.97l.269-.269a.951.951,0,0,1,1.164-.134Zm0-3.761a.9.9,0,0,1,.134,1.343L30.582,19.03l-.313.313-1.254-1.254L31.209,15.9a.825.825,0,0,1,1.119-.09Zm-2.149-2.731a.887.887,0,1,1,1.3,1.209l-3.134,3.179-1.254-1.254Zm-2.821-.94a.887.887,0,1,1,1.3,1.209l-2.239,2.239-1.254-1.254Zm-12.313.448a2.14,2.14,0,0,1,1.254.448h0l.09.09c.045,0,.045.045.09.045.09.09.134.179.224.269.045.09.134.179.179.269a2.009,2.009,0,0,1,.224.851,1.988,1.988,0,0,1-2.015,2.015,1.852,1.852,0,0,1-.851-.224.937.937,0,0,1-.269-.179,1.187,1.187,0,0,1-.269-.224h0l-.09-.09a2.067,2.067,0,0,1-.493-1.343,2.156,2.156,0,0,1,.582-1.433,2.126,2.126,0,0,1,1.343-.493Zm5.687,18.806a6.473,6.473,0,0,1-9.224-.09A6.529,6.529,0,0,1,12,22.388l1.433-1.433,1.03-1.03a.887.887,0,1,1,1.3,1.209l-2.015,2.015a.443.443,0,1,0,.627.627l6.089-6.09a.887.887,0,1,1,1.3,1.209l-4.433,4.433a.443.443,0,1,0,.627.627l5.328-5.328a.887.887,0,1,1,1.3,1.209l-5.373,5.373a.443.443,0,1,0,.627.627l4.388-4.388a.887.887,0,1,1,1.3,1.209l-4.97,5.149a.233.233,0,0,0-.09.179h0c0,.045-.045.09-.045.134V28.3c0,.045.045.09.09.134h0c.045.045.09.045.134.09h.179a.164.164,0,0,0,.134-.045c.045,0,.09-.045.179-.09l3.134-3.134a.887.887,0,1,1,1.3,1.209Zm3.179,0-.94-.94,3.313-3.313a1.777,1.777,0,0,0-.806-3l.806-.806a1.784,1.784,0,0,0,0-2.552,1.577,1.577,0,0,0-.851-.448,1.734,1.734,0,0,0-.134-2.373,1.836,1.836,0,0,0-2.373-.134,2.23,2.23,0,0,0-.448-.851,1.784,1.784,0,0,0-2.552,0L16.88,20.015a1.777,1.777,0,0,0-3-.806l-1.075,1.075h0a1.768,1.768,0,0,1-.537-1.254,1.694,1.694,0,0,1,.537-1.254l.672-.672A3.019,3.019,0,0,0,15,17.552a2.9,2.9,0,0,0,2.463-4.433l1.343-1.343a1.768,1.768,0,0,1,1.254-.537,1.626,1.626,0,0,1,1.254.537l8.239,8.239.627.627h0L31.433,21.9h0l.627.627h0l.313.313a1.768,1.768,0,0,1,.537,1.254,1.626,1.626,0,0,1-.537,1.254L31.03,26.686a3.09,3.09,0,0,0-1.119-.179,2.983,2.983,0,0,0-2.194.94,3.094,3.094,0,0,0-.851,2.776,3.147,3.147,0,0,0-1.388.806,3.791,3.791,0,0,0-.627.851,1.752,1.752,0,0,1-.94-.493Zm10.343,3.448a2.28,2.28,0,0,1-1.567.672,2.1,2.1,0,0,1-1.567-.672.976.976,0,0,1-.179-.224l-.716-.9-.716.9c-.045.09-.134.134-.179.179a2.28,2.28,0,0,1-1.567.672,2.1,2.1,0,0,1-1.567-.672,2.28,2.28,0,0,1-.672-1.567,2.536,2.536,0,0,1,.134-.806c0-.045.045-.09.045-.134.045-.09.09-.134.134-.224.045-.045.045-.09.09-.09.09-.09.134-.224.269-.313h0a2.463,2.463,0,0,1,.4-.313c.179-.09.358-.179.582-.269l.582-.179.179-.045-.134-.806V30a2.182,2.182,0,0,1,.627-1.97A2.28,2.28,0,0,1,30,27.358a.985.985,0,0,1,.358.045h0c.045,0,.134.045.179.045s.134.045.179.045c.045.045.134.045.179.09.09.045.134.09.224.134a.156.156,0,0,1,.09.045c.09.09.224.179.313.269a2.311,2.311,0,0,1,.627,1.925l-.134.9.9.134a2.1,2.1,0,0,1,1.3.627,2.28,2.28,0,0,1,.672,1.567,1.984,1.984,0,0,1-.627,1.657Z" transform="translate(-145.969 1182.529)"/>
    </g>
  </g>
</svg>
