<svg xmlns="http://www.w3.org/2000/svg" xmlns:xlink="http://www.w3.org/1999/xlink" viewBox="-3188 6753 30 30">
  <defs>
    <style>
      .cls-1 {
        fill: #fff;
        stroke: #95989a;
      }

      .cls-2 {
        clip-path: url(#clip-path);
      }

      .cls-3 {
        fill: #3e97db;
      }
    </style>
    <clipPath id="clip-path">
      <rect id="Rectangle_236" data-name="Rectangle 236" class="cls-1" width="30" height="30" transform="translate(495 1857)"/>
    </clipPath>
  </defs>
  <g id="Mask_Group_98" data-name="Mask Group 98" class="cls-2" transform="translate(-3683 4896)">
    <g id="clean" transform="translate(648.94 -379.854)">
      <path id="Path_600" data-name="Path 600" class="cls-3" d="M34.189,32.185H28.32a10.505,10.505,0,0,1-.655-.863h3.81V30.46H27.133a6.122,6.122,0,0,1-.647-1.782h.873V26.394H21.921V22.414a.431.431,0,0,0-.431-.431h-.526V4.805H18.8V21.983h-.526a.431.431,0,0,0-.431.431v3.981H12.4v2.283h.626a15.472,15.472,0,0,1-.571,1.782H8.541v.862h3.54a9.114,9.114,0,0,1-.474.863H5.092v.862h5.869a3.389,3.389,0,0,1-1.286.924.431.431,0,0,0,.152.834H29.937a.431.431,0,0,0,.263-.773,12.584,12.584,0,0,1-1.091-.985h5.08ZM19.66,5.667H20.1V21.983H19.66ZM18.7,22.841h2.357v3.55H18.7Zm-5.44,4.412H26.5v.559H13.262Zm-1.979,6.69c1.636-1.528,2.4-4.287,2.634-5.265h1.061a9.285,9.285,0,0,1-1.2,3.718l.742.436a10.072,10.072,0,0,0,1.33-4.157h.526c-.068.7-.2,1.984-.322,2.546l.844.179c.133-.629.278-2.037.345-2.722h.6V32.9H18.7V28.678h.747v3.1h.862v-3.1h.615V32.9h.862V28.678h.6c.066.688.212,2.093.345,2.722l.843-.179c-.119-.559-.253-1.847-.322-2.546h.526a10.068,10.068,0,0,0,1.33,4.157l.741-.436a9.283,9.283,0,0,1-1.2-3.718h.962a10.089,10.089,0,0,0,3.174,5.265h-17.5Z" transform="translate(-158.58 2232.048)"/>
    </g>
  </g>
</svg>
