<svg xmlns="http://www.w3.org/2000/svg" xmlns:xlink="http://www.w3.org/1999/xlink" viewBox="-3188 6829 30 30">
  <defs>
    <style>
      .cls-1 {
        fill: #fff;
        stroke: #95989a;
      }

      .cls-2 {
        clip-path: url(#clip-path);
      }

      .cls-3 {
        fill: #3e97db;
      }
    </style>
    <clipPath id="clip-path">
      <rect id="Rectangle_236" data-name="Rectangle 236" class="cls-1" width="30" height="30" transform="translate(495 1857)"/>
    </clipPath>
  </defs>
  <g id="Mask_Group_99" data-name="Mask Group 99" class="cls-2" transform="translate(-3683 4972)">
    <g id="analys" transform="translate(430.501 -449.222)">
      <path id="Path_604" data-name="Path 604" class="cls-3" d="M41.395.75H30.75V6.556h.967V26.4a4.355,4.355,0,0,0,8.71,0V6.556h.967Zm-5.32,29.032A3.391,3.391,0,0,1,32.688,26.4V9.46h6.774V26.4a3.391,3.391,0,0,1-3.387,3.387Zm3.387-21.29H32.685V6.556h6.774Zm.963-2.9H31.717V1.717h.967v2.9h.967v-2.9h.967v2.9h.967v-2.9h.967v2.9h.967v-2.9h.967v2.9h.967v-2.9h.967Z" transform="translate(53.104 2305.472)"/>
      <rect id="Rectangle_301" data-name="Rectangle 301" class="cls-3" width="0.967" height="0.967" transform="translate(90.628 2315.899)"/>
      <rect id="Rectangle_302" data-name="Rectangle 302" class="cls-3" width="0.967" height="12.097" transform="translate(90.628 2317.835)"/>
      <path id="Path_605" data-name="Path 605" class="cls-3" d="M8.492,6.556H9.46v7.5l-2.9-3.959L1.875,16.477A5.775,5.775,0,0,0,.75,19.912V20.1a5.8,5.8,0,0,0,8.71,5.02v1.269a4.355,4.355,0,0,0,8.71,0V6.556h.967V.75H8.492ZM1.717,20.1v-.193a4.8,4.8,0,0,1,.937-2.861l3.9-5.321,3.9,5.32a4.806,4.806,0,0,1,.937,2.861V20.1a4.839,4.839,0,1,1-9.675,0Zm12.1,9.675A3.391,3.391,0,0,1,10.425,26.4V24.42a5.787,5.787,0,0,0,1.936-4.315v-.193a5.775,5.775,0,0,0-1.125-3.434l-.811-1.107V9.46H17.2V26.4a3.391,3.391,0,0,1-3.385,3.387ZM17.2,8.489H10.425V6.556H17.2ZM9.46,1.717h.965v2.9h.967v-2.9h.967v2.9h.967v-2.9h.967v2.9h.967v-2.9h.967v2.9H17.2v-2.9h.967V5.589H9.46Z" transform="translate(63.749 2305.472)"/>
      <rect id="Rectangle_303" data-name="Rectangle 303" class="cls-3" width="0.967" height="0.967" transform="translate(79.015 2315.899)"/>
      <rect id="Rectangle_304" data-name="Rectangle 304" class="cls-3" width="0.967" height="12.097" transform="translate(79.015 2317.835)"/>
      <path id="Path_606" data-name="Path 606" class="cls-3" d="M7.887,25.5a3.387,3.387,0,1,0,3.387,3.387A3.387,3.387,0,0,0,7.887,25.5Zm0,5.806a2.419,2.419,0,1,1,2.419-2.419,2.419,2.419,0,0,1-2.419,2.419Z" transform="translate(62.419 2296.689)"/>
      <path id="Path_607" data-name="Path 607" class="cls-3" d="M7.5,29.951A1.453,1.453,0,0,0,8.951,31.4v-.967a.484.484,0,1,1,0-.967V28.5A1.453,1.453,0,0,0,7.5,29.951Z" transform="translate(61.354 2295.625)"/>
    </g>
  </g>
</svg>
