<svg xmlns="http://www.w3.org/2000/svg" xmlns:xlink="http://www.w3.org/1999/xlink" viewBox="-3188 6981 30 30">
  <defs>
    <style>
      .cls-1 {
        fill: #f2f2f2;
      }

      .cls-2 {
        clip-path: url(#clip-path);
      }

      .cls-3 {
        fill: none;
        stroke: #3e97db;
        stroke-width: 1.588px;
      }
    </style>
    <clipPath id="clip-path">
      <rect id="Rectangle_244" data-name="Rectangle 244" class="cls-1" width="30" height="30" transform="translate(98 1815)"/>
    </clipPath>
  </defs>
  <g id="Mask_Group_60" data-name="Mask Group 60" class="cls-2" transform="translate(-3286 5166)">
    <g id="control" transform="translate(98.542 1815.928)">
      <g id="Group_407" data-name="Group 407" transform="translate(0 0)">
        <path id="Path_453" data-name="Path 453" class="cls-3" d="M30.8,46.545a1.183,1.183,0,0,1-1.408.7l-1.841-.6a1.075,1.075,0,0,1-.7-1.354l.325-1.083a1.643,1.643,0,0,0-.542-1.679l-.6-.433a1.644,1.644,0,0,0-1.787,0l-.921.65a1.11,1.11,0,0,1-1.516-.271l-1.137-1.57a1.053,1.053,0,0,1,.217-1.516l.921-.7a1.643,1.643,0,0,0,.542-1.679l-.217-.7a1.514,1.514,0,0,0-1.408-1.029H19.588A1.086,1.086,0,0,1,18.505,34.2V32.249a1.086,1.086,0,0,1,1.083-1.083h1.137a1.593,1.593,0,0,0,1.408-1.029l.217-.7a1.643,1.643,0,0,0-.542-1.679l-.921-.7a1.059,1.059,0,0,1-.217-1.516l1.137-1.57a1.119,1.119,0,0,1,1.516-.271l.921.65a1.76,1.76,0,0,0,1.787,0l.6-.433a1.518,1.518,0,0,0,.542-1.679l-.325-1.083a1.1,1.1,0,0,1,.7-1.354l1.841-.6a1.133,1.133,0,0,1,1.408.7l.379,1.083a1.658,1.658,0,0,0,1.408,1.029h.758a1.593,1.593,0,0,0,1.408-1.029L35.13,19.9a1.183,1.183,0,0,1,1.408-.7l1.841.6a1.075,1.075,0,0,1,.7,1.354l-.325,1.083A1.643,1.643,0,0,0,39.3,23.91l.6.433a1.644,1.644,0,0,0,1.787,0l.921-.65a1.11,1.11,0,0,1,1.516.271l1.137,1.57a1.053,1.053,0,0,1-.217,1.516l-.921.7a1.643,1.643,0,0,0-.542,1.679l.217.7A1.514,1.514,0,0,0,45.2,31.166h1.137a1.086,1.086,0,0,1,1.083,1.083V34.2a1.086,1.086,0,0,1-1.083,1.083H45.2a1.593,1.593,0,0,0-1.408,1.029l-.217.7a1.643,1.643,0,0,0,.542,1.679l.921.7a1.059,1.059,0,0,1,.217,1.516l-1.137,1.57a1.119,1.119,0,0,1-1.516.271l-.975-.7a1.76,1.76,0,0,0-1.787,0l-.6.433a1.518,1.518,0,0,0-.542,1.679l.325,1.083a1.1,1.1,0,0,1-.7,1.354l-1.787.65a1.133,1.133,0,0,1-1.408-.7l-.379-1.083a1.658,1.658,0,0,0-1.408-1.029h-.758a1.593,1.593,0,0,0-1.408,1.029Zm2.166-6.336a7.04,7.04,0,1,0-7.04-7.04A7.026,7.026,0,0,0,32.964,40.209Z" transform="translate(-18.505 -19.152)"/>
      </g>
    </g>
  </g>
</svg>
