<svg xmlns="http://www.w3.org/2000/svg" viewBox="-11301.001 6153 70.001 58.611">
  <defs>
    <style>
      .cls-1 {
        fill: #3e97db;
      }
    </style>
  </defs>
  <g id="noun_305239_cc" transform="translate(-11306 6140.678)">
    <path id="Path_479" data-name="Path 479" class="cls-1" d="M81.863,19.353c-.044-.055-1.073-1.353-1.652-1.917-.581-.6-1.888-1.626-1.955-1.678a16.358,16.358,0,0,0-9.876-3.435,17.215,17.215,0,0,0-16.861,15.7l.045,18.105H69.7l.029,0A17.33,17.33,0,0,0,83.883,35.921,15.933,15.933,0,0,0,81.863,19.353ZM82.5,35.3a15.793,15.793,0,0,1-12.854,9.311H53.081L53.04,28.081A15.857,15.857,0,0,1,68.38,13.843a14.841,14.841,0,0,1,8.947,3.119c.355.28,1.37,1.1,1.808,1.551.524.508,1.524,1.77,1.524,1.771A14.446,14.446,0,0,1,82.5,35.3Z" transform="translate(-10.337)"/>
    <path id="Path_480" data-name="Path 480" class="cls-1" d="M43.721,63.55c-1.454-.688-7.587-3.574-9.284-4.373V55.955a5.858,5.858,0,0,0,1.236-2.44c.134-.58.271-1.145.387-1.606a1.6,1.6,0,0,0,1.554-.83.943.943,0,0,0,.1-.18c.027-.054,2.582-5.767,1.343-7.792a1.566,1.566,0,0,0-.916-.7c.025-.152.047-.315.065-.484.52-4.973-.444-8.857-2.866-11.544a11.925,11.925,0,0,0-8.221-3.692,11.927,11.927,0,0,0-8.222,3.692c-2.421,2.687-3.386,6.571-2.866,11.543.017.169.04.331.065.481a1.584,1.584,0,0,0-.915.707c-1.24,2.025,1.316,7.736,1.351,7.811l.093.17a1.594,1.594,0,0,0,1.548.824c.116.463.254,1.027.387,1.607a5.883,5.883,0,0,0,1.236,2.44v3.222c-1.7.8-7.83,3.684-9.284,4.373A9,9,0,0,0,5.049,70.5a23.429,23.429,0,0,0-.009,2.907l.045.712H49.141l.047-.712a22.909,22.909,0,0,0-.01-2.907A9,9,0,0,0,43.721,63.55ZM47.7,72.6H6.528c-.027-1.089.037-1.973.038-1.983a7.561,7.561,0,0,1,4.592-5.694c1.692-.8,9.718-4.576,9.718-4.576l.437-.206,0-4.809-.232-.225a4.277,4.277,0,0,1-1.04-1.934c-.331-1.436-.685-2.77-.685-2.77l-.558-2.1-.872,1.986c-.007-.01-.015-.017-.022-.029l-.009-.02C17.2,48.8,15.919,44.809,16.474,43.9c.022-.036.03-.049.114-.051a1.351,1.351,0,0,1,.233.045l1.318.38-.374-1.319a7.981,7.981,0,0,1-.223-1.195c-.472-4.517.359-8,2.471-10.355a10.552,10.552,0,0,1,7.1-3.2,10.549,10.549,0,0,1,7.1,3.2c2.112,2.353,2.943,5.837,2.471,10.355a8.065,8.065,0,0,1-.222,1.195L36.1,44.269l1.311-.373a1.482,1.482,0,0,1,.229-.046c.088,0,.1.016.118.051.555.907-.727,4.9-1.418,6.341l-.009.018-.023.03-.873-1.986-.557,2.1s-.354,1.334-.684,2.77a4.274,4.274,0,0,1-1.037,1.93l-.238.225v4.812l.437.206s8.025,3.775,9.718,4.577a7.5,7.5,0,0,1,4.59,5.692C47.663,70.63,47.728,71.512,47.7,72.6Z" transform="translate(0 -3.191)"/>
    <circle id="Ellipse_82" data-name="Ellipse 82" class="cls-1" cx="1.219" cy="1.219" r="1.219" transform="translate(56.123 35.516)"/>
    <path id="Path_481" data-name="Path 481" class="cls-1" d="M71.161,23.269A5.063,5.063,0,0,0,67.413,24.6a6.034,6.034,0,0,0-1.294,3.376.3.3,0,0,0,0,.079.747.747,0,0,0-.005.094.98.98,0,0,0,1.957.082c0-.026.011-.125.013-.143a3.9,3.9,0,0,1,.777-2.139,2.717,2.717,0,0,1,2.21-.894,2.684,2.684,0,0,1,1.915.682,2.356,2.356,0,0,1,.727,1.8,3.361,3.361,0,0,1-.289,1.42,4.526,4.526,0,0,1-.965,1.3l-.865.865A6.1,6.1,0,0,0,70.244,33a5.387,5.387,0,0,0-.41,2.168c0,.052,0,.131.012.238,0,.048.008.09.011.129,0,0,0,.01,0,.016a.992.992,0,0,0,1.983.051l0,0v-.014c0-.012,0-.024,0-.035a.933.933,0,0,0,0-.1c0-.119,0-.271,0-.366a3.8,3.8,0,0,1,.282-1.553,5,5,0,0,1,1.148-1.454l.932-.887A5.472,5.472,0,0,0,75.435,29.5a4.66,4.66,0,0,0,.41-1.958,4.014,4.014,0,0,0-1.277-3.1A4.847,4.847,0,0,0,71.161,23.269Z" transform="translate(-13.581 -2.433)"/>
  </g>
</svg>
