<svg xmlns="http://www.w3.org/2000/svg" xmlns:xlink="http://www.w3.org/1999/xlink" viewBox="-11104 5512 30 30">
  <defs>
    <style>
      .cls-1 {
        fill: #fff;
        stroke: #95989a;
      }

      .cls-2 {
        clip-path: url(#clip-path);
      }

      .cls-3 {
        fill: #3e97db;
      }
    </style>
    <clipPath id="clip-path">
      <rect id="Rectangle_234" data-name="Rectangle 234" class="cls-1" width="30" height="30" transform="translate(520 1613)"/>
    </clipPath>
  </defs>
  <g id="Mask_Group_54" data-name="Mask Group 54" class="cls-2" transform="translate(-11624 3899)">
    <g id="noun_1231286_cc" transform="translate(520 1613.174)">
      <path id="Path_432" data-name="Path 432" class="cls-3" d="M13.061,31.5a2.056,2.056,0,1,0-2.056-2.056A2.052,2.052,0,0,0,13.061,31.5Zm0-3.195a1.1,1.1,0,0,1,1.107,1.107,1.121,1.121,0,0,1-1.107,1.107,1.1,1.1,0,0,1-1.107-1.107A1.081,1.081,0,0,1,13.061,28.3Z" transform="translate(-2.117 -4.221)"/>
      <path id="Path_433" data-name="Path 433" class="cls-3" d="M19.406,31.5a2.056,2.056,0,1,0-2.056-2.056A2.052,2.052,0,0,0,19.406,31.5Zm0-3.195a1.1,1.1,0,0,1,1.107,1.107,1.121,1.121,0,0,1-1.107,1.107A1.1,1.1,0,0,1,18.3,29.412,1.081,1.081,0,0,1,19.406,28.3Z" transform="translate(-2.864 -4.221)"/>
      <path id="Path_434" data-name="Path 434" class="cls-3" d="M4.624,29.444A2.056,2.056,0,1,0,6.68,27.388,2.052,2.052,0,0,0,4.624,29.444ZM6.712,28.3a1.1,1.1,0,0,1,1.107,1.107,1.107,1.107,0,0,1-2.214,0A1.081,1.081,0,0,1,6.712,28.3Z" transform="translate(-1.366 -4.22)"/>
      <path id="Path_435" data-name="Path 435" class="cls-3" d="M28.356,12.437h-.063L25,4.783A2.525,2.525,0,1,0,20.48,2.537a2.584,2.584,0,0,0-.032,2.214l-5.6,5H9.472A.486.486,0,0,0,9,10.223V13.07H4.949a.486.486,0,0,0-.474.474v6.389a.486.486,0,0,0,.474.474H6.973v1.518H5.36a4.428,4.428,0,0,0,0,8.857H18.392a4.428,4.428,0,0,0,0-8.857H16.779v-1.55h1.676a.486.486,0,0,0,.474-.474V16.391a.584.584,0,0,0-.158-.38l-3-5.852,5.251-4.65a2.546,2.546,0,0,0,3.321.127l3.037,7.022a2.521,2.521,0,0,0-1.328,3.321,2.452,2.452,0,0,0,1.392,1.36l-4.08,4.333a.459.459,0,0,0,.032.664.471.471,0,0,0,.285.127l5.029.506h.158a1.755,1.755,0,0,0,1.74-1.74V16.2a2.538,2.538,0,0,0-.949-3.448,3.016,3.016,0,0,0-1.3-.316ZM14.976,10.7l2.689,5.219H11.5l-1.55-2.5V10.7Zm6.9,15.657a3.469,3.469,0,0,1-3.479,3.479H5.36a3.479,3.479,0,0,1,0-6.959H18.392a3.51,3.51,0,0,1,3.479,3.479ZM15.83,21.926H7.922v-1.55H15.83Zm2.182-2.5H5.424V14.019h3.8l1.613,2.625a.541.541,0,0,0,.411.221h6.769Zm4.745-14.2a1.582,1.582,0,1,1,1.582-1.582,1.566,1.566,0,0,1-1.582,1.582Zm4.017,9.742a1.582,1.582,0,1,1,1.582,1.582A1.566,1.566,0,0,1,26.774,14.968ZM29.4,21.832a.7.7,0,0,1-.6.19L24.75,21.61,28.609,17.5a2.538,2.538,0,0,0,1.075-.348V21.2A1.067,1.067,0,0,1,29.4,21.832Z" transform="translate(-0.932 -1.132)"/>
    </g>
  </g>
</svg>
