<svg xmlns="http://www.w3.org/2000/svg" xmlns:xlink="http://www.w3.org/1999/xlink" viewBox="-11104 5892 30 30">
  <defs>
    <style>
      .cls-1 {
        fill: #fff;
        stroke: #95989a;
      }

      .cls-2 {
        clip-path: url(#clip-path);
      }

      .cls-3 {
        fill: #3e97db;
      }
    </style>
    <clipPath id="clip-path">
      <rect id="Rectangle_239" data-name="Rectangle 239" class="cls-1" width="30" height="30" transform="translate(510 1995)"/>
    </clipPath>
  </defs>
  <g id="Mask_Group_59" data-name="Mask Group 59" class="cls-2" transform="translate(-11614 3897)">
    <path id="noun_215840_cc" class="cls-3" d="M8,30.647a1.533,1.533,0,0,0,.411-.037,3.307,3.307,0,0,0,1.121-.374,3.387,3.387,0,0,0,.6-.411L21,20.93c.037-.037.075-.037.112-.075a.4.4,0,0,1,.411,0c.037,0,.075.037.149.075.037.037.075.037.112.075.075.037.112.075.187.075a4.559,4.559,0,0,0,.635.262,7.062,7.062,0,0,0,1.532.374,8.134,8.134,0,0,0,1.906.037,11.766,11.766,0,0,0,1.57-.336,6.325,6.325,0,0,0,1.159-.486,7.084,7.084,0,0,0,1.233-.822,8.291,8.291,0,0,0,1.383-1.42c.336-.448.635-.9.934-1.345a12.774,12.774,0,0,0,.785-1.607c.075-.224.187-.448.262-.71v-.037l-.523-.635-4.223,3.476c-.037.037-.075.037-.112.075a.4.4,0,0,1-.3.037.225.225,0,0,1-.149-.037L23.4,16.146a.287.287,0,0,1-.112-.075.991.991,0,0,1-.187-.224.225.225,0,0,1-.037-.149l-.822-4.933v-.149a.339.339,0,0,1,.112-.262c.037-.037.037-.075.112-.112l4.186-3.513-.523-.635c-.075,0-.149.037-.224.037-.262.037-.486.075-.747.112a12.915,12.915,0,0,0-3.065,1.046,9.929,9.929,0,0,0-1.682,1.084,7.948,7.948,0,0,0-1.121,1.121,8.351,8.351,0,0,0-.747,1.121,7.8,7.8,0,0,0-.635,1.532,8.749,8.749,0,0,0-.3,1.981,7.446,7.446,0,0,0,.149,1.57,5.464,5.464,0,0,0,.187.747v.224a.339.339,0,0,1-.112.262c-.037.037-.037.075-.112.112-3.625,2.99-7.288,5.943-10.913,8.932a2.81,2.81,0,0,0-.561.6,3.107,3.107,0,0,0-.635,1.682v.411a1,1,0,0,0,.112.448,1.416,1.416,0,0,0,.224.486,2.573,2.573,0,0,0,.411.486,2.188,2.188,0,0,0,.635.374,2.569,2.569,0,0,0,.9.187Zm0,1.121a1.4,1.4,0,0,1-.411-.037,3.8,3.8,0,0,1-.934-.224,3.877,3.877,0,0,1-.934-.561,5.745,5.745,0,0,1-.635-.71,2.479,2.479,0,0,1-.336-.71,4.346,4.346,0,0,1-.149-.673A4.142,4.142,0,0,1,5.232,26.2a5.824,5.824,0,0,1,.6-.747,2.418,2.418,0,0,1,.336-.3l.037-.037,10.614-8.671c0-.075-.037-.112-.037-.187a5.8,5.8,0,0,1-.149-.785,9.089,9.089,0,0,1-.075-1.757,8.7,8.7,0,0,1,2.5-5.569A10.706,10.706,0,0,1,22.35,5.98a13.485,13.485,0,0,1,3.177-.934c.187-.037.374-.037.561-.075h.3a.424.424,0,0,1,.3.112c.075.037.075.037.112.112L27.881,6.5l.075.149a.632.632,0,0,1-.037.523c-.037.075-.075.075-.112.112L23.4,10.913l.71,4.3,4.074,1.532,4.41-3.625.075-.037.149-.075a.612.612,0,0,1,.448.075c.075.037.075.075.112.112L34.459,14.5l.075.149a.823.823,0,0,1,.037.3,1.619,1.619,0,0,1-.037.187c0,.037-.037.075-.037.112-.075.187-.112.374-.187.561A13.058,13.058,0,0,1,32.7,18.837,9.214,9.214,0,0,1,30.8,20.93l-.9.673a8.325,8.325,0,0,1-2.579,1.121,8.9,8.9,0,0,1-3.438.149,7.017,7.017,0,0,1-1.682-.448,6.231,6.231,0,0,1-.747-.3h-.037c-3.551,2.915-7.064,5.83-10.652,8.708l-.112.112a3.055,3.055,0,0,1-.747.448,4.533,4.533,0,0,1-1.2.411c-.187.037-.336.037-.523.075A.2.2,0,0,0,8,31.768Z" transform="translate(505.429 1991.574)"/>
  </g>
</svg>
