<svg id="Group_625" data-name="Group 625" xmlns="http://www.w3.org/2000/svg" xmlns:xlink="http://www.w3.org/1999/xlink" viewBox="-11699 5696 72 72">
  <defs>
    <style>
      .cls-1 {
        fill: url(#linear-gradient);
      }

      .cls-2 {
        fill: #fcfcfc;
      }

      .cls-3 {
        filter: url(#Subtraction_13);
      }

      .cls-4 {
        filter: url(#Ellipse_65);
      }
    </style>
    <linearGradient id="linear-gradient" x1="1" y1="1" x2="0" y2="1" gradientUnits="objectBoundingBox">
      <stop offset="0" stop-color="#00c2ff"/>
      <stop offset="1" stop-color="#3e97db"/>
    </linearGradient>
    <filter id="Ellipse_65" x="-11699" y="5696" width="72" height="72" filterUnits="userSpaceOnUse">
      <feOffset dy="3" input="SourceAlpha"/>
      <feGaussianBlur stdDeviation="3" result="blur"/>
      <feFlood flood-opacity="0.161"/>
      <feComposite operator="in" in2="blur"/>
      <feComposite in="SourceGraphic"/>
    </filter>
    <filter id="Subtraction_13" x="-11697.001" y="5697.999" width="68.001" height="68" filterUnits="userSpaceOnUse">
      <feOffset dy="3" input="SourceAlpha"/>
      <feGaussianBlur stdDeviation="3" result="blur-2"/>
      <feFlood flood-opacity="0.161"/>
      <feComposite operator="in" in2="blur-2"/>
      <feComposite in="SourceGraphic"/>
    </filter>
  </defs>
  <rect id="Rectangle_328" data-name="Rectangle 328" class="cls-1" width="60" height="60" rx="30" transform="translate(-11693 5699)"/>
  <g id="Group_440" data-name="Group 440" transform="translate(-12173 3857)">
    <g class="cls-4" transform="matrix(1, 0, 0, 1, 12173, -3857)">
      <circle id="Ellipse_65-2" data-name="Ellipse 65" class="cls-2" cx="27" cy="27" r="27" transform="translate(-11690 5702)"/>
    </g>
    <g class="cls-3" transform="matrix(1, 0, 0, 1, 12173, -3857)">
      <path id="Subtraction_13-2" data-name="Subtraction 13" class="cls-2" d="M-4185-3742.6a25.028,25.028,0,0,1-25-25,25.029,25.029,0,0,1,25-25,25.028,25.028,0,0,1,25,25A25.028,25.028,0,0,1-4185-3742.6Zm0-46.226a21.25,21.25,0,0,0-21.226,21.227A21.25,21.25,0,0,0-4185-3746.373a21.25,21.25,0,0,0,21.227-21.227A21.25,21.25,0,0,0-4185-3788.826Z" transform="translate(-7478 9496.6)"/>
    </g>
  </g>
</svg>
