<svg xmlns="http://www.w3.org/2000/svg" viewBox="-10861 6056 50 34">
  <defs>
    <style>
      .cls-1 {
        fill: #1a1a1a;
      }
    </style>
  </defs>
  <g id="Group_435" data-name="Group 435" transform="translate(-10861 6056)">
    <path id="Path_454" data-name="Path 454" class="cls-1" d="M242.173,17.747v-7.1a1.724,1.724,0,1,1,3.445-.129v.129a.416.416,0,0,0,.829,0,2.531,2.531,0,1,0-5.062,0v2.422h-5.7V10.651a1.724,1.724,0,1,1,3.445-.129v.129a.416.416,0,0,0,.829,0,2.531,2.531,0,1,0-5.062,0h0v9.282m.744-3.559h5.7V18l-5.7,1.715Zm5.721-2.508v1.672h-5.7V13.867Zm.106,3.88" transform="translate(-209.974 -8.1)"/>
    <path id="Path_455" data-name="Path 455" class="cls-1" d="M156,36.507H117.7L132.715,18.8H167.7Zm-36.9-.643h36.559l10.846-16.421h-33.5Z" transform="translate(-117.7 -16.506)"/>
    <rect id="Rectangle_245" data-name="Rectangle 245" class="cls-1" width="0.638" height="9.047" transform="translate(14.845 2.615)"/>
    <path id="Path_456" data-name="Path 456" class="cls-1" d="M157.42,51.685H119.5V37.043h38.069v9.368h-.638V37.686H120.138V51.041H157.08L168.2,34.213V20.3h.638V34.406l-.064.064Z" transform="translate(-119.117 -17.685)"/>
    <path id="Path_477" data-name="Path 477" class="cls-1" d="M0,0,20.466-.075l0,.64L0,.64Z" transform="matrix(0.554, -0.833, 0.833, 0.554, 37.866, 33.497)"/>
    <rect id="Rectangle_247" data-name="Rectangle 247" class="cls-1" width="0.638" height="13.999" transform="translate(37.814 19.68)"/>
    <path id="Path_457" data-name="Path 457" class="cls-1" d="M190.28,60.994a2.845,2.845,0,0,1-1.744-.579,3.016,3.016,0,0,1-.936-1.136l.574-.279a2.5,2.5,0,0,0,.723.9,2.257,2.257,0,0,0,1.361.45A2.35,2.35,0,0,0,192.364,59l.574.279A2.936,2.936,0,0,1,190.28,60.994Z" transform="translate(-172.734 -48.088)"/>
    <path id="Path_458" data-name="Path 458" class="cls-1" d="M214.964,52.994a2.5,2.5,0,0,0-.723-.9,2.257,2.257,0,0,0-1.361-.45,2.35,2.35,0,0,0-2.105,1.351l-.574-.279A2.953,2.953,0,0,1,212.88,51a2.845,2.845,0,0,1,1.744.579,3.016,3.016,0,0,1,.936,1.136Z" transform="translate(-190.528 -41.803)"/>
    <path id="Path_459" data-name="Path 459" class="cls-1" d="M235.28,60.994a2.845,2.845,0,0,1-1.744-.579,3.016,3.016,0,0,1-.936-1.136l.574-.279a2.5,2.5,0,0,0,.723.9,2.257,2.257,0,0,0,1.361.45A2.35,2.35,0,0,0,237.364,59l.574.279A2.959,2.959,0,0,1,235.28,60.994Z" transform="translate(-208.164 -48.088)"/>
    <path id="Path_460" data-name="Path 460" class="cls-1" d="M255.574,52.994,255,52.715A2.953,2.953,0,0,1,257.68,51a2.845,2.845,0,0,1,1.744.579,3.016,3.016,0,0,1,.936,1.136l-.574.279a2.5,2.5,0,0,0-.723-.9,2.257,2.257,0,0,0-1.361-.45A2.357,2.357,0,0,0,255.574,52.994Z" transform="translate(-225.8 -41.803)"/>
    <path id="Path_461" data-name="Path 461" class="cls-1" d="M280.18,60.994a2.845,2.845,0,0,1-1.744-.579,3.016,3.016,0,0,1-.936-1.136l.574-.279a2.5,2.5,0,0,0,.723.9,2.257,2.257,0,0,0,1.361.45A2.35,2.35,0,0,0,282.264,59l.574.279A2.936,2.936,0,0,1,280.18,60.994Z" transform="translate(-243.514 -48.088)"/>
    <path id="Path_462" data-name="Path 462" class="cls-1" d="M304.764,52.994a2.5,2.5,0,0,0-.723-.9,2.257,2.257,0,0,0-1.361-.45,2.35,2.35,0,0,0-2.105,1.351L300,52.715A2.953,2.953,0,0,1,302.68,51a2.845,2.845,0,0,1,1.744.579,3.015,3.015,0,0,1,.936,1.136Z" transform="translate(-261.229 -41.803)"/>
    <path id="Path_463" data-name="Path 463" class="cls-1" d="M190.28,75.294a2.845,2.845,0,0,1-1.744-.579,3.016,3.016,0,0,1-.936-1.136l.574-.279a2.5,2.5,0,0,0,.723.9,2.257,2.257,0,0,0,1.361.45,2.35,2.35,0,0,0,2.105-1.351l.574.279A2.9,2.9,0,0,1,190.28,75.294Z" transform="translate(-172.734 -59.323)"/>
    <path id="Path_464" data-name="Path 464" class="cls-1" d="M214.964,67.294a2.5,2.5,0,0,0-.723-.9,2.257,2.257,0,0,0-1.361-.45,2.35,2.35,0,0,0-2.105,1.351l-.574-.279a2.953,2.953,0,0,1,2.68-1.715,2.845,2.845,0,0,1,1.744.579,3.016,3.016,0,0,1,.936,1.136Z" transform="translate(-190.528 -53.038)"/>
    <path id="Path_465" data-name="Path 465" class="cls-1" d="M235.28,75.294a2.845,2.845,0,0,1-1.744-.579,3.016,3.016,0,0,1-.936-1.136l.574-.279a2.5,2.5,0,0,0,.723.9,2.257,2.257,0,0,0,1.361.45,2.35,2.35,0,0,0,2.105-1.351l.574.279A2.923,2.923,0,0,1,235.28,75.294Z" transform="translate(-208.164 -59.323)"/>
    <path id="Path_466" data-name="Path 466" class="cls-1" d="M255.574,67.294,255,67.015a2.953,2.953,0,0,1,2.68-1.715,2.845,2.845,0,0,1,1.744.579,3.016,3.016,0,0,1,.936,1.136l-.574.279a2.5,2.5,0,0,0-.723-.9,2.257,2.257,0,0,0-1.361-.45A2.357,2.357,0,0,0,255.574,67.294Z" transform="translate(-225.8 -53.038)"/>
    <path id="Path_467" data-name="Path 467" class="cls-1" d="M280.18,75.294a2.845,2.845,0,0,1-1.744-.579,3.016,3.016,0,0,1-.936-1.136l.574-.279a2.5,2.5,0,0,0,.723.9,2.257,2.257,0,0,0,1.361.45,2.35,2.35,0,0,0,2.105-1.351l.574.279A2.9,2.9,0,0,1,280.18,75.294Z" transform="translate(-243.514 -59.323)"/>
    <path id="Path_468" data-name="Path 468" class="cls-1" d="M300.574,67.294,300,67.015a2.953,2.953,0,0,1,2.68-1.715h.085a1.863,1.863,0,0,1,1.34.364l-.383.515a1.191,1.191,0,0,0-.957-.257h-.085A2.384,2.384,0,0,0,300.574,67.294Z" transform="translate(-261.229 -53.038)"/>
    <path id="Path_469" data-name="Path 469" class="cls-1" d="M179.884,67.294a2.5,2.5,0,0,0-.723-.9,2.257,2.257,0,0,0-1.361-.45V65.3a2.845,2.845,0,0,1,1.744.579,3.016,3.016,0,0,1,.936,1.136Z" transform="translate(-165.018 -53.038)"/>
    <path id="Path_470" data-name="Path 470" class="cls-1" d="M190.28,90.794a2.845,2.845,0,0,1-1.744-.579,3.016,3.016,0,0,1-.936-1.136l.574-.279a2.5,2.5,0,0,0,.723.9,2.257,2.257,0,0,0,1.361.45,2.35,2.35,0,0,0,2.105-1.351l.574.279A2.936,2.936,0,0,1,190.28,90.794Z" transform="translate(-172.734 -71.5)"/>
    <path id="Path_471" data-name="Path 471" class="cls-1" d="M155.3,90.794v-.643a2.35,2.35,0,0,0,2.105-1.351l.574.279A2.99,2.99,0,0,1,155.3,90.794Z" transform="translate(-147.303 -71.5)"/>
    <path id="Path_472" data-name="Path 472" class="cls-1" d="M214.964,82.794a2.5,2.5,0,0,0-.723-.9,2.257,2.257,0,0,0-1.361-.45,2.35,2.35,0,0,0-2.105,1.351l-.574-.279a2.953,2.953,0,0,1,2.68-1.715,2.845,2.845,0,0,1,1.744.579,3.016,3.016,0,0,1,.936,1.136Z" transform="translate(-190.528 -65.215)"/>
    <path id="Path_473" data-name="Path 473" class="cls-1" d="M235.28,90.794a2.845,2.845,0,0,1-1.744-.579,3.016,3.016,0,0,1-.936-1.136l.574-.279a2.5,2.5,0,0,0,.723.9,2.257,2.257,0,0,0,1.361.45,2.35,2.35,0,0,0,2.105-1.351l.574.279A2.959,2.959,0,0,1,235.28,90.794Z" transform="translate(-208.164 -71.5)"/>
    <path id="Path_474" data-name="Path 474" class="cls-1" d="M255.574,82.794,255,82.515a2.953,2.953,0,0,1,2.68-1.715,2.845,2.845,0,0,1,1.744.579,3.016,3.016,0,0,1,.936,1.136l-.574.279a2.5,2.5,0,0,0-.723-.9,2.257,2.257,0,0,0-1.361-.45A2.321,2.321,0,0,0,255.574,82.794Z" transform="translate(-225.8 -65.215)"/>
    <path id="Path_475" data-name="Path 475" class="cls-1" d="M280.18,90.794a2.845,2.845,0,0,1-1.744-.579,3.016,3.016,0,0,1-.936-1.136l.574-.279a2.5,2.5,0,0,0,.723.9,2.257,2.257,0,0,0,1.361.45A3.228,3.228,0,0,0,282.8,88.8l.574.279A3.738,3.738,0,0,1,280.18,90.794Z" transform="translate(-243.514 -71.5)"/>
    <path id="Path_476" data-name="Path 476" class="cls-1" d="M169.964,82.794a2.5,2.5,0,0,0-.723-.9,2.257,2.257,0,0,0-1.361-.45,2.35,2.35,0,0,0-2.105,1.351l-.574-.279a2.953,2.953,0,0,1,2.68-1.715,2.845,2.845,0,0,1,1.744.579,3.016,3.016,0,0,1,.936,1.136Z" transform="translate(-155.098 -65.215)"/>
  </g>
</svg>
