<svg xmlns="http://www.w3.org/2000/svg" viewBox="-12236.999 10224 30 30">
  <defs>
    <style>
      .cls-1 {
        fill: #949799;
        fill-rule: evenodd;
      }
    </style>
  </defs>
  <g id="instagram" transform="translate(-12837 10126.005)">
    <path id="path3360" class="cls-1" d="M4,3.14V-16.35A5.257,5.257,0,0,1,9.254-21.6H28.747A5.258,5.258,0,0,1,34-16.35V3.14A5.257,5.257,0,0,1,28.747,8.4H9.254A5.256,5.256,0,0,1,4,3.14Zm28.948,0V-16.35a4.446,4.446,0,0,0-4.2-4.2L9.056-20.557c-.085,0-.171,0-.254.009h.452v8.493H8.2V-20.4A4.744,4.744,0,0,0,5.05-16.35v4.3h27.9v.957H5.05V3.14a4.459,4.459,0,0,0,4.2,4.212H28.747A4.458,4.458,0,0,0,32.949,3.14ZM12.173-2.509a6.823,6.823,0,0,1,6.82-6.818,6.824,6.824,0,0,1,6.82,6.818,6.823,6.823,0,0,1-6.82,6.818A6.822,6.822,0,0,1,12.173-2.509ZM25-2.516a6.06,6.06,0,0,0-6.007-6.032A5.95,5.95,0,0,0,13-2.516a5.9,5.9,0,0,0,5.993,5.968A6,6,0,0,0,25-2.516Zm-10.085,0A4.082,4.082,0,0,1,18.993-6.6,4.083,4.083,0,0,1,23.07-2.516a4.082,4.082,0,0,1-4.078,4.081A4.081,4.081,0,0,1,14.915-2.516Zm7.235,0A3.032,3.032,0,0,0,18.993-5.7a3.022,3.022,0,0,0-3.143,3.182A3.1,3.1,0,0,0,18.993.752,3.107,3.107,0,0,0,22.15-2.516ZM10.815-12.055v-8.493h.96v8.493Zm2.724,0v-8.493h.96v8.493Zm10.912-4.086a2.728,2.728,0,0,1,2.715-2.736,2.729,2.729,0,0,1,2.715,2.736,2.728,2.728,0,0,1-2.715,2.736A2.727,2.727,0,0,1,24.452-16.141Zm4.6,0A1.779,1.779,0,0,0,27.166-18,1.765,1.765,0,0,0,25.3-16.141a1.8,1.8,0,0,0,1.866,1.893A1.811,1.811,0,0,0,29.05-16.141Z" transform="translate(596 119.6)"/>
  </g>
</svg>
