<svg xmlns="http://www.w3.org/2000/svg" xmlns:xlink="http://www.w3.org/1999/xlink" viewBox="-3425 6248 50 50">
  <defs>
    <style>
      .cls-1 {
        fill: #fff;
        stroke: #95989a;
      }

      .cls-2 {
        clip-path: url(#clip-path);
      }

      .cls-3 {
        fill: #3e97db;
      }
    </style>
    <clipPath id="clip-path">
      <rect id="Rectangle_294" data-name="Rectangle 294" class="cls-1" width="50" height="50" transform="translate(158 1500)"/>
    </clipPath>
  </defs>
  <g id="Mask_Group_105" data-name="Mask Group 105" class="cls-2" transform="translate(-3583 4748)">
    <g id="calendar" transform="translate(158 1507.82)">
      <g id="Group_474" data-name="Group 474">
        <path id="Path_516" data-name="Path 516" class="cls-3" d="M2.619,40.839H48.038a.861.861,0,0,0,.84-.839V25.082l-1.623,1.679V39.273H3.458V13.587H47.311v3.549l1.623-1.679V12.8a.861.861,0,0,0-.839-.839H39.279V7.32a.861.861,0,0,0-.839-.839h0a.861.861,0,0,0-.839.839v4.645h-9.29V7.32a.861.861,0,0,0-.839-.839h0a.861.861,0,0,0-.839.839v4.645h-9.29V7.32a.861.861,0,0,0-.843-.84h0a.861.861,0,0,0-.839.839v4.645H2.619a.861.861,0,0,0-.839.839V40a.861.861,0,0,0,.839.839Z" transform="translate(-1.78 -6.48)"/>
        <path id="Path_517" data-name="Path 517" class="cls-3" d="M7.666,16.743h0a1.122,1.122,0,0,0,1.119-1.119h0A1.122,1.122,0,0,0,7.666,14.5h0a1.122,1.122,0,0,0-1.119,1.119h0A1.122,1.122,0,0,0,7.666,16.743Z" transform="translate(2.828 -1.13)"/>
        <path id="Path_518" data-name="Path 518" class="cls-3" d="M10.957,16.743h0a1.122,1.122,0,0,0,1.119-1.119h0A1.122,1.122,0,0,0,10.957,14.5h0a1.122,1.122,0,0,0-1.119,1.119h0A1.122,1.122,0,0,0,10.957,16.743Z" transform="translate(5.021 -1.13)"/>
        <path id="Path_519" data-name="Path 519" class="cls-3" d="M14.214,16.743h0a1.122,1.122,0,0,0,1.119-1.119h0A1.122,1.122,0,0,0,14.214,14.5h0A1.122,1.122,0,0,0,13.1,15.619h0A1.2,1.2,0,0,0,14.214,16.743Z" transform="translate(7.192 -1.13)"/>
        <path id="Path_520" data-name="Path 520" class="cls-3" d="M17.5,23.268h0A1.112,1.112,0,0,0,18.623,22.2h0A1.122,1.122,0,0,0,17.5,21.086h0A1.122,1.122,0,0,0,16.385,22.2h0A1.15,1.15,0,0,0,17.5,23.268Z" transform="translate(9.386 3.257)"/>
        <path id="Path_521" data-name="Path 521" class="cls-3" d="M7.666,20.034h0a1.122,1.122,0,0,0,1.119-1.119h0A1.122,1.122,0,0,0,7.666,17.8h0a1.122,1.122,0,0,0-1.119,1.119h0a1.122,1.122,0,0,0,1.119,1.115Z" transform="translate(2.828 1.063)"/>
        <path id="Path_522" data-name="Path 522" class="cls-3" d="M10.957,20.034h0a1.122,1.122,0,0,0,1.119-1.119h0A1.122,1.122,0,0,0,10.957,17.8h0a1.122,1.122,0,0,0-1.119,1.119h0a1.122,1.122,0,0,0,1.119,1.115Z" transform="translate(5.021 1.063)"/>
        <path id="Path_523" data-name="Path 523" class="cls-3" d="M14.214,20.034h0a1.122,1.122,0,0,0,1.119-1.119h0A1.122,1.122,0,0,0,14.214,17.8h0A1.122,1.122,0,0,0,13.1,18.919h0A1.2,1.2,0,0,0,14.214,20.034Z" transform="translate(7.192 1.063)"/>
        <path id="Path_524" data-name="Path 524" class="cls-3" d="M7.666,23.268h0A1.112,1.112,0,0,0,8.786,22.2h0a1.122,1.122,0,0,0-1.119-1.119h0A1.122,1.122,0,0,0,6.547,22.2h0a1.076,1.076,0,0,0,1.119,1.068Z" transform="translate(2.828 3.257)"/>
        <path id="Path_525" data-name="Path 525" class="cls-3" d="M10.957,23.268h0A1.112,1.112,0,0,0,12.076,22.2h0a1.122,1.122,0,0,0-1.119-1.119h0A1.122,1.122,0,0,0,9.838,22.2h0a1.076,1.076,0,0,0,1.119,1.068Z" transform="translate(5.021 3.257)"/>
        <path id="Path_526" data-name="Path 526" class="cls-3" d="M14.214,23.268h0A1.112,1.112,0,0,0,15.333,22.2h0a1.122,1.122,0,0,0-1.119-1.119h0A1.122,1.122,0,0,0,13.1,22.2h0a1.15,1.15,0,0,0,1.119,1.068Z" transform="translate(7.192 3.257)"/>
      </g>
      <g id="Group_475" data-name="Group 475" transform="translate(29.183 10.608)">
        <path id="Path_527" data-name="Path 527" class="cls-3" d="M19.541,19.384,25.7,25.54a.811.811,0,0,0,1.175,0l12.98-12.983a.811.811,0,0,0,0-1.175h0a.811.811,0,0,0-1.175,0L26.312,23.805l-5.6-5.6a.811.811,0,0,0-1.175,0h0a.811.811,0,0,0,0,1.179Z" transform="translate(-19.289 -11.13)"/>
      </g>
    </g>
  </g>
</svg>
