<svg xmlns="http://www.w3.org/2000/svg" xmlns:xlink="http://www.w3.org/1999/xlink" viewBox="-3225 6248 50 50">
  <defs>
    <style>
      .cls-1 {
        fill: #fff;
        stroke: #95989a;
      }

      .cls-2 {
        clip-path: url(#clip-path);
      }

      .cls-3 {
        fill: none;
        stroke: #2aa5e7;
        stroke-width: 1.805px;
      }
    </style>
    <clipPath id="clip-path">
      <rect id="Rectangle_294" data-name="Rectangle 294" class="cls-1" width="50" height="50" transform="translate(158 1500)"/>
    </clipPath>
  </defs>
  <g id="Mask_Group_104" data-name="Mask Group 104" class="cls-2" transform="translate(-3383 4748)">
    <g id="control" transform="translate(137.874 1479.783)">
      <g id="Group_512" data-name="Group 512">
        <path id="Path_613" data-name="Path 613" class="cls-3" d="M41.516,67.419a1.972,1.972,0,0,1-2.347,1.173L36.1,67.6a1.791,1.791,0,0,1-1.173-2.256l.542-1.805a2.738,2.738,0,0,0-.9-2.8l-.993-.722a2.74,2.74,0,0,0-2.978,0L29.061,61.1a1.85,1.85,0,0,1-2.527-.451l-1.9-2.617A1.755,1.755,0,0,1,25,55.505l1.534-1.173a2.738,2.738,0,0,0,.9-2.8l-.361-1.173a2.524,2.524,0,0,0-2.347-1.715h-1.9a1.81,1.81,0,0,1-1.805-1.805V43.592a1.81,1.81,0,0,1,1.805-1.805h1.9a2.655,2.655,0,0,0,2.347-1.715l.361-1.173a2.738,2.738,0,0,0-.9-2.8L25,34.928a1.766,1.766,0,0,1-.361-2.527l1.9-2.617a1.865,1.865,0,0,1,2.527-.451L30.6,30.415a2.933,2.933,0,0,0,2.978,0l.993-.722a2.53,2.53,0,0,0,.9-2.8l-.542-1.805A1.826,1.826,0,0,1,36.1,22.834l3.069-.993a1.889,1.889,0,0,1,2.347,1.173l.632,1.805a2.763,2.763,0,0,0,2.347,1.715h1.264A2.655,2.655,0,0,0,48.1,24.819l.632-1.805a1.972,1.972,0,0,1,2.347-1.173l3.069.993a1.791,1.791,0,0,1,1.173,2.256L54.783,26.9a2.738,2.738,0,0,0,.9,2.8l.993.722a2.74,2.74,0,0,0,2.978,0l1.534-1.083a1.85,1.85,0,0,1,2.527.451l1.9,2.617a1.755,1.755,0,0,1-.361,2.527L63.718,36.1a2.738,2.738,0,0,0-.9,2.8l.361,1.173a2.524,2.524,0,0,0,2.347,1.715h1.9a1.81,1.81,0,0,1,1.805,1.805v3.249a1.81,1.81,0,0,1-1.805,1.805h-1.9a2.655,2.655,0,0,0-2.347,1.715l-.361,1.173a2.738,2.738,0,0,0,.9,2.8l1.534,1.173a1.766,1.766,0,0,1,.361,2.527l-1.9,2.617a1.865,1.865,0,0,1-2.527.451l-1.625-1.173a2.933,2.933,0,0,0-2.978,0l-.993.722a2.53,2.53,0,0,0-.9,2.8l.542,1.805a1.826,1.826,0,0,1-1.173,2.256l-2.978,1.083a1.889,1.889,0,0,1-2.347-1.173L48.1,65.614A2.763,2.763,0,0,0,45.758,63.9H44.495a2.655,2.655,0,0,0-2.347,1.715Zm3.61-10.56A11.733,11.733,0,1,0,33.394,45.126,11.709,11.709,0,0,0,45.126,56.859Z"/>
      </g>
    </g>
  </g>
</svg>
