<svg xmlns="http://www.w3.org/2000/svg" xmlns:xlink="http://www.w3.org/1999/xlink" viewBox="-3025 6248 50 50">
  <defs>
    <style>
      .cls-1 {
        fill: #fff;
        stroke: #95989a;
      }

      .cls-2 {
        clip-path: url(#clip-path);
      }

      .cls-3 {
        fill: none;
        stroke: #1faded;
        stroke-linecap: round;
        stroke-linejoin: round;
        stroke-width: 1.923px;
        fill-rule: evenodd;
      }
    </style>
    <clipPath id="clip-path">
      <rect id="Rectangle_294" data-name="Rectangle 294" class="cls-1" width="50" height="50" transform="translate(158 1500)"/>
    </clipPath>
  </defs>
  <g id="Mask_Group_103" data-name="Mask Group 103" class="cls-2" transform="translate(-3183 4748)">
    <g id="finger" transform="translate(-14.442 -1032.595)">
      <path id="Path_604" data-name="Path 604" class="cls-3" d="M21.634,35.7h0a3.125,3.125,0,0,1-1.933-3.96l3.184-9.26A3.116,3.116,0,0,1,28.78,24.5l-3.185,9.26a3.125,3.125,0,0,1-3.96,1.933Z" transform="translate(181.309 2532.049)"/>
      <path id="Path_605" data-name="Path 605" class="cls-3" d="M7.568,37.595h0C9.835,36.62,15.766,29.9,17,26.813c.871-2.3-.962-5.41-5.031-2.683-1.422.956-5.007,3.659-8.12,6.063" transform="translate(182.471 2531.85)"/>
      <path id="Path_606" data-name="Path 606" class="cls-3" d="M21.218,16.561l-.15-.052a3.046,3.046,0,0,0-3.859,1.885l-1.221,3.551a3.766,3.766,0,0,1,1.779,4.374,23.642,23.642,0,0,1-3.536,5.254,3,3,0,0,0,1.334.933l.149.052a3.047,3.047,0,0,0,3.863-1.885L23.1,20.419a3.045,3.045,0,0,0-1.884-3.859Z" transform="translate(181.702 2532.348)"/>
      <path id="Path_607" data-name="Path 607" class="cls-3" d="M16.143,16.025v-.449a3.158,3.158,0,0,0-3.162-3.112,3.11,3.11,0,0,0-3.114,3.112V3.112a3.114,3.114,0,0,0-6.229,0l0,25.377,1.2-.99-1.2.99C1.226,30.173.962,31.762.962,34.721H.956c0,4.191,3.563,7.122,3.563,7.122h0v3.571a2.66,2.66,0,0,0,2.66,2.661h16.1a2.623,2.623,0,0,0,2.609-2.661l.01-3.571h-.01c2.576-3.428,2.672-4.314,2.672-10.69a37.64,37.64,0,0,0-1.172-8.105l.019-.056a3.116,3.116,0,0,0-5.894-2.027l.6-1.754a3.047,3.047,0,0,0-1.885-3.86l-.149-.051a3.046,3.046,0,0,0-3.86,1.884l-.329.956.246-2.115Z" transform="translate(182.685 2533.559)"/>
    </g>
  </g>
</svg>
