<svg xmlns="http://www.w3.org/2000/svg" xmlns:xlink="http://www.w3.org/1999/xlink" viewBox="-2625 6248 50 50">
  <defs>
    <style>
      .cls-1 {
        fill: #fff;
        stroke: #95989a;
      }

      .cls-2 {
        clip-path: url(#clip-path);
      }

      .cls-3 {
        fill: #00c2ff;
      }
    </style>
    <clipPath id="clip-path">
      <rect id="Rectangle_294" data-name="Rectangle 294" class="cls-1" width="50" height="50" transform="translate(158 1500)"/>
    </clipPath>
  </defs>
  <g id="Mask_Group_102" data-name="Mask Group 102" class="cls-2" transform="translate(-2783 4748)">
    <g id="cean_water" data-name="cean water" transform="translate(155.07 1495.399)">
      <path id="Path_601" data-name="Path 601" class="cls-3" d="M35.237,21.8a15.652,15.652,0,0,0-7.785,1.86,13.562,13.562,0,0,1-6.838,1.649,13.54,13.54,0,0,1-6.831-1.649A15.626,15.626,0,0,0,6,21.8v2.193a13.555,13.555,0,0,1,6.833,1.645A15.587,15.587,0,0,0,20.614,27.5,15.609,15.609,0,0,0,28.4,25.639a13.567,13.567,0,0,1,6.838-1.645,13.567,13.567,0,0,1,6.838,1.645A15.606,15.606,0,0,0,49.862,27.5V25.31a13.568,13.568,0,0,1-6.838-1.649A15.645,15.645,0,0,0,35.237,21.8Z" transform="translate(0 20.519)"/>
      <path id="Path_602" data-name="Path 602" class="cls-3" d="M35.237,24.8a15.652,15.652,0,0,0-7.785,1.86,13.562,13.562,0,0,1-6.838,1.649,13.54,13.54,0,0,1-6.831-1.649A15.626,15.626,0,0,0,6,24.8v2.193a13.555,13.555,0,0,1,6.833,1.645A15.587,15.587,0,0,0,20.614,30.5,15.609,15.609,0,0,0,28.4,28.639a13.567,13.567,0,0,1,6.838-1.645,13.567,13.567,0,0,1,6.838,1.645A15.606,15.606,0,0,0,49.862,30.5V28.31a13.568,13.568,0,0,1-6.838-1.649A15.645,15.645,0,0,0,35.237,24.8Z" transform="translate(0 24.098)"/>
      <path id="Path_603" data-name="Path 603" class="cls-3" d="M22.658,34.2h2.193V27.625c0-2.539,1.189-6.93,2.226-8.314a14.117,14.117,0,0,0,7.5-3.529C38.307,12.057,38.013,5.906,38,5.645l-.057-.976-.976-.055s-.173-.013-.476-.013c-1.463,0-6.482.248-9.664,3.43-2.524,2.522-3.2,6.318-3.377,8.6a12.168,12.168,0,0,0-2.765-4.579c-3.182-3.182-8.2-3.43-9.667-3.43-.3,0-.471.013-.471.013l-.98.053-.053.976C9.5,9.921,9.2,16.072,12.932,19.8c3.182,3.186,8.474,3.434,10.018,3.434h.32a21.232,21.232,0,0,0-.612,4.4ZM14.48,18.248c-2.217-2.215-2.68-5.693-2.768-7.419,1.728.086,5.2.544,7.419,2.768s2.875,5.662,3.072,7.423C20.371,20.934,16.7,20.472,14.48,18.248Zm13.9-8.669C30.6,7.355,34.07,6.9,35.8,6.812c-.09,1.726-.553,5.2-2.77,7.419s-5.658,2.875-7.421,3.075C25.7,15.465,26.16,11.794,28.375,9.579ZM24.217,19.586h.219c-.053.125-.1.243-.158.368C24.259,19.833,24.239,19.708,24.217,19.586Z" transform="translate(4.175)"/>
    </g>
  </g>
</svg>
