<svg xmlns="http://www.w3.org/2000/svg" xmlns:xlink="http://www.w3.org/1999/xlink" viewBox="-11125 5494 72 72">
  <defs>
    <style>
      .cls-1 {
        fill: #fff;
        stroke: #95989a;
      }

      .cls-2 {
        fill: #fcfcfc;
      }

      .cls-3 {
        clip-path: url(#clip-path);
      }

      .cls-4 {
        fill: #3e97db;
      }

      .cls-5 {
        filter: url(#Subtraction_11);
      }

      .cls-6 {
        filter: url(#Ellipse_59);
      }
    </style>
    <filter id="Ellipse_59" x="-11125" y="5494" width="72" height="72" filterUnits="userSpaceOnUse">
      <feOffset dy="3" input="SourceAlpha"/>
      <feGaussianBlur stdDeviation="3" result="blur"/>
      <feFlood flood-opacity="0.161"/>
      <feComposite operator="in" in2="blur"/>
      <feComposite in="SourceGraphic"/>
    </filter>
    <filter id="Subtraction_11" x="-11123.001" y="5495.999" width="68.001" height="68" filterUnits="userSpaceOnUse">
      <feOffset dy="3" input="SourceAlpha"/>
      <feGaussianBlur stdDeviation="3" result="blur-2"/>
      <feFlood flood-opacity="0.161"/>
      <feComposite operator="in" in2="blur-2"/>
      <feComposite in="SourceGraphic"/>
    </filter>
    <clipPath id="clip-path">
      <rect id="Rectangle_234" data-name="Rectangle 234" class="cls-1" width="30" height="30" transform="translate(520 1613)"/>
    </clipPath>
  </defs>
  <g id="Group_446" data-name="Group 446" transform="translate(-11599 3807)">
    <g class="cls-6" transform="matrix(1, 0, 0, 1, 11599, -3807)">
      <circle id="Ellipse_59-2" data-name="Ellipse 59" class="cls-2" cx="27" cy="27" r="27" transform="translate(-11116 5500)"/>
    </g>
    <g class="cls-5" transform="matrix(1, 0, 0, 1, 11599, -3807)">
      <path id="Subtraction_11-2" data-name="Subtraction 11" class="cls-2" d="M-4185-3742.6a25.028,25.028,0,0,1-25-25,25.029,25.029,0,0,1,25-25,25.028,25.028,0,0,1,25,25A25.028,25.028,0,0,1-4185-3742.6Zm0-46.226a21.25,21.25,0,0,0-21.226,21.227A21.25,21.25,0,0,0-4185-3746.373a21.25,21.25,0,0,0,21.227-21.227A21.25,21.25,0,0,0-4185-3788.826Z" transform="translate(-6904 9294.6)"/>
    </g>
    <g id="Mask_Group_54" data-name="Mask Group 54" class="cls-3" transform="translate(-25 92)">
      <g id="noun_1231286_cc" transform="translate(520 1613.174)">
        <path id="Path_432" data-name="Path 432" class="cls-4" d="M13.061,31.5a2.056,2.056,0,1,0-2.056-2.056A2.052,2.052,0,0,0,13.061,31.5Zm0-3.195a1.1,1.1,0,0,1,1.107,1.107,1.121,1.121,0,0,1-1.107,1.107,1.1,1.1,0,0,1-1.107-1.107A1.081,1.081,0,0,1,13.061,28.3Z" transform="translate(-2.117 -4.221)"/>
        <path id="Path_433" data-name="Path 433" class="cls-4" d="M19.406,31.5a2.056,2.056,0,1,0-2.056-2.056A2.052,2.052,0,0,0,19.406,31.5Zm0-3.195a1.1,1.1,0,0,1,1.107,1.107,1.121,1.121,0,0,1-1.107,1.107A1.1,1.1,0,0,1,18.3,29.412,1.081,1.081,0,0,1,19.406,28.3Z" transform="translate(-2.864 -4.221)"/>
        <path id="Path_434" data-name="Path 434" class="cls-4" d="M4.624,29.444A2.056,2.056,0,1,0,6.68,27.388,2.052,2.052,0,0,0,4.624,29.444ZM6.712,28.3a1.1,1.1,0,0,1,1.107,1.107,1.107,1.107,0,0,1-2.214,0A1.081,1.081,0,0,1,6.712,28.3Z" transform="translate(-1.366 -4.22)"/>
        <path id="Path_435" data-name="Path 435" class="cls-4" d="M28.356,12.437h-.063L25,4.783A2.525,2.525,0,1,0,20.48,2.537a2.584,2.584,0,0,0-.032,2.214l-5.6,5H9.472A.486.486,0,0,0,9,10.223V13.07H4.949a.486.486,0,0,0-.474.474v6.389a.486.486,0,0,0,.474.474H6.973v1.518H5.36a4.428,4.428,0,0,0,0,8.857H18.392a4.428,4.428,0,0,0,0-8.857H16.779v-1.55h1.676a.486.486,0,0,0,.474-.474V16.391a.584.584,0,0,0-.158-.38l-3-5.852,5.251-4.65a2.546,2.546,0,0,0,3.321.127l3.037,7.022a2.521,2.521,0,0,0-1.328,3.321,2.452,2.452,0,0,0,1.392,1.36l-4.08,4.333a.459.459,0,0,0,.032.664.471.471,0,0,0,.285.127l5.029.506h.158a1.755,1.755,0,0,0,1.74-1.74V16.2a2.538,2.538,0,0,0-.949-3.448,3.016,3.016,0,0,0-1.3-.316ZM14.976,10.7l2.689,5.219H11.5l-1.55-2.5V10.7Zm6.9,15.657a3.469,3.469,0,0,1-3.479,3.479H5.36a3.479,3.479,0,0,1,0-6.959H18.392a3.51,3.51,0,0,1,3.479,3.479ZM15.83,21.926H7.922v-1.55H15.83Zm2.182-2.5H5.424V14.019h3.8l1.613,2.625a.541.541,0,0,0,.411.221h6.769Zm4.745-14.2a1.582,1.582,0,1,1,1.582-1.582,1.566,1.566,0,0,1-1.582,1.582Zm4.017,9.742a1.582,1.582,0,1,1,1.582,1.582A1.566,1.566,0,0,1,26.774,14.968ZM29.4,21.832a.7.7,0,0,1-.6.19L24.75,21.61,28.609,17.5a2.538,2.538,0,0,0,1.075-.348V21.2A1.067,1.067,0,0,1,29.4,21.832Z" transform="translate(-0.932 -1.132)"/>
      </g>
    </g>
  </g>
</svg>
