<svg xmlns="http://www.w3.org/2000/svg" xmlns:xlink="http://www.w3.org/1999/xlink" viewBox="-11125 5646 72 72">
  <defs>
    <style>
      .cls-1 {
        fill: #fff;
        stroke: #95989a;
      }

      .cls-2 {
        fill: #fcfcfc;
      }

      .cls-3 {
        clip-path: url(#clip-path);
      }

      .cls-4 {
        fill: #3e97db;
      }

      .cls-5 {
        filter: url(#Subtraction_13);
      }

      .cls-6 {
        filter: url(#Ellipse_65);
      }
    </style>
    <filter id="Ellipse_65" x="-11125" y="5646" width="72" height="72" filterUnits="userSpaceOnUse">
      <feOffset dy="3" input="SourceAlpha"/>
      <feGaussianBlur stdDeviation="3" result="blur"/>
      <feFlood flood-opacity="0.161"/>
      <feComposite operator="in" in2="blur"/>
      <feComposite in="SourceGraphic"/>
    </filter>
    <clipPath id="clip-path">
      <rect id="Rectangle_236" data-name="Rectangle 236" class="cls-1" width="30" height="30" transform="translate(510 1767)"/>
    </clipPath>
    <filter id="Subtraction_13" x="-11123.001" y="5647.999" width="68.001" height="68" filterUnits="userSpaceOnUse">
      <feOffset dy="3" input="SourceAlpha"/>
      <feGaussianBlur stdDeviation="3" result="blur-2"/>
      <feFlood flood-opacity="0.161"/>
      <feComposite operator="in" in2="blur-2"/>
      <feComposite in="SourceGraphic"/>
    </filter>
  </defs>
  <g id="Group_440" data-name="Group 440" transform="translate(-11599 3807)">
    <g class="cls-6" transform="matrix(1, 0, 0, 1, 11599, -3807)">
      <circle id="Ellipse_65-2" data-name="Ellipse 65" class="cls-2" cx="27" cy="27" r="27" transform="translate(-11116 5652)"/>
    </g>
    <g id="Mask_Group_56" data-name="Mask Group 56" class="cls-3" transform="translate(-15 90)">
      <g id="noun_1231272_cc" transform="translate(509.31 1766.318)">
        <path id="Path_437" data-name="Path 437" class="cls-4" d="M11.548,27.96a2.291,2.291,0,1,0-2.291-2.291h0A2.3,2.3,0,0,0,11.548,27.96Zm0-3.672A1.349,1.349,0,1,1,10.2,25.638h0A1.359,1.359,0,0,1,11.548,24.289Z"/>
        <path id="Path_438" data-name="Path 438" class="cls-4" d="M18.044,27.96a2.291,2.291,0,1,0-2.291-2.291h0A2.283,2.283,0,0,0,18.044,27.96Zm0-3.672a1.349,1.349,0,1,1-1.349,1.349h0A1.359,1.359,0,0,1,18.044,24.289Z"/>
        <path id="Path_439" data-name="Path 439" class="cls-4" d="M2.762,25.638a2.291,2.291,0,1,0,2.291-2.291h0A2.3,2.3,0,0,0,2.762,25.638Zm3.64,0a1.349,1.349,0,1,1-1.349-1.349h0A1.359,1.359,0,0,1,6.4,25.638Z"/>
        <path id="Path_440" data-name="Path 440" class="cls-4" d="M27.9,15.094V3.985l.031-.031a.439.439,0,0,0-.063-.6l-2.2-2.2a.455.455,0,0,0-.659,0L14.435,11.548H4.362a.483.483,0,0,0-.471.471v6.935a.483.483,0,0,0,.471.471H6.37v1.506H5.4a4.707,4.707,0,0,0,0,9.414H17.7a4.707,4.707,0,0,0,0-9.414h-.973V19.425h2.008a.483.483,0,0,0,.471-.471V16L26.987,5.272V15.533a.483.483,0,0,0,.471.471,2.291,2.291,0,1,1-2.1,3.169.467.467,0,1,0-.879.314v.031a3.235,3.235,0,1,0,5.962-2.51A3.346,3.346,0,0,0,27.9,15.094ZM24.257,7l-4.174.345,3.64-3.577ZM20.335,12.8l-.628-4.487,4.142-.345Zm-2.071,2.824H14.247L12.552,12.49h5.711Zm3.2,10.042A3.777,3.777,0,0,1,17.7,29.435H5.4a3.766,3.766,0,0,1,0-7.531H17.7a3.757,3.757,0,0,1,3.766,3.766Zm-5.68-4.707H7.312V19.456h8.473ZM4.833,18.483V12.49h6.621l2.1,3.828a.49.49,0,0,0,.408.251h4.268v1.946Zm13.9-6.935H15.816L18.828,8.6l.753,5.3-.345.5V12.019A.51.51,0,0,0,18.734,11.548Zm6.37-5.3L24.571,2.95l.816-.785,1.569,1.569Z"/>
      </g>
    </g>
    <g class="cls-5" transform="matrix(1, 0, 0, 1, 11599, -3807)">
      <path id="Subtraction_13-2" data-name="Subtraction 13" class="cls-2" d="M-4185-3742.6a25.028,25.028,0,0,1-25-25,25.029,25.029,0,0,1,25-25,25.028,25.028,0,0,1,25,25A25.028,25.028,0,0,1-4185-3742.6Zm0-46.226a21.25,21.25,0,0,0-21.226,21.227A21.25,21.25,0,0,0-4185-3746.373a21.25,21.25,0,0,0,21.227-21.227A21.25,21.25,0,0,0-4185-3788.826Z" transform="translate(-6904 9446.6)"/>
    </g>
  </g>
</svg>
