<svg xmlns="http://www.w3.org/2000/svg" viewBox="-10631 6056 48 34">
  <defs>
    <style>
      .cls-1 {
        fill: #1a1a1a;
      }
    </style>
  </defs>
  <g id="noun_999190_cc" transform="translate(-10636.6 6039.5)">
    <path id="Path_479" data-name="Path 479" class="cls-1" d="M53.093,30.838a.528.528,0,0,0,0-1.054H35.129v-.211a.486.486,0,0,0-.2-.422l-2.942-2.372a.7.7,0,0,0-.3-.105h-.2V24.354h9.79a2.485,2.485,0,0,0,2.435-2.53,2.518,2.518,0,0,0-2.435-2.53H31.426v-.738A2.021,2.021,0,0,0,29.448,16.5a1.988,1.988,0,0,0-1.978,2.056v.738H17.578a2.485,2.485,0,0,0-2.435,2.53,2.518,2.518,0,0,0,2.435,2.53h9.993v2.319h-.152a.618.618,0,0,0-.406.211L24.223,29.1a.656.656,0,0,0-.2.474v.211H6.107a.528.528,0,0,0,0,1.054H24.02v15.5H6.107a.528.528,0,0,0,0,1.054H24.02V47.6a.486.486,0,0,0,.2.422l2.942,2.372a.7.7,0,0,0,.3.105h4.159a.7.7,0,0,0,.3-.105l2.942-2.372a.66.66,0,0,0,.2-.422V47.39H53.042a.528.528,0,0,0,0-1.054H35.129v-15.5ZM27.926,27.781h3.145V49.446H27.926Zm.609-9.225a.983.983,0,0,1,.964-1,.951.951,0,0,1,.964,1v.738H28.586v-.738ZM16.158,21.824a1.481,1.481,0,0,1,1.42-1.476H41.216a1.477,1.477,0,0,1,0,2.952H17.578A1.446,1.446,0,0,1,16.158,21.824Zm12.428,2.53h1.826v2.319H28.586Zm-3.551,5.482,1.877-1.476V48.866l-1.877-1.529Zm9.08,17.5-1.978,1.581V28.255l1.978,1.581Z" transform="translate(0 0)"/>
    <ellipse id="Ellipse_82" data-name="Ellipse 82" cx="0.558" cy="0.58" rx="0.558" ry="0.58" transform="translate(28.991 31.207)"/>
    <ellipse id="Ellipse_83" data-name="Ellipse 83" cx="0.558" cy="0.58" rx="0.558" ry="0.58" transform="translate(28.991 34.739)"/>
    <ellipse id="Ellipse_84" data-name="Ellipse 84" cx="0.558" cy="0.58" rx="0.558" ry="0.58" transform="translate(28.991 38.218)"/>
    <ellipse id="Ellipse_85" data-name="Ellipse 85" cx="0.558" cy="0.58" rx="0.558" ry="0.58" transform="translate(28.991 41.697)"/>
    <ellipse id="Ellipse_86" data-name="Ellipse 86" cx="0.558" cy="0.58" rx="0.558" ry="0.58" transform="translate(28.991 45.176)"/>
  </g>
</svg>
