<svg xmlns="http://www.w3.org/2000/svg" xmlns:xlink="http://www.w3.org/1999/xlink" viewBox="-13004 7566 124 190">
  <defs>
    <style>
      .cls-1 {
        fill: #eaeff2;
      }

      .cls-2 {
        clip-path: url(#clip-path);
      }

      .cls-3, .cls-5 {
        fill: #3e97db;
      }

      .cls-4, .cls-9 {
        fill: none;
      }

      .cls-4 {
        stroke: #3e97db;
      }

      .cls-5 {
        font-size: 18px;
        font-family: SegoeUI, Segoe UI;
      }

      .cls-6 {
        fill: url(#linear-gradient);
      }

      .cls-7 {
        fill: #fcfcfc;
      }

      .cls-8 {
        stroke: none;
      }

      .cls-10 {
        filter: url(#Subtraction_3);
      }
    </style>
    <clipPath id="clip-path">
      <rect id="Rectangle_174" data-name="Rectangle 174" class="cls-1" width="54" height="54" transform="translate(98 2960)"/>
    </clipPath>
    <linearGradient id="linear-gradient" x2="0" y2="1" gradientUnits="objectBoundingBox">
      <stop offset="0" stop-color="#00c2ff"/>
      <stop offset="1" stop-color="#3e97db"/>
    </linearGradient>
    <filter id="Subtraction_3" x="-13004" y="7567" width="124" height="124" filterUnits="userSpaceOnUse">
      <feOffset dy="3" input="SourceAlpha"/>
      <feGaussianBlur stdDeviation="3" result="blur"/>
      <feFlood flood-opacity="0.161"/>
      <feComposite operator="in" in2="blur"/>
      <feComposite in="SourceGraphic"/>
    </filter>
  </defs>
  <g id="Group_573" data-name="Group 573" transform="translate(-13475 4568)">
    <g id="Mask_Group_31" data-name="Mask Group 31" class="cls-2" transform="translate(408 69)">
      <g id="_4" data-name="4" transform="translate(97.129 2959.129)">
        <path id="Path_244" data-name="Path 244" class="cls-3" d="M17.071,13.761l-1.045-1.394L11.41,16.2,10.19,15.068,8.971,16.287l2.265,2.352Z"/>
        <rect id="Rectangle_165" data-name="Rectangle 165" class="cls-3" width="13.065" height="1.742" transform="translate(20.032 13.065)"/>
        <rect id="Rectangle_166" data-name="Rectangle 166" class="cls-3" width="14.806" height="1.742" transform="translate(20.032 16.548)"/>
        <path id="Path_245" data-name="Path 245" class="cls-3" d="M17.071,22.471l-1.045-1.394L11.41,24.91,10.19,23.777,8.971,25l2.265,2.352Z"/>
        <rect id="Rectangle_167" data-name="Rectangle 167" class="cls-3" width="18.29" height="1.742" transform="translate(20.032 21.774)"/>
        <rect id="Rectangle_168" data-name="Rectangle 168" class="cls-3" width="3.484" height="1.742" transform="translate(20.032 25.258)"/>
        <rect id="Rectangle_169" data-name="Rectangle 169" class="cls-3" width="13.065" height="1.742" transform="translate(25.258 25.258)"/>
        <path id="Path_246" data-name="Path 246" class="cls-3" d="M17.071,31.181l-1.045-1.394L11.41,33.619,10.19,32.487,8.971,33.706l2.265,2.352Z"/>
        <rect id="Rectangle_170" data-name="Rectangle 170" class="cls-3" width="18.29" height="1.742" transform="translate(20.032 30.484)"/>
        <rect id="Rectangle_171" data-name="Rectangle 171" class="cls-3" width="13.065" height="1.742" transform="translate(20.032 33.968)"/>
        <rect id="Rectangle_172" data-name="Rectangle 172" class="cls-3" width="3.484" height="1.742" transform="translate(34.839 33.968)"/>
        <rect id="Rectangle_173" data-name="Rectangle 173" class="cls-3" width="3.484" height="1.742" transform="translate(34.839 13.065)"/>
        <path id="Path_247" data-name="Path 247" class="cls-3" d="M52.258,40.935H45.29V5.226A4.313,4.313,0,0,0,40.935.871H5.226A4.313,4.313,0,0,0,.871,5.226,4.313,4.313,0,0,0,5.226,9.581v45.29H41.806V49.645H45.29V46.161h6.968a2.613,2.613,0,1,0,0-5.226Zm-8.71-35.71v35.71H41.806V7.839h-.871a2.566,2.566,0,0,1-2.613-2.613,2.613,2.613,0,1,1,5.226,0Zm-40.935,0A2.566,2.566,0,0,1,5.226,2.613H37.452a4.478,4.478,0,0,0-.871,2.613,4.478,4.478,0,0,0,.871,2.613H5.226A2.566,2.566,0,0,1,2.613,5.226Zm4.355,47.9V9.581h33.1V40.935H15.5L7.665,43.548,15.5,46.161H40.065v6.968Zm6.271-9.581,1.568-.523v1.045ZM43.548,47.9H41.806V46.161h1.742Zm1.742-3.484H16.548V42.677H45.29Zm3.484,0H47.032V42.677h1.742Zm3.484,0H50.516V42.677h1.742a.871.871,0,0,1,0,1.742Z"/>
      </g>
    </g>
    <g id="Symbol_27_1" data-name="Symbol 27 – 1">
      <g id="Ellipse_20" data-name="Ellipse 20" class="cls-4" transform="translate(522 3146)">
        <circle class="cls-8" cx="11.5" cy="11.5" r="11.5"/>
        <circle class="cls-9" cx="11.5" cy="11.5" r="11"/>
      </g>
      <text id="_2" data-name="2" class="cls-5" transform="translate(529 3164)"><tspan x="0" y="0">2</tspan></text>
      <path id="Union_2" data-name="Union 2" class="cls-6" d="M-4163.628-3675.443A60.1,60.1,0,0,1-4213-3734.5a60.067,60.067,0,0,1,60-60,60.067,60.067,0,0,1,60,60,60.1,60.1,0,0,1-49.37,59.057l-5.9,8.853-4.727,7.09ZM-4208-3734.5a55.064,55.064,0,0,0,55,55,55.063,55.063,0,0,0,55-55,55.062,55.062,0,0,0-55-55A55.063,55.063,0,0,0-4208-3734.5Z" transform="translate(4686.001 6792.5)"/>
      <g class="cls-10" transform="matrix(1, 0, 0, 1, 13475, -4568)">
        <path id="Subtraction_3-2" data-name="Subtraction 3" class="cls-7" d="M-4157-3686.6a53.061,53.061,0,0,1-53-53,53.061,53.061,0,0,1,53-53,53.06,53.06,0,0,1,53,53A53.06,53.06,0,0,1-4157-3686.6Zm0-98a45.051,45.051,0,0,0-45,45,45.051,45.051,0,0,0,45,45,45.05,45.05,0,0,0,45-45A45.051,45.051,0,0,0-4157-3784.6Z" transform="translate(-8785 11365.6)"/>
      </g>
      <g id="Ellipse_31" data-name="Ellipse 31" class="cls-4" transform="translate(530 3181)">
        <circle class="cls-8" cx="3.5" cy="3.5" r="3.5"/>
        <circle class="cls-9" cx="3.5" cy="3.5" r="3"/>
      </g>
    </g>
  </g>
</svg>
