<svg xmlns="http://www.w3.org/2000/svg" xmlns:xlink="http://www.w3.org/1999/xlink" viewBox="-12705 7566 124 190">
  <defs>
    <style>
      .cls-1 {
        fill: #eaeff2;
      }

      .cls-2 {
        clip-path: url(#clip-path);
      }

      .cls-3, .cls-5 {
        fill: #3e97db;
      }

      .cls-4, .cls-9 {
        fill: none;
      }

      .cls-4 {
        stroke: #3e97db;
      }

      .cls-5 {
        font-size: 18px;
        font-family: SegoeUI, Segoe UI;
      }

      .cls-6 {
        fill: url(#linear-gradient);
      }

      .cls-7 {
        fill: #fcfcfc;
      }

      .cls-8 {
        stroke: none;
      }

      .cls-10 {
        filter: url(#Subtraction_3);
      }
    </style>
    <clipPath id="clip-path">
      <rect id="Rectangle_151" data-name="Rectangle 151" class="cls-1" width="54" height="54" transform="translate(98 2960)"/>
    </clipPath>
    <linearGradient id="linear-gradient" x2="0" y2="1" gradientUnits="objectBoundingBox">
      <stop offset="0" stop-color="#00c2ff"/>
      <stop offset="1" stop-color="#3e97db"/>
    </linearGradient>
    <filter id="Subtraction_3" x="-12705" y="7567" width="124" height="124" filterUnits="userSpaceOnUse">
      <feOffset dy="3" input="SourceAlpha"/>
      <feGaussianBlur stdDeviation="3" result="blur"/>
      <feFlood flood-opacity="0.161"/>
      <feComposite operator="in" in2="blur"/>
      <feComposite in="SourceGraphic"/>
    </filter>
  </defs>
  <g id="Group_574" data-name="Group 574" transform="translate(-13475 4568)">
    <g id="Mask_Group_29" data-name="Mask Group 29" class="cls-2" transform="translate(707 69)">
      <g id="_3" data-name="3" transform="translate(98 2960.13)">
        <path id="Path_237" data-name="Path 237" class="cls-3" d="M51.257,22.128a9.547,9.547,0,0,0,2.71-7.677,1.5,1.5,0,0,0-.9-1.129,1.983,1.983,0,0,0-1.581.226L48.1,16.935l-4.968-.677L42.9,11.29,46.289,7.9a1.659,1.659,0,0,0,.452-1.355,1.525,1.525,0,0,0-1.355-.9,10.379,10.379,0,0,0-7.677,2.71A10.036,10.036,0,0,0,35,17.387L30.483,21.9l-8.355-8.129a16.439,16.439,0,0,1,6.322-3.839l5.193-1.806A1.717,1.717,0,0,0,35,6.322a1.967,1.967,0,0,0-1.355-1.806l-6.1-1.581a16.866,16.866,0,0,0-4.516-.677A19.97,19.97,0,0,0,9.709,7.9L4.742,12.871c-.226.226-.452.226-.452.452v.9H3.613a.83.83,0,0,0-.677.226l-2.71,2.71c0,.226-.226.452-.226.677a.83.83,0,0,0,.226.677l8.129,7.9a.847.847,0,0,0,1.355,0l2.484-2.484a.83.83,0,0,0,.226-.677v-.9h.9A.83.83,0,0,0,14,22.128l2.484-2.484h0l.226-.226,7.9,8.355-5.193,5.193a9.237,9.237,0,0,0-8.58,2.484,9.372,9.372,0,0,0,6.774,16.032,9.957,9.957,0,0,0,6.774-2.71,9.237,9.237,0,0,0,2.484-8.58L32.064,35,44.934,48.321a4.79,4.79,0,0,0,6.774-6.774L38.386,28.677l4.29-4.29A8.73,8.73,0,0,0,51.257,22.128ZM9.032,24.386,2.258,17.612l1.581-1.581h.9L10.613,21.9v.9Zm3.839-3.839H11.742L6.1,14.9V13.774l4.742-4.742A16.918,16.918,0,0,1,22.806,4.064a30.854,30.854,0,0,1,4.29.452l6.1,1.806L28,8.129a17.312,17.312,0,0,0-7,4.29l-.677.9-4.29,4.064h0ZM25.064,39.289a1.358,1.358,0,0,0-.226.9,7.644,7.644,0,0,1-2.032,7.451,7.771,7.771,0,0,1-10.838,0,7.556,7.556,0,0,1,0-10.838,7.644,7.644,0,0,1,7.451-2.032,1.358,1.358,0,0,0,.9-.226L25.967,28.9l4.742,4.968ZM51.031,45.16a2.2,2.2,0,0,1-.9,2.032,3.141,3.141,0,0,1-4.29,0L18.064,18.064,21,15.129l9.032,8.58h0L50.353,43.128A3.152,3.152,0,0,1,51.031,45.16ZM36.805,27.773l-4.968-4.742,4.29-4.29a2.564,2.564,0,0,0,.677-1.806,7.687,7.687,0,0,1,7.451-9.484l-2.935,2.935a1.725,1.725,0,0,0-.452,1.129l.677,5.419q0,1.016,1.355,1.355l5.419.677h0a1.725,1.725,0,0,0,1.129-.452l2.935-2.935A8.332,8.332,0,0,1,50.128,21,7.94,7.94,0,0,1,42.9,23.032a2.433,2.433,0,0,0-1.806.452Z"/>
        <path id="Path_238" data-name="Path 238" class="cls-3" d="M20.1,38.838l-3.387-.9a1.358,1.358,0,0,0-.9.226l-2.484,2.484c-.226.226-.226.452-.226.9l.9,3.387q0,.339.677.677l3.387.9h.226a.83.83,0,0,0,.677-.226l2.484-2.484c.226-.226.226-.452.226-.9l-.9-3.387Q20.774,39.176,20.1,38.838Zm-2.032,5.871-2.484-.677L14.9,41.547l1.806-1.806,2.484.677L19.87,42.9Z"/>
      </g>
    </g>
    <g id="Symbol_27_3" data-name="Symbol 27 – 3" transform="translate(299)">
      <g id="Ellipse_20" data-name="Ellipse 20" class="cls-4" transform="translate(522 3146)">
        <circle class="cls-8" cx="11.5" cy="11.5" r="11.5"/>
        <circle class="cls-9" cx="11.5" cy="11.5" r="11"/>
      </g>
      <text id="_3-2" data-name="3" class="cls-5" transform="translate(529 3164)"><tspan x="0" y="0">3</tspan></text>
      <path id="Union_2" data-name="Union 2" class="cls-6" d="M-4163.628-3675.443A60.1,60.1,0,0,1-4213-3734.5a60.067,60.067,0,0,1,60-60,60.067,60.067,0,0,1,60,60,60.1,60.1,0,0,1-49.37,59.057l-5.9,8.853-4.727,7.09ZM-4208-3734.5a55.064,55.064,0,0,0,55,55,55.063,55.063,0,0,0,55-55,55.062,55.062,0,0,0-55-55A55.063,55.063,0,0,0-4208-3734.5Z" transform="translate(4686.001 6792.5)"/>
      <g class="cls-10" transform="matrix(1, 0, 0, 1, 13176, -4568)">
        <path id="Subtraction_3-2" data-name="Subtraction 3" class="cls-7" d="M-4157-3686.6a53.061,53.061,0,0,1-53-53,53.061,53.061,0,0,1,53-53,53.06,53.06,0,0,1,53,53A53.06,53.06,0,0,1-4157-3686.6Zm0-98a45.051,45.051,0,0,0-45,45,45.051,45.051,0,0,0,45,45,45.05,45.05,0,0,0,45-45A45.051,45.051,0,0,0-4157-3784.6Z" transform="translate(-8486 11365.6)"/>
      </g>
      <g id="Ellipse_31" data-name="Ellipse 31" class="cls-4" transform="translate(530 3181)">
        <circle class="cls-8" cx="3.5" cy="3.5" r="3.5"/>
        <circle class="cls-9" cx="3.5" cy="3.5" r="3"/>
      </g>
    </g>
  </g>
</svg>
