<svg xmlns="http://www.w3.org/2000/svg" xmlns:xlink="http://www.w3.org/1999/xlink" viewBox="-12404.001 7566 124.001 190">
  <defs>
    <style>
      .cls-1 {
        fill: #eaeff2;
      }

      .cls-2 {
        clip-path: url(#clip-path);
      }

      .cls-3, .cls-5 {
        fill: #3e97db;
      }

      .cls-4, .cls-9 {
        fill: none;
      }

      .cls-4 {
        stroke: #3e97db;
      }

      .cls-5 {
        font-size: 18px;
        font-family: SegoeUI, Segoe UI;
      }

      .cls-6 {
        fill: url(#linear-gradient);
      }

      .cls-7 {
        fill: #fcfcfc;
      }

      .cls-8 {
        stroke: none;
      }

      .cls-10 {
        filter: url(#Subtraction_3);
      }
    </style>
    <clipPath id="clip-path">
      <rect id="Rectangle_151" data-name="Rectangle 151" class="cls-1" width="54" height="54" transform="translate(1106 3029)"/>
    </clipPath>
    <linearGradient id="linear-gradient" x2="0" y2="1" gradientUnits="objectBoundingBox">
      <stop offset="0" stop-color="#00c2ff"/>
      <stop offset="1" stop-color="#3e97db"/>
    </linearGradient>
    <filter id="Subtraction_3" x="-12404.001" y="7567" width="124.001" height="124" filterUnits="userSpaceOnUse">
      <feOffset dy="3" input="SourceAlpha"/>
      <feGaussianBlur stdDeviation="3" result="blur"/>
      <feFlood flood-opacity="0.161"/>
      <feComposite operator="in" in2="blur"/>
      <feComposite in="SourceGraphic"/>
    </filter>
  </defs>
  <g id="Group_575" data-name="Group 575" transform="translate(-13475 4568)">
    <g id="Mask_Group_32" data-name="Mask Group 32" class="cls-2">
      <path id="hands" class="cls-3" d="M56.842,27.222,49.707,14.99a.83.83,0,0,0-1.019-.36,12.652,12.652,0,0,1-4.077.779,8.174,8.174,0,0,1-2.938-1.019A13.052,13.052,0,0,0,35.8,12.652a10.353,10.353,0,0,0-5.4,1.5,10.446,10.446,0,0,0-5.217-1.919,14.258,14.258,0,0,0-6,1.2,7.625,7.625,0,0,1-3,.779,11.048,11.048,0,0,1-3.957-1.139.832.832,0,0,0-1.019.24L3.118,24.943a.817.817,0,0,0,.12,1.079l8.634,7.2h0a3.418,3.418,0,0,0,2.4,5.816,2.04,2.04,0,0,0,.6-.06,3.482,3.482,0,0,0,3.418,3.418,3.539,3.539,0,0,0,.839-.12,3.685,3.685,0,0,0,.959,2.219,3.361,3.361,0,0,0,2.4,1.019,2.248,2.248,0,0,0,.66-.06,6.379,6.379,0,0,0,5.1,2.458,8.2,8.2,0,0,0,2.878-.54,5.953,5.953,0,0,0,1.8.3,5.414,5.414,0,0,0,3.478-1.2,3.131,3.131,0,0,0,1.259.24,3.361,3.361,0,0,0,2.4-1.019,3.828,3.828,0,0,0,.959-1.739,3.326,3.326,0,0,0,1.679.42,3.683,3.683,0,0,0,2.4-.959,3.412,3.412,0,0,0,.959-2.1,2.805,2.805,0,0,0,1.019.12,3.392,3.392,0,0,0,2.4-5.816l-1.319-1.439,8.514-5.936A.739.739,0,0,0,56.842,27.222ZM15.59,36.876a1.781,1.781,0,1,1-2.518-2.518L14.63,32.8a1.781,1.781,0,1,1,2.518,2.518Zm4.557,2.758-.6.6a1.781,1.781,0,1,1-2.518-2.518l3.478-3.478a1.781,1.781,0,1,1,2.518,2.518l-2.878,2.878Zm2.4,4.137a1.8,1.8,0,0,1-1.259-3.058l2.878-2.878h0l.6-.6a1.781,1.781,0,1,1,2.518,2.518L23.8,43.231A1.828,1.828,0,0,1,22.545,43.771Zm6,1.259a2.832,2.832,0,0,0,.72,1.079,4.754,4.754,0,0,1-4.557-1.5.828.828,0,0,1,.24-.18l3.478-3.478.12-.12c1.2.959.959,1.439.54,2.159A2.324,2.324,0,0,0,28.541,45.03Zm19.787-8.394a1.781,1.781,0,1,1-2.518,2.518l-7.975-7.975A.806.806,0,0,0,36.7,32.319l7.255,7.255h0a1.781,1.781,0,1,1-2.518,2.518l-1.319-1.319h0l-4.8-4.8a.806.806,0,1,0-1.139,1.139l4.8,4.8a1.8,1.8,0,0,1-1.259,3.058h0a1.726,1.726,0,0,1-1.259-.54l-2.938-2.938a.806.806,0,0,0-1.139,1.139l2.7,2.7a3.942,3.942,0,0,1-3.6.3c-1.139-.6-1.319-.959-1.379-1.079-.06-.18.12-.42.3-.779.66-1.2,1.2-2.638-1.139-4.377a3.539,3.539,0,0,0,.12-.839,3.482,3.482,0,0,0-3.418-3.418,3.539,3.539,0,0,0-.839.12,3.737,3.737,0,0,0-.959-2.219,3.331,3.331,0,0,0-4.8,0l-.24.24a3.135,3.135,0,0,0-.9-1.619,3.331,3.331,0,0,0-4.8,0l-.36.36-.06-.06L4.917,25.243,12.232,14.81a14.39,14.39,0,0,0,3.9,1.019,8.223,8.223,0,0,0,3.718-.9,12.6,12.6,0,0,1,5.277-1.139,8.4,8.4,0,0,1,3.9,1.319A17.273,17.273,0,0,0,25.6,18.947c-.36.6-3.718,6.056-2.878,8.814a2.22,2.22,0,0,0,1.259,1.379,3.557,3.557,0,0,0,1.379.3c2.1,0,3.718-1.979,5.277-3.837,1.139-1.379,2.338-2.818,3.478-3.118L41.433,29.8l.779.779,4.077,4.077h0Zm-1.379-3.6-4.377-4.377h0l-7.555-7.615a.77.77,0,0,0-.6-.24h-.06c-1.919.18-3.418,1.979-4.917,3.778-1.319,1.619-2.7,3.238-4.017,3.238a1.6,1.6,0,0,1-.72-.18.474.474,0,0,1-.3-.36c-.42-1.379,1.079-4.857,2.7-7.5,1.319-2.1,4.2-5.576,8.874-5.576a12.083,12.083,0,0,1,5.157,1.559,9.045,9.045,0,0,0,3.658,1.2,14.085,14.085,0,0,0,3.957-.66l6.416,11.033Z" transform="translate(1103.03 3025.943)"/>
    </g>
    <g id="Symbol_27_4" data-name="Symbol 27 – 4" transform="translate(600)">
      <g id="Ellipse_20" data-name="Ellipse 20" class="cls-4" transform="translate(522 3146)">
        <circle class="cls-8" cx="11.5" cy="11.5" r="11.5"/>
        <circle class="cls-9" cx="11.5" cy="11.5" r="11"/>
      </g>
      <text id="_4" data-name="4" class="cls-5" transform="translate(529 3164)"><tspan x="0" y="0">4</tspan></text>
      <path id="Union_2" data-name="Union 2" class="cls-6" d="M-4163.628-3675.443A60.1,60.1,0,0,1-4213-3734.5a60.067,60.067,0,0,1,60-60,60.067,60.067,0,0,1,60,60,60.1,60.1,0,0,1-49.37,59.057l-5.9,8.853-4.727,7.09ZM-4208-3734.5a55.064,55.064,0,0,0,55,55,55.063,55.063,0,0,0,55-55,55.062,55.062,0,0,0-55-55A55.063,55.063,0,0,0-4208-3734.5Z" transform="translate(4686.001 6792.5)"/>
      <g class="cls-10" transform="matrix(1, 0, 0, 1, 12875, -4568)">
        <path id="Subtraction_3-2" data-name="Subtraction 3" class="cls-7" d="M-4157-3686.6a53.061,53.061,0,0,1-53-53,53.061,53.061,0,0,1,53-53,53.06,53.06,0,0,1,53,53A53.06,53.06,0,0,1-4157-3686.6Zm0-98a45.051,45.051,0,0,0-45,45,45.051,45.051,0,0,0,45,45,45.05,45.05,0,0,0,45-45A45.051,45.051,0,0,0-4157-3784.6Z" transform="translate(-8185 11365.6)"/>
      </g>
      <g id="Ellipse_31" data-name="Ellipse 31" class="cls-4" transform="translate(530 3181)">
        <circle class="cls-8" cx="3.5" cy="3.5" r="3.5"/>
        <circle class="cls-9" cx="3.5" cy="3.5" r="3"/>
      </g>
    </g>
  </g>
</svg>
