<svg xmlns="http://www.w3.org/2000/svg" viewBox="-12441 9647 20 20">
  <defs>
    <style>
      .cls-1 {
        fill: #3e97db;
      }
    </style>
  </defs>
  <g id="call" transform="translate(-12447.853 8686.6)">
    <g id="Group_85" data-name="Group 85" transform="translate(6.853 960.4)">
      <path id="Path_208" data-name="Path 208" class="cls-1" d="M268.211-13.756a3.4,3.4,0,0,1-1-1.883,2.5,2.5,0,0,1,1-2.145,1.891,1.891,0,0,0,.58-.763,1.528,1.528,0,0,0-.209-1.216c-.742-1-1.508-2.026-2.181-2.908a1.264,1.264,0,0,0-1.276-.381,2.964,2.964,0,0,0-1.021.715c-1.763,1.812-2.436,3.528-2.135,5.292s1.531,3.528,3.434,5.483l2.3,2.36c1.926,1.979,3.62,3.218,5.336,3.528s3.411-.381,5.151-2.193a3.053,3.053,0,0,0,.7-1.049,1.3,1.3,0,0,0-.371-1.311c-.858-.691-1.879-1.478-2.831-2.241a1.514,1.514,0,0,0-1.183-.215,1.856,1.856,0,0,0-.742.6,2.468,2.468,0,0,1-2.088,1.025,2.941,2.941,0,0,1-1.833-1.025m-3.759-10.25c.7.93,1.392,1.883,2.111,2.813a1.029,1.029,0,0,1,.162.834,1.624,1.624,0,0,1-.464.572,3.1,3.1,0,0,0-1.137,2.551,3.475,3.475,0,0,0,1.137,2.169l1.647,1.692a3.569,3.569,0,0,0,2.111,1.168,2.945,2.945,0,0,0,2.483-1.168,1.6,1.6,0,0,1,.557-.477c.186-.072.394-.048.812.167.9.715,1.833,1.43,2.738,2.169a.787.787,0,0,1,.255.834,2.671,2.671,0,0,1-.58.858c-1.694,1.74-3.179,2.336-4.733,2.05s-3.225-1.454-5.1-3.409l-2.3-2.36c-1.879-1.931-3.039-3.647-3.318-5.244s.3-3.123,2-4.863a2.6,2.6,0,0,1,.835-.6c.255-.119.487-.1.789.238Z" transform="translate(-261.9 25.603)"/>
      <path id="Path_209" data-name="Path 209" class="cls-1" d="M302-33.338a.274.274,0,0,0,.255.215,10.1,10.1,0,0,1,9.977,10.25.253.253,0,0,0,.232.238.253.253,0,0,0,.232-.238A10.6,10.6,0,0,0,302.255-33.6.235.235,0,0,0,302-33.338Zm0,2.861a.274.274,0,0,0,.255.215,7.3,7.3,0,0,1,7.193,7.39.253.253,0,0,0,.232.238.253.253,0,0,0,.232-.238,7.771,7.771,0,0,0-7.657-7.867A.235.235,0,0,0,302-30.477Z" transform="translate(-292.696 33.6)"/>
    </g>
  </g>
</svg>
