<svg xmlns="http://www.w3.org/2000/svg" xmlns:xlink="http://www.w3.org/1999/xlink" viewBox="-13215 7722 247 7">
  <defs>
    <style>
      .cls-1, .cls-3 {
        fill: none;
      }

      .cls-2 {
        clip-path: url(#clip-path);
      }

      .cls-3 {
        stroke: #3e97db;
      }

      .cls-4 {
        stroke: none;
      }
    </style>
    <clipPath id="clip-path">
      <rect class="cls-1" width="247" height="7"/>
    </clipPath>
  </defs>
  <g id="Repeat_Grid_23" data-name="Repeat Grid 23" class="cls-2" transform="translate(-13215 7722)">
    <g transform="translate(-258 -3142)">
      <g id="Ellipse_25" data-name="Ellipse 25" class="cls-3" transform="translate(258 3142)">
        <circle class="cls-4" cx="3.5" cy="3.5" r="3.5"/>
        <circle class="cls-1" cx="3.5" cy="3.5" r="3"/>
      </g>
    </g>
    <g transform="translate(-238 -3142)">
      <g id="Ellipse_25-2" data-name="Ellipse 25" class="cls-3" transform="translate(258 3142)">
        <circle class="cls-4" cx="3.5" cy="3.5" r="3.5"/>
        <circle class="cls-1" cx="3.5" cy="3.5" r="3"/>
      </g>
    </g>
    <g transform="translate(-218 -3142)">
      <g id="Ellipse_25-3" data-name="Ellipse 25" class="cls-3" transform="translate(258 3142)">
        <circle class="cls-4" cx="3.5" cy="3.5" r="3.5"/>
        <circle class="cls-1" cx="3.5" cy="3.5" r="3"/>
      </g>
    </g>
    <g transform="translate(-198 -3142)">
      <g id="Ellipse_25-4" data-name="Ellipse 25" class="cls-3" transform="translate(258 3142)">
        <circle class="cls-4" cx="3.5" cy="3.5" r="3.5"/>
        <circle class="cls-1" cx="3.5" cy="3.5" r="3"/>
      </g>
    </g>
    <g transform="translate(-178 -3142)">
      <g id="Ellipse_25-5" data-name="Ellipse 25" class="cls-3" transform="translate(258 3142)">
        <circle class="cls-4" cx="3.5" cy="3.5" r="3.5"/>
        <circle class="cls-1" cx="3.5" cy="3.5" r="3"/>
      </g>
    </g>
    <g transform="translate(-158 -3142)">
      <g id="Ellipse_25-6" data-name="Ellipse 25" class="cls-3" transform="translate(258 3142)">
        <circle class="cls-4" cx="3.5" cy="3.5" r="3.5"/>
        <circle class="cls-1" cx="3.5" cy="3.5" r="3"/>
      </g>
    </g>
    <g transform="translate(-138 -3142)">
      <g id="Ellipse_25-7" data-name="Ellipse 25" class="cls-3" transform="translate(258 3142)">
        <circle class="cls-4" cx="3.5" cy="3.5" r="3.5"/>
        <circle class="cls-1" cx="3.5" cy="3.5" r="3"/>
      </g>
    </g>
    <g transform="translate(-118 -3142)">
      <g id="Ellipse_25-8" data-name="Ellipse 25" class="cls-3" transform="translate(258 3142)">
        <circle class="cls-4" cx="3.5" cy="3.5" r="3.5"/>
        <circle class="cls-1" cx="3.5" cy="3.5" r="3"/>
      </g>
    </g>
    <g transform="translate(-98 -3142)">
      <g id="Ellipse_25-9" data-name="Ellipse 25" class="cls-3" transform="translate(258 3142)">
        <circle class="cls-4" cx="3.5" cy="3.5" r="3.5"/>
        <circle class="cls-1" cx="3.5" cy="3.5" r="3"/>
      </g>
    </g>
    <g transform="translate(-78 -3142)">
      <g id="Ellipse_25-10" data-name="Ellipse 25" class="cls-3" transform="translate(258 3142)">
        <circle class="cls-4" cx="3.5" cy="3.5" r="3.5"/>
        <circle class="cls-1" cx="3.5" cy="3.5" r="3"/>
      </g>
    </g>
    <g transform="translate(-58 -3142)">
      <g id="Ellipse_25-11" data-name="Ellipse 25" class="cls-3" transform="translate(258 3142)">
        <circle class="cls-4" cx="3.5" cy="3.5" r="3.5"/>
        <circle class="cls-1" cx="3.5" cy="3.5" r="3"/>
      </g>
    </g>
    <g transform="translate(-38 -3142)">
      <g id="Ellipse_25-12" data-name="Ellipse 25" class="cls-3" transform="translate(258 3142)">
        <circle class="cls-4" cx="3.5" cy="3.5" r="3.5"/>
        <circle class="cls-1" cx="3.5" cy="3.5" r="3"/>
      </g>
    </g>
    <g transform="translate(-18 -3142)">
      <g id="Ellipse_25-13" data-name="Ellipse 25" class="cls-3" transform="translate(258 3142)">
        <circle class="cls-4" cx="3.5" cy="3.5" r="3.5"/>
        <circle class="cls-1" cx="3.5" cy="3.5" r="3"/>
      </g>
    </g>
  </g>
</svg>
