<svg xmlns="http://www.w3.org/2000/svg" xmlns:xlink="http://www.w3.org/1999/xlink" viewBox="-12034.903 9726 304.903 367.918">
  <defs>
    <style>
      .cls-1 {
        fill: #eaeff2;
      }

      .cls-2, .cls-7 {
        fill: none;
      }

      .cls-3 {
        clip-path: url(#clip-path);
      }

      .cls-4, .cls-8 {
        fill: #3e97db;
      }

      .cls-5 {
        clip-path: url(#clip-path-3);
      }

      .cls-6 {
        fill: #1a1a1a;
        font-size: 14px;
        font-family: SegoeUI-Semilight, Segoe UI;
        font-weight: 300;
      }

      .cls-7 {
        stroke: #3e97db;
      }

      .cls-8 {
        font-size: 18px;
        font-family: SegoeUI, Segoe UI;
      }

      .cls-9 {
        fill: url(#linear-gradient);
      }

      .cls-10 {
        fill: #fcfcfc;
      }

      .cls-11 {
        clip-path: url(#clip-path-5);
      }

      .cls-12 {
        stroke: none;
      }

      .cls-13 {
        filter: url(#Subtraction_3-4);
      }

      .cls-14 {
        filter: url(#Subtraction_3-3);
      }

      .cls-15 {
        filter: url(#Subtraction_3-2);
      }

      .cls-16 {
        filter: url(#Subtraction_3);
      }
    </style>
    <clipPath id="clip-path">
      <rect id="Rectangle_151" data-name="Rectangle 151" class="cls-1" width="36" height="36" transform="translate(98 2960)"/>
    </clipPath>
    <clipPath id="clip-path-3">
      <rect id="Rectangle_151-3" data-name="Rectangle 151" class="cls-1" width="36" height="36" transform="translate(1106 3029)"/>
    </clipPath>
    <linearGradient id="linear-gradient" x2="0" y2="1" gradientUnits="objectBoundingBox">
      <stop offset="0" stop-color="#00c2ff"/>
      <stop offset="1" stop-color="#3e97db"/>
    </linearGradient>
    <filter id="Subtraction_3" x="-12034.903" y="9729.084" width="80.03" height="79.834" filterUnits="userSpaceOnUse">
      <feOffset dy="3" input="SourceAlpha"/>
      <feGaussianBlur stdDeviation="3" result="blur"/>
      <feFlood flood-opacity="0.161"/>
      <feComposite operator="in" in2="blur"/>
      <feComposite in="SourceGraphic"/>
    </filter>
    <filter id="Subtraction_3-2" x="-12034.903" y="9824.084" width="80.03" height="79.834" filterUnits="userSpaceOnUse">
      <feOffset dy="3" input="SourceAlpha"/>
      <feGaussianBlur stdDeviation="3" result="blur-2"/>
      <feFlood flood-opacity="0.161"/>
      <feComposite operator="in" in2="blur-2"/>
      <feComposite in="SourceGraphic"/>
    </filter>
    <filter id="Subtraction_3-3" x="-12034.903" y="9919.084" width="80.03" height="79.834" filterUnits="userSpaceOnUse">
      <feOffset dy="3" input="SourceAlpha"/>
      <feGaussianBlur stdDeviation="3" result="blur-3"/>
      <feFlood flood-opacity="0.161"/>
      <feComposite operator="in" in2="blur-3"/>
      <feComposite in="SourceGraphic"/>
    </filter>
    <filter id="Subtraction_3-4" x="-12034.903" y="10014.084" width="80.03" height="79.834" filterUnits="userSpaceOnUse">
      <feOffset dy="3" input="SourceAlpha"/>
      <feGaussianBlur stdDeviation="3" result="blur-4"/>
      <feFlood flood-opacity="0.161"/>
      <feComposite operator="in" in2="blur-4"/>
      <feComposite in="SourceGraphic"/>
    </filter>
    <clipPath id="clip-path-5">
      <rect class="cls-2" width="7" height="61"/>
    </clipPath>
  </defs>
  <g id="этапы_работ" data-name="этапы работ" transform="translate(-12040 6811)">
    <g id="Mask_Group_27" data-name="Mask Group 27" class="cls-3" transform="translate(-71 -23)">
      <g id="_1" data-name="1" transform="translate(98 2961.358)">
        <path id="Path_224" data-name="Path 224" class="cls-4" d="M30.466,5.412h-9v8.514h1.216v-7.3H44.209V26.98H22.682V23.655H21.466V28.2H45.426V5.412H30.466Z" transform="translate(-9.426 -5.412)"/>
        <path id="Path_225" data-name="Path 225" class="cls-4" d="M10.541,5.716A4.581,4.581,0,1,0,15.122,10.3,4.551,4.551,0,0,0,10.541,5.716Zm0,7.946A3.365,3.365,0,1,1,13.905,10.3,3.357,3.357,0,0,1,10.541,13.662Z" transform="translate(-4.257 -5.514)"/>
        <path id="Path_226" data-name="Path 226" class="cls-4" d="M18.324,26.291h.162A4.155,4.155,0,0,0,22.5,22.155V20.98H8.149a4.749,4.749,0,0,0-4.743,4.743v6.811a2.566,2.566,0,0,0,2.149,2.514v6.324a2.526,2.526,0,0,0,2.514,2.514h3.243a2.526,2.526,0,0,0,2.514-2.514V26.291Zm-5.676-1.216v16.3a1.306,1.306,0,0,1-1.3,1.3H8.108a1.306,1.306,0,0,1-1.3-1.3v-7.5H6a1.306,1.306,0,0,1-1.3-1.3V25.723A3.53,3.53,0,0,1,8.23,22.2H21.365a2.952,2.952,0,0,1-2.919,2.878Z" transform="translate(-3.405 -10.601)"/>
        <rect id="Rectangle_152" data-name="Rectangle 152" class="cls-4" width="1.622" height="4.581" transform="translate(19.419 14.149)"/>
        <rect id="Rectangle_153" data-name="Rectangle 153" class="cls-4" width="1.622" height="7.703" transform="translate(24.081 11.068)"/>
        <rect id="Rectangle_154" data-name="Rectangle 154" class="cls-4" width="1.622" height="13.419" transform="translate(28.703 5.311)"/>
      </g>
    </g>
    <g id="Mask_Group_29" data-name="Mask Group 29" class="cls-3" transform="translate(-71 167)">
      <g id="_3" data-name="3" transform="translate(98 2961.592)">
        <path id="Path_237" data-name="Path 237" class="cls-4" d="M34.171,15.5a6.365,6.365,0,0,0,1.806-5.118,1,1,0,0,0-.6-.753,1.322,1.322,0,0,0-1.054.151l-2.258,2.258-3.312-.452L28.6,8.279l2.258-2.258a1.106,1.106,0,0,0,.3-.9,1.016,1.016,0,0,0-.9-.6,6.919,6.919,0,0,0-5.118,1.806,6.691,6.691,0,0,0-1.806,6.021l-3.011,3.011-5.57-5.419a10.959,10.959,0,0,1,4.215-2.559l3.462-1.2a1.145,1.145,0,0,0,.9-1.2,1.311,1.311,0,0,0-.9-1.2L18.365,2.71a11.244,11.244,0,0,0-3.011-.452A13.313,13.313,0,0,0,6.473,6.021L3.161,9.333c-.151.151-.3.151-.3.3v.6H2.409a.553.553,0,0,0-.452.151L.151,12.193c0,.151-.151.3-.151.452a.553.553,0,0,0,.151.452L5.57,18.365a.565.565,0,0,0,.9,0l1.656-1.656a.553.553,0,0,0,.151-.452v-.6h.6a.553.553,0,0,0,.452-.151l1.656-1.656h0l.151-.151,5.269,5.57-3.462,3.462a6.158,6.158,0,0,0-5.72,1.656,6.248,6.248,0,0,0,4.516,10.688,6.638,6.638,0,0,0,4.516-1.806,6.158,6.158,0,0,0,1.656-5.72l3.462-3.462,8.58,8.881a3.194,3.194,0,0,0,4.516-4.516l-8.881-8.58,2.86-2.86A5.82,5.82,0,0,0,34.171,15.5ZM6.021,17.01,1.505,12.494l1.054-1.054h.6l3.914,3.914v.6ZM8.58,14.451H7.828L4.064,10.688V9.935L7.226,6.774A11.279,11.279,0,0,1,15.2,3.462a20.569,20.569,0,0,1,2.86.3l4.064,1.2-3.462,1.2A11.541,11.541,0,0,0,14,9.032l-.452.6-2.86,2.71h0Zm8.129,12.494a.905.905,0,0,0-.151.6A5.1,5.1,0,0,1,15.2,32.515a5.18,5.18,0,0,1-7.226,0,5.037,5.037,0,0,1,0-7.226,5.1,5.1,0,0,1,4.968-1.355.905.905,0,0,0,.6-.151l3.763-3.763,3.161,3.312ZM34.02,30.859a1.467,1.467,0,0,1-.6,1.355,2.094,2.094,0,0,1-2.86,0L12.043,12.8,14,10.838l6.021,5.72h0L33.569,29.5A2.1,2.1,0,0,1,34.02,30.859ZM24.537,19.268l-3.312-3.161,2.86-2.86a1.709,1.709,0,0,0,.452-1.2A5.125,5.125,0,0,1,29.5,5.72L27.548,7.677a1.15,1.15,0,0,0-.3.753l.452,3.613q0,.677.9.9l3.613.452h0a1.15,1.15,0,0,0,.753-.3l1.957-1.957a5.555,5.555,0,0,1-1.505,3.613A5.293,5.293,0,0,1,28.6,16.107a1.622,1.622,0,0,0-1.2.3Z" transform="translate(0 -2.258)"/>
        <path id="Path_238" data-name="Path 238" class="cls-4" d="M17.763,38.536l-2.258-.6a.905.905,0,0,0-.6.151l-1.656,1.656c-.151.151-.151.3-.151.6l.6,2.258q0,.226.452.452l2.258.6h.151a.553.553,0,0,0,.452-.151l1.656-1.656c.151-.151.151-.3.151-.6l-.6-2.258Q18.215,38.762,17.763,38.536ZM16.408,42.45,14.752,42,14.3,40.343l1.2-1.2,1.656.452.452,1.656Z" transform="translate(-4.365 -14.15)"/>
      </g>
    </g>
    <g id="Mask_Group_32" data-name="Mask Group 32" class="cls-5" transform="translate(-1079 193)">
      <path id="hands" class="cls-4" d="M38.885,22.217l-4.757-8.155a.554.554,0,0,0-.68-.24,8.435,8.435,0,0,1-2.718.52,5.449,5.449,0,0,1-1.959-.68A8.7,8.7,0,0,0,24.854,12.5a6.9,6.9,0,0,0-3.6,1,6.964,6.964,0,0,0-3.478-1.279,9.505,9.505,0,0,0-4,.8,5.084,5.084,0,0,1-2,.52,7.366,7.366,0,0,1-2.638-.759.555.555,0,0,0-.68.16L3.069,20.7a.545.545,0,0,0,.08.72l5.756,4.8h0a2.279,2.279,0,0,0,1.6,3.877,1.36,1.36,0,0,0,.4-.04,2.321,2.321,0,0,0,2.278,2.278,2.359,2.359,0,0,0,.56-.08,2.457,2.457,0,0,0,.64,1.479,2.241,2.241,0,0,0,1.6.68,1.5,1.5,0,0,0,.44-.04,4.253,4.253,0,0,0,3.4,1.639,5.469,5.469,0,0,0,1.919-.36,3.969,3.969,0,0,0,1.2.2,3.609,3.609,0,0,0,2.318-.8,2.088,2.088,0,0,0,.839.16,2.241,2.241,0,0,0,1.6-.68,2.552,2.552,0,0,0,.64-1.159,2.217,2.217,0,0,0,1.119.28,2.455,2.455,0,0,0,1.6-.64,2.275,2.275,0,0,0,.64-1.4,1.87,1.87,0,0,0,.68.08,2.261,2.261,0,0,0,1.6-3.877l-.879-.959L38.765,22.9A.492.492,0,0,0,38.885,22.217Zm-27.5,6.436A1.187,1.187,0,1,1,9.7,26.973l1.039-1.039a1.187,1.187,0,1,1,1.679,1.679Zm3.038,1.839-.4.4a1.187,1.187,0,1,1-1.679-1.679l2.318-2.318a1.187,1.187,0,1,1,1.679,1.679l-1.919,1.919Zm1.6,2.758a1.2,1.2,0,0,1-.839-2.039L17.1,29.292h0l.4-.4a1.187,1.187,0,1,1,1.679,1.679l-2.318,2.318A1.219,1.219,0,0,1,16.02,33.249Zm4,.839a1.888,1.888,0,0,0,.48.72,3.17,3.17,0,0,1-3.038-1,.552.552,0,0,1,.16-.12l2.318-2.318.08-.08c.8.64.64.959.36,1.439A1.549,1.549,0,0,0,20.017,34.089Zm13.191-5.6a1.187,1.187,0,1,1-1.679,1.679l-5.316-5.316a.537.537,0,0,0-.759.759l4.837,4.837h0a1.187,1.187,0,1,1-1.679,1.679l-.879-.879h0l-3.2-3.2a.537.537,0,0,0-.759.759l3.2,3.2a1.2,1.2,0,0,1-.839,2.039h0a1.151,1.151,0,0,1-.839-.36L23.335,31.73a.537.537,0,0,0-.759.759l1.8,1.8a2.628,2.628,0,0,1-2.4.2c-.759-.4-.879-.64-.919-.72-.04-.12.08-.28.2-.52.44-.8.8-1.759-.759-2.918a2.359,2.359,0,0,0,.08-.56A2.321,2.321,0,0,0,18.3,27.493a2.359,2.359,0,0,0-.56.08,2.491,2.491,0,0,0-.64-1.479,2.221,2.221,0,0,0-3.2,0l-.16.16a2.09,2.09,0,0,0-.6-1.079,2.221,2.221,0,0,0-3.2,0l-.24.24-.04-.04L4.268,20.9l4.877-6.955a9.593,9.593,0,0,0,2.6.68,5.482,5.482,0,0,0,2.478-.6,8.4,8.4,0,0,1,3.518-.759,5.6,5.6,0,0,1,2.6.879A11.516,11.516,0,0,0,18.059,16.7c-.24.4-2.478,4.037-1.919,5.876a1.48,1.48,0,0,0,.839.919,2.371,2.371,0,0,0,.919.2c1.4,0,2.478-1.319,3.518-2.558.759-.919,1.559-1.879,2.318-2.079l4.877,4.877.52.52,2.718,2.718h0Zm-.919-2.4-2.918-2.918h0L24.335,18.1a.513.513,0,0,0-.4-.16h-.04c-1.279.12-2.278,1.319-3.278,2.518-.879,1.079-1.8,2.159-2.678,2.159a1.064,1.064,0,0,1-.48-.12.316.316,0,0,1-.2-.24c-.28-.919.72-3.238,1.8-5,.879-1.4,2.8-3.718,5.916-3.718a8.055,8.055,0,0,1,3.438,1.039,6.03,6.03,0,0,0,2.438.8,9.39,9.39,0,0,0,2.638-.44L37.766,22.3Z" transform="translate(1103.03 3022.894)"/>
    </g>
    <g id="Mask_Group_31" data-name="Mask Group 31" class="cls-3" transform="translate(-71 72)">
      <g id="_4" data-name="4" transform="translate(98 2960)">
        <path id="Path_244" data-name="Path 244" class="cls-4" d="M14.371,13.3l-.7-.929L10.6,14.923l-.813-.755-.813.813,1.51,1.568Z" transform="translate(-3.571 -4.703)"/>
        <rect id="Rectangle_165" data-name="Rectangle 165" class="cls-4" width="8.71" height="1.161" transform="translate(12.774 8.129)"/>
        <rect id="Rectangle_166" data-name="Rectangle 166" class="cls-4" width="9.871" height="1.161" transform="translate(12.774 10.452)"/>
        <path id="Path_245" data-name="Path 245" class="cls-4" d="M14.371,22.006l-.7-.929L10.6,23.632l-.813-.755-.813.813,1.51,1.568Z" transform="translate(-3.571 -7.606)"/>
        <rect id="Rectangle_167" data-name="Rectangle 167" class="cls-4" width="12.194" height="1.161" transform="translate(12.774 13.935)"/>
        <rect id="Rectangle_168" data-name="Rectangle 168" class="cls-4" width="2.323" height="1.161" transform="translate(12.774 16.258)"/>
        <rect id="Rectangle_169" data-name="Rectangle 169" class="cls-4" width="8.71" height="1.161" transform="translate(16.258 16.258)"/>
        <path id="Path_246" data-name="Path 246" class="cls-4" d="M14.371,30.716l-.7-.929L10.6,32.342l-.813-.755-.813.813,1.51,1.568Z" transform="translate(-3.571 -10.51)"/>
        <rect id="Rectangle_170" data-name="Rectangle 170" class="cls-4" width="12.194" height="1.161" transform="translate(12.774 19.742)"/>
        <rect id="Rectangle_171" data-name="Rectangle 171" class="cls-4" width="8.71" height="1.161" transform="translate(12.774 22.065)"/>
        <rect id="Rectangle_172" data-name="Rectangle 172" class="cls-4" width="2.323" height="1.161" transform="translate(22.645 22.065)"/>
        <rect id="Rectangle_173" data-name="Rectangle 173" class="cls-4" width="2.323" height="1.161" transform="translate(22.645 8.129)"/>
        <path id="Path_247" data-name="Path 247" class="cls-4" d="M35.129,27.581H30.484V3.774a2.875,2.875,0,0,0-2.9-2.9H3.774a2.875,2.875,0,0,0-2.9,2.9,2.875,2.875,0,0,0,2.9,2.9V36.871H28.161V33.387h2.323V31.065h4.645a1.742,1.742,0,1,0,0-3.484ZM29.323,3.774V27.581H28.161V5.516h-.581a1.711,1.711,0,0,1-1.742-1.742,1.742,1.742,0,1,1,3.484,0Zm-27.29,0A1.711,1.711,0,0,1,3.774,2.032H25.258a2.985,2.985,0,0,0-.581,1.742,2.985,2.985,0,0,0,.581,1.742H3.774A1.711,1.711,0,0,1,2.032,3.774Zm2.9,31.935V6.677H27v20.9H10.626L5.4,29.323l5.226,1.742H27V35.71Zm4.181-6.387,1.045-.348v.7Zm20.206,2.9H28.161V31.065h1.161ZM30.484,29.9H11.323V28.742H30.484Zm2.323,0H31.645V28.742h1.161Zm2.323,0H33.968V28.742h1.161a.581.581,0,1,1,0,1.161Z" transform="translate(-0.871 -0.871)"/>
      </g>
    </g>
    <text id="Знакомство_поиск_наилучшего_решения_выбор_бассейна_и_комплектации." data-name="Знакомство, поиск наилучшего решения, выбор бассейна и комплектации." class="cls-6" transform="translate(140 2915)"><tspan x="0" y="15">Знакомство, поиск </tspan><tspan x="0" y="35">наилучшего решения, </tspan><tspan x="0" y="55">выбор бассейна и </tspan><tspan x="0" y="75">комплектации.</tspan></text>
    <text id="Согласование_сметы_и_сроков_работ_заключение_договора_оплата." data-name="Согласование сметы и сроков работ, заключение договора, оплата." class="cls-6" transform="translate(140 3020)"><tspan x="0" y="15">Согласование сметы и </tspan><tspan x="0" y="35">сроков работ, заключение </tspan><tspan x="0" y="55">договора, оплата.</tspan></text>
    <text id="Строительство_бассейна_и_установка_оборудования_пусконаладочные_работы." data-name="Строительство бассейна и установка оборудования, пусконаладочные работы." class="cls-6" transform="translate(140 3115)"><tspan x="0" y="15">Строительство бассейна и </tspan><tspan x="0" y="35">установка оборудования, </tspan><tspan x="0" y="55">пусконаладочные работы.</tspan></text>
    <text id="Сдача-приемка_готового_бассейна_подписание_актов_выполненных_работ." data-name="Сдача-приемка готового бассейна, подписание актов выполненных работ." class="cls-6" transform="translate(140 3210)"><tspan x="0" y="15">Сдача-приемка готового </tspan><tspan x="0" y="35">бассейна, подписание </tspan><tspan x="0" y="55">актов выполненных работ.</tspan></text>
    <g id="Ellipse_20" data-name="Ellipse 20" class="cls-7" transform="translate(95 2944)">
      <circle class="cls-12" cx="11.5" cy="11.5" r="11.5"/>
      <circle class="cls-2" cx="11.5" cy="11.5" r="11"/>
    </g>
    <g id="Ellipse_47" data-name="Ellipse 47" class="cls-7" transform="translate(95 3039)">
      <circle class="cls-12" cx="11.5" cy="11.5" r="11.5"/>
      <circle class="cls-2" cx="11.5" cy="11.5" r="11"/>
    </g>
    <g id="Ellipse_48" data-name="Ellipse 48" class="cls-7" transform="translate(95 3134)">
      <circle class="cls-12" cx="11.5" cy="11.5" r="11.5"/>
      <circle class="cls-2" cx="11.5" cy="11.5" r="11"/>
    </g>
    <g id="Ellipse_49" data-name="Ellipse 49" class="cls-7" transform="translate(95 3229)">
      <circle class="cls-12" cx="11.5" cy="11.5" r="11.5"/>
      <circle class="cls-2" cx="11.5" cy="11.5" r="11"/>
    </g>
    <text id="_1-2" data-name="1" class="cls-8" transform="translate(102 2962)"><tspan x="0" y="0">1</tspan></text>
    <text id="_2" data-name="2" class="cls-8" transform="translate(102 3057)"><tspan x="0" y="0">2</tspan></text>
    <text id="_3-2" data-name="3" class="cls-8" transform="translate(102 3152)"><tspan x="0" y="0">3</tspan></text>
    <text id="_4-2" data-name="4" class="cls-8" transform="translate(102 3247)"><tspan x="0" y="0">4</tspan></text>
    <g id="Group_159" data-name="Group 159" transform="translate(-32.5 -85.5)">
      <path id="Union_2" data-name="Union 2" class="cls-9" d="M28.8,69.671a35,35,0,1,1,12.4,0l-3.442,5.181L35,79ZM2.917,35.111A32.083,32.083,0,1,0,35,2.925,32.172,32.172,0,0,0,2.917,35.111Z" transform="translate(42.5 3075.5) rotate(-90)"/>
      <g class="cls-16" transform="matrix(1, 0, 0, 1, 12072.5, -6725.5)">
        <path id="Subtraction_3-5" data-name="Subtraction 3" class="cls-10" d="M30.917,62.03A31.015,31.015,0,1,1,61.834,31.015,31,31,0,0,1,30.917,62.03Zm0-57.348a26.25,26.25,0,1,0,26.25,26.25A26.28,26.28,0,0,0,30.917,4.682Z" transform="translate(-12025.9 9796.92) rotate(-90)"/>
      </g>
    </g>
    <g id="Group_160" data-name="Group 160" transform="translate(-32.5 9.5)">
      <path id="Union_2-2" data-name="Union 2" class="cls-9" d="M28.8,69.671a35,35,0,1,1,12.4,0l-3.442,5.181L35,79ZM2.917,35.111A32.083,32.083,0,1,0,35,2.925,32.172,32.172,0,0,0,2.917,35.111Z" transform="translate(42.5 3075.5) rotate(-90)"/>
      <g class="cls-15" transform="matrix(1, 0, 0, 1, 12072.5, -6820.5)">
        <path id="Subtraction_3-6" data-name="Subtraction 3" class="cls-10" d="M30.917,62.03A31.015,31.015,0,1,1,61.834,31.015,31,31,0,0,1,30.917,62.03Zm0-57.348a26.25,26.25,0,1,0,26.25,26.25A26.28,26.28,0,0,0,30.917,4.682Z" transform="translate(-12025.9 9891.92) rotate(-90)"/>
      </g>
    </g>
    <g id="Group_161" data-name="Group 161" transform="translate(-32.5 104.5)">
      <path id="Union_2-3" data-name="Union 2" class="cls-9" d="M28.8,69.671a35,35,0,1,1,12.4,0l-3.442,5.181L35,79ZM2.917,35.111A32.083,32.083,0,1,0,35,2.925,32.172,32.172,0,0,0,2.917,35.111Z" transform="translate(42.5 3075.5) rotate(-90)"/>
      <g class="cls-14" transform="matrix(1, 0, 0, 1, 12072.5, -6915.5)">
        <path id="Subtraction_3-7" data-name="Subtraction 3" class="cls-10" d="M30.917,62.03A31.015,31.015,0,1,1,61.834,31.015,31,31,0,0,1,30.917,62.03Zm0-57.348a26.25,26.25,0,1,0,26.25,26.25A26.28,26.28,0,0,0,30.917,4.682Z" transform="translate(-12025.9 9986.92) rotate(-90)"/>
      </g>
    </g>
    <g id="Group_162" data-name="Group 162" transform="translate(-32.5 199.5)">
      <path id="Union_2-4" data-name="Union 2" class="cls-9" d="M28.8,69.671a35,35,0,1,1,12.4,0l-3.442,5.181L35,79ZM2.917,35.111A32.083,32.083,0,1,0,35,2.925,32.172,32.172,0,0,0,2.917,35.111Z" transform="translate(42.5 3075.5) rotate(-90)"/>
      <g class="cls-13" transform="matrix(1, 0, 0, 1, 12072.5, -7010.5)">
        <path id="Subtraction_3-8" data-name="Subtraction 3" class="cls-10" d="M30.917,62.03A31.015,31.015,0,1,1,61.834,31.015,31,31,0,0,1,30.917,62.03Zm0-57.348a26.25,26.25,0,1,0,26.25,26.25A26.28,26.28,0,0,0,30.917,4.682Z" transform="translate(-12025.9 10081.92) rotate(-90)"/>
      </g>
    </g>
    <g id="Repeat_Grid_23" data-name="Repeat Grid 23" class="cls-11" transform="translate(103 2973)">
      <g transform="translate(-258 -3142)">
        <g id="Ellipse_25" data-name="Ellipse 25" class="cls-7" transform="translate(258 3142)">
          <circle class="cls-12" cx="3.5" cy="3.5" r="3.5"/>
          <circle class="cls-2" cx="3.5" cy="3.5" r="3"/>
        </g>
      </g>
      <g transform="translate(-258 -3124)">
        <g id="Ellipse_25-2" data-name="Ellipse 25" class="cls-7" transform="translate(258 3142)">
          <circle class="cls-12" cx="3.5" cy="3.5" r="3.5"/>
          <circle class="cls-2" cx="3.5" cy="3.5" r="3"/>
        </g>
      </g>
      <g transform="translate(-258 -3106)">
        <g id="Ellipse_25-3" data-name="Ellipse 25" class="cls-7" transform="translate(258 3142)">
          <circle class="cls-12" cx="3.5" cy="3.5" r="3.5"/>
          <circle class="cls-2" cx="3.5" cy="3.5" r="3"/>
        </g>
      </g>
      <g transform="translate(-258 -3088)">
        <g id="Ellipse_25-4" data-name="Ellipse 25" class="cls-7" transform="translate(258 3142)">
          <circle class="cls-12" cx="3.5" cy="3.5" r="3.5"/>
          <circle class="cls-2" cx="3.5" cy="3.5" r="3"/>
        </g>
      </g>
    </g>
    <g id="Repeat_Grid_26" data-name="Repeat Grid 26" class="cls-11" transform="translate(103 3068)">
      <g transform="translate(-258 -3142)">
        <g id="Ellipse_25-5" data-name="Ellipse 25" class="cls-7" transform="translate(258 3142)">
          <circle class="cls-12" cx="3.5" cy="3.5" r="3.5"/>
          <circle class="cls-2" cx="3.5" cy="3.5" r="3"/>
        </g>
      </g>
      <g transform="translate(-258 -3124)">
        <g id="Ellipse_25-6" data-name="Ellipse 25" class="cls-7" transform="translate(258 3142)">
          <circle class="cls-12" cx="3.5" cy="3.5" r="3.5"/>
          <circle class="cls-2" cx="3.5" cy="3.5" r="3"/>
        </g>
      </g>
      <g transform="translate(-258 -3106)">
        <g id="Ellipse_25-7" data-name="Ellipse 25" class="cls-7" transform="translate(258 3142)">
          <circle class="cls-12" cx="3.5" cy="3.5" r="3.5"/>
          <circle class="cls-2" cx="3.5" cy="3.5" r="3"/>
        </g>
      </g>
      <g transform="translate(-258 -3088)">
        <g id="Ellipse_25-8" data-name="Ellipse 25" class="cls-7" transform="translate(258 3142)">
          <circle class="cls-12" cx="3.5" cy="3.5" r="3.5"/>
          <circle class="cls-2" cx="3.5" cy="3.5" r="3"/>
        </g>
      </g>
    </g>
    <g id="Repeat_Grid_27" data-name="Repeat Grid 27" class="cls-11" transform="translate(103 3164)">
      <g transform="translate(-258 -3142)">
        <g id="Ellipse_25-9" data-name="Ellipse 25" class="cls-7" transform="translate(258 3142)">
          <circle class="cls-12" cx="3.5" cy="3.5" r="3.5"/>
          <circle class="cls-2" cx="3.5" cy="3.5" r="3"/>
        </g>
      </g>
      <g transform="translate(-258 -3124)">
        <g id="Ellipse_25-10" data-name="Ellipse 25" class="cls-7" transform="translate(258 3142)">
          <circle class="cls-12" cx="3.5" cy="3.5" r="3.5"/>
          <circle class="cls-2" cx="3.5" cy="3.5" r="3"/>
        </g>
      </g>
      <g transform="translate(-258 -3106)">
        <g id="Ellipse_25-11" data-name="Ellipse 25" class="cls-7" transform="translate(258 3142)">
          <circle class="cls-12" cx="3.5" cy="3.5" r="3.5"/>
          <circle class="cls-2" cx="3.5" cy="3.5" r="3"/>
        </g>
      </g>
      <g transform="translate(-258 -3088)">
        <g id="Ellipse_25-12" data-name="Ellipse 25" class="cls-7" transform="translate(258 3142)">
          <circle class="cls-12" cx="3.5" cy="3.5" r="3.5"/>
          <circle class="cls-2" cx="3.5" cy="3.5" r="3"/>
        </g>
      </g>
    </g>
    <g id="Ellipse_50" data-name="Ellipse 50" class="cls-7" transform="translate(124 2952)">
      <circle class="cls-12" cx="3.5" cy="3.5" r="3.5"/>
      <circle class="cls-2" cx="3.5" cy="3.5" r="3"/>
    </g>
    <g id="Ellipse_51" data-name="Ellipse 51" class="cls-7" transform="translate(124 3047)">
      <circle class="cls-12" cx="3.5" cy="3.5" r="3.5"/>
      <circle class="cls-2" cx="3.5" cy="3.5" r="3"/>
    </g>
    <g id="Ellipse_52" data-name="Ellipse 52" class="cls-7" transform="translate(124 3142)">
      <circle class="cls-12" cx="3.5" cy="3.5" r="3.5"/>
      <circle class="cls-2" cx="3.5" cy="3.5" r="3"/>
    </g>
    <g id="Ellipse_53" data-name="Ellipse 53" class="cls-7" transform="translate(124 3237)">
      <circle class="cls-12" cx="3.5" cy="3.5" r="3.5"/>
      <circle class="cls-2" cx="3.5" cy="3.5" r="3"/>
    </g>
  </g>
</svg>
