<svg xmlns="http://www.w3.org/2000/svg" viewBox="-12439 9764 16 22.084">
  <defs>
    <style>
      .cls-1 {
        fill: #3e97db;
      }
    </style>
  </defs>
  <g id="location" transform="translate(-12461.362 9752.1)">
    <path id="Path_210" data-name="Path 210" class="cls-1" d="M30.1,33.839a.345.345,0,0,0,.26.145h0a.3.3,0,0,0,.26-.145l6.368-9.551c.232-.347.434-.695.637-1.071a7.991,7.991,0,1,0-14.5.087,8.078,8.078,0,0,0,.55.955ZM24.11,15.894a7.426,7.426,0,0,1,13.025,7.062,7.034,7.034,0,0,1-.579,1.013L30.362,33.2l-6.194-9.291a6.6,6.6,0,0,1-.492-.868A7.321,7.321,0,0,1,24.11,15.894Z" transform="translate(0 0)"/>
    <path id="Path_211" data-name="Path 211" class="cls-1" d="M39.2,33a4.4,4.4,0,1,0-4.4-4.4A4.4,4.4,0,0,0,39.2,33Zm0-8.22A3.821,3.821,0,1,1,35.379,28.6,3.817,3.817,0,0,1,39.2,24.779Z" transform="translate(-8.838 -8.74)"/>
  </g>
</svg>
