<svg xmlns="http://www.w3.org/2000/svg" viewBox="-12441 9608 20 15">
  <defs>
    <style>
      .cls-1 {
        fill: #3e97db;
      }
    </style>
  </defs>
  <g id="mail" transform="translate(-12448.45 9589.49)">
    <path id="Path_212" data-name="Path 212" class="cls-1" d="M25.805,18.51H9.095A1.656,1.656,0,0,0,7.45,20.177V31.843A1.656,1.656,0,0,0,9.095,33.51h16.71a1.656,1.656,0,0,0,1.645-1.666V20.177a1.656,1.656,0,0,0-1.645-1.667Zm-16.71.476h16.71a1.149,1.149,0,0,1,.567.155L18.3,27.691a1.165,1.165,0,0,1-1.7,0L8.52,19.139a1.149,1.149,0,0,1,.576-.15Zm16.71,14.05H9.095a1.172,1.172,0,0,1-.987-.55l5.615-6.995-.364-.3L7.93,31.96V20.182a1.2,1.2,0,0,1,.252-.726l8.094,8.571a1.63,1.63,0,0,0,2.374,0l2.3-2.46,5.838,6.9a1.172,1.172,0,0,1-.987.557Zm1.175-1.19a1.182,1.182,0,0,1-.012.124l-5.69-6.748,5.453-5.772a1.2,1.2,0,0,1,.252.726Z"/>
  </g>
</svg>
