<svg xmlns="http://www.w3.org/2000/svg" xmlns:xlink="http://www.w3.org/1999/xlink" viewBox="-12018.008 4373 278.008 400">
  <defs>
    <style>
      .cls-1 {
        opacity: 0.5;
        fill: url(#linear-gradient);
      }

      .cls-2 {
        stroke: rgba(0,0,0,0);
        fill: url(#linear-gradient-2);
      }

      .cls-3 {
        fill: #1a1a1a;
        font-size: 14px;
        font-family: SegoeUI-Semilight, Segoe UI;
        font-weight: 300;
      }
    </style>
    <linearGradient id="linear-gradient" x1="0.965" y1="1" x2="0" y2="1" gradientUnits="objectBoundingBox">
      <stop offset="0" stop-color="#00c2ff"/>
      <stop offset="1" stop-color="#3e97db"/>
    </linearGradient>
    <linearGradient id="linear-gradient-2" x1="1.39" y1="1" xlink:href="#linear-gradient"/>
  </defs>
  <g id="цифры" transform="translate(-12040 3795)">
    <path id="Union_3" data-name="Union 3" class="cls-1" d="M-5648-3409.171l7.1-7.1A29.871,29.871,0,0,0-5617.457-3405a30.033,30.033,0,0,0,30-30,30.034,30.034,0,0,0-30-30,29.872,29.872,0,0,0-23.439,11.275l-7.1-7.1A39.95,39.95,0,0,1-5617.457-3475a40.046,40.046,0,0,1,40,40,40.047,40.047,0,0,1-40,40A39.95,39.95,0,0,1-5648-3409.171Zm101-80,7.1-7.1a29.871,29.871,0,0,0,23.44,11.276,30.033,30.033,0,0,0,30-30,30.033,30.033,0,0,0-30-30,29.873,29.873,0,0,0-23.44,11.274l-7.1-7.1A39.951,39.951,0,0,1-5516.456-3555a40.046,40.046,0,0,1,40,40,40.047,40.047,0,0,1-40,40A39.946,39.946,0,0,1-5547-3489.171Zm-101-80,7.1-7.1A29.871,29.871,0,0,0-5617.457-3565a30.033,30.033,0,0,0,30-30,30.034,30.034,0,0,0-30-30,29.872,29.872,0,0,0-23.439,11.274l-7.1-7.1A39.95,39.95,0,0,1-5617.457-3635a40.046,40.046,0,0,1,40,40,40.047,40.047,0,0,1-40,40A39.95,39.95,0,0,1-5648-3569.171Zm101-80,7.1-7.1a29.873,29.873,0,0,0,23.44,11.274,30.033,30.033,0,0,0,30-30,30.034,30.034,0,0,0-30-30,29.874,29.874,0,0,0-23.44,11.274l-7.1-7.1A39.951,39.951,0,0,1-5516.456-3715a40.046,40.046,0,0,1,40,40,40.046,40.046,0,0,1-40,40A39.946,39.946,0,0,1-5547-3649.172Zm-101-80,7.1-7.1A29.875,29.875,0,0,0-5617.457-3725a30.033,30.033,0,0,0,30-30,30.034,30.034,0,0,0-30-30,29.872,29.872,0,0,0-23.439,11.274l-7.1-7.1A39.95,39.95,0,0,1-5617.457-3795a40.046,40.046,0,0,1,40,40,40.046,40.046,0,0,1-40,40A39.95,39.95,0,0,1-5648-3729.172Z" transform="translate(5705.455 4373)"/>
    <path id="Union_4" data-name="Union 4" class="cls-2" d="M-5609.823-3430v-6.459h-13.31v-4q1.8-2.03,3.7-4.4t3.65-4.84q1.753-2.469,3.25-4.952a45.1,45.1,0,0,0,2.522-4.758h4.8v18.99h4.369v3.959h-4.369V-3430Zm-4.419-15.75q-2.185,2.995-4.092,5.332h8.511v-12.345A68.462,68.462,0,0,1-5614.242-3445.75Zm-31.265,15.75v-2.277a8.558,8.558,0,0,1,.39-2.614,10.611,10.611,0,0,1,1.047-2.3,12.7,12.7,0,0,1,1.538-2.03q.882-.954,1.887-1.846t2.05-1.723q1.046-.829,2.052-1.67.943-.8,1.722-1.57a10.325,10.325,0,0,0,1.333-1.588,7.152,7.152,0,0,0,.861-1.733,6.151,6.151,0,0,0,.308-1.979,5.332,5.332,0,0,0-.358-2.04,3.961,3.961,0,0,0-1-1.457,4.3,4.3,0,0,0-1.529-.883,6.033,6.033,0,0,0-1.927-.3,8.884,8.884,0,0,0-3.671.84,12.582,12.582,0,0,0-3.589,2.522v-4.572a15.082,15.082,0,0,1,1.825-1.18,12.456,12.456,0,0,1,1.907-.84,11.777,11.777,0,0,1,2.071-.5,15.62,15.62,0,0,1,2.318-.164,11.7,11.7,0,0,1,3.608.524,7.659,7.659,0,0,1,2.769,1.537,6.749,6.749,0,0,1,1.774,2.533,9.066,9.066,0,0,1,.626,3.485,10.866,10.866,0,0,1-.44,3.21,10.448,10.448,0,0,1-1.251,2.655,13.73,13.73,0,0,1-1.959,2.338q-1.148,1.107-2.563,2.277-1.19.963-2.369,1.876t-2.123,1.784a10.023,10.023,0,0,0-1.527,1.744,3.124,3.124,0,0,0-.585,1.753v.1h13.269v4.08Zm126.369-80.676v-4.573a10.394,10.394,0,0,0,5.864,1.948,7.27,7.27,0,0,0,4.82-1.527,5.042,5.042,0,0,0,1.825-4.072,4.6,4.6,0,0,0-1.856-3.9,8.734,8.734,0,0,0-5.321-1.394q-1.19,0-4.819.247l1.046-15.463h14.479v4.061h-10.521l-.492,7.362q1.416-.081,2.563-.082,4.676,0,7.229,2.4a8.569,8.569,0,0,1,2.554,6.563,8.973,8.973,0,0,1-2.923,7q-2.922,2.635-8.029,2.635A13.29,13.29,0,0,1-5519.138-3510.676Zm-24.487.676v-2.276a8.562,8.562,0,0,1,.39-2.615,10.643,10.643,0,0,1,1.047-2.3,12.706,12.706,0,0,1,1.538-2.03q.882-.954,1.887-1.846t2.05-1.723q1.046-.829,2.052-1.67.943-.8,1.723-1.568a10.48,10.48,0,0,0,1.332-1.59,7.152,7.152,0,0,0,.861-1.733,6.15,6.15,0,0,0,.308-1.979,5.332,5.332,0,0,0-.358-2.04,3.969,3.969,0,0,0-1-1.457,4.294,4.294,0,0,0-1.528-.881,5.992,5.992,0,0,0-1.927-.3,8.907,8.907,0,0,0-3.671.84,12.559,12.559,0,0,0-3.589,2.523v-4.574a15.111,15.111,0,0,1,1.825-1.18,12.5,12.5,0,0,1,1.907-.84,11.886,11.886,0,0,1,2.071-.5,15.592,15.592,0,0,1,2.318-.163,11.7,11.7,0,0,1,3.608.523,7.681,7.681,0,0,1,2.769,1.537,6.749,6.749,0,0,1,1.774,2.533,9.068,9.068,0,0,1,.626,3.487,10.862,10.862,0,0,1-.44,3.209,10.444,10.444,0,0,1-1.251,2.655,13.73,13.73,0,0,1-1.959,2.338q-1.148,1.107-2.563,2.277-1.19.963-2.369,1.876t-2.123,1.785a9.964,9.964,0,0,0-1.527,1.743,3.128,3.128,0,0,0-.585,1.753v.1h13.269V-3510Zm-71.971-80.163a9.461,9.461,0,0,1-3.1-1.774,7.967,7.967,0,0,1-2.03-2.739,8.4,8.4,0,0,1-.728-3.527,9.5,9.5,0,0,1,.317-2.461,7.912,7.912,0,0,1,.953-2.195,7.7,7.7,0,0,1,1.6-1.8,7.944,7.944,0,0,1,2.256-1.292,8.716,8.716,0,0,1-3.035-2.737,6.468,6.468,0,0,1-1.128-3.7,6.778,6.778,0,0,1,.666-2.994,7.275,7.275,0,0,1,1.846-2.379,8.69,8.69,0,0,1,2.779-1.568,10.4,10.4,0,0,1,3.487-.564,10.4,10.4,0,0,1,3.517.574,8.808,8.808,0,0,1,2.79,1.58,7.106,7.106,0,0,1,1.835,2.379,6.807,6.807,0,0,1,.657,2.973,6.479,6.479,0,0,1-1.128,3.7,8.825,8.825,0,0,1-3,2.737,8.26,8.26,0,0,1,2.246,1.282,7.767,7.767,0,0,1,1.631,1.794,7.79,7.79,0,0,1,.985,2.195,9.315,9.315,0,0,1,.327,2.482,8.527,8.527,0,0,1-.717,3.527,7.934,7.934,0,0,1-2.011,2.739,9.327,9.327,0,0,1-3.1,1.774,11.913,11.913,0,0,1-3.979.635A11.756,11.756,0,0,1-5615.6-3590.164Zm1.887-13.505a4.761,4.761,0,0,0-1.641,1.128,5.285,5.285,0,0,0-1.077,1.733,6.03,6.03,0,0,0-.39,2.195,6.487,6.487,0,0,0,.37,2.256,4.741,4.741,0,0,0,1.046,1.7,4.494,4.494,0,0,0,1.629,1.065,5.834,5.834,0,0,0,2.124.37,5.483,5.483,0,0,0,2.07-.38,4.663,4.663,0,0,0,1.631-1.087,5.059,5.059,0,0,0,1.077-1.7,6.07,6.07,0,0,0,.39-2.226,6.07,6.07,0,0,0-.369-2.122,5.213,5.213,0,0,0-1.047-1.733,4.958,4.958,0,0,0-1.629-1.169,5.093,5.093,0,0,0-2.123-.431A5.28,5.28,0,0,0-5613.709-3603.669Zm.339-12.223a3.892,3.892,0,0,0-1.3.934,4.249,4.249,0,0,0-.841,1.384,4.7,4.7,0,0,0-.3,1.672,4.395,4.395,0,0,0,.329,1.712,4.46,4.46,0,0,0,.881,1.374,3.974,3.974,0,0,0,1.3.912,3.954,3.954,0,0,0,1.611.329,3.868,3.868,0,0,0,1.61-.339,4.209,4.209,0,0,0,1.312-.922,4.386,4.386,0,0,0,.893-1.374,4.387,4.387,0,0,0,.327-1.692,4.614,4.614,0,0,0-.317-1.723,4.2,4.2,0,0,0-.872-1.374,4.039,4.039,0,0,0-1.312-.9,4.1,4.1,0,0,0-1.641-.327A4.084,4.084,0,0,0-5613.371-3615.892Zm95.227-57.369q-2.574-3.753-2.575-10.849,0-7.793,2.687-11.792a8.771,8.771,0,0,1,7.753-4q9.7,0,9.7,15.074,0,7.464-2.737,11.391a8.811,8.811,0,0,1-7.66,3.927A8.211,8.211,0,0,1-5518.144-3673.261Zm2.287-11.054q0,11.034,5.25,11.034,5.169,0,5.168-11.219,0-11.608-5.066-11.607Q-5515.857-3696.106-5515.857-3684.315Zm-22.057,14.151a9.456,9.456,0,0,1-3.1-1.774,7.983,7.983,0,0,1-2.03-2.739,8.4,8.4,0,0,1-.728-3.527,9.538,9.538,0,0,1,.317-2.461,7.9,7.9,0,0,1,.954-2.195,7.715,7.715,0,0,1,1.6-1.8,7.949,7.949,0,0,1,2.257-1.292,8.7,8.7,0,0,1-3.036-2.737,6.478,6.478,0,0,1-1.128-3.7,6.767,6.767,0,0,1,.667-3,7.267,7.267,0,0,1,1.845-2.379,8.675,8.675,0,0,1,2.78-1.569,10.424,10.424,0,0,1,3.485-.564,10.412,10.412,0,0,1,3.518.574,8.816,8.816,0,0,1,2.788,1.58,7.136,7.136,0,0,1,1.836,2.379,6.821,6.821,0,0,1,.656,2.974,6.47,6.47,0,0,1-1.127,3.7,8.812,8.812,0,0,1-2.994,2.737,8.314,8.314,0,0,1,2.245,1.282,7.771,7.771,0,0,1,1.63,1.8,7.725,7.725,0,0,1,.985,2.193,9.317,9.317,0,0,1,.329,2.482,8.5,8.5,0,0,1-.718,3.527,7.942,7.942,0,0,1-2.01,2.739,9.3,9.3,0,0,1-3.1,1.774,11.9,11.9,0,0,1-3.979.635A11.76,11.76,0,0,1-5537.914-3670.164Zm1.887-13.505a4.776,4.776,0,0,0-1.641,1.128,5.3,5.3,0,0,0-1.077,1.734,6.022,6.022,0,0,0-.39,2.193,6.487,6.487,0,0,0,.37,2.256,4.76,4.76,0,0,0,1.045,1.7,4.51,4.51,0,0,0,1.631,1.067,5.854,5.854,0,0,0,2.123.368,5.488,5.488,0,0,0,2.071-.38,4.653,4.653,0,0,0,1.629-1.087,5.034,5.034,0,0,0,1.077-1.7,6.04,6.04,0,0,0,.39-2.226,6.075,6.075,0,0,0-.368-2.122,5.25,5.25,0,0,0-1.046-1.733,4.962,4.962,0,0,0-1.631-1.169,5.087,5.087,0,0,0-2.122-.431A5.284,5.284,0,0,0-5536.027-3683.669Zm.338-12.222a3.875,3.875,0,0,0-1.3.932,4.254,4.254,0,0,0-.842,1.384,4.706,4.706,0,0,0-.3,1.672,4.434,4.434,0,0,0,.329,1.713,4.472,4.472,0,0,0,.881,1.373,3.962,3.962,0,0,0,1.3.913,3.953,3.953,0,0,0,1.609.329,3.866,3.866,0,0,0,1.61-.339,4.217,4.217,0,0,0,1.312-.922,4.343,4.343,0,0,0,.893-1.374,4.373,4.373,0,0,0,.329-1.692,4.613,4.613,0,0,0-.319-1.723,4.155,4.155,0,0,0-.871-1.375,4.024,4.024,0,0,0-1.312-.9,4.1,4.1,0,0,0-1.641-.327A4.069,4.069,0,0,0-5535.688-3695.891Zm-18.99,25.891v-24.241a15.16,15.16,0,0,1-2.78,1.568,22.74,22.74,0,0,1-3.394,1.138v-4.059q1.19-.391,2.3-.82t2.185-.965q1.076-.534,2.174-1.189t2.265-1.5h2.011V-3670Zm-62.036-80a50.631,50.631,0,0,1,1.405-6.306q.912-3.148,2.143-6.3t2.758-6.326q1.529-3.179,3.25-6.42h-13.925v-4.061h19.647v2.379q-1.847,3.386-3.487,6.7t-2.974,6.655q-1.332,3.343-2.316,6.737a53.34,53.34,0,0,0-1.518,6.943Z" transform="translate(5668 4383)"/>
    <text id="Лет_на_рынке" data-name="Лет
на рынке" class="cls-3" transform="translate(78 598)"><tspan x="0" y="15">Лет</tspan><tspan x="0" y="35">на рынке</tspan></text>
    <text id="Бассейнов_сдано_в_эксплуатацию" data-name="Бассейнов сдано в эксплуатацию" class="cls-3" transform="translate(179 678)"><tspan x="0" y="15">Бассейнов сдано в </tspan><tspan x="0" y="35">эксплуатацию</tspan></text>
    <text id="Квалифицированных_специалистов" data-name="Квалифицированных специалистов" class="cls-3" transform="translate(78 758)"><tspan x="0" y="15">Квалифицированных </tspan><tspan x="0" y="35">специалистов</tspan></text>
    <text id="Лет_гарантии_на_бассейны" data-name="Лет гарантии на бассейны" class="cls-3" transform="translate(179 838)"><tspan x="0" y="15">Лет гарантии на </tspan><tspan x="0" y="35">бассейны</tspan></text>
    <text id="Месяца_гарантии_на_оборудование" data-name="Месяца гарантии 
на оборудование" class="cls-3" transform="translate(78 918)"><tspan x="0" y="15">Месяца гарантии </tspan><tspan x="0" y="35">на оборудование</tspan></text>
  </g>
</svg>
