<svg xmlns="http://www.w3.org/2000/svg" xmlns:xlink="http://www.w3.org/1999/xlink" viewBox="-13339.598 4716 1132.598 80">
  <defs>
    <style>
      .cls-1 {
        opacity: 0.5;
        fill: url(#linear-gradient);
      }

      .cls-2 {
        stroke: rgba(0,0,0,0);
        fill: url(#linear-gradient-2);
      }

      .cls-3 {
        fill: #1a1a1a;
        font-size: 16px;
        font-family: SegoeUI-Semilight, Segoe UI;
        font-weight: 300;
      }
    </style>
    <linearGradient id="linear-gradient" x1="0.945" y1="1" x2="0" y2="1" gradientUnits="objectBoundingBox">
      <stop offset="0" stop-color="#00c2ff"/>
      <stop offset="1" stop-color="#3e97db"/>
    </linearGradient>
    <linearGradient id="linear-gradient-2" x1="1.056" y1="1" xlink:href="#linear-gradient"/>
  </defs>
  <g id="цифры" transform="translate(-13475 3795)">
    <path id="Union_2" data-name="Union 2" class="cls-1" d="M-3257-3729.171l7.1-7.1a29.873,29.873,0,0,0,23.44,11.275,30.033,30.033,0,0,0,30-30,30.034,30.034,0,0,0-30-30,29.871,29.871,0,0,0-23.44,11.275l-7.1-7.1A39.948,39.948,0,0,1-3226.456-3795a40.045,40.045,0,0,1,40,40,40.046,40.046,0,0,1-40,40A39.951,39.951,0,0,1-3257-3729.171Zm-239,0,7.1-7.1A29.872,29.872,0,0,0-3465.457-3725a30.033,30.033,0,0,0,30-30,30.034,30.034,0,0,0-30-30,29.869,29.869,0,0,0-23.439,11.275l-7.1-7.1A39.948,39.948,0,0,1-3465.457-3795a40.046,40.046,0,0,1,40,40,40.046,40.046,0,0,1-40,40A39.948,39.948,0,0,1-3496-3729.171Zm-239,0,7.1-7.1a29.874,29.874,0,0,0,23.44,11.275,30.033,30.033,0,0,0,30-30,30.034,30.034,0,0,0-30-30,29.873,29.873,0,0,0-23.44,11.275l-7.1-7.1A39.948,39.948,0,0,1-3704.456-3795a40.045,40.045,0,0,1,40,40,40.045,40.045,0,0,1-40,40A39.946,39.946,0,0,1-3735-3729.171Zm-239,0,7.1-7.1a29.874,29.874,0,0,0,23.44,11.275,30.033,30.033,0,0,0,30-30,30.034,30.034,0,0,0-30-30,29.871,29.871,0,0,0-23.44,11.275l-7.1-7.1A39.949,39.949,0,0,1-3943.456-3795a40.046,40.046,0,0,1,40,40,40.046,40.046,0,0,1-40,40A39.951,39.951,0,0,1-3974-3729.171Zm-239,0,7.1-7.1A29.87,29.87,0,0,0-4182.457-3725a30.033,30.033,0,0,0,30-30,30.034,30.034,0,0,0-30-30,29.869,29.869,0,0,0-23.438,11.275l-7.105-7.1A39.95,39.95,0,0,1-4182.457-3795a40.046,40.046,0,0,1,40,40,40.046,40.046,0,0,1-40,40A39.946,39.946,0,0,1-4213-3729.171Z" transform="translate(4363.455 4716)"/>
    <path id="Union_2-2" data-name="Union 2" class="cls-2" d="M-3471.974-3741.806v-5.444a12.385,12.385,0,0,0,6.982,2.319,8.648,8.648,0,0,0,5.738-1.818,6.005,6.005,0,0,0,2.172-4.847,5.472,5.472,0,0,0-2.209-4.639,10.4,10.4,0,0,0-6.336-1.66q-1.417,0-5.738.293l1.245-18.409h17.236v4.834h-12.524l-.586,8.765q1.685-.1,3.052-.1,5.567,0,8.606,2.857a10.2,10.2,0,0,1,3.039,7.812,10.68,10.68,0,0,1-3.479,8.337q-3.479,3.138-9.558,3.138Q-3469.461-3740.365-3471.974-3741.806Zm-476.816-3.076q-3.065-4.469-3.064-12.916,0-9.276,3.2-14.039a10.438,10.438,0,0,1,9.228-4.76q11.548,0,11.548,17.944,0,8.887-3.259,13.562a10.49,10.49,0,0,1-9.119,4.675A9.776,9.776,0,0,1-3948.791-3744.881Zm2.723-13.159q0,13.135,6.25,13.134,6.152,0,6.153-13.354,0-13.818-6.031-13.819Q-3946.069-3772.079-3946.068-3758.041Zm240.5,16.845a11.231,11.231,0,0,1-3.686-2.112,9.512,9.512,0,0,1-2.418-3.259,10.034,10.034,0,0,1-.866-4.2,11.3,11.3,0,0,1,.379-2.93,9.426,9.426,0,0,1,1.135-2.612,9.161,9.161,0,0,1,1.9-2.148,9.426,9.426,0,0,1,2.686-1.537,10.387,10.387,0,0,1-3.613-3.26,7.707,7.707,0,0,1-1.343-4.406,8.06,8.06,0,0,1,.794-3.565,8.637,8.637,0,0,1,2.2-2.832,10.329,10.329,0,0,1,3.308-1.868,12.4,12.4,0,0,1,4.151-.672,12.394,12.394,0,0,1,4.187.684,10.507,10.507,0,0,1,3.32,1.88,8.494,8.494,0,0,1,2.185,2.832,8.111,8.111,0,0,1,.781,3.541,7.707,7.707,0,0,1-1.343,4.406,10.509,10.509,0,0,1-3.565,3.26,9.841,9.841,0,0,1,2.673,1.526,9.245,9.245,0,0,1,1.941,2.136,9.267,9.267,0,0,1,1.173,2.612,11.086,11.086,0,0,1,.39,2.954,10.144,10.144,0,0,1-.855,4.2,9.432,9.432,0,0,1-2.392,3.259,11.076,11.076,0,0,1-3.686,2.112,14.177,14.177,0,0,1-4.736.757A13.989,13.989,0,0,1-3705.567-3741.2Zm2.246-16.077a5.673,5.673,0,0,0-1.953,1.343,6.262,6.262,0,0,0-1.282,2.063,7.161,7.161,0,0,0-.464,2.612,7.737,7.737,0,0,0,.44,2.686,5.66,5.66,0,0,0,1.245,2.026,5.355,5.355,0,0,0,1.941,1.269,6.933,6.933,0,0,0,2.527.44,6.552,6.552,0,0,0,2.465-.451,5.571,5.571,0,0,0,1.941-1.294,6.009,6.009,0,0,0,1.282-2.026,7.213,7.213,0,0,0,.464-2.649,7.2,7.2,0,0,0-.439-2.527,6.221,6.221,0,0,0-1.245-2.063,5.888,5.888,0,0,0-1.941-1.391,6.064,6.064,0,0,0-2.526-.513A6.279,6.279,0,0,0-3703.321-3757.272Zm.4-14.551a4.637,4.637,0,0,0-1.55,1.11,5.077,5.077,0,0,0-1,1.649,5.6,5.6,0,0,0-.353,1.99,5.253,5.253,0,0,0,.39,2.038,5.324,5.324,0,0,0,1.05,1.636,4.735,4.735,0,0,0,1.551,1.086,4.709,4.709,0,0,0,1.916.39,4.594,4.594,0,0,0,1.917-.4,5.029,5.029,0,0,0,1.562-1.1,5.2,5.2,0,0,0,1.062-1.636,5.184,5.184,0,0,0,.391-2.014,5.493,5.493,0,0,0-.379-2.051,4.969,4.969,0,0,0-1.038-1.636,4.794,4.794,0,0,0-1.563-1.075,4.873,4.873,0,0,0-1.953-.39A4.869,4.869,0,0,0-3702.918-3771.823Zm-269.407,30.627a11.249,11.249,0,0,1-3.687-2.112,9.51,9.51,0,0,1-2.417-3.259,10.015,10.015,0,0,1-.866-4.2,11.3,11.3,0,0,1,.379-2.93,9.369,9.369,0,0,1,1.135-2.612,9.161,9.161,0,0,1,1.9-2.148,9.411,9.411,0,0,1,2.686-1.537,10.378,10.378,0,0,1-3.613-3.26,7.7,7.7,0,0,1-1.343-4.406,8.059,8.059,0,0,1,.793-3.565,8.653,8.653,0,0,1,2.2-2.832,10.329,10.329,0,0,1,3.308-1.868,12.4,12.4,0,0,1,4.151-.672,12.388,12.388,0,0,1,4.186.684,10.5,10.5,0,0,1,3.321,1.88,8.5,8.5,0,0,1,2.185,2.832,8.111,8.111,0,0,1,.781,3.541,7.708,7.708,0,0,1-1.343,4.406,10.521,10.521,0,0,1-3.565,3.26,9.841,9.841,0,0,1,2.673,1.526,9.267,9.267,0,0,1,1.941,2.136,9.23,9.23,0,0,1,1.172,2.612,11.047,11.047,0,0,1,.391,2.954,10.14,10.14,0,0,1-.855,4.2,9.429,9.429,0,0,1-2.392,3.259,11.081,11.081,0,0,1-3.687,2.112,14.169,14.169,0,0,1-4.736.757A13.984,13.984,0,0,1-3972.326-3741.2Zm2.246-16.077a5.664,5.664,0,0,0-1.953,1.343,6.262,6.262,0,0,0-1.282,2.063,7.166,7.166,0,0,0-.464,2.612,7.737,7.737,0,0,0,.44,2.686,5.66,5.66,0,0,0,1.245,2.026,5.351,5.351,0,0,0,1.94,1.269,6.94,6.94,0,0,0,2.527.44,6.552,6.552,0,0,0,2.466-.451,5.583,5.583,0,0,0,1.941-1.294,6.027,6.027,0,0,0,1.282-2.026,7.213,7.213,0,0,0,.464-2.649,7.2,7.2,0,0,0-.44-2.527,6.242,6.242,0,0,0-1.245-2.063,5.888,5.888,0,0,0-1.941-1.391,6.072,6.072,0,0,0-2.527-.513A6.274,6.274,0,0,0-3970.08-3757.272Zm.4-14.551a4.627,4.627,0,0,0-1.55,1.11,5.06,5.06,0,0,0-1,1.649,5.583,5.583,0,0,0-.354,1.99,5.253,5.253,0,0,0,.391,2.038,5.306,5.306,0,0,0,1.05,1.636,4.731,4.731,0,0,0,1.55,1.086,4.717,4.717,0,0,0,1.917.39,4.589,4.589,0,0,0,1.916-.4,5.019,5.019,0,0,0,1.563-1.1,5.218,5.218,0,0,0,1.062-1.636,5.184,5.184,0,0,0,.391-2.014,5.493,5.493,0,0,0-.379-2.051,4.969,4.969,0,0,0-1.038-1.636,4.794,4.794,0,0,0-1.563-1.075,4.879,4.879,0,0,0-1.953-.39A4.866,4.866,0,0,0-3969.677-3771.823ZM-3220.694-3741v-7.69h-15.845v-4.76q2.148-2.418,4.407-5.237t4.345-5.763q2.089-2.942,3.87-5.9a53.837,53.837,0,0,0,3-5.665h5.712v22.608h5.2v4.712h-5.2v7.69Zm-5.261-18.75q-2.6,3.563-4.871,6.347h10.132v-14.7A81.26,81.26,0,0,1-3225.955-3759.75Zm-37.219,18.75v-2.71a10.176,10.176,0,0,1,.464-3.113,12.58,12.58,0,0,1,1.245-2.734,15.261,15.261,0,0,1,1.831-2.418q1.051-1.136,2.246-2.2t2.442-2.052q1.245-.987,2.441-1.99,1.123-.951,2.052-1.868a12.468,12.468,0,0,0,1.587-1.892,8.539,8.539,0,0,0,1.025-2.063,7.336,7.336,0,0,0,.366-2.355,6.347,6.347,0,0,0-.427-2.429,4.717,4.717,0,0,0-1.2-1.734,5.1,5.1,0,0,0-1.819-1.05,7.15,7.15,0,0,0-2.295-.354,10.6,10.6,0,0,0-4.37,1,14.993,14.993,0,0,0-4.273,3v-5.444a17.753,17.753,0,0,1,2.174-1.4,14.739,14.739,0,0,1,2.271-1,13.931,13.931,0,0,1,2.466-.6,18.471,18.471,0,0,1,2.758-.2,13.954,13.954,0,0,1,4.3.623,9.159,9.159,0,0,1,3.3,1.831,8.06,8.06,0,0,1,2.112,3.016,10.821,10.821,0,0,1,.744,4.151,12.937,12.937,0,0,1-.525,3.82,12.381,12.381,0,0,1-1.489,3.162,16.457,16.457,0,0,1-2.333,2.782q-1.366,1.319-3.052,2.71-1.415,1.148-2.819,2.235t-2.527,2.123a11.854,11.854,0,0,0-1.819,2.076,3.721,3.721,0,0,0-.7,2.087v.122h15.8V-3741Zm-237.95,0v-2.71a10.184,10.184,0,0,1,.464-3.113,12.58,12.58,0,0,1,1.245-2.734,15.18,15.18,0,0,1,1.832-2.418q1.049-1.136,2.245-2.2t2.442-2.052q1.244-.987,2.442-1.99,1.123-.951,2.051-1.868a12.47,12.47,0,0,0,1.587-1.892,8.547,8.547,0,0,0,1.025-2.063,7.329,7.329,0,0,0,.366-2.355,6.347,6.347,0,0,0-.427-2.429,4.72,4.72,0,0,0-1.2-1.734,5.113,5.113,0,0,0-1.818-1.05,7.158,7.158,0,0,0-2.3-.354,10.589,10.589,0,0,0-4.369,1,14.962,14.962,0,0,0-4.272,3v-5.444a17.819,17.819,0,0,1,2.173-1.4,14.788,14.788,0,0,1,2.27-1,13.955,13.955,0,0,1,2.466-.6,18.47,18.47,0,0,1,2.759-.2,13.965,13.965,0,0,1,4.3.623,9.152,9.152,0,0,1,3.3,1.831,8.046,8.046,0,0,1,2.112,3.016,10.821,10.821,0,0,1,.745,4.151,12.9,12.9,0,0,1-.525,3.82,12.381,12.381,0,0,1-1.489,3.162,16.448,16.448,0,0,1-2.331,2.782q-1.367,1.319-3.052,2.71-1.417,1.148-2.82,2.235t-2.527,2.123a11.834,11.834,0,0,0-1.818,2.076,3.713,3.713,0,0,0-.7,2.087v.122h15.8V-3741Zm-491.16,0v-28.857a17.98,17.98,0,0,1-3.307,1.868,27.284,27.284,0,0,1-4.041,1.355v-4.834q1.417-.464,2.735-.977t2.6-1.147q1.282-.634,2.588-1.417t2.7-1.782h2.393V-3741Zm-192.613,0a60.466,60.466,0,0,1,1.672-7.507q1.087-3.748,2.552-7.5t3.283-7.531q1.819-3.784,3.87-7.642H-4190.1v-4.834h23.389v2.833q-2.2,4.027-4.15,7.971t-3.541,7.923q-1.586,3.98-2.758,8.019a63.515,63.515,0,0,0-1.807,8.264Z" transform="translate(4326 4720)"/>
    <text id="Лет_на_рынке" data-name="Лет
на рынке" class="cls-3" transform="translate(164 941)"><tspan x="0" y="17">Лет</tspan><tspan x="0" y="38">на рынке</tspan></text>
    <text id="Бассейнов_сдано_в_эксплуатацию" data-name="Бассейнов сдано в эксплуатацию" class="cls-3" transform="translate(403 941)"><tspan x="0" y="17">Бассейнов сдано в </tspan><tspan x="0" y="38">эксплуатацию</tspan></text>
    <text id="Квалифицированных_специалистов" data-name="Квалифицированных специалистов" class="cls-3" transform="translate(642 941)"><tspan x="0" y="17">Квалифицированных </tspan><tspan x="0" y="38">специалистов</tspan></text>
    <text id="Лет_гарантии_на_бассейны" data-name="Лет гарантии на бассейны" class="cls-3" transform="translate(881 941)"><tspan x="0" y="17">Лет гарантии на </tspan><tspan x="0" y="38">бассейны</tspan></text>
    <text id="Месяца_гарантии_на_оборудование" data-name="Месяца гарантии 
на оборудование" class="cls-3" transform="translate(1120 941)"><tspan x="0" y="17">Месяца гарантии </tspan><tspan x="0" y="38">на оборудование</tspan></text>
  </g>
</svg>
