<svg xmlns="http://www.w3.org/2000/svg" xmlns:xlink="http://www.w3.org/1999/xlink" viewBox="1266 -219 391.658 124.84">
  <defs>
    <style>
      .cls-1 {
        fill: url(#linear-gradient);
      }
    </style>
    <linearGradient id="linear-gradient" y1="0.5" x2="1" y2="0.5" gradientUnits="objectBoundingBox">
      <stop offset="0" stop-color="#0091ff"/>
      <stop offset="1" stop-color="#0ef"/>
    </linearGradient>
  </defs>
  <path id="Path_28" data-name="Path 28" class="cls-1" d="M197,123.06a12.84,12.84,0,0,1-4.92-5,14.24,14.24,0,0,1-1.78-7.07,14.78,14.78,0,0,1,1.73-7.18,12.42,12.42,0,0,1,4.83-4.95,13.83,13.83,0,0,1,7-1.78,12.43,12.43,0,0,1,9.8,4.5,1.87,1.87,0,0,1,.5,1.3,2.2,2.2,0,0,1-1.1,1.85,2,2,0,0,1-1.15.35,2.51,2.51,0,0,1-2-.9,8,8,0,0,0-2.72-2,8.6,8.6,0,0,0-3.37-.62,8.15,8.15,0,0,0-6.25,2.58,9.61,9.61,0,0,0-2.4,6.83,10.15,10.15,0,0,0,1.13,4.82,8.28,8.28,0,0,0,3.15,3.33,8.9,8.9,0,0,0,4.63,1.2,8.31,8.31,0,0,0,5.5-1.75,3.13,3.13,0,0,1,1.85-.7,2.12,2.12,0,0,1,1.3.45,2.33,2.33,0,0,1,1,1.8,1.87,1.87,0,0,1-.6,1.35,12.7,12.7,0,0,1-9,3.35A14.05,14.05,0,0,1,197,123.06Zm30,0a12.54,12.54,0,0,1-4.9-4.92,15.58,15.58,0,0,1,0-14.35,12.55,12.55,0,0,1,4.9-4.92,14.3,14.3,0,0,1,7.15-1.78,14.07,14.07,0,0,1,7.07,1.78,12.77,12.77,0,0,1,4.9,4.92,15.48,15.48,0,0,1,0,14.35,12.6,12.6,0,0,1-4.87,4.92,15.24,15.24,0,0,1-14.28,0Zm11.72-3.92a8.28,8.28,0,0,0,3.15-3.33A10.15,10.15,0,0,0,243,111a10.3,10.3,0,0,0-1.12-4.85,8.25,8.25,0,0,0-3.15-3.35,9.32,9.32,0,0,0-9.15,0,8.42,8.42,0,0,0-3.17,3.35A10.11,10.11,0,0,0,225.3,111a10,10,0,0,0,1.15,4.82,8.45,8.45,0,0,0,3.17,3.33,9.32,9.32,0,0,0,9.15,0Zm52.55-19.25q2.67,2.85,2.67,8v14.3a2.52,2.52,0,0,1-.7,1.83,2.56,2.56,0,0,1-4.4-1.83v-14.3a6.39,6.39,0,0,0-1.52-4.62,5.41,5.41,0,0,0-4.08-1.58,5.59,5.59,0,0,0-4.28,1.8,6.49,6.49,0,0,0-1.67,4.6v14.1a2.52,2.52,0,0,1-.7,1.83,2.56,2.56,0,0,1-4.4-1.83v-14.3a6.4,6.4,0,0,0-1.53-4.62,5.41,5.41,0,0,0-4.08-1.58,5.64,5.64,0,0,0-4.32,1.8,6.49,6.49,0,0,0-1.68,4.6v14.1a2.52,2.52,0,0,1-.7,1.83,2.56,2.56,0,0,1-4.4-1.83V99.91a2.45,2.45,0,0,1,.72-1.85,2.52,2.52,0,0,1,1.83-.7,2.48,2.48,0,0,1,1.8.67,2.52,2.52,0,0,1,.75,1.78,9.19,9.19,0,0,1,3.1-2,10.36,10.36,0,0,1,3.9-.72,10,10,0,0,1,4.58,1,8.78,8.78,0,0,1,3.33,2.93,10.43,10.43,0,0,1,3.75-2.9,11.67,11.67,0,0,1,5-1,9.19,9.19,0,0,1,7.08,2.79Zm18.42-7.85A7,7,0,0,0,308,97v1.35h5.1a2.41,2.41,0,0,1,1.7.6,2.08,2.08,0,0,1,.65,1.6,2,2,0,0,1-.65,1.5,2.41,2.41,0,0,1-1.7.6H308v19.5a2.5,2.5,0,0,1-.7,1.85,2.63,2.63,0,0,1-2,.7,2.39,2.39,0,0,1-1.73-.7,2.45,2.45,0,0,1-.72-1.85v-19.5H300.8a2.41,2.41,0,0,1-1.7-.6,2,2,0,0,1-.65-1.5,2.07,2.07,0,0,1,.65-1.6,2.41,2.41,0,0,1,1.7-.6h2.15V97.5a13,13,0,0,1,1.42-6.22,10.22,10.22,0,0,1,4-4.15,11.62,11.62,0,0,1,5.88-1.47,2.63,2.63,0,0,1,1.83.65,2.24,2.24,0,0,1,0,3.3,2.63,2.63,0,0,1-1.83.65,5.82,5.82,0,0,0-4.5,1.8Zm15.3,31a12.54,12.54,0,0,1-4.9-4.92,15.58,15.58,0,0,1,0-14.35,12.55,12.55,0,0,1,4.9-4.92,14.3,14.3,0,0,1,7.15-1.78,14.07,14.07,0,0,1,7.07,1.78,12.77,12.77,0,0,1,4.9,4.92,15.48,15.48,0,0,1,0,14.35,12.6,12.6,0,0,1-4.87,4.92,15.24,15.24,0,0,1-14.28,0Zm11.72-3.92a8.28,8.28,0,0,0,3.15-3.33A10.15,10.15,0,0,0,341,111a10.3,10.3,0,0,0-1.12-4.85,8.25,8.25,0,0,0-3.15-3.35,9.32,9.32,0,0,0-9.15,0,8.42,8.42,0,0,0-3.17,3.35A10.11,10.11,0,0,0,323.3,111a10,10,0,0,0,1.15,4.82,8.45,8.45,0,0,0,3.17,3.33,9.32,9.32,0,0,0,9.15,0ZM371.1,97.81a2.33,2.33,0,0,1,1.5,2,1.759,1.759,0,0,1,0,.5,1.93,1.93,0,0,1-2,1.6,4.129,4.129,0,0,1-.75-.1,19.72,19.72,0,0,0-3.25-.35,9.43,9.43,0,0,0-5.8,1.65,5.27,5.27,0,0,0-2.2,4.45v14.6a2.57,2.57,0,0,1-.62,1.85,2.49,2.49,0,0,1-1.87.65,2.56,2.56,0,0,1-1.85-.62,2.48,2.48,0,0,1-.65-1.87V99.81a2.27,2.27,0,0,1,2.5-2.5,2.21,2.21,0,0,1,2.5,2.5v1a10.54,10.54,0,0,1,3.7-2.75,11.21,11.21,0,0,1,4.7-1,8.91,8.91,0,0,1,4.09.75ZM391,120.36a2.6,2.6,0,0,1,.63,1.8,2.25,2.25,0,0,1-.83,1.8,3.16,3.16,0,0,1-2.12.7h-.9a8.24,8.24,0,0,1-4.48-1.27,8.88,8.88,0,0,1-3.17-3.48,10.52,10.52,0,0,1-1.15-5v-12.3h-2.3a2.41,2.41,0,0,1-1.7-.6,2,2,0,0,1-.65-1.5,2.07,2.07,0,0,1,.65-1.6,2.41,2.41,0,0,1,1.7-.6H379v-7.2a2.5,2.5,0,0,1,5,0v7.2h4.25a2.41,2.41,0,0,1,1.7.6,2.07,2.07,0,0,1,.65,1.6,2,2,0,0,1-.65,1.5,2.41,2.41,0,0,1-1.7.6H384V115a5.13,5.13,0,0,0,1.1,3.35,3.36,3.36,0,0,0,2.7,1.35h1.7a2,2,0,0,1,1.5.66ZM62.33,5.47a40.37,40.37,0,0,1,14.85,15A41.83,41.83,0,0,1,82.65,41.7V75.15a7.65,7.65,0,0,1-15.3,0V69.6a36.88,36.88,0,0,1-29,13.65,36.61,36.61,0,0,1-19.58-5.4A37.87,37.87,0,0,1,5,62.92,44.76,44.76,0,0,1,0,41.7,42.27,42.27,0,0,1,5.4,20.47a39.45,39.45,0,0,1,14.92-15A41.53,41.53,0,0,1,41.4,0,40.73,40.73,0,0,1,62.33,5.47ZM55,66.07A25.94,25.94,0,0,0,64.5,56,29.6,29.6,0,0,0,68,41.7a30,30,0,0,0-3.5-14.4A25.67,25.67,0,0,0,41.4,13.5a25.72,25.72,0,0,0-13.58,3.67,26.36,26.36,0,0,0-9.6,10.13A29.51,29.51,0,0,0,14.7,41.7,29.08,29.08,0,0,0,18.23,56a26.47,26.47,0,0,0,9.6,10A25.69,25.69,0,0,0,41.4,69.75,25.7,25.7,0,0,0,55,66.07ZM163.6,5.47a40.37,40.37,0,0,1,14.85,15A41.83,41.83,0,0,1,183.9,41.7V117a7.8,7.8,0,0,1-13.12,5.55A7.36,7.36,0,0,1,168.6,117V69.6a37.423,37.423,0,0,1-62.33-6.67,44.76,44.76,0,0,1-5-21.23,42.27,42.27,0,0,1,5.4-21.22,39.45,39.45,0,0,1,14.92-15A41.53,41.53,0,0,1,142.65,0a40.73,40.73,0,0,1,20.92,5.47Zm-7.35,60.6a25.94,25.94,0,0,0,9.52-10A29.6,29.6,0,0,0,169.2,41.7a30,30,0,0,0-3.45-14.4,26.21,26.21,0,0,0-46.27.01,29.51,29.51,0,0,0-3.53,14.4A29.08,29.08,0,0,0,119.47,56a26.47,26.47,0,0,0,9.6,10,26.91,26.91,0,0,0,27.15,0ZM284.1,2.55a7.51,7.51,0,0,1,2.1,5.55V75a7.56,7.56,0,0,1-2.1,5.47A7.69,7.69,0,0,1,270.9,75V73.35a33.31,33.31,0,0,1-11.4,7.42,37.79,37.79,0,0,1-14.1,2.63,38.19,38.19,0,0,1-18.6-4.5,31.67,31.67,0,0,1-12.9-13.12q-4.65-8.62-4.65-20.77V8.1a7.65,7.65,0,1,1,15.3,0V45q0,12.15,6.52,18.38T248.4,69.6A25.58,25.58,0,0,0,259.87,67a20.34,20.34,0,0,0,8.1-6.9,17.08,17.08,0,0,0,2.92-9.75V8.1a7.36,7.36,0,0,1,2.17-5.55,8.28,8.28,0,0,1,11,0Zm87.22,2.92a40.37,40.37,0,0,1,14.85,15,41.83,41.83,0,0,1,5.48,21.22V75.15a7.65,7.65,0,0,1-15.3,0V69.6A37.445,37.445,0,0,1,314,62.92a44.76,44.76,0,0,1-5-21.23,42.27,42.27,0,0,1,5.4-21.22,39.45,39.45,0,0,1,14.92-15A41.53,41.53,0,0,1,350.4,0a40.73,40.73,0,0,1,20.92,5.47ZM364,66.07a25.94,25.94,0,0,0,9.52-10,29.6,29.6,0,0,0,3.45-14.33,30,30,0,0,0-3.45-14.4,26.21,26.21,0,0,0-46.27.01,29.51,29.51,0,0,0-3.53,14.4A29.08,29.08,0,0,0,327.22,56a26.47,26.47,0,0,0,9.6,10,26.91,26.91,0,0,0,27.15,0Z" transform="translate(1266.005 -218.996)"/>
</svg>
