<svg xmlns="http://www.w3.org/2000/svg" viewBox="3144 -1158 211 67">
  <defs>
    <style>
      .cls-1 {
        fill: #333;
      }
    </style>
  </defs>
  <g id="Group_785" data-name="Group 785" transform="translate(2074 -1206)">
    <g id="логотип_марбус" data-name="логотип марбус" transform="translate(3590.5 -1173)">
      <g id="Path_51">
        <path id="Path_655" data-name="Path 655" class="cls-1" d="M-2309.5,1288h-211v-67h211Zm-207-4h203v-59h-203Z"/>
      </g>
      <g id="Group_15" transform="translate(0 0.9)">
        <g id="Group_575" data-name="Group 575">
          <path id="Path_656" data-name="Path 656" class="cls-1" d="M-2504.6,1276.3v-5h1.4a2.016,2.016,0,0,1,1.1.3,3.043,3.043,0,0,1,.8.8,2.133,2.133,0,0,1,.3,1.2v.5a2.663,2.663,0,0,1-.3,1.2,2.046,2.046,0,0,1-.8.8,2.016,2.016,0,0,1-1.1.3h-1.4Zm.4-4.6v4.3h.9a2.106,2.106,0,0,0,1.3-.5,1.624,1.624,0,0,0,.5-1.4v-.4a2.168,2.168,0,0,0-.5-1.4,1.656,1.656,0,0,0-1.2-.5h-1Z"/>
          <path id="Path_657" data-name="Path 657" class="cls-1" d="M-2495.5,1276.3h-.4v-5h.4Z"/>
          <path id="Path_658" data-name="Path 658" class="cls-1" d="M-2486.5,1275.7a1.276,1.276,0,0,1-.7.5,3.554,3.554,0,0,1-1,.2,1.689,1.689,0,0,1-1-.3,2.7,2.7,0,0,1-.7-.8,2.133,2.133,0,0,1-.3-1.2v-.6a2.544,2.544,0,0,1,.5-1.6,1.678,1.678,0,0,1,1.4-.6,1.594,1.594,0,0,1,1.2.4,1.976,1.976,0,0,1,.6,1.1h-.4a1.508,1.508,0,0,0-.4-.8,1.222,1.222,0,0,0-.9-.3,1.433,1.433,0,0,0-1.1.5,1.955,1.955,0,0,0-.4,1.4v.6a2.962,2.962,0,0,0,.2,1,1.344,1.344,0,0,0,.6.7,1.078,1.078,0,0,0,.8.2,2,2,0,0,0,.9-.2,1.376,1.376,0,0,0,.4-.3v-1.3h-1.3v-.4h1.8v1.8Z"/>
          <path id="Path_659" data-name="Path 659" class="cls-1" d="M-2480.7,1276.3h-.4v-5h.4Z"/>
          <path id="Path_660" data-name="Path 660" class="cls-1" d="M-2472,1271.7h-1.7v4.6h-.4v-4.6h-1.7v-.4h3.8v.4Z"/>
          <path id="Path_661" data-name="Path 661" class="cls-1" d="M-2464.7,1274.9h-2.3l-.5,1.4h-.4l1.9-5h.4l1.9,5h-.4Zm-2.2-.4h2l-1-2.7Z"/>
          <path id="Path_662" data-name="Path 662" class="cls-1" d="M-2458.6,1275.9h2.5v.4h-2.9v-5h.4Z"/>
          <path id="Path_663" data-name="Path 663" class="cls-1" d="M-2444.9,1271.3l1.8,4.4,1.8-4.4h.6v5h-.4v-4.4l-1.9,4.4h-.3l-1.8-4.4v4.4h-.4v-5Z"/>
          <path id="Path_664" data-name="Path 664" class="cls-1" d="M-2432.6,1274.9h-2.3l-.5,1.4h-.4l1.9-5h.4l1.9,5h-.4Zm-2.1-.4h2l-1-2.7Z"/>
          <path id="Path_665" data-name="Path 665" class="cls-1" d="M-2425,1274.2h-1.4v2.1h-.4v-5h1.6a1.594,1.594,0,0,1,1.2.4,1.366,1.366,0,0,1,.4,1.1,1.136,1.136,0,0,1-.3.8,1.577,1.577,0,0,1-.8.5l1.2,2.1h-.4Zm-1.5-.3h1.3a1.4,1.4,0,0,0,.9-.3.83.83,0,0,0,.3-.8.985.985,0,0,0-.3-.8,1.222,1.222,0,0,0-.9-.3h-1.2v2.2Z"/>
          <path id="Path_666" data-name="Path 666" class="cls-1" d="M-2417.2,1273.8l-.7.7v1.8h-.4v-5h.4v2.7l2.5-2.7h.5l-2.1,2.2,2.2,2.8h-.5Z"/>
          <path id="Path_667" data-name="Path 667" class="cls-1" d="M-2407.1,1273.9h-2.3v2h2.7v.4h-3.1v-5h3.1v.4h-2.7v1.9h2.3Z"/>
          <path id="Path_668" data-name="Path 668" class="cls-1" d="M-2398.4,1271.7h-1.7v4.6h-.4v-4.6h-1.7v-.4h3.8v.4Z"/>
          <path id="Path_669" data-name="Path 669" class="cls-1" d="M-2393,1276.3h-.4v-5h.4Z"/>
          <path id="Path_670" data-name="Path 670" class="cls-1" d="M-2383.9,1276.3h-.4l-2.9-4.3v4.3h-.4v-5h.4l2.9,4.3v-4.3h.4Z"/>
          <path id="Path_671" data-name="Path 671" class="cls-1" d="M-2375,1275.7a1.276,1.276,0,0,1-.7.5,3.554,3.554,0,0,1-1,.2,1.689,1.689,0,0,1-1-.3,2.693,2.693,0,0,1-.7-.8,2.133,2.133,0,0,1-.3-1.2v-.6a2.544,2.544,0,0,1,.5-1.6,1.678,1.678,0,0,1,1.4-.6,1.594,1.594,0,0,1,1.2.4,1.976,1.976,0,0,1,.6,1.1h-.4a1.508,1.508,0,0,0-.4-.8,1.222,1.222,0,0,0-.9-.3,1.433,1.433,0,0,0-1.1.5,1.955,1.955,0,0,0-.4,1.4v.6a2.962,2.962,0,0,0,.2,1,1.344,1.344,0,0,0,.6.7,1.078,1.078,0,0,0,.8.2,2,2,0,0,0,.9-.2,1.376,1.376,0,0,0,.4-.3v-1.3h-1.3v-.4h1.8v1.8Z"/>
          <path id="Path_672" data-name="Path 672" class="cls-1" d="M-2361.2,1275.1a.908.908,0,0,0-.3-.7,2.824,2.824,0,0,0-1.1-.5,2.826,2.826,0,0,1-1.1-.5,1.231,1.231,0,0,1-.5-1,1.05,1.05,0,0,1,.5-.9,2.144,2.144,0,0,1,1.2-.4,2.918,2.918,0,0,1,.9.2,1.025,1.025,0,0,1,.6.5,1.882,1.882,0,0,1,.2.8h-.4a1.136,1.136,0,0,0-.3-.8,1.222,1.222,0,0,0-.9-.3,1.222,1.222,0,0,0-.9.3.908.908,0,0,0-.3.7.6.6,0,0,0,.3.6,1.88,1.88,0,0,0,1,.4,1.879,1.879,0,0,1,1,.4,1.206,1.206,0,0,1,.5.5,1.42,1.42,0,0,1,.2.6,1.05,1.05,0,0,1-.5.9,2.145,2.145,0,0,1-1.2.4,2.96,2.96,0,0,1-1-.2,1.793,1.793,0,0,1-.7-.5,1.078,1.078,0,0,1-.2-.8h.4a.812.812,0,0,0,.4.8,1.69,1.69,0,0,0,1,.3,1.222,1.222,0,0,0,.9-.3C-2361.3,1275.6-2361.2,1275.3-2361.2,1275.1Z"/>
          <path id="Path_673" data-name="Path 673" class="cls-1" d="M-2352.4,1271.7h-1.7v4.6h-.4v-4.6h-1.7v-.4h3.8v.4Z"/>
          <path id="Path_674" data-name="Path 674" class="cls-1" d="M-2344.1,1271.3v3.4a2.924,2.924,0,0,1-.2.9c-.1.3-.4.4-.6.6a2.921,2.921,0,0,1-.9.2,2.01,2.01,0,0,1-1.3-.4,1.346,1.346,0,0,1-.5-1.2v-3.4h.4v3.4a1.284,1.284,0,0,0,.4,1,1.493,1.493,0,0,0,1,.3,1.689,1.689,0,0,0,1-.3,1.528,1.528,0,0,0,.4-1v-3.4h.3Z"/>
          <path id="Path_675" data-name="Path 675" class="cls-1" d="M-2338.9,1276.3v-5h1.4a2.016,2.016,0,0,1,1.1.3,3.043,3.043,0,0,1,.8.8,2.133,2.133,0,0,1,.3,1.2v.5a2.663,2.663,0,0,1-.3,1.2,2.046,2.046,0,0,1-.8.8,2.016,2.016,0,0,1-1.1.3h-1.4Zm.4-4.6v4.3h.9a2.106,2.106,0,0,0,1.3-.5,1.624,1.624,0,0,0,.5-1.4v-.4a2.168,2.168,0,0,0-.5-1.4,1.656,1.656,0,0,0-1.2-.5h-1Z"/>
          <path id="Path_676" data-name="Path 676" class="cls-1" d="M-2329.7,1276.3h-.4v-5h.4Z"/>
          <path id="Path_677" data-name="Path 677" class="cls-1" d="M-2320.6,1274.1a3.733,3.733,0,0,1-.2,1.2,2.7,2.7,0,0,1-.7.8,1.689,1.689,0,0,1-1,.3,1.815,1.815,0,0,1-1.4-.6,2.311,2.311,0,0,1-.5-1.7v-.5a3.733,3.733,0,0,1,.2-1.2,2.7,2.7,0,0,1,.7-.8,1.69,1.69,0,0,1,1-.3,1.689,1.689,0,0,1,1,.3,1.852,1.852,0,0,1,.7.8,3.5,3.5,0,0,1,.3,1.2v.5Zm-.4-.6a1.956,1.956,0,0,0-.4-1.4,1.433,1.433,0,0,0-1.1-.5,1.433,1.433,0,0,0-1.1.5,1.955,1.955,0,0,0-.4,1.4v.5a1.956,1.956,0,0,0,.4,1.4,1.433,1.433,0,0,0,1.1.5,1.433,1.433,0,0,0,1.1-.5,1.955,1.955,0,0,0,.4-1.4Z"/>
        </g>
        <g id="Group_576" data-name="Group 576">
          <path id="Path_678" data-name="Path 678" class="cls-1" d="M-2497.3,1232.9l8.4,23.7,8.4-23.7h8.8v32.7h-6.8v-8.9l.7-15.4-8.8,24.4h-4.6l-8.8-24.3.7,15.4v8.9h-6.7V1233h8.7Z"/>
          <path id="Path_679" data-name="Path 679" class="cls-1" d="M-2446.9,1258.9h-11.8l-2.2,6.7h-7.2l12.2-32.7h6.2l12.2,32.7h-7.2Zm-10-5.5h8.2l-4.1-12.2Z"/>
          <path id="Path_680" data-name="Path 680" class="cls-1" d="M-2422.3,1253.6h-5.4v12h-6.7v-32.7h12.2c3.9,0,6.8.9,8.9,2.6a8.9,8.9,0,0,1,3.1,7.3,10.809,10.809,0,0,1-1.4,5.6,10,10,0,0,1-4.4,3.6l7.1,13.4v.3h-7.2Zm-5.4-5.4h5.4a5.262,5.262,0,0,0,3.9-1.3,4.741,4.741,0,0,0,1.4-3.6,4.687,4.687,0,0,0-1.3-3.6,5.808,5.808,0,0,0-4-1.3h-5.4v9.8Z"/>
          <path id="Path_681" data-name="Path 681" class="cls-1" d="M-2405.1,1265.6v-32.7h11.5c4,0,7,.8,9,2.3,2.1,1.5,3.1,3.7,3.1,6.7a7.393,7.393,0,0,1-1.2,4.2,7.61,7.61,0,0,1-3.4,2.7,7.26,7.26,0,0,1,4,2.5,7.3,7.3,0,0,1,1.4,4.7c0,3.1-1,5.5-3,7.1s-4.9,2.4-8.6,2.5h-12.8Zm6.8-19h5c3.4-.1,5.1-1.4,5.1-4.1a3.693,3.693,0,0,0-1.3-3.2,6.52,6.52,0,0,0-4.1-1h-4.7Zm0,4.8v8.8h5.8a5.824,5.824,0,0,0,3.7-1.1,3.871,3.871,0,0,0,1.3-3.1c0-3-1.5-4.5-4.6-4.6h-6.2Z"/>
          <path id="Path_682" data-name="Path 682" class="cls-1" d="M-2351,1232.9v21.5a10.863,10.863,0,0,1-3.4,8.5c-2.2,2.1-5.3,3.1-9.2,3.1-3.8,0-6.9-1-9.1-3a10.764,10.764,0,0,1-3.4-8.3v-21.8h6.7v21.6a6.47,6.47,0,0,0,1.5,4.7,5.767,5.767,0,0,0,4.3,1.5c3.8,0,5.7-2,5.8-6v-21.8h6.8Z"/>
          <path id="Path_683" data-name="Path 683" class="cls-1" d="M-2328.5,1257a3.236,3.236,0,0,0-1.3-2.9,17.775,17.775,0,0,0-4.9-2.2,41.433,41.433,0,0,1-5.5-2.2c-3.7-2-5.6-4.7-5.6-8.1a7.752,7.752,0,0,1,1.5-4.7,8.9,8.9,0,0,1,4.3-3.2,16.076,16.076,0,0,1,6.3-1.2,13.768,13.768,0,0,1,6.2,1.3,10.064,10.064,0,0,1,4.3,3.6,9.407,9.407,0,0,1,1.5,5.3h-6.7a4.514,4.514,0,0,0-1.4-3.5,5.972,5.972,0,0,0-4-1.2,6.128,6.128,0,0,0-3.8,1,3.368,3.368,0,0,0-1.4,2.8,3.063,3.063,0,0,0,1.6,2.7,17.781,17.781,0,0,0,4.7,2c3.8,1.2,6.6,2.6,8.4,4.3a8.3,8.3,0,0,1,2.6,6.4,8.2,8.2,0,0,1-3.2,6.7c-2.1,1.6-5,2.4-8.6,2.4a17.354,17.354,0,0,1-6.9-1.4,10.581,10.581,0,0,1-4.7-3.8,9.682,9.682,0,0,1-1.6-5.6h6.8c0,3.6,2.2,5.4,6.5,5.4a6.128,6.128,0,0,0,3.8-1A4.175,4.175,0,0,0-2328.5,1257Z"/>
        </g>
      </g>
    </g>
  </g>
</svg>
