<svg xmlns="http://www.w3.org/2000/svg" xmlns:xlink="http://www.w3.org/1999/xlink" viewBox="-13324.545 4716 1026.545 80">
  <defs>
    <style>
      .cls-1 {
        opacity: 0.5;
        fill: url(#linear-gradient);
      }
    </style>
    <linearGradient id="linear-gradient" x1="0.945" y1="1" x2="0" y2="1" gradientUnits="objectBoundingBox">
      <stop offset="0" stop-color="#00c2ff"/>
      <stop offset="1" stop-color="#3e97db"/>
    </linearGradient>
  </defs>
  <path id="Union_2" data-name="Union 2" class="cls-1" d="M-3257-3729.171l7.1-7.1a29.873,29.873,0,0,0,23.44,11.275,30.033,30.033,0,0,0,30-30,30.034,30.034,0,0,0-30-30,29.871,29.871,0,0,0-23.44,11.275l-7.1-7.1A39.948,39.948,0,0,1-3226.456-3795a40.045,40.045,0,0,1,40,40,40.046,40.046,0,0,1-40,40A39.951,39.951,0,0,1-3257-3729.171Zm-239,0,7.1-7.1A29.872,29.872,0,0,0-3465.457-3725a30.033,30.033,0,0,0,30-30,30.034,30.034,0,0,0-30-30,29.869,29.869,0,0,0-23.439,11.275l-7.1-7.1A39.948,39.948,0,0,1-3465.457-3795a40.046,40.046,0,0,1,40,40,40.046,40.046,0,0,1-40,40A39.948,39.948,0,0,1-3496-3729.171Zm-239,0,7.1-7.1a29.874,29.874,0,0,0,23.44,11.275,30.033,30.033,0,0,0,30-30,30.034,30.034,0,0,0-30-30,29.873,29.873,0,0,0-23.44,11.275l-7.1-7.1A39.948,39.948,0,0,1-3704.456-3795a40.045,40.045,0,0,1,40,40,40.045,40.045,0,0,1-40,40A39.946,39.946,0,0,1-3735-3729.171Zm-239,0,7.1-7.1a29.874,29.874,0,0,0,23.44,11.275,30.033,30.033,0,0,0,30-30,30.034,30.034,0,0,0-30-30,29.871,29.871,0,0,0-23.44,11.275l-7.1-7.1A39.949,39.949,0,0,1-3943.456-3795a40.046,40.046,0,0,1,40,40,40.046,40.046,0,0,1-40,40A39.951,39.951,0,0,1-3974-3729.171Zm-239,0,7.1-7.1A29.87,29.87,0,0,0-4182.457-3725a30.033,30.033,0,0,0,30-30,30.034,30.034,0,0,0-30-30,29.869,29.869,0,0,0-23.438,11.275l-7.105-7.1A39.95,39.95,0,0,1-4182.457-3795a40.046,40.046,0,0,1,40,40,40.046,40.046,0,0,1-40,40A39.946,39.946,0,0,1-4213-3729.171Z" transform="translate(-9111.545 8511)"/>
</svg>
