<svg xmlns="http://www.w3.org/2000/svg" xmlns:xlink="http://www.w3.org/1999/xlink" viewBox="-10507.871 5500 20 20">
  <defs>
    <style>
      .cls-1 {
        fill: #f2f2f2;
      }

      .cls-2 {
        clip-path: url(#clip-path);
      }

      .cls-3 {
        fill: #3e97db;
      }
    </style>
    <clipPath id="clip-path">
      <rect id="Rectangle_248" data-name="Rectangle 248" class="cls-1" width="20" height="20" transform="translate(0 0)"/>
    </clipPath>
  </defs>
  <g id="Mask_Group_61" data-name="Mask Group 61" class="cls-2" transform="translate(-10507.871 5500)">
    <path id="time" class="cls-3" d="M13.287,3.287a10,10,0,1,0,10,10A10.007,10.007,0,0,0,13.287,3.287Zm0,19.31a9.31,9.31,0,1,1,9.31-9.31A9.33,9.33,0,0,1,13.287,22.6Zm5.632-9.655H13.632V6.115a.345.345,0,1,0-.69,0v7.172a.354.354,0,0,0,.345.345H18.92a.345.345,0,0,0,0-.69Z" transform="translate(-3.287 -3.287)"/>
  </g>
</svg>
