<svg xmlns="http://www.w3.org/2000/svg" viewBox="2753 2729.5 27 24">
  <defs>
    <style>
      .cls-1 {
        fill: none;
        stroke: #fff;
      }
    </style>
  </defs>
  <path id="ic_business_center_24px" class="cls-1" d="M12.4,19.611V18.333H3.313L3.3,23.444A2.569,2.569,0,0,0,5.9,26H24.1a2.569,2.569,0,0,0,2.6-2.556V18.333H17.6v1.278Zm13-11.5H20.187V5.556L17.587,3h-5.2l-2.6,2.556V8.111H4.6A2.586,2.586,0,0,0,2,10.667V14.5a2.569,2.569,0,0,0,2.6,2.556h7.8V14.5h5.2v2.556h7.8A2.586,2.586,0,0,0,28,14.5V10.667A2.586,2.586,0,0,0,25.4,8.111Zm-7.8,0H12.4V5.556h5.2Z" transform="translate(2751.5 2727)"/>
</svg>
