<svg xmlns="http://www.w3.org/2000/svg" viewBox="3142 2734.5 27 20">
  <defs>
    <style>
      .cls-1 {
        fill: none;
        stroke: #fff;
      }
    </style>
  </defs>
  <path id="ic_supervisor_account_24px" class="cls-1" d="M20.85,14.5a3.314,3.314,0,0,0,3.237-3.393,3.247,3.247,0,1,0-6.487,0A3.325,3.325,0,0,0,20.85,14.5ZM11.1,13.143a3.972,3.972,0,0,0,3.887-4.071A3.972,3.972,0,0,0,11.1,5,3.983,3.983,0,0,0,7.2,9.071,3.983,3.983,0,0,0,11.1,13.143Zm9.75,4.071c-2.379,0-7.15,1.249-7.15,3.732V24H28V20.946C28,18.463,23.229,17.214,20.85,17.214ZM11.1,15.857c-3.029,0-9.1,1.588-9.1,4.75V24h9.1V20.946c0-1.154.429-3.176,3.081-4.709A15.326,15.326,0,0,0,11.1,15.857Z" transform="translate(3140.5 2730)"/>
</svg>
