<svg xmlns="http://www.w3.org/2000/svg" viewBox="2752.783 2867.302 27.429 27.198">
  <defs>
    <style>
      .cls-1 {
        fill: none;
        stroke: #fff;
      }
    </style>
  </defs>
  <path id="ic_access_alarms_24px" class="cls-1" d="M28,6.82,22.02,1.8,20.33,3.731l5.98,5.02ZM9.67,3.859,7.98,1.929,2,6.82,3.69,8.75,9.67,3.859ZM15.65,9.78H13.7V17.5l6.11,3.733,1.04-1.545L15.65,16.6ZM15,4.632A11.585,11.585,0,1,0,15,27.8,11.585,11.585,0,1,0,15,4.632Zm0,20.594a9.01,9.01,0,1,1,0-18.02,9.01,9.01,0,1,1,0,18.02Z" transform="translate(2751.5 2866.2)"/>
</svg>
