<svg xmlns="http://www.w3.org/2000/svg" viewBox="3142 2868 26 26">
  <defs>
    <style>
      .cls-1 {
        fill: #fff;
      }
    </style>
  </defs>
  <path id="suit" class="cls-1" d="M15.465,7a.3.3,0,0,0-.236.113c-.042.052-1.483,2.06-1.483,2.06s-6.558,2.986-6.6,3.014A.3.3,0,0,0,7,12.442a.284.284,0,0,0,.009.085c.038.124,6.047,20.246,6.047,20.246a.32.32,0,0,0,.293.227h13.3a.32.32,0,0,0,.293-.227s6.009-20.122,6.047-20.246A.285.285,0,0,0,33,12.442a.3.3,0,0,0-.142-.255c-.046-.028-6.6-3.014-6.6-3.014s-1.441-2.008-1.483-2.06A.3.3,0,0,0,24.535,7a.29.29,0,0,0-.179.057c-.073.055-4.355,2.9-4.355,2.9s-4.282-2.845-4.355-2.9A.291.291,0,0,0,15.465,7Zm.076.709,4,2.674L17.572,12.6,14.35,9.371Zm8.919,0,1.19,1.663L22.428,12.6l-1.965-2.22ZM13.321,10.042l-2.664,5.584a.314.314,0,0,0,.123.4l1.852,1.058-1.058,1.852a.309.309,0,0,0,0,.312L19.48,32.4l-5.9-.009L7.671,12.6Zm13.359,0,5.65,2.56-5.9,19.783-5.9.009,7.908-13.151a.309.309,0,0,0,0-.312l-1.058-1.852,1.852-1.058a.314.314,0,0,0,.123-.4Zm-12.811.246,5.319,20.454-7.01-11.658L13.3,17.118a.314.314,0,0,0-.1-.416l-1.88-1.068Zm12.263,0,2.551,5.347L26.8,16.7a.314.314,0,0,0-.1.416l1.124,1.965-7.01,11.658Zm-11.6.123,2.834,2.844a.315.315,0,0,0,.444-.009L20,10.779l2.192,2.466a.315.315,0,0,0,.444.009l2.834-2.844L20,31.488Z" transform="translate(3135 2861)"/>
</svg>
